<svg xmlns="http://www.w3.org/2000/svg" width="24in" height="15.99in" viewBox="0 0 1728 1151">
  <defs>
    <style>
      .cls-1, .cls-7 {
        fill: #fff;
      }

      .cls-1 {
        opacity: 0.7;
      }

      .cls-11, .cls-12, .cls-2 {
        fill: none;
      }

      .cls-11, .cls-12, .cls-2, .cls-4, .cls-5, .cls-6 {
        stroke: #231f20;
      }

      .cls-10, .cls-11, .cls-12, .cls-2, .cls-4, .cls-5, .cls-6, .cls-8 {
        stroke-miterlimit: 10;
      }

      .cls-2 {
        stroke-width: 0.75px;
      }

      .cls-3 {
        fill: #302a2b;
      }

      .cls-4 {
        fill: #d76b7d;
      }

      .cls-10, .cls-4, .cls-5, .cls-6, .cls-8 {
        stroke-width: 0.5px;
      }

      .cls-5 {
        fill: #f8e69a;
      }

      .cls-6 {
        fill: #74bc69;
      }

      .cls-8 {
        fill: #f9f4de;
      }

      .cls-10, .cls-8 {
        stroke: #a7a9ac;
      }

      .cls-9 {
        fill: #d6d6d6;
      }

      .cls-10 {
        fill: #e1efdf;
      }

      .cls-12 {
        stroke-width: 2px;
      }
    </style>
  </defs>
  <g id="Wall">
    <polyline id="c-1" class="cls-2" points="748.67 419.5 218.55 195.3 53.05 195.3"/>
    <g id="t-1.1">
      <path class="cls-3" d="M53.9,170.59h5.82c4.8,0,8.13,3.34,8.13,8.59s-3.25,8.9-8.16,8.9H53.9Zm1.4,16.2h4.19c4.6,0,6.85-3.23,6.85-7.54,0-3.82-2-7.38-6.85-7.38H55.3Z"/>
      <path class="cls-3" d="M88.92,179.21c0,4.77-2.56,9.12-8,9.12-4.93,0-7.81-4-7.81-9s2.78-9,8-9C85.94,170.34,88.92,174.1,88.92,179.21Zm-14.27,0c0,4,2.21,7.78,6.39,7.78,4.49,0,6.38-3.68,6.38-7.81s-2.13-7.61-6.34-7.61C76.62,171.62,74.65,175.32,74.65,179.26Z"/>
      <path class="cls-3" d="M110.38,180.06c0-3.41,0-6.69.1-8.44h-.08c-.7,2.38-4.21,10.94-6.42,16.46h-1.37c-1.66-4.29-5.29-13.82-6.09-16.49h0c.12,2,.17,6.07.17,9.07v7.42H95.25V170.59h2.1c2.37,6,5.37,13.76,6,15.75h0c.4-1.3,3.87-10,6.3-15.75h2.07v17.49h-1.4Z"/>
      <path class="cls-3" d="M134.55,180.06c0-3.41,0-6.69.1-8.44h-.07c-.7,2.38-4.21,10.94-6.43,16.46h-1.36c-1.67-4.29-5.3-13.82-6.1-16.49h0c.13,2,.18,6.07.18,9.07v7.42h-1.4V170.59h2.1c2.38,6,5.37,13.76,6,15.75h0c.4-1.3,3.86-10,6.29-15.75H136v17.49h-1.4Z"/>
      <path class="cls-3" d="M145.18,182.07l-2.21,6h-1.42L148,170.59h1.66l6.69,17.49h-1.53l-2.25-6Zm6.89-1.29c-1.93-5.16-2.93-7.66-3.28-8.84h0c-.42,1.33-1.54,4.42-3.1,8.84Z"/>
      <path class="cls-3" d="M175.15,188.08H174a13.3,13.3,0,0,1-.18-2.78c-.63,1.2-2,3-5.63,3-5,0-7.6-3.82-7.6-8.8,0-5.22,2.75-9.14,7.88-9.14,3.79,0,6.29,2,6.84,5.2h-1.4c-.74-2.45-2.45-3.92-5.49-3.92-4.35,0-6.33,3.39-6.33,7.79,0,4,1.91,7.58,6.16,7.58s5.56-2.83,5.56-6.66v-.2h-5.61v-1.29h7Z"/>
      <path class="cls-3" d="M192.48,179.5h-8.91v7.29h9.76l-.21,1.29h-11V170.59h10.76v1.29h-9.36v6.33h8.91Z"/>
      <path class="cls-3" d="M199.6,183.37c.52,2.31,2.06,3.67,4.92,3.67,3.17,0,4.39-1.58,4.39-3.47s-.88-3.17-4.7-4.11-5.32-2.14-5.32-4.66c0-2.32,1.69-4.46,5.45-4.46s5.49,2.35,5.72,4.48h-1.45c-.4-1.86-1.61-3.2-4.35-3.2-2.5,0-3.87,1.16-3.87,3.1s1.15,2.65,4.36,3.44c4.93,1.23,5.66,3.2,5.66,5.31,0,2.58-1.89,4.81-5.95,4.81-4.37,0-6-2.54-6.31-4.91Z"/>
      <path class="cls-3" d="M151.88,210.06c0-3.41,0-6.69.1-8.44h-.08c-.7,2.38-4.21,10.94-6.42,16.46h-1.37c-1.66-4.29-5.29-13.82-6.09-16.49H138c.12,2,.17,6.07.17,9.07v7.42h-1.39V200.59h2.1c2.37,6,5.37,13.76,6,15.75h0c.4-1.3,3.87-10,6.3-15.75h2.07v17.49h-1.4Z"/>
      <path class="cls-3" d="M162.27,200.59v10.59c0,4.62,2.6,5.81,5.06,5.81,2.91,0,5.07-1.22,5.07-5.81V200.59h1.42V211.1c0,5.48-2.91,7.18-6.53,7.18-3.46,0-6.47-1.87-6.47-7V200.59Z"/>
      <path class="cls-3" d="M182.62,209.93v8.15H181.2V200.59h6.3c3.45,0,5.28,1.85,5.28,4.6a4,4,0,0,1-3.25,4.1c1.77.42,3,1.59,3,4.56v.68a11.85,11.85,0,0,0,.22,3.55h-1.42a11.89,11.89,0,0,1-.25-3.66V214c0-2.86-.84-4-4.18-4Zm0-1.29h4.2c3.05,0,4.46-1.14,4.46-3.42,0-2.13-1.39-3.35-4.09-3.35h-4.57Z"/>
      <path class="cls-3" d="M199.6,213.37c.52,2.31,2.06,3.67,4.92,3.67,3.17,0,4.39-1.58,4.39-3.47s-.88-3.17-4.7-4.11-5.32-2.14-5.32-4.66c0-2.32,1.69-4.46,5.45-4.46s5.49,2.35,5.72,4.48h-1.45c-.4-1.86-1.61-3.2-4.35-3.2-2.5,0-3.87,1.16-3.87,3.1s1.15,2.65,4.36,3.44c4.93,1.23,5.66,3.2,5.66,5.31,0,2.58-1.89,4.81-5.95,4.81-4.37,0-6-2.54-6.31-4.91Z"/>
    </g>
    <rect id="r-1.1" class="cls-4" x="76.87" y="244.14" width="32.71" height="32.71"/>
    <g id="s-1.1">
      <path class="cls-3" d="M132.47,255.05h1.12v6.09h8.34v-6.09h1.13v14h-1.13v-6.88h-8.34v6.88h-1.12Z"/>
      <path class="cls-3" d="M150.48,264.25l-1.77,4.8h-1.14l5.13-14H154l5.35,14h-1.22l-1.81-4.8Zm5.51-1c-1.54-4.14-2.34-6.14-2.62-7.08h0c-.34,1.07-1.24,3.54-2.49,7.08Z"/>
      <path class="cls-3" d="M164.35,255.05v8.48c0,3.7,2.09,4.65,4.06,4.65,2.32,0,4.05-1,4.05-4.65v-8.48h1.14v8.42c0,4.39-2.33,5.74-5.23,5.74s-5.18-1.49-5.18-5.56v-8.6Z"/>
      <path class="cls-3" d="M182.43,256.09h-4.69v-1h10.54v1h-4.71v13h-1.14Z"/>
    </g>
    <rect id="r-2.1" class="cls-5" x="76.87" y="284.14" width="32.71" height="32.71"/>
    <g id="s-2.1">
      <path class="cls-3" d="M144.58,302.63c0-2.73,0-5.35.08-6.75h-.06c-.56,1.9-3.37,8.75-5.14,13.17h-1.09c-1.33-3.43-4.24-11.06-4.88-13.19h0c.1,1.6.14,4.85.14,7.25v5.94h-1.12v-14h1.68c1.91,4.77,4.3,11,4.82,12.61h0c.32-1,3.09-8,5-12.61h1.66v14h-1.12Z"/>
      <path class="cls-3" d="M163.4,302c0,3.82-2.05,7.3-6.37,7.3-3.95,0-6.25-3.18-6.25-7.2s2.22-7.2,6.39-7.2C161,294.85,163.4,297.87,163.4,302ZM152,302c0,3.21,1.77,6.23,5.11,6.23,3.6,0,5.1-3,5.1-6.25s-1.7-6.09-5.07-6.09C153.55,295.88,152,298.84,152,302Z"/>
      <path class="cls-3" d="M171.43,309.05v-5.26a.68.68,0,0,0-.08-.32l-5-8.42h1.3c1.39,2.37,3.81,6.48,4.41,7.53.6-1,3-5.12,4.53-7.53h1.25l-5.22,8.5a.61.61,0,0,0-.06.3v5.2Z"/>
      <path class="cls-3" d="M190,302.19h-7.13V308h7.81l-.16,1h-8.77v-14h8.61v1h-7.49v5.08H190Z"/>
      <path class="cls-3" d="M195.45,309.05v-14h1.65c2.17,3.35,7.25,11.13,8.12,12.65h0c-.12-2-.1-4.08-.1-6.36v-6.29h1.14v14h-1.53c-2.06-3.23-7.23-11.34-8.22-12.88h0c.1,1.83.08,3.89.08,6.43v6.45Z"/>
    </g>
    <rect id="r-3.1" class="cls-6" x="76.87" y="324.13" width="32.71" height="32.71"/>
    <g id="s-3.1">
      <path class="cls-3" d="M132.47,335h4.91c2.69,0,4.13,1.43,4.13,3.45a3,3,0,0,1-2.15,3.06A3.53,3.53,0,0,1,142,345c0,2.79-2.1,4-4.55,4h-5Zm4.55,6c2.4,0,3.31-.89,3.31-2.5,0-1.37-1-2.48-2.9-2.48h-3.86v5Zm-3.45,7h3.92c1.83,0,3.36-.91,3.36-2.95,0-1.77-1.14-3-3.93-3h-3.35Z"/>
      <path class="cls-3" d="M148.58,344.24l-1.77,4.8h-1.14l5.13-14h1.34l5.35,14h-1.22l-1.81-4.8Zm5.51-1c-1.54-4.14-2.34-6.14-2.62-7.08h0c-.34,1.06-1.24,3.54-2.49,7.08Z"/>
      <path class="cls-3" d="M162.19,345.27c.42,1.86,1.66,2.94,3.94,2.94,2.54,0,3.51-1.26,3.51-2.77s-.69-2.54-3.76-3.3-4.25-1.71-4.25-3.73c0-1.85,1.35-3.57,4.36-3.57s4.39,1.89,4.57,3.59H169.4c-.31-1.48-1.28-2.56-3.47-2.56-2,0-3.1.93-3.1,2.48s.91,2.12,3.49,2.76c3.94,1,4.53,2.56,4.53,4.24,0,2.07-1.51,3.85-4.76,3.85-3.5,0-4.8-2-5.06-3.93Z"/>
    </g>
    <rect id="b-1" class="cls-7" x="69.67" y="233.47" width="165.1" height="132.73"/>
    <rect id="r-4.1" class="cls-4" x="74.25" y="242.33" width="37.7" height="37.7"/>
    <g id="s-4.1">
      <path class="cls-3" d="M132.47,255.05h1.12v6.09h8.34v-6.09h1.13v14h-1.13v-6.88h-8.34v6.88h-1.12Z"/>
      <path class="cls-3" d="M150.48,264.25l-1.77,4.8h-1.14l5.13-14H154l5.35,14h-1.22l-1.81-4.8Zm5.51-1c-1.54-4.14-2.34-6.14-2.62-7.08h0c-.34,1.07-1.24,3.54-2.49,7.08Z"/>
      <path class="cls-3" d="M164.35,255.05v8.48c0,3.7,2.09,4.65,4.06,4.65,2.32,0,4.05-1,4.05-4.65v-8.48h1.14v8.42c0,4.39-2.33,5.74-5.23,5.74s-5.18-1.49-5.18-5.56v-8.6Z"/>
      <path class="cls-3" d="M182.43,256.09h-4.69v-1h10.54v1h-4.71v13h-1.14Z"/>
    </g>
    <rect id="r-5.1" class="cls-8" x="76.89" y="284.15" width="32.71" height="32.71"/>
    <g id="s-5.1">
      <path class="cls-9" d="M144.61,302.65c0-2.73,0-5.36.08-6.76h-.06c-.56,1.9-3.37,8.75-5.14,13.17h-1.1c-1.33-3.43-4.24-11.06-4.88-13.19h0c.1,1.6.14,4.85.14,7.25v5.94H132.5v-14h1.68c1.9,4.78,4.3,11,4.81,12.61h0c.32-1,3.1-8,5-12.61h1.66v14h-1.12Z"/>
      <path class="cls-9" d="M163.42,302c0,3.83-2,7.3-6.37,7.3-4,0-6.25-3.18-6.25-7.2s2.23-7.2,6.39-7.2C161,294.86,163.42,297.88,163.42,302ZM152,302c0,3.21,1.77,6.23,5.11,6.23,3.6,0,5.11-2.94,5.11-6.25s-1.71-6.09-5.07-6.09C153.57,295.89,152,298.85,152,302Z"/>
      <path class="cls-9" d="M171.46,309.06v-5.25a.68.68,0,0,0-.08-.32l-5-8.43h1.31c1.39,2.38,3.81,6.49,4.41,7.54.6-1.05,3-5.12,4.53-7.54h1.24l-5.21,8.5a.63.63,0,0,0-.06.31v5.19Z"/>
      <path class="cls-9" d="M190.05,302.2h-7.13V308h7.81l-.17,1H181.8v-14h8.61v1h-7.49v5.07h7.13Z"/>
      <path class="cls-9" d="M195.48,309.06v-14h1.64c2.17,3.36,7.25,11.13,8.13,12.65h0c-.12-2-.1-4.07-.1-6.35v-6.3h1.13v14h-1.52l-8.23-12.87h0c.1,1.82.08,3.88.08,6.42v6.45Z"/>
    </g>
    <rect id="r-6.1" class="cls-10" x="76.89" y="324.07" width="32.64" height="33"/>
    <g id="s-6.1">
      <path class="cls-9" d="M132.5,335.05h4.9c2.7,0,4.13,1.43,4.13,3.44a3,3,0,0,1-2.15,3.06A3.53,3.53,0,0,1,142,345c0,2.8-2.09,4.05-4.54,4.05h-5Zm4.54,6c2.4,0,3.32-.9,3.32-2.5,0-1.37-1-2.48-2.9-2.48H133.6v5Zm-3.44,7h3.91c1.84,0,3.36-.92,3.36-3,0-1.76-1.13-3-3.93-3H133.6Z"/>
      <path class="cls-9" d="M148.6,344.24l-1.76,4.81H145.7l5.13-14h1.33l5.35,14h-1.22l-1.81-4.81Zm5.52-1c-1.55-4.13-2.35-6.13-2.63-7.08h0c-.34,1.07-1.23,3.54-2.48,7.08Z"/>
      <path class="cls-9" d="M162.22,345.28c.42,1.85,1.65,2.94,3.94,2.94,2.54,0,3.51-1.27,3.51-2.77s-.7-2.54-3.76-3.3-4.26-1.71-4.26-3.73c0-1.85,1.35-3.57,4.36-3.57s4.4,1.88,4.58,3.59h-1.16c-.32-1.49-1.29-2.56-3.48-2.56-2,0-3.09.93-3.09,2.47s.91,2.13,3.48,2.77c3.94,1,4.53,2.55,4.53,4.24,0,2.07-1.51,3.85-4.76,3.85-3.5,0-4.79-2-5.05-3.93Z"/>
    </g>
    <path id="w-1" class="cls-11" d="M496.31,506.94c12.44-6,30.89-14.29,53.87-22.73,32.74-12,61.46-22.58,100.15-26.09,18.65-1.69,43.62-3.75,74.91,3.37a210.06,210.06,0,0,1,78.27,36.19l-255,48h-9.25l.84-8.42,60.6-12.62-12.63-15.15Z"/>
    <polygon id="w-2" class="cls-12" points="605.74 399.41 1093.21 464.84 1093.21 501.07 605.74 450.24 605.74 399.41"/>
    <polygon id="w-3" class="cls-12" points="293.65 437.6 602.96 460.58 602.96 523.49 293.65 508.71 293.65 437.6"/>
  </g>
</svg>
