<svg xmlns="http://www.w3.org/2000/svg" width="24in" height="15.99in" viewBox="0 0 1728 1151">
  <defs>
    <style>
      .cls-1, .cls-10, .cls-12 {
        fill: none;
      }

      .cls-1, .cls-10, .cls-12, .cls-3, .cls-4, .cls-5 {
        stroke: #231f20;
      }

      .cls-1, .cls-10, .cls-11, .cls-12, .cls-3, .cls-4, .cls-5, .cls-7, .cls-9 {
        stroke-miterlimit: 10;
      }

      .cls-1 {
        stroke-width: 0.75px;
      }

      .cls-2 {
        fill: #302a2b;
      }

      .cls-3 {
        fill: #d76b7d;
      }

      .cls-11, .cls-3, .cls-4, .cls-5, .cls-7, .cls-9 {
        stroke-width: 0.5px;
      }

      .cls-4 {
        fill: #f8e69a;
      }

      .cls-5 {
        fill: #74bc69;
      }

      .cls-6 {
        fill: #fff;
      }

      .cls-7 {
        fill: #f9f4de;
      }

      .cls-11, .cls-7, .cls-9 {
        stroke: #a7a9ac;
      }

      .cls-8 {
        fill: #d6d6d6;
      }

      .cls-9 {
        fill: #e1efdf;
      }

      .cls-10 {
        stroke-width: 2px;
      }

      .cls-11 {
        fill: #e2b7c0;
      }
    </style>
  </defs>
  <g id="Roof">
    <polyline id="c-1" class="cls-1" points="423.36 483.32 218.55 390.92 53.05 390.92"/>
    <g id="t-1.1">
      <path class="cls-2" d="M53.9,366.2h5.82c4.8,0,8.13,3.35,8.13,8.6s-3.25,8.89-8.16,8.89H53.9Zm1.4,16.2h4.19c4.6,0,6.85-3.23,6.85-7.53,0-3.83-2-7.38-6.85-7.38H55.3Z"/>
      <path class="cls-2" d="M88.92,374.82c0,4.78-2.56,9.12-8,9.12-4.93,0-7.81-4-7.81-9s2.78-9,8-9C85.94,366,88.92,369.72,88.92,374.82Zm-14.27.05c0,4,2.21,7.78,6.39,7.78,4.49,0,6.38-3.68,6.38-7.8s-2.13-7.61-6.34-7.61C76.62,367.24,74.65,370.94,74.65,374.87Z"/>
      <path class="cls-2" d="M110.38,375.68c0-3.42,0-6.69.1-8.44h-.08c-.7,2.37-4.21,10.93-6.42,16.45h-1.37c-1.66-4.28-5.29-13.81-6.09-16.48h0c.12,2,.17,6.06.17,9.06v7.42H95.25V366.2h2.1c2.37,6,5.37,13.77,6,15.76h0c.4-1.3,3.87-10,6.3-15.76h2.07v17.49h-1.4Z"/>
      <path class="cls-2" d="M134.55,375.68c0-3.42,0-6.69.1-8.44h-.07c-.7,2.37-4.21,10.93-6.43,16.45h-1.36c-1.67-4.28-5.3-13.81-6.1-16.48h0c.13,2,.18,6.06.18,9.06v7.42h-1.4V366.2h2.1c2.38,6,5.37,13.77,6,15.76h0c.4-1.3,3.86-10,6.29-15.76H136v17.49h-1.4Z"/>
      <path class="cls-2" d="M145.18,377.69l-2.21,6h-1.42L148,366.2h1.66l6.69,17.49h-1.53l-2.25-6Zm6.89-1.29c-1.93-5.17-2.93-7.66-3.28-8.84h0c-.42,1.33-1.54,4.42-3.1,8.84Z"/>
      <path class="cls-2" d="M175.15,383.69H174a13.25,13.25,0,0,1-.18-2.77c-.63,1.2-2,3-5.63,3-5,0-7.6-3.82-7.6-8.79,0-5.22,2.75-9.15,7.88-9.15,3.79,0,6.29,2,6.84,5.21h-1.4c-.74-2.45-2.45-3.92-5.49-3.92-4.35,0-6.33,3.39-6.33,7.78,0,4,1.91,7.59,6.16,7.59s5.56-2.84,5.56-6.66v-.2h-5.61v-1.29h7Z"/>
      <path class="cls-2" d="M192.48,375.12h-8.91v7.28h9.76l-.21,1.29h-11V366.2h10.76v1.29h-9.36v6.34h8.91Z"/>
      <path class="cls-2" d="M199.6,379c.52,2.31,2.06,3.67,4.92,3.67,3.17,0,4.39-1.58,4.39-3.47s-.88-3.17-4.7-4.12-5.32-2.14-5.32-4.66c0-2.31,1.69-4.46,5.45-4.46s5.49,2.35,5.72,4.49h-1.45c-.4-1.86-1.61-3.21-4.35-3.21-2.5,0-3.87,1.17-3.87,3.1s1.15,2.65,4.36,3.45c4.93,1.22,5.66,3.2,5.66,5.3,0,2.59-1.89,4.81-5.95,4.81-4.37,0-6-2.54-6.31-4.9Z"/>
      <path class="cls-2" d="M158.72,397.49h-5.86V396.2H166v1.29h-5.89v16.2h-1.42Z"/>
      <path class="cls-2" d="M185.37,404.82c0,4.78-2.56,9.12-8,9.12-4.93,0-7.81-4-7.81-9s2.78-9,8-9C182.39,396,185.37,399.72,185.37,404.82Zm-14.27.05c0,4,2.21,7.78,6.39,7.78,4.49,0,6.38-3.68,6.38-7.8s-2.13-7.61-6.34-7.61C173.07,397.24,171.1,400.94,171.1,404.87Z"/>
      <path class="cls-2" d="M193.1,396.2v17.49h-1.4V396.2Z"/>
      <path class="cls-2" d="M204.22,397.49h-5.86V396.2h13.17v1.29h-5.89v16.2h-1.42Z"/>
    </g>
    <rect id="r-1.3" class="cls-3" x="76.87" y="439.76" width="32.71" height="32.71"/>
    <g id="s-1.3">
      <path class="cls-2" d="M132.47,450.67h1.12v6.09h8.34v-6.09h1.13v14h-1.13v-6.88h-8.34v6.88h-1.12Z"/>
      <path class="cls-2" d="M150.48,459.86l-1.77,4.81h-1.14l5.13-14H154l5.35,14h-1.22l-1.81-4.81Zm5.51-1c-1.54-4.13-2.34-6.13-2.62-7.08h0c-.34,1.07-1.24,3.54-2.49,7.08Z"/>
      <path class="cls-2" d="M164.35,450.67v8.48c0,3.69,2.09,4.65,4.06,4.65,2.32,0,4.05-1,4.05-4.65v-8.48h1.14v8.41c0,4.39-2.33,5.75-5.23,5.75s-5.18-1.5-5.18-5.57v-8.59Z"/>
      <path class="cls-2" d="M182.43,451.7h-4.69v-1h10.54v1h-4.71v13h-1.14Z"/>
    </g>
    <rect id="r-2.3" class="cls-4" x="76.87" y="479.76" width="32.71" height="32.71"/>
    <g id="s-2.3">
      <path class="cls-2" d="M144.58,498.25c0-2.73,0-5.35.08-6.76h-.06c-.56,1.9-3.37,8.76-5.14,13.17h-1.09c-1.33-3.42-4.24-11.05-4.88-13.19h0c.1,1.6.14,4.86.14,7.26v5.93h-1.12v-14h1.68c1.91,4.77,4.3,11,4.82,12.6h0c.32-1,3.09-8,5-12.6h1.66v14h-1.12Z"/>
      <path class="cls-2" d="M163.4,497.57c0,3.82-2.05,7.29-6.37,7.29-3.95,0-6.25-3.18-6.25-7.19s2.22-7.2,6.39-7.2C161,490.47,163.4,493.48,163.4,497.57Zm-11.42,0c0,3.21,1.77,6.23,5.11,6.23,3.6,0,5.1-2.94,5.1-6.24s-1.7-6.09-5.07-6.09C153.55,491.5,152,494.45,152,497.6Z"/>
      <path class="cls-2" d="M171.43,504.66v-5.25a.68.68,0,0,0-.08-.32l-5-8.42h1.3c1.39,2.37,3.81,6.48,4.41,7.53.6-1.05,3-5.12,4.53-7.53h1.25l-5.22,8.5a.61.61,0,0,0-.06.3v5.19Z"/>
      <path class="cls-2" d="M190,497.8h-7.13v5.83h7.81l-.16,1h-8.77v-14h8.61v1h-7.49v5.07H190Z"/>
      <path class="cls-2" d="M195.45,504.66v-14h1.65c2.17,3.35,7.25,11.12,8.12,12.64h0c-.12-2-.1-4.07-.1-6.35v-6.29h1.14v14h-1.53c-2.06-3.22-7.23-11.33-8.22-12.87h0c.1,1.83.08,3.88.08,6.42v6.45Z"/>
    </g>
    <rect id="r-3.3" class="cls-5" x="76.87" y="519.75" width="32.71" height="32.71"/>
    <g id="s-3.3">
      <path class="cls-2" d="M132.47,530.66h4.91c2.69,0,4.13,1.43,4.13,3.44a3,3,0,0,1-2.15,3.06,3.53,3.53,0,0,1,2.65,3.46c0,2.79-2.1,4-4.55,4h-5Zm4.55,6c2.4,0,3.31-.9,3.31-2.5,0-1.37-1-2.48-2.9-2.48h-3.86v5Zm-3.45,7h3.92c1.83,0,3.36-.92,3.36-3,0-1.76-1.14-3-3.93-3h-3.35Z"/>
      <path class="cls-2" d="M148.58,539.85l-1.77,4.81h-1.14l5.13-14h1.34l5.35,14h-1.22l-1.81-4.81Zm5.51-1c-1.54-4.13-2.34-6.13-2.62-7.08h0c-.34,1.07-1.24,3.54-2.49,7.08Z"/>
      <path class="cls-2" d="M162.19,540.89c.42,1.85,1.66,2.94,3.94,2.94,2.54,0,3.51-1.27,3.51-2.77s-.69-2.54-3.76-3.3-4.25-1.71-4.25-3.73c0-1.85,1.35-3.57,4.36-3.57s4.39,1.88,4.57,3.59H169.4c-.31-1.49-1.28-2.56-3.47-2.56-2,0-3.1.93-3.1,2.47s.91,2.13,3.49,2.77c3.94,1,4.53,2.55,4.53,4.24,0,2.07-1.51,3.85-4.76,3.85-3.5,0-4.8-2-5.06-3.93Z"/>
    </g>
    <rect id="b-3" class="cls-6" x="69.67" y="429.08" width="165.1" height="132.73"/>
    <rect id="r-4.3" class="cls-3" x="74.25" y="437.95" width="37.7" height="37.7"/>
    <g id="s-4.3">
      <path class="cls-2" d="M132.47,450.67h1.12v6.09h8.34v-6.09h1.13v14h-1.13v-6.88h-8.34v6.88h-1.12Z"/>
      <path class="cls-2" d="M150.48,459.86l-1.77,4.81h-1.14l5.13-14H154l5.35,14h-1.22l-1.81-4.81Zm5.51-1c-1.54-4.13-2.34-6.13-2.62-7.08h0c-.34,1.07-1.24,3.54-2.49,7.08Z"/>
      <path class="cls-2" d="M164.35,450.67v8.48c0,3.69,2.09,4.65,4.06,4.65,2.32,0,4.05-1,4.05-4.65v-8.48h1.14v8.41c0,4.39-2.33,5.75-5.23,5.75s-5.18-1.5-5.18-5.57v-8.59Z"/>
      <path class="cls-2" d="M182.43,451.7h-4.69v-1h10.54v1h-4.71v13h-1.14Z"/>
    </g>
    <rect id="r-5.3" class="cls-7" x="76.89" y="479.77" width="32.71" height="32.71"/>
    <g id="s-5.3">
      <path class="cls-8" d="M144.61,498.26c0-2.73,0-5.35.08-6.75h-.06c-.56,1.9-3.37,8.75-5.14,13.17h-1.1c-1.33-3.43-4.24-11.06-4.88-13.19h0c.1,1.6.14,4.85.14,7.25v5.94H132.5v-14h1.68c1.9,4.77,4.3,11,4.81,12.61h0c.32-1,3.1-8,5-12.61h1.66v14h-1.12Z"/>
      <path class="cls-8" d="M163.42,497.58c0,3.82-2,7.3-6.37,7.3-4,0-6.25-3.18-6.25-7.2s2.23-7.2,6.39-7.2C161,490.48,163.42,493.5,163.42,497.58Zm-11.42,0c0,3.21,1.77,6.23,5.11,6.23,3.6,0,5.11-3,5.11-6.25s-1.71-6.09-5.07-6.09C153.57,491.51,152,494.47,152,497.62Z"/>
      <path class="cls-8" d="M171.46,504.68v-5.26a.68.68,0,0,0-.08-.32l-5-8.42h1.31c1.39,2.37,3.81,6.48,4.41,7.53.6-1,3-5.12,4.53-7.53h1.24l-5.21,8.5a.61.61,0,0,0-.06.3v5.2Z"/>
      <path class="cls-8" d="M190.05,497.82h-7.13v5.83h7.81l-.17,1H181.8v-14h8.61v1h-7.49v5.08h7.13Z"/>
      <path class="cls-8" d="M195.48,504.68v-14h1.64c2.17,3.35,7.25,11.13,8.13,12.65h0c-.12-2-.1-4.08-.1-6.36v-6.29h1.13v14h-1.52l-8.23-12.88h0c.1,1.83.08,3.89.08,6.43v6.45Z"/>
    </g>
    <rect id="r-6.3" class="cls-9" x="76.89" y="519.69" width="32.64" height="33"/>
    <g id="s-6.3">
      <path class="cls-8" d="M132.5,530.67h4.9c2.7,0,4.13,1.42,4.13,3.44a3,3,0,0,1-2.15,3.06,3.53,3.53,0,0,1,2.65,3.45c0,2.79-2.09,4-4.54,4h-5Zm4.54,6c2.4,0,3.32-.89,3.32-2.5,0-1.37-1-2.48-2.9-2.48H133.6v5Zm-3.44,7h3.91c1.84,0,3.36-.92,3.36-3,0-1.77-1.13-3-3.93-3H133.6Z"/>
      <path class="cls-8" d="M148.6,539.86l-1.76,4.8H145.7l5.13-14h1.33l5.35,14h-1.22l-1.81-4.8Zm5.52-1c-1.55-4.14-2.35-6.13-2.63-7.08h0c-.34,1.07-1.23,3.54-2.48,7.08Z"/>
      <path class="cls-8" d="M162.22,540.9c.42,1.85,1.65,2.94,3.94,2.94,2.54,0,3.51-1.27,3.51-2.78s-.7-2.54-3.76-3.29-4.26-1.72-4.26-3.73,1.35-3.57,4.36-3.57,4.4,1.88,4.58,3.58h-1.16c-.32-1.48-1.29-2.56-3.48-2.56-2,0-3.09.93-3.09,2.48s.91,2.12,3.48,2.76c3.94,1,4.53,2.56,4.53,4.24,0,2.07-1.51,3.85-4.76,3.85-3.5,0-4.79-2-5.05-3.92Z"/>
    </g>
    <polygon id="a-1" class="cls-10" points="310.41 576.3 310.41 544.66 346.13 483.32 365.78 441.02 365.78 419.58 390.2 372.54 499.76 395.95 585.51 410.65 639.69 420.77 726.63 429.08 726.63 434.68 818.38 448.43 840.54 446.14 851.49 454.55 874.15 477.46 975.16 493.61 975.16 499.51 964.92 502.92 964.92 551.66 959.64 551.35 960.26 565.01 758.55 556.24 734.47 562.26 692.33 553.5 642.78 552.41 593.27 540.91 555.51 549.12 466.3 536.69 443.32 536.69 383.66 551.86 353.02 580.87 340.98 584.15 310.41 576.3"/>
  </g>
  <g id="Wall">
    <polyline id="c-3" class="cls-1" points="1174.45 512.48 1504.38 383.4 1669.88 383.4"/>
    <g id="t-1.3">
      <path class="cls-2" d="M1507.74,360.11h5.82c4.8,0,8.13,3.35,8.13,8.59s-3.25,8.9-8.16,8.9h-5.79Zm1.4,16.2h4.19c4.6,0,6.86-3.23,6.86-7.53,0-3.83-2-7.38-6.86-7.38h-4.19Z"/>
      <path class="cls-2" d="M1542.76,368.73c0,4.77-2.55,9.12-8,9.12-4.93,0-7.81-4-7.81-9s2.79-9,8-9C1539.78,359.86,1542.76,363.63,1542.76,368.73Zm-14.26,0c0,4,2.2,7.78,6.38,7.78,4.5,0,6.38-3.68,6.38-7.81s-2.13-7.6-6.33-7.6C1530.46,361.15,1528.5,364.84,1528.5,368.78Z"/>
      <path class="cls-2" d="M1564.22,369.58c0-3.41,0-6.68.1-8.44h-.07c-.71,2.38-4.22,10.94-6.43,16.46h-1.36c-1.67-4.29-5.3-13.82-6.1-16.48h0c.12,2,.17,6.06.17,9.06v7.42h-1.39V360.11h2.1c2.38,6,5.37,13.76,6,15.75h0c.41-1.29,3.87-10,6.3-15.75h2.07V377.6h-1.4Z"/>
      <path class="cls-2" d="M1588.4,369.58c0-3.41,0-6.68.1-8.44h-.08c-.7,2.38-4.21,10.94-6.42,16.46h-1.37c-1.66-4.29-5.3-13.82-6.1-16.48h0c.13,2,.18,6.06.18,9.06v7.42h-1.4V360.11h2.11c2.37,6,5.36,13.76,6,15.75h0c.4-1.29,3.86-10,6.29-15.75h2.07V377.6h-1.39Z"/>
      <path class="cls-2" d="M1599,371.59l-2.21,6h-1.42l6.41-17.49h1.67l6.68,17.49h-1.53l-2.25-6Zm6.89-1.28c-1.93-5.17-2.93-7.66-3.28-8.85h0c-.43,1.34-1.55,4.43-3.11,8.85Z"/>
      <path class="cls-2" d="M1629,377.6h-1.16a12.93,12.93,0,0,1-.17-2.78c-.64,1.2-2,3-5.64,3-5,0-7.6-3.82-7.6-8.8,0-5.22,2.75-9.14,7.88-9.14,3.79,0,6.29,2,6.84,5.2h-1.4c-.74-2.44-2.45-3.92-5.49-3.92-4.35,0-6.33,3.39-6.33,7.79,0,4,1.91,7.58,6.16,7.58s5.56-2.83,5.56-6.66v-.19H1622v-1.29h7Z"/>
      <path class="cls-2" d="M1646.32,369h-8.91v7.28h9.76l-.2,1.29h-11V360.11h10.76v1.29h-9.36v6.34h8.91Z"/>
      <path class="cls-2" d="M1653.44,372.89c.52,2.31,2.06,3.67,4.92,3.67,3.17,0,4.39-1.58,4.39-3.46s-.87-3.18-4.7-4.12-5.31-2.14-5.31-4.66c0-2.31,1.68-4.46,5.44-4.46s5.49,2.35,5.72,4.48h-1.45c-.4-1.85-1.61-3.2-4.35-3.2-2.5,0-3.86,1.16-3.86,3.1s1.14,2.65,4.35,3.45c4.93,1.22,5.66,3.19,5.66,5.3,0,2.59-1.88,4.81-6,4.81-4.37,0-6-2.54-6.31-4.91Z"/>
      <path class="cls-2" d="M1522.87,399.58c0-3.41,0-6.68.1-8.44h-.07c-.71,2.38-4.22,10.94-6.43,16.46h-1.36c-1.67-4.29-5.3-13.82-6.1-16.48h0c.12,2,.17,6.06.17,9.06v7.42h-1.39V390.11h2.1c2.38,6,5.37,13.76,6,15.75h.05c.4-1.29,3.86-10,6.29-15.75h2.07V407.6h-1.4Z"/>
      <path class="cls-2" d="M1533.26,390.11V400.7c0,4.62,2.61,5.81,5.07,5.81,2.9,0,5.06-1.22,5.06-5.81V390.11h1.43v10.51c0,5.48-2.91,7.18-6.54,7.18-3.46,0-6.47-1.87-6.47-7V390.11Z"/>
      <path class="cls-2" d="M1553.61,399.45v8.15h-1.42V390.11h6.3c3.46,0,5.29,1.85,5.29,4.6a4,4,0,0,1-3.26,4.1c1.78.42,3,1.59,3,4.57v.67a11.85,11.85,0,0,0,.22,3.55h-1.42a11.89,11.89,0,0,1-.25-3.66v-.44c0-2.85-.84-4.05-4.18-4.05Zm0-1.28h4.2c3,0,4.47-1.15,4.47-3.43s-1.39-3.34-4.1-3.34h-4.57Z"/>
      <path class="cls-2" d="M1570.59,402.89c.52,2.31,2.07,3.67,4.92,3.67,3.17,0,4.39-1.58,4.39-3.46s-.87-3.18-4.7-4.12-5.31-2.14-5.31-4.66c0-2.31,1.68-4.46,5.44-4.46s5.49,2.35,5.72,4.48h-1.45c-.4-1.85-1.61-3.2-4.35-3.2-2.5,0-3.86,1.16-3.86,3.1s1.14,2.65,4.35,3.45c4.93,1.22,5.66,3.19,5.66,5.3,0,2.59-1.88,4.81-5.94,4.81-4.38,0-6-2.54-6.32-4.91Z"/>
    </g>
    <rect id="r-1.1" class="cls-3" x="1514.03" y="431.78" width="32.71" height="32.71"/>
    <g id="s-1.1">
      <path class="cls-2" d="M1569.63,442.7h1.12v6.08h8.34V442.7h1.13v14h-1.13v-6.88h-8.34v6.88h-1.12Z"/>
      <path class="cls-2" d="M1587.64,451.89l-1.77,4.81h-1.14l5.13-14h1.34l5.35,14h-1.22l-1.81-4.81Zm5.51-1c-1.54-4.13-2.34-6.13-2.62-7.08h0c-.34,1.07-1.24,3.54-2.49,7.08Z"/>
      <path class="cls-2" d="M1601.51,442.7v8.47c0,3.7,2.09,4.66,4.06,4.66,2.32,0,4-1,4-4.66V442.7h1.14v8.41c0,4.39-2.33,5.75-5.23,5.75s-5.18-1.5-5.18-5.57V442.7Z"/>
      <path class="cls-2" d="M1619.59,443.73h-4.69v-1h10.54v1h-4.71v13h-1.14Z"/>
    </g>
    <rect id="r-2.1" class="cls-4" x="1514.08" y="472.4" width="32.71" height="32.71"/>
    <g id="s-2.1">
      <path class="cls-2" d="M1581.79,490.9c0-2.74,0-5.36.08-6.76h-.06c-.56,1.9-3.37,8.75-5.14,13.17h-1.09c-1.33-3.43-4.24-11.06-4.88-13.19h0c.1,1.6.14,4.85.14,7.25v5.94h-1.12v-14h1.68c1.91,4.78,4.3,11,4.82,12.61h0c.32-1,3.09-8,5-12.61h1.66v14h-1.12Z"/>
      <path class="cls-2" d="M1600.6,490.21c0,3.82-2,7.3-6.37,7.3-3.94,0-6.24-3.18-6.24-7.2s2.22-7.2,6.39-7.2C1598.22,483.11,1600.6,486.13,1600.6,490.21Zm-11.41,0c0,3.21,1.76,6.23,5.1,6.23,3.6,0,5.11-3,5.11-6.25s-1.7-6.09-5.07-6.09C1590.76,484.14,1589.19,487.1,1589.19,490.25Z"/>
      <path class="cls-2" d="M1608.64,497.31v-5.25a.76.76,0,0,0-.08-.33l-5-8.42h1.31c1.39,2.38,3.81,6.49,4.41,7.54.6-1.05,3-5.13,4.53-7.54h1.25l-5.22,8.5a.63.63,0,0,0-.06.31v5.19Z"/>
      <path class="cls-2" d="M1627.23,490.45h-7.13v5.83h7.81l-.16,1H1619v-14h8.61v1h-7.49v5.08h7.13Z"/>
      <path class="cls-2" d="M1632.66,497.31v-14h1.65c2.17,3.36,7.25,11.13,8.12,12.65h0c-.12-2-.1-4.08-.1-6.36v-6.29h1.14v14H1642c-2.07-3.23-7.23-11.33-8.22-12.87h0c.1,1.82.08,3.88.08,6.42v6.45Z"/>
    </g>
    <rect id="r-3.1" class="cls-5" x="1514.03" y="511.78" width="32.71" height="32.71"/>
    <g id="s-3.1">
      <path class="cls-2" d="M1569.63,522.69h4.91c2.69,0,4.13,1.42,4.13,3.44a3,3,0,0,1-2.15,3.06,3.53,3.53,0,0,1,2.65,3.45c0,2.79-2.1,4.05-4.55,4.05h-5Zm4.55,6c2.4,0,3.31-.9,3.31-2.5,0-1.38-1-2.48-2.9-2.48h-3.86v5Zm-3.45,7h3.92c1.83,0,3.36-.92,3.36-3,0-1.77-1.13-3-3.93-3h-3.35Z"/>
      <path class="cls-2" d="M1585.74,531.88l-1.77,4.81h-1.14l5.13-14h1.34l5.35,14h-1.22l-1.81-4.81Zm5.51-1c-1.54-4.13-2.34-6.13-2.62-7.08h0c-.34,1.07-1.24,3.54-2.49,7.08Z"/>
      <path class="cls-2" d="M1599.35,532.92c.42,1.85,1.66,2.94,3.94,2.94,2.54,0,3.51-1.27,3.51-2.78s-.69-2.54-3.76-3.29-4.25-1.71-4.25-3.73c0-1.85,1.35-3.57,4.36-3.57s4.39,1.88,4.57,3.59h-1.16c-.31-1.49-1.28-2.57-3.47-2.57-2,0-3.1.93-3.1,2.48s.91,2.13,3.49,2.76c3.94,1,4.53,2.56,4.53,4.25,0,2.07-1.51,3.85-4.76,3.85-3.5,0-4.8-2-5.06-3.93Z"/>
    </g>
    <rect id="b-1" class="cls-6" x="1502.6" y="425.47" width="165.1" height="132.73"/>
    <rect id="r-4.1" class="cls-11" x="1514.03" y="431.78" width="32.71" height="32.71"/>
    <g id="s-4.1">
      <path class="cls-8" d="M1569.65,442.7h1.12v6.08h8.34V442.7h1.13v14h-1.13v-6.88h-8.34v6.88h-1.12Z"/>
      <path class="cls-8" d="M1587.66,451.89l-1.77,4.81h-1.14l5.13-14h1.34l5.35,14h-1.22l-1.81-4.81Zm5.51-1c-1.54-4.13-2.34-6.13-2.62-7.08h0c-.34,1.07-1.24,3.54-2.49,7.08Z"/>
      <path class="cls-8" d="M1601.53,442.7v8.47c0,3.7,2.09,4.66,4,4.66,2.33,0,4.06-1,4.06-4.66V442.7h1.14v8.41c0,4.39-2.33,5.75-5.24,5.75-2.76,0-5.17-1.5-5.17-5.57V442.7Z"/>
      <path class="cls-8" d="M1619.61,443.73h-4.69v-1h10.54v1h-4.71v13h-1.14Z"/>
    </g>
    <g id="s-5.1">
      <path class="cls-8" d="M1581.82,490.91c0-2.73,0-5.35.08-6.76h-.06c-.57,1.9-3.38,8.76-5.14,13.17h-1.1c-1.33-3.42-4.24-11.05-4.88-13.19h0c.1,1.6.14,4.86.14,7.26v5.93h-1.11v-14h1.68c1.9,4.77,4.29,11,4.81,12.6h0c.32-1,3.09-8,5-12.6h1.66v14h-1.12Z"/>
      <path class="cls-8" d="M1600.63,490.23c0,3.82-2.05,7.29-6.37,7.29-4,0-6.25-3.18-6.25-7.19s2.23-7.2,6.39-7.2C1598.24,483.13,1600.63,486.14,1600.63,490.23Zm-11.42,0c0,3.2,1.77,6.22,5.11,6.22,3.6,0,5.11-2.94,5.11-6.24s-1.71-6.09-5.07-6.09C1590.78,484.16,1589.21,487.11,1589.21,490.27Z"/>
      <path class="cls-8" d="M1608.66,497.32v-5.25a.68.68,0,0,0-.08-.32l-5-8.42h1.3c1.4,2.37,3.82,6.48,4.42,7.53.6-1.05,3-5.12,4.53-7.53h1.24l-5.21,8.5a.6.6,0,0,0-.07.3v5.19Z"/>
      <path class="cls-8" d="M1627.26,490.46h-7.14v5.83h7.82l-.17,1H1619v-14h8.6v1h-7.49v5.07h7.14Z"/>
      <path class="cls-8" d="M1632.69,497.32v-14h1.64c2.17,3.35,7.25,11.12,8.13,12.64h0c-.12-2-.1-4.07-.1-6.35v-6.29h1.13v14H1642c-2.07-3.22-7.24-11.33-8.23-12.87h0c.1,1.83.08,3.88.08,6.42v6.45Z"/>
    </g>
    <rect id="r-5.1" class="cls-7" x="1514.1" y="472.42" width="32.71" height="32.71"/>
    <g id="s-6.1">
      <path class="cls-2" d="M1569.63,522.69h4.91c2.69,0,4.13,1.42,4.13,3.44a3,3,0,0,1-2.15,3.06,3.53,3.53,0,0,1,2.65,3.45c0,2.79-2.1,4.05-4.55,4.05h-5Zm4.55,6c2.4,0,3.31-.9,3.31-2.5,0-1.38-1-2.48-2.9-2.48h-3.86v5Zm-3.45,7h3.92c1.83,0,3.36-.92,3.36-3,0-1.77-1.13-3-3.93-3h-3.35Z"/>
      <path class="cls-2" d="M1585.74,531.88l-1.77,4.81h-1.14l5.13-14h1.34l5.35,14h-1.22l-1.81-4.81Zm5.51-1c-1.54-4.13-2.34-6.13-2.62-7.08h0c-.34,1.07-1.24,3.54-2.49,7.08Z"/>
      <path class="cls-2" d="M1599.35,532.92c.42,1.85,1.66,2.94,3.94,2.94,2.54,0,3.51-1.27,3.51-2.78s-.69-2.54-3.76-3.29-4.25-1.71-4.25-3.73c0-1.85,1.35-3.57,4.36-3.57s4.39,1.88,4.57,3.59h-1.16c-.31-1.49-1.28-2.57-3.47-2.57-2,0-3.1.93-3.1,2.48s.91,2.13,3.49,2.76c3.94,1,4.53,2.56,4.53,4.25,0,2.07-1.51,3.85-4.76,3.85-3.5,0-4.8-2-5.06-3.93Z"/>
    </g>
    <rect id="r-6.1" class="cls-5" x="1511.48" y="509.48" width="37.7" height="37.7"/>
    <path id="w-1" class="cls-12" d="M922.71,386.69v2.05q.49,65,1,129.92c22.65-.9,43.32-1.39,61.68-1.64,28.24-.38,50.71-.17,63.31,0,24.45.34,44.36,1,59.49,1.64,24.69,1,37.29,1.59,50.21,3.28a332.93,332.93,0,0,1,49.67,10.37q-.54-10.65-1.09-21.29l3.08,2.49-.25-60.46-5.13-6.15a33,33,0,0,0,.52-13.07,39.19,39.19,0,0,0-6.15-14.35c-14.87-21.34-85.58-26.64-85.58-26.64-41.56-3-62.52-3.08-62.52-3.08-28.94-.06-70.66-.54-122.73-2.56Z"/>
  </g>
</svg>
