<svg xmlns="http://www.w3.org/2000/svg" width="24in" height="15.99in" viewBox="0 0 1728 1151">
  <defs>
    <style>
      .cls-1, .cls-7 {
        fill: #fff;
      }

      .cls-1 {
        opacity: 0.7;
      }

      .cls-11, .cls-12, .cls-2 {
        fill: none;
      }

      .cls-11, .cls-12, .cls-2, .cls-4, .cls-5, .cls-6 {
        stroke: #231f20;
      }

      .cls-10, .cls-11, .cls-12, .cls-13, .cls-2, .cls-4, .cls-5, .cls-6, .cls-8 {
        stroke-miterlimit: 10;
      }

      .cls-2 {
        stroke-width: 0.75px;
      }

      .cls-3 {
        fill: #302a2b;
      }

      .cls-4 {
        fill: #d76b7d;
      }

      .cls-10, .cls-13, .cls-4, .cls-5, .cls-6, .cls-8 {
        stroke-width: 0.5px;
      }

      .cls-5 {
        fill: #f8e69a;
      }

      .cls-6 {
        fill: #74bc69;
      }

      .cls-8 {
        fill: #e2b7c0;
      }

      .cls-10, .cls-13, .cls-8 {
        stroke: #a7a9ac;
      }

      .cls-9 {
        fill: #d6d6d6;
      }

      .cls-10 {
        fill: #f9f4de;
      }

      .cls-11 {
        stroke-width: 2px;
      }

      .cls-13 {
        fill: #e1efdf;
      }
    </style>
  </defs>
  <g id="Opacity_Rectangle" data-name="Opacity Rectangle">
    <rect id="o-1" class="cls-1" width="1728" height="1151"/>
  </g>
  <g id="Wall">
    <polyline id="c-1" class="cls-2" points="782.7 679.42 217.84 553.64 52.34 553.64"/>
    <g id="t-1.1">
      <path class="cls-3" d="M53.19,528.92H59c4.8,0,8.13,3.35,8.13,8.6s-3.25,8.89-8.16,8.89H53.19Zm1.4,16.2h4.19c4.6,0,6.86-3.23,6.86-7.53,0-3.83-2-7.38-6.86-7.38H54.59Z"/>
      <path class="cls-3" d="M88.21,537.54c0,4.78-2.55,9.12-8,9.12-4.93,0-7.81-4-7.81-9s2.79-9,8-9C85.23,528.67,88.21,532.44,88.21,537.54ZM74,537.59c0,4,2.2,7.78,6.38,7.78,4.5,0,6.38-3.67,6.38-7.8S84.58,530,80.38,530C75.91,530,74,533.66,74,537.59Z"/>
      <path class="cls-3" d="M109.67,538.4c0-3.41,0-6.69.1-8.44h-.07c-.71,2.37-4.22,10.93-6.43,16.45h-1.36c-1.67-4.28-5.3-13.81-6.1-16.48h0c.12,2,.17,6.06.17,9.06v7.42H94.54V528.92h2.1c2.38,6,5.37,13.77,6,15.76h0c.4-1.3,3.86-10,6.29-15.76h2.07v17.49h-1.4Z"/>
      <path class="cls-3" d="M133.85,538.4c0-3.41,0-6.69.1-8.44h-.08c-.7,2.37-4.21,10.93-6.42,16.45h-1.37c-1.66-4.28-5.3-13.81-6.1-16.48h0c.13,2,.18,6.06.18,9.06v7.42h-1.4V528.92h2.11c2.37,6,5.36,13.77,6,15.76h0c.4-1.3,3.86-10,6.29-15.76h2.07v17.49h-1.39Z"/>
      <path class="cls-3" d="M144.47,540.41l-2.21,6h-1.42l6.41-17.49h1.67l6.68,17.49h-1.52l-2.26-6Zm6.89-1.29c-1.93-5.16-2.93-7.66-3.28-8.84h0c-.43,1.33-1.55,4.42-3.11,8.84Z"/>
      <path class="cls-3" d="M174.44,546.41h-1.16a12.79,12.79,0,0,1-.17-2.77c-.64,1.2-2,3-5.64,3-5,0-7.6-3.82-7.6-8.79,0-5.22,2.75-9.15,7.88-9.15,3.79,0,6.29,2,6.84,5.21h-1.4c-.74-2.45-2.45-3.92-5.49-3.92-4.35,0-6.33,3.39-6.33,7.78,0,4,1.91,7.59,6.16,7.59s5.56-2.84,5.56-6.66v-.2h-5.61v-1.29h7Z"/>
      <path class="cls-3" d="M191.77,537.84h-8.91v7.28h9.76l-.2,1.29h-11V528.92h10.76v1.29h-9.36v6.34h8.91Z"/>
      <path class="cls-3" d="M198.89,541.71c.52,2.31,2.07,3.67,4.92,3.67,3.17,0,4.39-1.58,4.39-3.47s-.87-3.17-4.7-4.12-5.31-2.14-5.31-4.66c0-2.31,1.68-4.46,5.44-4.46s5.49,2.35,5.72,4.49H207.9c-.4-1.86-1.61-3.2-4.35-3.2-2.5,0-3.86,1.16-3.86,3.09s1.14,2.65,4.35,3.45c4.93,1.23,5.66,3.2,5.66,5.3,0,2.59-1.88,4.81-5.95,4.81-4.37,0-6-2.54-6.31-4.9Z"/>
      <path class="cls-3" d="M151.17,568.4c0-3.41,0-6.69.1-8.44h-.07c-.71,2.37-4.22,10.93-6.43,16.45h-1.36c-1.67-4.28-5.3-13.81-6.1-16.48h-.05c.12,2,.17,6.06.17,9.06v7.42H136V558.92h2.1c2.38,6,5.37,13.77,6,15.76h.05c.4-1.3,3.86-10,6.29-15.76h2.07v17.49h-1.4Z"/>
      <path class="cls-3" d="M161.56,558.92v10.59c0,4.62,2.61,5.82,5.07,5.82,2.9,0,5.06-1.23,5.06-5.82V558.92h1.43v10.52c0,5.48-2.91,7.17-6.54,7.17-3.46,0-6.47-1.86-6.47-7V558.92Z"/>
      <path class="cls-3" d="M181.91,568.27v8.14h-1.42V558.92h6.3c3.46,0,5.29,1.86,5.29,4.6a4,4,0,0,1-3.26,4.1c1.78.43,3,1.59,3,4.57v.68a11.81,11.81,0,0,0,.22,3.54H190.6a11.82,11.82,0,0,1-.25-3.65v-.45c0-2.85-.84-4-4.18-4Zm0-1.29h4.2c3,0,4.47-1.14,4.47-3.42s-1.39-3.35-4.1-3.35h-4.57Z"/>
      <path class="cls-3" d="M198.89,571.71c.52,2.31,2.07,3.67,4.92,3.67,3.17,0,4.39-1.58,4.39-3.47s-.87-3.17-4.7-4.12-5.31-2.14-5.31-4.66c0-2.31,1.68-4.46,5.44-4.46s5.49,2.35,5.72,4.49H207.9c-.4-1.86-1.61-3.2-4.35-3.2-2.5,0-3.86,1.16-3.86,3.09s1.14,2.65,4.35,3.45c4.93,1.23,5.66,3.2,5.66,5.3,0,2.59-1.88,4.81-5.95,4.81-4.37,0-6-2.54-6.31-4.9Z"/>
    </g>
    <rect id="r-1.1" class="cls-4" x="83.33" y="608.12" width="32.71" height="32.71"/>
    <g id="s-1.1">
      <path class="cls-3" d="M138.93,619h1.12v6.09h8.34V619h1.12v14h-1.12v-6.88h-8.34V633h-1.12Z"/>
      <path class="cls-3" d="M156.94,628.23l-1.77,4.8H154l5.13-14h1.34l5.35,14h-1.23l-1.8-4.8Zm5.51-1c-1.54-4.14-2.34-6.14-2.62-7.08h0c-.34,1.06-1.24,3.54-2.49,7.08Z"/>
      <path class="cls-3" d="M170.81,619v8.48c0,3.7,2.08,4.65,4.05,4.65,2.33,0,4.06-1,4.06-4.65V619h1.14v8.42c0,4.39-2.33,5.74-5.24,5.74-2.76,0-5.17-1.49-5.17-5.56V619Z"/>
      <path class="cls-3" d="M188.89,620.07H184.2v-1h10.54v1H190v13h-1.14Z"/>
    </g>
    <rect id="r-2.1" class="cls-5" x="83.38" y="648.74" width="32.71" height="32.71"/>
    <g id="s-2.1">
      <path class="cls-3" d="M151.09,667.23c0-2.73,0-5.35.08-6.75h-.06c-.56,1.9-3.37,8.75-5.14,13.17h-1.09c-1.34-3.43-4.24-11.06-4.88-13.19h0c.1,1.6.14,4.85.14,7.25v5.94H139v-14h1.68c1.9,4.77,4.3,11,4.82,12.61h0c.33-1,3.1-8,5-12.61h1.66v14h-1.12Z"/>
      <path class="cls-3" d="M169.9,666.55c0,3.82-2,7.3-6.37,7.3-3.95,0-6.25-3.18-6.25-7.2s2.23-7.2,6.39-7.2C167.52,659.45,169.9,662.46,169.9,666.55Zm-11.42,0c0,3.21,1.77,6.23,5.11,6.23,3.6,0,5.11-3,5.11-6.25s-1.71-6.09-5.07-6.09C160.05,660.48,158.48,663.44,158.48,666.59Z"/>
      <path class="cls-3" d="M177.94,673.65v-5.26a.68.68,0,0,0-.08-.32l-5-8.42h1.31c1.39,2.37,3.81,6.48,4.41,7.53.6-1,3-5.12,4.53-7.53h1.24l-5.21,8.5a.61.61,0,0,0-.06.3v5.2Z"/>
      <path class="cls-3" d="M196.53,666.79H189.4v5.82h7.81l-.17,1h-8.76v-14h8.61v1H189.4v5.07h7.13Z"/>
      <path class="cls-3" d="M202,673.65v-14h1.65c2.17,3.35,7.24,11.13,8.12,12.65h0c-.12-2-.1-4.08-.1-6.36v-6.29h1.13v14h-1.52c-2.07-3.23-7.23-11.34-8.23-12.88h0c.1,1.83.08,3.89.08,6.43v6.45Z"/>
    </g>
    <rect id="r-3.1" class="cls-6" x="83.33" y="688.11" width="32.71" height="32.71"/>
    <g id="s-3.1">
      <path class="cls-3" d="M138.93,699h4.91c2.69,0,4.13,1.43,4.13,3.45a3,3,0,0,1-2.15,3,3.55,3.55,0,0,1,2.65,3.46c0,2.79-2.1,4-4.55,4h-5Zm4.55,6c2.4,0,3.31-.89,3.31-2.5,0-1.37-1-2.48-2.9-2.48H140v5ZM140,712H144c1.83,0,3.35-.91,3.35-3,0-1.77-1.13-3-3.92-3H140Z"/>
      <path class="cls-3" d="M155,708.22l-1.77,4.8h-1.14l5.13-14h1.34L164,713h-1.23l-1.8-4.8Zm5.51-1c-1.55-4.13-2.34-6.13-2.62-7.07h0c-.34,1.06-1.24,3.54-2.49,7.07Z"/>
      <path class="cls-3" d="M168.65,709.25c.42,1.85,1.65,2.94,3.94,2.94,2.54,0,3.51-1.26,3.51-2.77s-.7-2.54-3.76-3.3-4.25-1.71-4.25-3.73c0-1.85,1.35-3.57,4.35-3.57s4.4,1.89,4.58,3.59h-1.16c-.32-1.48-1.28-2.56-3.48-2.56-2,0-3.09.93-3.09,2.48s.91,2.12,3.49,2.76c3.94,1,4.52,2.56,4.52,4.24,0,2.07-1.51,3.85-4.75,3.85-3.51,0-4.8-2-5.06-3.93Z"/>
    </g>
    <rect id="b-1" class="cls-7" x="71.9" y="601.8" width="165.1" height="132.73"/>
    <rect id="r-4.1" class="cls-8" x="83.33" y="608.12" width="32.71" height="32.71"/>
    <g id="s-4.1">
      <path class="cls-9" d="M139,619h1.12v6.09h8.34V619h1.12v14h-1.12v-6.88h-8.34V633H139Z"/>
      <path class="cls-9" d="M157,628.23l-1.77,4.8h-1.14l5.13-14h1.34l5.35,14h-1.23l-1.8-4.8Zm5.51-1c-1.55-4.14-2.34-6.14-2.62-7.08h0c-.34,1.06-1.24,3.54-2.49,7.08Z"/>
      <path class="cls-9" d="M170.83,619v8.48c0,3.7,2.08,4.65,4,4.65,2.33,0,4.06-1,4.06-4.65V619h1.14v8.42c0,4.39-2.33,5.74-5.24,5.74-2.76,0-5.17-1.49-5.17-5.56V619Z"/>
      <path class="cls-9" d="M188.91,620.07h-4.69v-1h10.54v1h-4.71v13h-1.14Z"/>
    </g>
    <g id="s-5.1">
      <path class="cls-9" d="M151.11,667.25c0-2.74,0-5.36.08-6.76h-.06c-.56,1.9-3.37,8.75-5.14,13.17H144.9c-1.33-3.43-4.24-11.06-4.88-13.19h0c.1,1.6.14,4.85.14,7.25v5.94H139v-14h1.69c1.9,4.78,4.29,11,4.81,12.61h0c.32-1,3.09-8,5-12.61h1.66v14h-1.12Z"/>
      <path class="cls-9" d="M169.93,666.56c0,3.82-2.05,7.3-6.37,7.3-3.95,0-6.25-3.18-6.25-7.2s2.22-7.2,6.39-7.2C167.54,659.46,169.93,662.48,169.93,666.56Zm-11.42,0c0,3.21,1.77,6.23,5.11,6.23,3.6,0,5.1-3,5.1-6.25s-1.7-6.09-5.07-6.09C160.08,660.49,158.51,663.45,158.51,666.6Z"/>
      <path class="cls-9" d="M178,673.66v-5.25a.76.76,0,0,0-.08-.33l-5-8.42h1.3c1.4,2.38,3.81,6.49,4.41,7.54.6-1.05,3.05-5.13,4.54-7.54h1.24l-5.22,8.5a.61.61,0,0,0-.06.3v5.2Z"/>
      <path class="cls-9" d="M196.55,666.8h-7.13v5.83h7.81l-.16,1H188.3v-14h8.61v1h-7.49v5.08h7.13Z"/>
      <path class="cls-9" d="M202,673.66v-14h1.65c2.17,3.36,7.25,11.13,8.12,12.65h0c-.12-2-.1-4.08-.1-6.36v-6.29h1.14v14h-1.53c-2.06-3.23-7.23-11.33-8.22-12.87h0c.1,1.82.08,3.88.08,6.42v6.45Z"/>
    </g>
    <rect id="r-5.1" class="cls-10" x="83.4" y="648.75" width="32.71" height="32.71"/>
    <g id="s-6.1">
      <path class="cls-3" d="M138.93,699h4.91c2.69,0,4.13,1.43,4.13,3.45a3,3,0,0,1-2.15,3,3.55,3.55,0,0,1,2.65,3.46c0,2.79-2.1,4-4.55,4h-5Zm4.55,6c2.4,0,3.31-.89,3.31-2.5,0-1.37-1-2.48-2.9-2.48H140v5ZM140,712H144c1.83,0,3.35-.91,3.35-3,0-1.77-1.13-3-3.92-3H140Z"/>
      <path class="cls-3" d="M155,708.22l-1.77,4.8h-1.14l5.13-14h1.34L164,713h-1.23l-1.8-4.8Zm5.51-1c-1.55-4.13-2.34-6.13-2.62-7.07h0c-.34,1.06-1.24,3.54-2.49,7.07Z"/>
      <path class="cls-3" d="M168.65,709.25c.42,1.85,1.65,2.94,3.94,2.94,2.54,0,3.51-1.26,3.51-2.77s-.7-2.54-3.76-3.3-4.25-1.71-4.25-3.73c0-1.85,1.35-3.57,4.35-3.57s4.4,1.89,4.58,3.59h-1.16c-.32-1.48-1.28-2.56-3.48-2.56-2,0-3.09.93-3.09,2.48s.91,2.12,3.49,2.76c3.94,1,4.52,2.56,4.52,4.24,0,2.07-1.51,3.85-4.75,3.85-3.51,0-4.8-2-5.06-3.93Z"/>
    </g>
    <rect id="r-6.1" class="cls-6" x="80.78" y="685.81" width="37.7" height="37.7"/>
    <polyline id="w-1" class="cls-11" points="878.76 533.07 878.76 430.07 873.56 425.88 870.27 419.56 870.51 400.59 873.08 401.3 878 388.65 835.85 358.21 781.05 357.04 738.67 383.4 745.62 397.39 745.21 419.03 745.21 428.38 739.29 437.02 736.7 527.43"/>
    <polyline id="w-2" class="cls-11" points="678.05 571.03 664.94 566.14 655.92 571.03 659.72 581.88 650.1 679.42"/>
    <polyline id="w-3" class="cls-11" points="929.01 572.46 940.2 568.37 950.29 572.46 946.19 584.44 951.53 678.32"/>
    <polyline id="w-4" class="cls-11" points="1007.78 731.55 1013.39 732.84 1010.58 735.72 1012.45 761.13 1018.91 760.24 1031.61 763.8 1028.05 767.37 1028.94 783.41 1025.6 788.53 1042.46 1008.6"/>
    <polyline id="w-5" class="cls-11" points="515.47 1008.6 541.11 825.4 559.54 800.67 589.67 805.62 598.21 835.3 576.18 1008.6"/>
    <polyline id="w-6" class="cls-11" points="469.26 1008.6 495.76 838.5 514.24 812.8 517.91 812.83 517.91 816.94 489.55 1008.6"/>
    <polyline id="w-7" class="cls-11" points="501.01 713.02 491.3 716.09 491.3 719.13 493.27 719.13 445.97 1008.6"/>
  </g>
  <g id="Roof">
    <polyline id="c-2" class="cls-2" points="730.88 377.85 217.84 214.01 52.34 214.01"/>
    <line id="c-3" class="cls-2" x1="218.17" y1="214.01" x2="785.54" y2="711.58"/>
    <line id="c-4" class="cls-2" x1="771.18" y1="521.41" x2="218.17" y2="214.01"/>
    <g id="t-1.2">
      <path class="cls-3" d="M53.19,189.29H59c4.8,0,8.13,3.35,8.13,8.6s-3.25,8.89-8.16,8.89H53.19Zm1.4,16.2h4.19c4.6,0,6.86-3.23,6.86-7.53,0-3.83-2-7.38-6.86-7.38H54.59Z"/>
      <path class="cls-3" d="M88.21,197.91c0,4.78-2.55,9.12-8,9.12-4.93,0-7.81-4-7.81-9s2.79-9,8-9C85.23,189,88.21,192.81,88.21,197.91ZM74,198c0,4,2.2,7.78,6.38,7.78,4.5,0,6.38-3.68,6.38-7.8s-2.13-7.61-6.33-7.61C75.91,190.33,74,194,74,198Z"/>
      <path class="cls-3" d="M109.67,198.77c0-3.42,0-6.69.1-8.44h-.07c-.71,2.37-4.22,10.93-6.43,16.45h-1.36c-1.67-4.28-5.3-13.81-6.1-16.48h0c.12,2,.17,6.06.17,9.06v7.42H94.54V189.29h2.1c2.38,6,5.37,13.77,6,15.76h0c.4-1.3,3.86-10,6.29-15.76h2.07v17.49h-1.4Z"/>
      <path class="cls-3" d="M133.85,198.77c0-3.42,0-6.69.1-8.44h-.08c-.7,2.37-4.21,10.93-6.42,16.45h-1.37c-1.66-4.28-5.3-13.81-6.1-16.48h0c.13,2,.18,6.06.18,9.06v7.42h-1.4V189.29h2.11c2.37,6,5.36,13.77,6,15.76h0c.4-1.3,3.86-10,6.29-15.76h2.07v17.49h-1.39Z"/>
      <path class="cls-3" d="M144.47,200.78l-2.21,6h-1.42l6.41-17.49h1.67l6.68,17.49h-1.52l-2.26-6Zm6.89-1.29c-1.93-5.17-2.93-7.66-3.28-8.84h0c-.43,1.33-1.55,4.42-3.11,8.84Z"/>
      <path class="cls-3" d="M174.44,206.78h-1.16a12.79,12.79,0,0,1-.17-2.77c-.64,1.2-2,3-5.64,3-5,0-7.6-3.82-7.6-8.79,0-5.22,2.75-9.15,7.88-9.15,3.79,0,6.29,2,6.84,5.21h-1.4c-.74-2.45-2.45-3.92-5.49-3.92-4.35,0-6.33,3.39-6.33,7.78,0,4,1.91,7.59,6.16,7.59s5.56-2.84,5.56-6.66v-.2h-5.61v-1.29h7Z"/>
      <path class="cls-3" d="M191.77,198.21h-8.91v7.28h9.76l-.2,1.29h-11V189.29h10.76v1.29h-9.36v6.34h8.91Z"/>
      <path class="cls-3" d="M198.89,202.08c.52,2.31,2.07,3.67,4.92,3.67,3.17,0,4.39-1.58,4.39-3.47s-.87-3.17-4.7-4.12-5.31-2.14-5.31-4.66c0-2.31,1.68-4.46,5.44-4.46s5.49,2.35,5.72,4.49H207.9c-.4-1.86-1.61-3.21-4.35-3.21-2.5,0-3.86,1.17-3.86,3.1s1.14,2.65,4.35,3.45c4.93,1.22,5.66,3.2,5.66,5.3,0,2.59-1.88,4.81-5.95,4.81-4.37,0-6-2.54-6.31-4.9Z"/>
      <path class="cls-3" d="M158,220.58h-5.86v-1.29h13.17v1.29h-5.88v16.2H158Z"/>
      <path class="cls-3" d="M184.66,227.91c0,4.78-2.55,9.12-8,9.12-4.93,0-7.81-4-7.81-9s2.79-9,8-9C181.68,219,184.66,222.81,184.66,227.91ZM170.4,228c0,4,2.2,7.78,6.38,7.78,4.5,0,6.38-3.68,6.38-7.8s-2.13-7.61-6.33-7.61C172.36,220.33,170.4,224,170.4,228Z"/>
      <path class="cls-3" d="M192.39,219.29v17.49H191V219.29Z"/>
      <path class="cls-3" d="M203.51,220.58h-5.86v-1.29h13.17v1.29h-5.88v16.2h-1.43Z"/>
    </g>
    <rect id="r-1.2" class="cls-4" x="83.33" y="271.31" width="32.71" height="32.71"/>
    <g id="s-1.2">
      <path class="cls-3" d="M138.93,282.23h1.12v6.08h8.34v-6.08h1.12v14h-1.12v-6.88h-8.34v6.88h-1.12Z"/>
      <path class="cls-3" d="M156.94,291.42l-1.77,4.81H154l5.13-14h1.34l5.35,14h-1.23l-1.8-4.81Zm5.51-1c-1.54-4.13-2.34-6.13-2.62-7.08h0c-.34,1.07-1.24,3.54-2.49,7.08Z"/>
      <path class="cls-3" d="M170.81,282.23v8.47c0,3.7,2.08,4.66,4.05,4.66,2.33,0,4.06-1,4.06-4.66v-8.47h1.14v8.41c0,4.39-2.33,5.75-5.24,5.75-2.76,0-5.17-1.5-5.17-5.57v-8.59Z"/>
      <path class="cls-3" d="M188.89,283.26H184.2v-1h10.54v1H190v13h-1.14Z"/>
    </g>
    <rect id="r-2.2" class="cls-5" x="83.38" y="311.93" width="32.71" height="32.71"/>
    <g id="s-2.2">
      <path class="cls-3" d="M151.09,330.43c0-2.74,0-5.36.08-6.76h-.06c-.56,1.9-3.37,8.75-5.14,13.17h-1.09c-1.34-3.43-4.24-11.06-4.88-13.19h0c.1,1.6.14,4.85.14,7.25v5.94H139v-14h1.68c1.9,4.78,4.3,11,4.82,12.61h0c.33-1,3.1-8,5-12.61h1.66v14h-1.12Z"/>
      <path class="cls-3" d="M169.9,329.74c0,3.82-2,7.3-6.37,7.3-3.95,0-6.25-3.18-6.25-7.2s2.23-7.2,6.39-7.2C167.52,322.64,169.9,325.66,169.9,329.74Zm-11.42,0c0,3.21,1.77,6.23,5.11,6.23,3.6,0,5.11-2.95,5.11-6.25s-1.71-6.09-5.07-6.09C160.05,323.67,158.48,326.63,158.48,329.78Z"/>
      <path class="cls-3" d="M177.94,336.84v-5.25a.68.68,0,0,0-.08-.32l-5-8.43h1.31c1.39,2.38,3.81,6.49,4.41,7.54.6-1.05,3-5.13,4.53-7.54h1.24l-5.21,8.5a.63.63,0,0,0-.06.31v5.19Z"/>
      <path class="cls-3" d="M196.53,330H189.4v5.83h7.81l-.17,1h-8.76v-14h8.61v1H189.4V329h7.13Z"/>
      <path class="cls-3" d="M202,336.84v-14h1.65c2.17,3.36,7.24,11.13,8.12,12.65h0c-.12-2-.1-4.07-.1-6.36v-6.29h1.13v14h-1.52C209.19,333.61,204,325.51,203,324h0c.1,1.82.08,3.88.08,6.42v6.45Z"/>
    </g>
    <rect id="r-3.2" class="cls-6" x="83.33" y="351.31" width="32.71" height="32.71"/>
    <g id="s-3.2">
      <path class="cls-3" d="M138.93,362.22h4.91c2.69,0,4.13,1.42,4.13,3.44a3,3,0,0,1-2.15,3.06,3.53,3.53,0,0,1,2.65,3.45c0,2.79-2.1,4.05-4.55,4.05h-5Zm4.55,6c2.4,0,3.31-.9,3.31-2.5,0-1.38-1-2.48-2.9-2.48H140v5Zm-3.45,7H144c1.83,0,3.35-.92,3.35-3,0-1.77-1.13-3-3.92-3H140Z"/>
      <path class="cls-3" d="M155,371.41l-1.77,4.81h-1.14l5.13-14h1.34l5.35,14h-1.23l-1.8-4.81Zm5.51-1c-1.55-4.13-2.34-6.13-2.62-7.08h0c-.34,1.07-1.24,3.54-2.49,7.08Z"/>
      <path class="cls-3" d="M168.65,372.45c.42,1.85,1.65,2.94,3.94,2.94,2.54,0,3.51-1.27,3.51-2.78s-.7-2.54-3.76-3.29-4.25-1.71-4.25-3.73c0-1.85,1.35-3.57,4.35-3.57s4.4,1.88,4.58,3.59h-1.16c-.32-1.49-1.28-2.57-3.48-2.57-2,0-3.09.93-3.09,2.48s.91,2.13,3.49,2.76c3.94,1,4.52,2.56,4.52,4.25,0,2.07-1.51,3.85-4.75,3.85-3.51,0-4.8-2-5.06-3.93Z"/>
    </g>
    <rect id="b-2" class="cls-7" x="71.9" y="265" width="165.1" height="132.73"/>
    <rect id="r-4.2" class="cls-8" x="83.33" y="271.31" width="32.71" height="32.71"/>
    <g id="s-4.2">
      <path class="cls-9" d="M139,282.23h1.12v6.08h8.34v-6.08h1.12v14h-1.12v-6.88h-8.34v6.88H139Z"/>
      <path class="cls-9" d="M157,291.42l-1.77,4.81h-1.14l5.13-14h1.34l5.35,14h-1.23l-1.8-4.81Zm5.51-1c-1.55-4.13-2.34-6.13-2.62-7.08h0c-.34,1.07-1.24,3.54-2.49,7.08Z"/>
      <path class="cls-9" d="M170.83,282.23v8.47c0,3.7,2.08,4.66,4,4.66,2.33,0,4.06-1,4.06-4.66v-8.47h1.14v8.41c0,4.39-2.33,5.75-5.24,5.75-2.76,0-5.17-1.5-5.17-5.57v-8.59Z"/>
      <path class="cls-9" d="M188.91,283.26h-4.69v-1h10.54v1h-4.71v13h-1.14Z"/>
    </g>
    <g id="s-5.2">
      <path class="cls-9" d="M151.11,330.44c0-2.73,0-5.35.08-6.76h-.06c-.56,1.9-3.37,8.76-5.14,13.17H144.9c-1.33-3.42-4.24-11.05-4.88-13.19h0c.1,1.6.14,4.86.14,7.26v5.93H139v-14h1.69c1.9,4.77,4.29,11,4.81,12.6h0c.32-1,3.09-8,5-12.6h1.66v14h-1.12Z"/>
      <path class="cls-9" d="M169.93,329.76c0,3.82-2.05,7.29-6.37,7.29-3.95,0-6.25-3.18-6.25-7.19s2.22-7.2,6.39-7.2C167.54,322.66,169.93,325.67,169.93,329.76Zm-11.42,0c0,3.2,1.77,6.22,5.11,6.22,3.6,0,5.1-2.94,5.1-6.24s-1.7-6.09-5.07-6.09C160.08,323.69,158.51,326.65,158.51,329.8Z"/>
      <path class="cls-9" d="M178,336.85V331.6a.68.68,0,0,0-.08-.32l-5-8.42h1.3c1.4,2.37,3.81,6.48,4.41,7.53.6-1.05,3.05-5.12,4.54-7.53h1.24l-5.22,8.5a.61.61,0,0,0-.06.3v5.19Z"/>
      <path class="cls-9" d="M196.55,330h-7.13v5.83h7.81l-.16,1H188.3v-14h8.61v1h-7.49V329h7.13Z"/>
      <path class="cls-9" d="M202,336.85v-14h1.65c2.17,3.35,7.25,11.12,8.12,12.64h0c-.12-2-.1-4.07-.1-6.35v-6.29h1.14v14h-1.53c-2.06-3.22-7.23-11.33-8.22-12.87h0c.1,1.83.08,3.88.08,6.42v6.45Z"/>
    </g>
    <rect id="r-5.2" class="cls-10" x="83.4" y="311.95" width="32.71" height="32.71"/>
    <g id="s-6.2">
      <path class="cls-3" d="M138.93,362.22h4.91c2.69,0,4.13,1.42,4.13,3.44a3,3,0,0,1-2.15,3.06,3.53,3.53,0,0,1,2.65,3.45c0,2.79-2.1,4.05-4.55,4.05h-5Zm4.55,6c2.4,0,3.31-.9,3.31-2.5,0-1.38-1-2.48-2.9-2.48H140v5Zm-3.45,7H144c1.83,0,3.35-.92,3.35-3,0-1.77-1.13-3-3.92-3H140Z"/>
      <path class="cls-3" d="M155,371.41l-1.77,4.81h-1.14l5.13-14h1.34l5.35,14h-1.23l-1.8-4.81Zm5.51-1c-1.55-4.13-2.34-6.13-2.62-7.08h0c-.34,1.07-1.24,3.54-2.49,7.08Z"/>
      <path class="cls-3" d="M168.65,372.45c.42,1.85,1.65,2.94,3.94,2.94,2.54,0,3.51-1.27,3.51-2.78s-.7-2.54-3.76-3.29-4.25-1.71-4.25-3.73c0-1.85,1.35-3.57,4.35-3.57s4.4,1.88,4.58,3.59h-1.16c-.32-1.49-1.28-2.57-3.48-2.57-2,0-3.09.93-3.09,2.48s.91,2.13,3.49,2.76c3.94,1,4.52,2.56,4.52,4.25,0,2.07-1.51,3.85-4.75,3.85-3.51,0-4.8-2-5.06-3.93Z"/>
    </g>
    <rect id="r-6.2" class="cls-6" x="80.78" y="349.01" width="37.7" height="37.7"/>
    <polygon id="a-1" class="cls-12" points="745.21 419.03 737.41 414.7 728.6 376.22 746.59 363.89 743.75 343.29 742.09 328.85 813.58 271.09 810.27 269.19 809.32 264.93 813.58 261.38 813.58 251.2 808.61 255.94 808.61 248.12 813.58 243.86 813.58 228.24 801.75 237.71 801.75 228.24 813.58 219.72 813.58 212.38 812.4 209.77 812.4 205.75 816.9 201.01 819.5 202.91 820.92 206.78 819.5 210.25 819.5 214.98 831.58 203.85 831.58 214.01 819.98 223.27 819.98 239.13 824.83 234.27 824.83 242.44 819.68 247.59 819.68 263.27 820.21 266.35 818.32 270.14 816.66 272.27 879.4 327.43 876.08 367.68 889.81 377.6 885.35 418.22 874.96 425.88 870.27 419.56 870.51 400.59 873.08 401.3 878 388.65 835.85 358.21 781.05 357.04 738.67 383.4 746.16 398.49 745.21 419.03"/>
    <polygon id="a-2" class="cls-12" points="668.95 575.5 688.11 566.1 693.24 552.07 708.3 546.41 715.82 546.41 736.7 527.43 772.62 506.9 775.36 509.98 780.15 510.32 788.02 503.82 824.98 503.82 828.74 509.98 835.93 510.67 870.14 522.98 871.85 529.49 879.38 532.22 894.44 548.65 897.48 547.8 911.1 553.64 916.14 568.91 933.27 575.5 937.12 581.88 914.67 575.5 907.67 556.5 893.34 552.05 883.15 558.42 864 550.14 864 546.41 868.51 534.86 854.18 528.17 838.58 534.54 842.08 542.85 841.76 547.91 824.25 547.91 812.79 531.35 787.32 530.4 775.22 546.41 758.98 546.41 759.62 533.9 743.7 527.21 733.51 533.9 735.42 541.22 736.06 549.5 719.82 558.1 711.54 550.14 695.94 555.87 689.57 571.47 668.95 581.88 668.95 575.5"/>
    <polygon id="a-3" class="cls-12" points="1007.78 731.55 1004.52 722.96 984.68 678.25 968.69 673.66 890.81 694.83 874.22 689.8 853.49 686.24 850.24 689.8 905.32 743.99 905.32 737.77 924.27 733.33 929.01 734.51 929.01 720.89 952.99 715.26 969.58 679.73 982.9 684.17 1001.26 722.67 1000.97 730.37 1007.78 731.55"/>
    <polygon id="a-4" class="cls-12" points="894 757.47 837.21 694.24 754.25 694.24 680.14 757.47 715.99 746.31 763.11 746.31 773.18 725.86 798.25 725.86 809.83 746.31 856.54 746.31 894 757.47"/>
    <polygon id="a-5" class="cls-12" points="501.01 713.02 501.01 707.11 522.17 658.58 538.22 651.65 549.9 655.3 579.09 651.65 609.37 658.58 614.84 670.26 707.14 694.24 683.79 716.96 625.05 707.11 605.72 662.23 583.46 657.85 552.82 690.32 552.09 696.89 544.79 695.79 545.15 689.96 536.4 657.85 524.36 663.32 504.66 708.82 504.66 713.02 501.01 713.02"/>
    <polyline id="a-6" class="cls-12" points="606.55 657.94 596.99 625.4 601.01 593.95 613.07 587.13 608 577.17 603.11 569.14 604.08 566.14 609.92 563.72 614.99 560.05 615.69 555.86 613.07 549.22 595.42 504.67 595.42 500.24 597.69 499.25 599.44 495.41 596.82 492.79 600.66 458.02 608.87 453.65 608.87 450.16 600.66 455.23 601.53 443.52 599.44 444.57 598.57 456.45 590 462.8 590 465.88 597.87 459.61 594.02 492.44 591.58 494.19 590 496.98 591.05 499.08 592.97 500.22 592.45 503.82 557.68 548.52 558.73 552.19 567.47 560.05 553.84 577.7 563.27 589.06 560.13 614.74 538.22 651.65"/>
  </g>
  <g id="Fire">
    <polyline id="m-1" class="cls-12" points="979.44 676.74 1115.37 654.41 1115.37 647.56 1163.25 640.64 1174.95 649.69 1176.34 658.69 1239.65 649.68 1253.59 693.02 1292.12 907.01"/>
  </g>
  <g id="Window">
    <polyline id="c-5" class="cls-2" points="798.25 606.09 1504.38 383.4 1669.88 383.4"/>
    <g id="t-1.3">
      <path class="cls-3" d="M1507.74,360.11h5.82c4.8,0,8.13,3.35,8.13,8.59s-3.25,8.9-8.16,8.9h-5.79Zm1.4,16.2h4.19c4.6,0,6.86-3.23,6.86-7.53,0-3.83-2-7.38-6.86-7.38h-4.19Z"/>
      <path class="cls-3" d="M1542.76,368.73c0,4.77-2.55,9.12-8,9.12-4.93,0-7.81-4-7.81-9s2.79-9,8-9C1539.78,359.86,1542.76,363.63,1542.76,368.73Zm-14.26,0c0,4,2.2,7.78,6.38,7.78,4.5,0,6.38-3.68,6.38-7.81s-2.13-7.6-6.33-7.6C1530.46,361.15,1528.5,364.84,1528.5,368.78Z"/>
      <path class="cls-3" d="M1564.22,369.58c0-3.41,0-6.68.1-8.44h-.07c-.71,2.38-4.22,10.94-6.43,16.46h-1.36c-1.67-4.29-5.3-13.82-6.1-16.48h0c.12,2,.17,6.06.17,9.06v7.42h-1.39V360.11h2.1c2.38,6,5.37,13.76,6,15.75h0c.41-1.29,3.87-10,6.3-15.75h2.07V377.6h-1.4Z"/>
      <path class="cls-3" d="M1588.4,369.58c0-3.41,0-6.68.1-8.44h-.08c-.7,2.38-4.21,10.94-6.42,16.46h-1.37c-1.66-4.29-5.3-13.82-6.1-16.48h0c.13,2,.18,6.06.18,9.06v7.42h-1.4V360.11h2.11c2.37,6,5.36,13.76,6,15.75h0c.4-1.29,3.86-10,6.29-15.75h2.07V377.6h-1.39Z"/>
      <path class="cls-3" d="M1599,371.59l-2.21,6h-1.42l6.41-17.49h1.67l6.68,17.49h-1.53l-2.25-6Zm6.89-1.28c-1.93-5.17-2.93-7.66-3.28-8.85h0c-.43,1.34-1.55,4.43-3.11,8.85Z"/>
      <path class="cls-3" d="M1629,377.6h-1.16a12.93,12.93,0,0,1-.17-2.78c-.64,1.2-2,3-5.64,3-5,0-7.6-3.82-7.6-8.8,0-5.22,2.75-9.14,7.88-9.14,3.79,0,6.29,2,6.84,5.2h-1.4c-.74-2.44-2.45-3.92-5.49-3.92-4.35,0-6.33,3.39-6.33,7.79,0,4,1.91,7.58,6.16,7.58s5.56-2.83,5.56-6.66v-.19H1622v-1.29h7Z"/>
      <path class="cls-3" d="M1646.32,369h-8.91v7.28h9.76l-.2,1.29h-11V360.11h10.76v1.29h-9.36v6.34h8.91Z"/>
      <path class="cls-3" d="M1653.44,372.89c.52,2.31,2.06,3.67,4.92,3.67,3.17,0,4.39-1.58,4.39-3.46s-.87-3.18-4.7-4.12-5.31-2.14-5.31-4.66c0-2.31,1.68-4.46,5.44-4.46s5.49,2.35,5.72,4.48h-1.45c-.4-1.85-1.61-3.2-4.35-3.2-2.5,0-3.86,1.16-3.86,3.1s1.14,2.65,4.35,3.45c4.93,1.22,5.66,3.19,5.66,5.3,0,2.59-1.88,4.81-6,4.81-4.37,0-6-2.54-6.31-4.91Z"/>
      <path class="cls-3" d="M1507.74,390.11h10.63v1.29h-9.23v6.54h8.65v1.29h-8.65v8.37h-1.4Z"/>
      <path class="cls-3" d="M1534.27,399h-8.91v7.28h9.76l-.2,1.29h-11V390.11h10.76v1.29h-9.36v6.34h8.91Z"/>
      <path class="cls-3" d="M1541.06,407.6V390.11h2.06c2.71,4.19,9.06,13.9,10.15,15.8h0c-.15-2.51-.13-5.09-.13-7.94v-7.86h1.42V407.6h-1.91c-2.58-4-9-14.16-10.27-16.09h0c.13,2.28.1,4.86.1,8v8.06Z"/>
      <path class="cls-3" d="M1572.52,399h-8.91v7.28h9.76l-.2,1.29h-11V390.11H1573v1.29h-9.36v6.34h8.91Zm-4.12-13.94,3.3,3.18H1570l-2.38-2.29-2.6,2.29h-1.62l3.47-3.18Z"/>
      <path class="cls-3" d="M1583.71,391.4h-5.86v-1.29H1591v1.29h-5.88v16.2h-1.43Z"/>
      <path class="cls-3" d="M1597.54,399.45v8.15h-1.43V390.11h6.31c3.45,0,5.28,1.85,5.28,4.6a4,4,0,0,1-3.26,4.1c1.78.42,3,1.59,3,4.57v.67a11.81,11.81,0,0,0,.23,3.55h-1.42a11.53,11.53,0,0,1-.26-3.66v-.44c0-2.85-.84-4.05-4.17-4.05Zm0-1.28h4.2c3,0,4.46-1.15,4.46-3.43s-1.39-3.34-4.09-3.34h-4.57Z"/>
      <path class="cls-3" d="M1624.77,399h-8.91v7.28h9.76l-.2,1.29h-11V390.11h10.76v1.29h-9.36v6.34h8.91Z"/>
      <path class="cls-3" d="M1631.89,402.89c.52,2.31,2.07,3.67,4.92,3.67,3.17,0,4.39-1.58,4.39-3.46s-.87-3.18-4.7-4.12-5.31-2.14-5.31-4.66c0-2.31,1.68-4.46,5.44-4.46s5.49,2.35,5.72,4.48h-1.45c-.4-1.85-1.61-3.2-4.35-3.2-2.5,0-3.86,1.16-3.86,3.1s1.14,2.65,4.35,3.45c4.93,1.22,5.66,3.19,5.66,5.3,0,2.59-1.88,4.81-6,4.81-4.37,0-6-2.54-6.31-4.91Z"/>
    </g>
    <polygon id="f-1" class="cls-12" points="844.79 491.47 845.79 427.68 850.41 421.47 855.02 423.47 861.04 435.91 861.04 499.29 844.79 491.47"/>
    <polygon id="f-2" class="cls-12" points="766.97 489.86 769.58 425.08 765.77 419.86 760.55 422.47 756.34 433.1 753.33 496.68 766.97 489.86"/>
    <polygon id="f-3" class="cls-12" points="782.7 634.92 785.54 551.16 792.52 540.79 807.73 540.79 814.23 550.58 813.08 634.92 782.7 634.92"/>
    <polygon id="f-4" class="cls-12" points="889.21 647.53 889.21 565.62 894 558.18 903.53 561.33 907.83 573.36 907.83 654.41 889.21 647.53"/>
    <polygon id="f-5" class="cls-12" points="707.14 647.24 713.06 563.66 708.85 556.57 699.09 560.34 694.88 573.42 689.78 653.67 707.14 647.24"/>
    <polygon id="f-6" class="cls-12" points="966.38 819.78 962.28 731.55 966.38 724.31 976.84 727.77 983.15 737.55 987.94 823.81 966.38 819.78"/>
    <polygon id="f-7" class="cls-12" points="864 774.06 864 808.43 880.95 811.5 880.95 777.66 864 774.06"/>
    <polygon id="f-8" class="cls-12" points="707.33 779.48 706.18 797.35 693.34 800.49 694.48 783.09 707.33 779.48"/>
    <polygon id="f-9" class="cls-12" points="687.42 860.15 700.63 856.64 698.94 886.87 686.04 889.01 687.42 860.15"/>
    <polygon id="f-10" class="cls-12" points="864 910.07 880.95 911.45 880.95 874.67 875.7 858.36 864 856.43 864 910.07"/>
    <rect id="r-1.3" class="cls-4" x="1514.94" y="430.53" width="32.71" height="32.71"/>
    <g id="s-1.3">
      <path class="cls-3" d="M1570.54,441.45h1.12v6.08H1580v-6.08h1.12v14H1580v-6.89h-8.34v6.89h-1.12Z"/>
      <path class="cls-3" d="M1588.55,450.64l-1.77,4.81h-1.14l5.13-14h1.34l5.35,14h-1.23l-1.8-4.81Zm5.51-1c-1.54-4.14-2.34-6.13-2.62-7.08h0c-.34,1.07-1.24,3.54-2.49,7.08Z"/>
      <path class="cls-3" d="M1602.42,441.45v8.47c0,3.7,2.08,4.66,4,4.66,2.33,0,4.06-1,4.06-4.66v-8.47h1.14v8.41c0,4.39-2.33,5.75-5.24,5.75s-5.17-1.5-5.17-5.57v-8.59Z"/>
      <path class="cls-3" d="M1620.5,442.48h-4.69v-1h10.54v1h-4.71v13h-1.14Z"/>
    </g>
    <rect id="r-2.3" class="cls-5" x="1514.94" y="470.53" width="32.71" height="32.71"/>
    <g id="s-2.3">
      <path class="cls-3" d="M1582.65,489c0-2.74,0-5.36.08-6.76h-.06c-.56,1.9-3.37,8.75-5.14,13.17h-1.09c-1.34-3.43-4.24-11.06-4.88-13.19h0c.1,1.6.14,4.85.14,7.25v5.94h-1.12v-14h1.68c1.9,4.78,4.3,11,4.82,12.61h0c.32-1,3.09-8,5-12.61h1.66v14h-1.12Z"/>
      <path class="cls-3" d="M1601.46,488.34c0,3.82-2,7.3-6.37,7.3-3.95,0-6.25-3.18-6.25-7.2s2.23-7.2,6.39-7.2C1599.08,481.24,1601.46,484.26,1601.46,488.34Zm-11.41,0c0,3.21,1.76,6.23,5.1,6.23,3.6,0,5.11-2.95,5.11-6.25s-1.7-6.09-5.07-6.09C1591.62,482.27,1590.05,485.23,1590.05,488.38Z"/>
      <path class="cls-3" d="M1609.5,495.44v-5.25a.76.76,0,0,0-.08-.33l-5-8.42h1.31c1.39,2.38,3.81,6.49,4.41,7.54.6-1.05,3-5.13,4.53-7.54h1.25l-5.22,8.5a.63.63,0,0,0-.06.31v5.19Z"/>
      <path class="cls-3" d="M1628.09,488.58H1621v5.83h7.81l-.16,1h-8.77v-14h8.61v1H1621v5.08h7.13Z"/>
      <path class="cls-3" d="M1633.52,495.44v-14h1.65c2.17,3.36,7.25,11.13,8.12,12.65h0c-.12-2-.1-4.08-.1-6.36v-6.29h1.14v14h-1.53c-2.07-3.23-7.23-11.33-8.22-12.87h0c.09,1.82.08,3.88.08,6.42v6.45Z"/>
    </g>
    <rect id="r-3.3" class="cls-6" x="1514.94" y="510.53" width="32.71" height="32.71"/>
    <g id="s-3.3">
      <path class="cls-3" d="M1570.54,521.44h4.91c2.69,0,4.13,1.42,4.13,3.44a3,3,0,0,1-2.15,3.06,3.53,3.53,0,0,1,2.65,3.45c0,2.79-2.1,4-4.55,4h-5Zm4.55,6c2.4,0,3.31-.89,3.31-2.5,0-1.37-1-2.48-2.9-2.48h-3.86v5Zm-3.45,7h3.92c1.83,0,3.35-.92,3.35-3,0-1.77-1.13-3-3.92-3h-3.35Z"/>
      <path class="cls-3" d="M1586.65,530.63l-1.77,4.8h-1.14l5.13-14h1.34l5.35,14h-1.23l-1.8-4.8Zm5.51-1c-1.54-4.14-2.34-6.13-2.62-7.08h0c-.34,1.07-1.24,3.54-2.49,7.08Z"/>
      <path class="cls-3" d="M1600.26,531.67c.42,1.85,1.66,2.94,3.94,2.94,2.54,0,3.51-1.27,3.51-2.78s-.7-2.54-3.76-3.29-4.25-1.72-4.25-3.73c0-1.86,1.35-3.57,4.35-3.57s4.4,1.88,4.58,3.59h-1.16c-.31-1.49-1.28-2.57-3.47-2.57-2,0-3.1.93-3.1,2.48s.91,2.12,3.49,2.76c3.94,1,4.52,2.56,4.52,4.25,0,2.07-1.5,3.84-4.75,3.84-3.5,0-4.8-2-5.06-3.92Z"/>
    </g>
    <rect id="b-3" class="cls-7" x="1507.74" y="419.86" width="165.1" height="132.73"/>
    <rect id="r-4.3" class="cls-4" x="1512.32" y="428.72" width="37.7" height="37.7"/>
    <g id="s-4.3">
      <path class="cls-3" d="M1570.54,441.45h1.12v6.08H1580v-6.08h1.12v14H1580v-6.89h-8.34v6.89h-1.12Z"/>
      <path class="cls-3" d="M1588.55,450.64l-1.77,4.81h-1.14l5.13-14h1.34l5.35,14h-1.23l-1.8-4.81Zm5.51-1c-1.54-4.14-2.34-6.13-2.62-7.08h0c-.34,1.07-1.24,3.54-2.49,7.08Z"/>
      <path class="cls-3" d="M1602.42,441.45v8.47c0,3.7,2.08,4.66,4,4.66,2.33,0,4.06-1,4.06-4.66v-8.47h1.14v8.41c0,4.39-2.33,5.75-5.24,5.75s-5.17-1.5-5.17-5.57v-8.59Z"/>
      <path class="cls-3" d="M1620.5,442.48h-4.69v-1h10.54v1h-4.71v13h-1.14Z"/>
    </g>
    <rect id="r-5.3" class="cls-10" x="1514.96" y="470.55" width="32.71" height="32.71"/>
    <g id="s-5.3">
      <path class="cls-9" d="M1582.68,489c0-2.73,0-5.35.08-6.76h-.06c-.57,1.9-3.37,8.76-5.15,13.17h-1.09c-1.33-3.42-4.24-11.05-4.88-13.19h0c.1,1.6.14,4.86.14,7.26v5.93h-1.11v-14h1.68c1.9,4.77,4.29,11,4.81,12.6h0c.32-1,3.09-8,5-12.6h1.65v14h-1.11Z"/>
      <path class="cls-9" d="M1601.49,488.36c0,3.82-2,7.29-6.37,7.29-3.95,0-6.25-3.18-6.25-7.19s2.23-7.2,6.39-7.2C1599.1,481.26,1601.49,484.27,1601.49,488.36Zm-11.42,0c0,3.2,1.77,6.22,5.11,6.22,3.6,0,5.11-2.94,5.11-6.24s-1.71-6.09-5.07-6.09C1591.64,482.29,1590.07,485.24,1590.07,488.4Z"/>
      <path class="cls-9" d="M1609.52,495.45V490.2a.68.68,0,0,0-.08-.32l-5-8.42h1.3c1.4,2.37,3.81,6.48,4.42,7.53.6-1.05,3-5.12,4.53-7.53h1.24l-5.21,8.5a.61.61,0,0,0-.06.3v5.19Z"/>
      <path class="cls-9" d="M1628.12,488.59H1621v5.83h7.8l-.16,1h-8.76v-14h8.6v1H1621v5.07h7.13Z"/>
      <path class="cls-9" d="M1633.54,495.45v-14h1.65c2.17,3.35,7.25,11.12,8.13,12.64h0c-.13-2-.11-4.07-.11-6.35v-6.29h1.14v14h-1.52c-2.07-3.22-7.24-11.33-8.23-12.87h0c.1,1.83.08,3.88.08,6.42v6.45Z"/>
    </g>
    <rect id="r-6.3" class="cls-13" x="1514.96" y="510.46" width="32.64" height="33"/>
    <g id="s-6.3">
      <path class="cls-9" d="M1570.57,521.44h4.9c2.7,0,4.13,1.43,4.13,3.44a3,3,0,0,1-2.15,3.06,3.55,3.55,0,0,1,2.65,3.46c0,2.79-2.09,4-4.55,4h-5Zm4.54,6c2.4,0,3.31-.89,3.31-2.5,0-1.37-1-2.48-2.9-2.48h-3.85v5Zm-3.44,7h3.91c1.84,0,3.36-.91,3.36-3,0-1.76-1.13-3-3.93-3h-3.34Z"/>
      <path class="cls-9" d="M1586.67,530.63l-1.76,4.81h-1.14l5.13-14h1.33l5.35,14h-1.22l-1.81-4.81Zm5.52-1c-1.55-4.13-2.35-6.13-2.63-7.07h0c-.34,1.06-1.23,3.54-2.48,7.07Z"/>
      <path class="cls-9" d="M1600.29,531.67c.41,1.85,1.65,2.94,3.93,2.94,2.54,0,3.52-1.26,3.52-2.77s-.7-2.54-3.77-3.3-4.25-1.71-4.25-3.73c0-1.85,1.35-3.57,4.36-3.57s4.4,1.88,4.58,3.59h-1.16c-.32-1.49-1.29-2.56-3.48-2.56-2,0-3.1.93-3.1,2.48s.92,2.12,3.49,2.76c3.94,1,4.53,2.55,4.53,4.24,0,2.07-1.51,3.85-4.76,3.85-3.5,0-4.79-2-5.06-3.93Z"/>
    </g>
  </g>
</svg>
