<svg xmlns="http://www.w3.org/2000/svg" width="24in" height="15.99in" viewBox="0 0 1728 1151">
  <defs>
    <style>
      .cls-1, .cls-7 {
        fill: #fff;
      }

      .cls-1 {
        opacity: 0.7;
      }

      .cls-11, .cls-12, .cls-2 {
        fill: none;
      }

      .cls-11, .cls-12, .cls-2, .cls-4, .cls-5, .cls-6 {
        stroke: #231f20;
      }

      .cls-10, .cls-11, .cls-12, .cls-2, .cls-4, .cls-5, .cls-6, .cls-8 {
        stroke-miterlimit: 10;
      }

      .cls-2 {
        stroke-width: 0.75px;
      }

      .cls-3 {
        fill: #302a2b;
      }

      .cls-4 {
        fill: #d76b7d;
      }

      .cls-10, .cls-4, .cls-5, .cls-6, .cls-8 {
        stroke-width: 0.5px;
      }

      .cls-5 {
        fill: #f8e69a;
      }

      .cls-6 {
        fill: #74bc69;
      }

      .cls-8 {
        fill: #f9f4de;
      }

      .cls-10, .cls-8 {
        stroke: #a7a9ac;
      }

      .cls-9 {
        fill: #d6d6d6;
      }

      .cls-10 {
        fill: #e1efdf;
      }

      .cls-12 {
        stroke-width: 2px;
      }
    </style>
  </defs>
  <g id="Opacity_Rectangle" data-name="Opacity Rectangle">
    <rect id="o-1" class="cls-1" x="290" y="144" width="1152.3" height="864.6"/>
  </g>
  <g id="Window">
    <polyline id="c-1" class="cls-2" points="563.97 696.89 217.84 553.64 52.34 553.64"/>
    <g id="t-1.1">
      <path class="cls-3" d="M53.19,528.92H59c4.8,0,8.13,3.35,8.13,8.6s-3.25,8.89-8.16,8.89H53.19Zm1.4,16.2h4.19c4.6,0,6.86-3.23,6.86-7.53,0-3.83-2-7.38-6.86-7.38H54.59Z"/>
      <path class="cls-3" d="M88.21,537.54c0,4.78-2.55,9.12-8,9.12-4.93,0-7.81-4-7.81-9s2.79-9,8-9C85.23,528.67,88.21,532.44,88.21,537.54ZM74,537.59c0,4,2.2,7.78,6.38,7.78,4.5,0,6.38-3.67,6.38-7.8S84.58,530,80.38,530C75.91,530,74,533.66,74,537.59Z"/>
      <path class="cls-3" d="M109.67,538.4c0-3.41,0-6.69.1-8.44h-.07c-.71,2.37-4.22,10.93-6.43,16.45h-1.36c-1.67-4.28-5.3-13.81-6.1-16.48h0c.12,2,.17,6.06.17,9.06v7.42H94.54V528.92h2.1c2.38,6,5.37,13.77,6,15.76h0c.4-1.3,3.86-10,6.29-15.76h2.07v17.49h-1.4Z"/>
      <path class="cls-3" d="M133.85,538.4c0-3.41,0-6.69.1-8.44h-.08c-.7,2.37-4.21,10.93-6.42,16.45h-1.37c-1.66-4.28-5.3-13.81-6.1-16.48h0c.13,2,.18,6.06.18,9.06v7.42h-1.4V528.92h2.11c2.37,6,5.36,13.77,6,15.76h0c.4-1.3,3.86-10,6.29-15.76h2.07v17.49h-1.39Z"/>
      <path class="cls-3" d="M144.47,540.41l-2.21,6h-1.42l6.41-17.49h1.67l6.68,17.49h-1.52l-2.26-6Zm6.89-1.29c-1.93-5.16-2.93-7.66-3.28-8.84h0c-.43,1.33-1.55,4.42-3.11,8.84Z"/>
      <path class="cls-3" d="M174.44,546.41h-1.16a12.79,12.79,0,0,1-.17-2.77c-.64,1.2-2,3-5.64,3-5,0-7.6-3.82-7.6-8.79,0-5.22,2.75-9.15,7.88-9.15,3.79,0,6.29,2,6.84,5.21h-1.4c-.74-2.45-2.45-3.92-5.49-3.92-4.35,0-6.33,3.39-6.33,7.78,0,4,1.91,7.59,6.16,7.59s5.56-2.84,5.56-6.66v-.2h-5.61v-1.29h7Z"/>
      <path class="cls-3" d="M191.77,537.84h-8.91v7.28h9.76l-.2,1.29h-11V528.92h10.76v1.29h-9.36v6.34h8.91Z"/>
      <path class="cls-3" d="M198.89,541.71c.52,2.31,2.07,3.67,4.92,3.67,3.17,0,4.39-1.58,4.39-3.47s-.87-3.17-4.7-4.12-5.31-2.14-5.31-4.66c0-2.31,1.68-4.46,5.44-4.46s5.49,2.35,5.72,4.49H207.9c-.4-1.86-1.61-3.2-4.35-3.2-2.5,0-3.86,1.16-3.86,3.09s1.14,2.65,4.35,3.45c4.93,1.23,5.66,3.2,5.66,5.3,0,2.59-1.88,4.81-5.95,4.81-4.37,0-6-2.54-6.31-4.9Z"/>
      <path class="cls-3" d="M74.74,558.92H85.37v1.29H76.14v6.55h8.65v1.29H76.14v8.36h-1.4Z"/>
      <path class="cls-3" d="M101.27,567.84H92.36v7.28h9.76l-.2,1.29H91V558.92h10.76v1.29H92.36v6.34h8.91Z"/>
      <path class="cls-3" d="M108.06,576.41V558.92h2.06c2.71,4.19,9.06,13.91,10.15,15.81h0c-.15-2.51-.13-5.1-.13-8v-7.86h1.42v17.49h-1.91c-2.58-4-9-14.16-10.27-16.08h0c.13,2.28.1,4.85.1,8v8.06Z"/>
      <path class="cls-3" d="M139.52,567.84h-8.91v7.28h9.76l-.2,1.29h-11V558.92H140v1.29h-9.36v6.34h8.91ZM135.4,553.9l3.3,3.18H137l-2.38-2.29-2.6,2.29h-1.62l3.47-3.18Z"/>
      <path class="cls-3" d="M150.71,560.21h-5.86v-1.29H158v1.29h-5.88v16.2h-1.43Z"/>
      <path class="cls-3" d="M164.54,568.27v8.14h-1.43V558.92h6.31c3.45,0,5.28,1.86,5.28,4.6a4,4,0,0,1-3.26,4.1c1.78.43,3,1.59,3,4.57v.68a11.76,11.76,0,0,0,.23,3.54h-1.42a11.46,11.46,0,0,1-.26-3.65v-.45c0-2.85-.84-4-4.17-4Zm0-1.29h4.2c3,0,4.46-1.14,4.46-3.42s-1.39-3.35-4.09-3.35h-4.57Z"/>
      <path class="cls-3" d="M191.77,567.84h-8.91v7.28h9.76l-.2,1.29h-11V558.92h10.76v1.29h-9.36v6.34h8.91Z"/>
      <path class="cls-3" d="M198.89,571.71c.52,2.31,2.07,3.67,4.92,3.67,3.17,0,4.39-1.58,4.39-3.47s-.87-3.17-4.7-4.12-5.31-2.14-5.31-4.66c0-2.31,1.68-4.46,5.44-4.46s5.49,2.35,5.72,4.49H207.9c-.4-1.86-1.61-3.2-4.35-3.2-2.5,0-3.86,1.16-3.86,3.09s1.14,2.65,4.35,3.45c4.93,1.23,5.66,3.2,5.66,5.3,0,2.59-1.88,4.81-5.95,4.81-4.37,0-6-2.54-6.31-4.9Z"/>
    </g>
    <rect id="r-1.1" class="cls-4" x="82.86" y="602" width="32.71" height="32.71"/>
    <g id="s-1.1">
      <path class="cls-3" d="M138.46,612.91h1.12V619h8.34v-6.09H149v14h-1.12V620h-8.34v6.88h-1.12Z"/>
      <path class="cls-3" d="M156.47,622.1l-1.77,4.81h-1.14l5.13-14H160l5.35,14h-1.22l-1.81-4.81Zm5.51-1c-1.54-4.13-2.34-6.13-2.62-7.07h0c-.34,1.06-1.24,3.54-2.49,7.07Z"/>
      <path class="cls-3" d="M170.34,612.91v8.48c0,3.69,2.08,4.65,4,4.65,2.33,0,4.06-1,4.06-4.65v-8.48h1.14v8.42c0,4.38-2.33,5.74-5.24,5.74-2.76,0-5.17-1.49-5.17-5.57v-8.59Z"/>
      <path class="cls-3" d="M188.42,613.94h-4.69v-1h10.54v1h-4.71v13h-1.14Z"/>
    </g>
    <rect id="r-2.1" class="cls-5" x="82.86" y="642" width="32.71" height="32.71"/>
    <g id="s-2.1">
      <path class="cls-3" d="M150.57,660.49c0-2.73,0-5.35.08-6.76h-.06c-.56,1.9-3.37,8.76-5.14,13.17h-1.09c-1.33-3.42-4.24-11-4.88-13.19h0c.1,1.6.14,4.86.14,7.26v5.93h-1.12v-14h1.68c1.91,4.77,4.3,11,4.82,12.6h0c.32-1,3.09-8,5-12.6h1.66v14h-1.12Z"/>
      <path class="cls-3" d="M169.38,659.81c0,3.82-2,7.29-6.37,7.29-3.94,0-6.24-3.18-6.24-7.19s2.22-7.2,6.39-7.2C167,652.71,169.38,655.72,169.38,659.81Zm-11.41,0c0,3.2,1.76,6.22,5.11,6.22,3.59,0,5.1-2.94,5.1-6.24s-1.7-6.09-5.07-6.09C159.54,653.74,158,656.7,158,659.85Z"/>
      <path class="cls-3" d="M177.42,666.9v-5.25a.68.68,0,0,0-.08-.32l-5-8.42h1.31c1.39,2.37,3.81,6.48,4.41,7.53.6-1.05,3-5.12,4.53-7.53h1.25l-5.22,8.5a.61.61,0,0,0-.06.3v5.19Z"/>
      <path class="cls-3" d="M196,660h-7.13v5.83h7.81l-.16,1h-8.77v-14h8.61v1h-7.49V659H196Z"/>
      <path class="cls-3" d="M201.44,666.9v-14h1.65c2.17,3.35,7.25,11.12,8.12,12.64h0c-.12-2-.1-4.07-.1-6.35v-6.29h1.14v14h-1.53c-2.07-3.22-7.23-11.33-8.22-12.87h0c.1,1.83.08,3.88.08,6.42v6.45Z"/>
    </g>
    <rect id="r-3.1" class="cls-6" x="82.86" y="681.99" width="32.71" height="32.71"/>
    <g id="s-3.1">
      <path class="cls-3" d="M138.46,692.9h4.91c2.69,0,4.13,1.43,4.13,3.44a3,3,0,0,1-2.15,3.06,3.53,3.53,0,0,1,2.65,3.46c0,2.79-2.1,4-4.55,4h-5Zm4.55,6c2.4,0,3.31-.9,3.31-2.5,0-1.37-1-2.48-2.9-2.48h-3.86v5Zm-3.45,7h3.92c1.83,0,3.35-.91,3.35-3,0-1.76-1.13-3-3.92-3h-3.35Z"/>
      <path class="cls-3" d="M154.57,702.09l-1.77,4.81h-1.14l5.13-14h1.34l5.35,14h-1.23l-1.8-4.81Zm5.51-1c-1.54-4.13-2.34-6.13-2.62-7.08h0c-.34,1.07-1.24,3.54-2.49,7.08Z"/>
      <path class="cls-3" d="M168.18,703.13c.42,1.85,1.66,2.94,3.94,2.94,2.54,0,3.51-1.26,3.51-2.77s-.7-2.54-3.76-3.3-4.25-1.71-4.25-3.73c0-1.85,1.35-3.57,4.36-3.57s4.39,1.88,4.57,3.59h-1.16c-.31-1.49-1.28-2.56-3.47-2.56-2,0-3.1.93-3.1,2.48s.91,2.12,3.49,2.76c3.94,1,4.52,2.55,4.52,4.24,0,2.07-1.5,3.85-4.75,3.85-3.5,0-4.8-2-5.06-3.93Z"/>
    </g>
    <rect id="b-1" class="cls-7" x="75.66" y="591.33" width="165.1" height="132.73"/>
    <rect id="r-4.1" class="cls-4" x="80.24" y="600.19" width="37.7" height="37.7"/>
    <g id="s-4.1">
      <path class="cls-3" d="M138.46,612.91h1.12V619h8.34v-6.09H149v14h-1.12V620h-8.34v6.88h-1.12Z"/>
      <path class="cls-3" d="M156.47,622.1l-1.77,4.81h-1.14l5.13-14H160l5.35,14h-1.22l-1.81-4.81Zm5.51-1c-1.54-4.13-2.34-6.13-2.62-7.07h0c-.34,1.06-1.24,3.54-2.49,7.07Z"/>
      <path class="cls-3" d="M170.34,612.91v8.48c0,3.69,2.08,4.65,4,4.65,2.33,0,4.06-1,4.06-4.65v-8.48h1.14v8.42c0,4.38-2.33,5.74-5.24,5.74-2.76,0-5.17-1.49-5.17-5.57v-8.59Z"/>
      <path class="cls-3" d="M188.42,613.94h-4.69v-1h10.54v1h-4.71v13h-1.14Z"/>
    </g>
    <rect id="r-5.1" class="cls-8" x="82.88" y="642.01" width="32.71" height="32.71"/>
    <g id="s-5.1">
      <path class="cls-9" d="M150.6,660.5c0-2.73,0-5.35.08-6.75h-.06c-.57,1.9-3.37,8.75-5.14,13.17h-1.1c-1.33-3.43-4.24-11.06-4.88-13.19h0c.1,1.6.14,4.85.14,7.25v5.94h-1.11v-14h1.68c1.9,4.78,4.29,11,4.81,12.61h0c.32-1,3.1-8,5-12.61h1.66v14H150.6Z"/>
      <path class="cls-9" d="M169.41,659.82c0,3.82-2,7.3-6.37,7.3-3.95,0-6.25-3.18-6.25-7.2s2.23-7.2,6.39-7.2C167,652.72,169.41,655.74,169.41,659.82Zm-11.42,0c0,3.21,1.77,6.23,5.11,6.23,3.6,0,5.11-3,5.11-6.25s-1.71-6.09-5.07-6.09C159.56,653.75,158,656.71,158,659.86Z"/>
      <path class="cls-9" d="M177.45,666.92v-5.25a.59.59,0,0,0-.09-.33l-5-8.42h1.3c1.4,2.37,3.82,6.49,4.42,7.54.6-1.05,3-5.13,4.53-7.54h1.24l-5.21,8.5a.61.61,0,0,0-.06.3v5.2Z"/>
      <path class="cls-9" d="M196,660.06h-7.13v5.83h7.81l-.17,1h-8.76v-14h8.6v1h-7.48V659H196Z"/>
      <path class="cls-9" d="M201.47,666.92v-14h1.64c2.17,3.35,7.25,11.13,8.13,12.65h0c-.12-2-.1-4.08-.1-6.36v-6.29h1.13v14h-1.52L202.54,654h0c.1,1.83.08,3.89.08,6.43v6.45Z"/>
    </g>
    <rect id="r-6.1" class="cls-10" x="82.88" y="681.93" width="32.64" height="33"/>
    <g id="s-6.1">
      <path class="cls-9" d="M138.49,692.91h4.9c2.7,0,4.13,1.42,4.13,3.44a3,3,0,0,1-2.15,3.06,3.53,3.53,0,0,1,2.65,3.45c0,2.79-2.09,4-4.54,4h-5Zm4.54,6c2.4,0,3.31-.9,3.31-2.51,0-1.37-1-2.48-2.89-2.48h-3.86v5Zm-3.44,7h3.91c1.84,0,3.36-.92,3.36-3,0-1.77-1.13-3-3.93-3h-3.34Z"/>
      <path class="cls-9" d="M154.59,702.1l-1.76,4.8h-1.14l5.13-14h1.33l5.35,14h-1.22l-1.81-4.8Zm5.52-1c-1.55-4.14-2.35-6.13-2.63-7.08h0c-.34,1.07-1.23,3.54-2.48,7.08Z"/>
      <path class="cls-9" d="M168.21,703.14c.41,1.85,1.65,2.94,3.94,2.94,2.53,0,3.51-1.27,3.51-2.78s-.7-2.54-3.77-3.29-4.25-1.72-4.25-3.73,1.35-3.57,4.36-3.57,4.4,1.88,4.58,3.59h-1.16c-.32-1.49-1.29-2.57-3.48-2.57-2,0-3.1.93-3.1,2.48s.92,2.12,3.49,2.76c3.94,1,4.53,2.56,4.53,4.25,0,2.07-1.51,3.85-4.76,3.85-3.5,0-4.79-2-5-3.93Z"/>
    </g>
    <polygon id="f-1.1" class="cls-11" points="858.02 341.02 858.02 381.66 830.51 392.77 831.77 352.89 858.02 341.02"/>
    <polygon id="f-1.2" class="cls-11" points="858.02 428.83 858.02 469.46 830.51 480.57 831.77 440.69 858.02 428.83"/>
    <polygon id="f-1.3" class="cls-11" points="855.41 522.8 855.41 563.35 827.9 572.28 829.16 532.4 855.41 522.8"/>
    <polygon id="f-1.4" class="cls-11" points="852.67 618.07 852.15 660.64 825.2 664 826.46 624.12 852.67 618.07"/>
    <polygon id="f-1.5" class="cls-11" points="851.01 718.84 850.49 761.4 823.54 764.76 824.85 723.49 851.01 718.84"/>
    <polygon id="f-1.6" class="cls-11" points="776.52 728.58 732.67 734.89 730.21 782.96 776.52 776.5 776.52 728.58"/>
    <polygon id="f-1.7" class="cls-11" points="679.54 742.01 676.53 787.67 698.64 785.66 700.51 738.83 679.54 742.01"/>
    <polygon id="f-1.9" class="cls-11" points="632.08 747.83 628.22 792.15 648.34 790.53 651.6 745.39 632.08 747.83"/>
    <polygon id="f-2.1" class="cls-11" points="659.17 435.3 656.85 464.91 677.46 458 679.49 427.18 659.17 435.3"/>
    <polygon id="f-2.2" class="cls-11" points="655.48 503.64 652.14 540.51 670.42 534.63 672.65 496.17 655.48 503.64"/>
    <polygon id="f-2.3" class="cls-11" points="648.1 582.18 645.01 620.25 663.87 615.96 666.45 577.2 648.1 582.18"/>
    <polygon id="f-2.4" class="cls-11" points="640.67 662.69 636.58 704.38 656.71 701.71 660.45 658.77 640.67 662.69"/>
    <polygon id="f-2.5" class="cls-11" points="617.62 451.96 615.5 479.06 634.36 472.73 636.22 444.52 617.62 451.96"/>
    <polygon id="f-2.6" class="cls-11" points="611.04 519.88 607.99 553.64 624.72 548.25 626.75 513.04 611.04 519.88"/>
    <polygon id="f-2.7" class="cls-11" points="604.28 595.05 601.46 629.9 618.72 625.98 621.08 590.5 604.28 595.05"/>
    <polygon id="f-2.8" class="cls-11" points="597.49 672.49 593.74 710.65 612.16 708.21 615.59 668.91 597.49 672.49"/>
    <polygon id="f-2.9" class="cls-11" points="577.45 469.55 575.39 495.78 593.65 489.65 595.46 462.35 577.45 469.55"/>
    <polygon id="f-3.1" class="cls-11" points="572.53 533.39 569.58 566.06 585.77 560.85 587.74 526.77 572.53 533.39"/>
    <polygon id="f-3.2" class="cls-11" points="564.81 605.59 562.07 639.32 578.78 635.52 581.06 601.18 564.81 605.59"/>
    <polygon id="f-3.3" class="cls-11" points="557.02 680.06 553.39 717 571.23 714.63 574.54 676.59 557.02 680.06"/>
    <polygon id="f-3.4" class="cls-11" points="472.69 513.39 469.04 542.13 480 537.74 483.36 507.99 472.69 513.39"/>
    <polygon id="f-3.5" class="cls-11" points="465.53 576.88 461.88 605.62 472.7 602.38 476.08 572.57 465.53 576.88"/>
    <polygon id="f-3.6" class="cls-11" points="453.97 640.37 450.32 669.11 461.03 666.9 464.41 637.03 453.97 640.37"/>
    <polygon id="f-3.7" class="cls-11" points="442.99 708.05 439.34 736.79 449.88 736.07 453.27 706.14 442.99 708.05"/>
  </g>
  <g id="Roof">
    <polyline id="c-2" class="cls-2" points="545.92 458 217.84 214.01 52.34 214.01"/>
    <g id="t-1.2">
      <path class="cls-3" d="M53.19,189.29H59c4.8,0,8.13,3.35,8.13,8.6s-3.25,8.89-8.16,8.89H53.19Zm1.4,16.2h4.19c4.6,0,6.86-3.23,6.86-7.53,0-3.83-2-7.38-6.86-7.38H54.59Z"/>
      <path class="cls-3" d="M88.21,197.91c0,4.78-2.55,9.12-8,9.12-4.93,0-7.81-4-7.81-9s2.79-9,8-9C85.23,189,88.21,192.81,88.21,197.91ZM74,198c0,4,2.2,7.78,6.38,7.78,4.5,0,6.38-3.68,6.38-7.8s-2.13-7.61-6.33-7.61C75.91,190.33,74,194,74,198Z"/>
      <path class="cls-3" d="M109.67,198.77c0-3.42,0-6.69.1-8.44h-.07c-.71,2.37-4.22,10.93-6.43,16.45h-1.36c-1.67-4.28-5.3-13.81-6.1-16.48h0c.12,2,.17,6.06.17,9.06v7.42H94.54V189.29h2.1c2.38,6,5.37,13.77,6,15.76h0c.4-1.3,3.86-10,6.29-15.76h2.07v17.49h-1.4Z"/>
      <path class="cls-3" d="M133.85,198.77c0-3.42,0-6.69.1-8.44h-.08c-.7,2.37-4.21,10.93-6.42,16.45h-1.37c-1.66-4.28-5.3-13.81-6.1-16.48h0c.13,2,.18,6.06.18,9.06v7.42h-1.4V189.29h2.11c2.37,6,5.36,13.77,6,15.76h0c.4-1.3,3.86-10,6.29-15.76h2.07v17.49h-1.39Z"/>
      <path class="cls-3" d="M144.47,200.78l-2.21,6h-1.42l6.41-17.49h1.67l6.68,17.49h-1.52l-2.26-6Zm6.89-1.29c-1.93-5.17-2.93-7.66-3.28-8.84h0c-.43,1.33-1.55,4.42-3.11,8.84Z"/>
      <path class="cls-3" d="M174.44,206.78h-1.16a12.79,12.79,0,0,1-.17-2.77c-.64,1.2-2,3-5.64,3-5,0-7.6-3.82-7.6-8.79,0-5.22,2.75-9.15,7.88-9.15,3.79,0,6.29,2,6.84,5.21h-1.4c-.74-2.45-2.45-3.92-5.49-3.92-4.35,0-6.33,3.39-6.33,7.78,0,4,1.91,7.59,6.16,7.59s5.56-2.84,5.56-6.66v-.2h-5.61v-1.29h7Z"/>
      <path class="cls-3" d="M191.77,198.21h-8.91v7.28h9.76l-.2,1.29h-11V189.29h10.76v1.29h-9.36v6.34h8.91Z"/>
      <path class="cls-3" d="M198.89,202.08c.52,2.31,2.07,3.67,4.92,3.67,3.17,0,4.39-1.58,4.39-3.47s-.87-3.17-4.7-4.12-5.31-2.14-5.31-4.66c0-2.31,1.68-4.46,5.44-4.46s5.49,2.35,5.72,4.49H207.9c-.4-1.86-1.61-3.21-4.35-3.21-2.5,0-3.86,1.17-3.86,3.1s1.14,2.65,4.35,3.45c4.93,1.22,5.66,3.2,5.66,5.3,0,2.59-1.88,4.81-5.95,4.81-4.37,0-6-2.54-6.31-4.9Z"/>
      <path class="cls-3" d="M158,220.58h-5.86v-1.29h13.17v1.29h-5.88v16.2H158Z"/>
      <path class="cls-3" d="M184.66,227.91c0,4.78-2.55,9.12-8,9.12-4.93,0-7.81-4-7.81-9s2.79-9,8-9C181.68,219,184.66,222.81,184.66,227.91ZM170.4,228c0,4,2.2,7.78,6.38,7.78,4.5,0,6.38-3.68,6.38-7.8s-2.13-7.61-6.33-7.61C172.36,220.33,170.4,224,170.4,228Z"/>
      <path class="cls-3" d="M192.39,219.29v17.49H191V219.29Z"/>
      <path class="cls-3" d="M203.51,220.58h-5.86v-1.29h13.17v1.29h-5.88v16.2h-1.43Z"/>
    </g>
    <rect id="r-1.2" class="cls-4" x="82.66" y="264.6" width="32.71" height="32.71"/>
    <g id="s-1.2">
      <path class="cls-3" d="M138.26,275.51h1.12v6.09h8.34v-6.09h1.12v14h-1.12v-6.88h-8.34v6.88h-1.12Z"/>
      <path class="cls-3" d="M156.27,284.71l-1.77,4.8h-1.14l5.13-14h1.34l5.35,14H164l-1.8-4.8Zm5.51-1c-1.54-4.13-2.34-6.13-2.62-7.07h0c-.34,1.06-1.24,3.54-2.49,7.07Z"/>
      <path class="cls-3" d="M170.14,275.51V284c0,3.7,2.08,4.65,4.05,4.65,2.33,0,4.06-1,4.06-4.65v-8.48h1.14v8.42c0,4.38-2.33,5.74-5.24,5.74S169,288.18,169,284.1v-8.59Z"/>
      <path class="cls-3" d="M188.22,276.54h-4.69v-1h10.54v1h-4.71v13h-1.14Z"/>
    </g>
    <rect id="r-2.2" class="cls-5" x="82.66" y="304.6" width="32.71" height="32.71"/>
    <g id="s-2.2">
      <path class="cls-3" d="M150.37,323.09c0-2.73,0-5.35.08-6.76h-.06c-.56,1.91-3.37,8.76-5.14,13.18h-1.09c-1.34-3.43-4.24-11.06-4.88-13.2h0c.1,1.61.14,4.86.14,7.26v5.94h-1.12v-14h1.68c1.91,4.77,4.3,11,4.82,12.61h0c.32-1,3.09-8,5-12.61h1.66v14h-1.12Z"/>
      <path class="cls-3" d="M169.18,322.41c0,3.82-2,7.3-6.37,7.3-3.95,0-6.25-3.18-6.25-7.2s2.23-7.2,6.39-7.2C166.8,315.31,169.18,318.32,169.18,322.41Zm-11.41,0c0,3.21,1.76,6.22,5.1,6.22,3.6,0,5.11-2.94,5.11-6.24s-1.7-6.09-5.07-6.09C159.34,316.34,157.77,319.3,157.77,322.45Z"/>
      <path class="cls-3" d="M177.22,329.51v-5.26a.68.68,0,0,0-.08-.32l-5-8.42h1.31c1.39,2.37,3.81,6.48,4.41,7.53.6-1.05,3-5.12,4.53-7.53h1.25l-5.22,8.5a.61.61,0,0,0-.06.3v5.2Z"/>
      <path class="cls-3" d="M195.81,322.64h-7.13v5.83h7.81l-.16,1h-8.77v-14h8.61v1h-7.49v5.07h7.13Z"/>
      <path class="cls-3" d="M201.24,329.51v-14h1.65c2.17,3.35,7.25,11.13,8.12,12.65h0c-.12-2-.1-4.08-.1-6.36v-6.29h1.14v14h-1.53c-2.07-3.23-7.23-11.34-8.22-12.88h0c.1,1.83.08,3.89.08,6.42v6.46Z"/>
    </g>
    <rect id="r-3.2" class="cls-6" x="82.66" y="344.59" width="32.71" height="32.71"/>
    <g id="s-3.2">
      <path class="cls-3" d="M138.26,355.5h4.91c2.69,0,4.13,1.43,4.13,3.44a3,3,0,0,1-2.15,3.06,3.55,3.55,0,0,1,2.65,3.46c0,2.79-2.1,4-4.55,4h-5Zm4.55,6c2.4,0,3.31-.89,3.31-2.5,0-1.37-1-2.48-2.9-2.48h-3.86v5Zm-3.45,7h3.92c1.83,0,3.35-.91,3.35-3,0-1.76-1.13-3-3.92-3h-3.35Z"/>
      <path class="cls-3" d="M154.37,364.69l-1.77,4.81h-1.14l5.13-14h1.34l5.35,14h-1.23l-1.8-4.81Zm5.51-1c-1.54-4.13-2.34-6.13-2.62-7.07h0c-.34,1.06-1.24,3.54-2.49,7.07Z"/>
      <path class="cls-3" d="M168,365.73c.42,1.85,1.66,2.94,3.94,2.94,2.54,0,3.51-1.26,3.51-2.77s-.7-2.54-3.76-3.3-4.25-1.71-4.25-3.73c0-1.85,1.35-3.57,4.35-3.57s4.4,1.88,4.58,3.59h-1.16c-.31-1.49-1.28-2.56-3.47-2.56-2,0-3.1.93-3.1,2.48s.91,2.12,3.49,2.76c3.94,1,4.52,2.56,4.52,4.24,0,2.07-1.5,3.85-4.75,3.85-3.5,0-4.8-2-5.06-3.93Z"/>
    </g>
    <rect id="b-2" class="cls-7" x="62.83" y="249.62" width="165.1" height="132.73"/>
    <rect id="r-4.2" class="cls-4" x="80.04" y="262.79" width="37.7" height="37.7"/>
    <g id="s-4.2">
      <path class="cls-3" d="M138.26,275.51h1.12v6.09h8.34v-6.09h1.12v14h-1.12v-6.88h-8.34v6.88h-1.12Z"/>
      <path class="cls-3" d="M156.27,284.71l-1.77,4.8h-1.14l5.13-14h1.34l5.35,14H164l-1.8-4.8Zm5.51-1c-1.54-4.13-2.34-6.13-2.62-7.07h0c-.34,1.06-1.24,3.54-2.49,7.07Z"/>
      <path class="cls-3" d="M170.14,275.51V284c0,3.7,2.08,4.65,4.05,4.65,2.33,0,4.06-1,4.06-4.65v-8.48h1.14v8.42c0,4.38-2.33,5.74-5.24,5.74S169,288.18,169,284.1v-8.59Z"/>
      <path class="cls-3" d="M188.22,276.54h-4.69v-1h10.54v1h-4.71v13h-1.14Z"/>
    </g>
    <rect id="r-5.2" class="cls-8" x="82.68" y="304.61" width="32.71" height="32.71"/>
    <g id="s-5.2">
      <path class="cls-9" d="M150.4,323.11c0-2.74,0-5.36.08-6.76h-.06c-.57,1.9-3.37,8.75-5.15,13.17h-1.09c-1.33-3.43-4.24-11.06-4.88-13.19h0c.1,1.6.14,4.85.14,7.25v5.94h-1.11v-14H140c1.9,4.78,4.29,11,4.81,12.61h0c.32-1,3.09-8,5-12.61h1.66v14H150.4Z"/>
      <path class="cls-9" d="M169.21,322.42c0,3.82-2.05,7.3-6.37,7.3-4,0-6.25-3.18-6.25-7.2s2.23-7.2,6.39-7.2C166.82,315.32,169.21,318.34,169.21,322.42Zm-11.42,0c0,3.21,1.77,6.23,5.11,6.23,3.6,0,5.11-2.95,5.11-6.25s-1.71-6.09-5.07-6.09C159.36,316.35,157.79,319.31,157.79,322.46Z"/>
      <path class="cls-9" d="M177.24,329.52v-5.25a.76.76,0,0,0-.08-.33l-5-8.42h1.3l4.42,7.54c.6-1.05,3-5.13,4.53-7.54h1.24l-5.21,8.5a.61.61,0,0,0-.06.3v5.2Z"/>
      <path class="cls-9" d="M195.84,322.66h-7.13v5.83h7.81l-.17,1h-8.76v-14h8.6v1h-7.48v5.08h7.13Z"/>
      <path class="cls-9" d="M201.27,329.52v-14h1.64c2.17,3.36,7.25,11.13,8.13,12.65h0c-.12-2-.11-4.08-.11-6.36v-6.29h1.14v14h-1.52l-8.23-12.87h0c.1,1.82.08,3.88.08,6.42v6.45Z"/>
    </g>
    <rect id="r-6.2" class="cls-10" x="82.68" y="344.53" width="32.64" height="33"/>
    <g id="s-6.2">
      <path class="cls-9" d="M138.29,355.51h4.9c2.7,0,4.13,1.42,4.13,3.44a3,3,0,0,1-2.15,3.06,3.53,3.53,0,0,1,2.65,3.45c0,2.79-2.09,4.05-4.55,4.05h-5Zm4.54,6c2.4,0,3.31-.9,3.31-2.5,0-1.38-.95-2.48-2.9-2.48h-3.85v5Zm-3.44,7h3.91c1.84,0,3.36-.92,3.36-3,0-1.77-1.13-3-3.93-3h-3.34Z"/>
      <path class="cls-9" d="M154.39,364.7l-1.76,4.81h-1.14l5.13-14H158l5.35,14h-1.22l-1.81-4.81Zm5.52-1c-1.55-4.13-2.35-6.13-2.63-7.08h0c-.34,1.07-1.23,3.54-2.48,7.08Z"/>
      <path class="cls-9" d="M168,365.74c.41,1.85,1.65,2.94,3.93,2.94,2.54,0,3.52-1.27,3.52-2.78s-.7-2.54-3.77-3.29-4.25-1.71-4.25-3.73c0-1.85,1.35-3.57,4.36-3.57s4.4,1.88,4.58,3.59h-1.16c-.32-1.49-1.29-2.57-3.48-2.57-2,0-3.1.93-3.1,2.48s.92,2.13,3.49,2.76c3.94,1,4.53,2.56,4.53,4.25,0,2.07-1.51,3.85-4.76,3.85-3.5,0-4.79-2-5.05-3.93Z"/>
    </g>
    <polygon id="a-1" class="cls-12" points="1115.57 334.12 1105.71 338.46 1100.09 337.71 1082.11 335.47 1071.25 334.34 1060.01 332.47 1049.52 332.1 1037.91 332.1 1028.54 329.52 1016.18 329.52 1001.57 329.52 993.33 329.52 980.97 329.51 961.86 329.51 925.15 302.88 928.31 300.11 937.48 297.95 950.96 298.49 941.25 289.51 902.44 304.96 897.59 299.57 950.96 276.39 947.64 271.13 419.04 519.35 401.61 514.22 396.65 516.08 396.65 518.35 399.75 518.14 399.75 527.24 396.65 526.41 391.89 525.79 388.79 527.24 389.62 530.55 391.27 532.82 388.79 534.06 392.93 544.19 885.44 320.8 913.03 307.75 916.23 306.15 960.14 337.88 977.95 337.46 997.99 336.74 1019.1 336.74 1026.97 337.46 1034.12 339.25 1040.92 338.53 1052.02 339.25 1067.04 340.68 1085.29 343.54 1097.81 344.61 1108.19 346.4 1115.57 342.82 1115.57 334.12"/>
    <polygon id="a-2" class="cls-12" points="1315.8 369.5 1161.11 146.55 1145.72 153.7 1147.06 162.56 1160.54 156.12 1313.58 373.11 1315.8 369.5"/>
  </g>
  <g id="Wall">
    <polyline id="c-3" class="cls-2" points="1130.25 630.5 1504.38 383.4 1669.88 383.4"/>
    <g id="t-1.3">
      <path class="cls-3" d="M1507.74,360.11h5.82c4.8,0,8.13,3.35,8.13,8.59s-3.25,8.9-8.16,8.9h-5.79Zm1.4,16.2h4.19c4.6,0,6.86-3.23,6.86-7.53,0-3.83-2-7.38-6.86-7.38h-4.19Z"/>
      <path class="cls-3" d="M1542.76,368.73c0,4.77-2.55,9.12-8,9.12-4.93,0-7.81-4-7.81-9s2.79-9,8-9C1539.78,359.86,1542.76,363.63,1542.76,368.73Zm-14.26,0c0,4,2.2,7.78,6.38,7.78,4.5,0,6.38-3.68,6.38-7.81s-2.13-7.6-6.33-7.6C1530.46,361.15,1528.5,364.84,1528.5,368.78Z"/>
      <path class="cls-3" d="M1564.22,369.58c0-3.41,0-6.68.1-8.44h-.07c-.71,2.38-4.22,10.94-6.43,16.46h-1.36c-1.67-4.29-5.3-13.82-6.1-16.48h0c.12,2,.17,6.06.17,9.06v7.42h-1.39V360.11h2.1c2.38,6,5.37,13.76,6,15.75h0c.41-1.29,3.87-10,6.3-15.75h2.07V377.6h-1.4Z"/>
      <path class="cls-3" d="M1588.4,369.58c0-3.41,0-6.68.1-8.44h-.08c-.7,2.38-4.21,10.94-6.42,16.46h-1.37c-1.66-4.29-5.3-13.82-6.1-16.48h0c.13,2,.18,6.06.18,9.06v7.42h-1.4V360.11h2.11c2.37,6,5.36,13.76,6,15.75h0c.4-1.29,3.86-10,6.29-15.75h2.07V377.6h-1.39Z"/>
      <path class="cls-3" d="M1599,371.59l-2.21,6h-1.42l6.41-17.49h1.67l6.68,17.49h-1.53l-2.25-6Zm6.89-1.28c-1.93-5.17-2.93-7.66-3.28-8.85h0c-.43,1.34-1.55,4.43-3.11,8.85Z"/>
      <path class="cls-3" d="M1629,377.6h-1.16a12.93,12.93,0,0,1-.17-2.78c-.64,1.2-2,3-5.64,3-5,0-7.6-3.82-7.6-8.8,0-5.22,2.75-9.14,7.88-9.14,3.79,0,6.29,2,6.84,5.2h-1.4c-.74-2.44-2.45-3.92-5.49-3.92-4.35,0-6.33,3.39-6.33,7.79,0,4,1.91,7.58,6.16,7.58s5.56-2.83,5.56-6.66v-.19H1622v-1.29h7Z"/>
      <path class="cls-3" d="M1646.32,369h-8.91v7.28h9.76l-.2,1.29h-11V360.11h10.76v1.29h-9.36v6.34h8.91Z"/>
      <path class="cls-3" d="M1653.44,372.89c.52,2.31,2.06,3.67,4.92,3.67,3.17,0,4.39-1.58,4.39-3.46s-.87-3.18-4.7-4.12-5.31-2.14-5.31-4.66c0-2.31,1.68-4.46,5.44-4.46s5.49,2.35,5.72,4.48h-1.45c-.4-1.85-1.61-3.2-4.35-3.2-2.5,0-3.86,1.16-3.86,3.1s1.14,2.65,4.35,3.45c4.93,1.22,5.66,3.19,5.66,5.3,0,2.59-1.88,4.81-6,4.81-4.37,0-6-2.54-6.31-4.91Z"/>
      <path class="cls-3" d="M1522.87,399.58c0-3.41,0-6.68.1-8.44h-.07c-.71,2.38-4.22,10.94-6.43,16.46h-1.36c-1.67-4.29-5.3-13.82-6.1-16.48h0c.12,2,.17,6.06.17,9.06v7.42h-1.39V390.11h2.1c2.38,6,5.37,13.76,6,15.75h.05c.4-1.29,3.86-10,6.29-15.75h2.07V407.6h-1.4Z"/>
      <path class="cls-3" d="M1533.26,390.11V400.7c0,4.62,2.61,5.81,5.07,5.81,2.9,0,5.06-1.22,5.06-5.81V390.11h1.43v10.51c0,5.48-2.91,7.18-6.54,7.18-3.46,0-6.47-1.87-6.47-7V390.11Z"/>
      <path class="cls-3" d="M1553.61,399.45v8.15h-1.42V390.11h6.3c3.46,0,5.29,1.85,5.29,4.6a4,4,0,0,1-3.26,4.1c1.78.42,3,1.59,3,4.57v.67a11.85,11.85,0,0,0,.22,3.55h-1.42a11.89,11.89,0,0,1-.25-3.66v-.44c0-2.85-.84-4.05-4.18-4.05Zm0-1.28h4.2c3,0,4.47-1.15,4.47-3.43s-1.39-3.34-4.1-3.34h-4.57Z"/>
      <path class="cls-3" d="M1570.59,402.89c.52,2.31,2.07,3.67,4.92,3.67,3.17,0,4.39-1.58,4.39-3.46s-.87-3.18-4.7-4.12-5.31-2.14-5.31-4.66c0-2.31,1.68-4.46,5.44-4.46s5.49,2.35,5.72,4.48h-1.45c-.4-1.85-1.61-3.2-4.35-3.2-2.5,0-3.86,1.16-3.86,3.1s1.14,2.65,4.35,3.45c4.93,1.22,5.66,3.19,5.66,5.3,0,2.59-1.88,4.81-5.94,4.81-4.38,0-6-2.54-6.32-4.91Z"/>
    </g>
    <rect id="r-1.3" class="cls-4" x="1513.14" y="445.76" width="32.71" height="32.71"/>
    <g id="s-1.3">
      <path class="cls-3" d="M1568.75,456.67h1.12v6.09h8.34v-6.09h1.12v14h-1.12v-6.88h-8.34v6.88h-1.12Z"/>
      <path class="cls-3" d="M1586.75,465.87l-1.76,4.8h-1.14l5.13-14h1.33l5.35,14h-1.22l-1.81-4.8Zm5.52-1c-1.55-4.13-2.35-6.13-2.63-7.07h0c-.34,1.06-1.23,3.54-2.48,7.07Z"/>
      <path class="cls-3" d="M1600.62,456.67v8.48c0,3.7,2.09,4.65,4.06,4.65,2.32,0,4-1,4-4.65v-8.48h1.14v8.42c0,4.38-2.33,5.74-5.23,5.74s-5.18-1.49-5.18-5.57v-8.59Z"/>
      <path class="cls-3" d="M1618.7,457.7H1614v-1h10.54v1h-4.71v13h-1.14Z"/>
    </g>
    <rect id="r-2.3" class="cls-5" x="1513.14" y="485.76" width="32.71" height="32.71"/>
    <g id="s-2.3">
      <path class="cls-3" d="M1580.86,504.25c0-2.73,0-5.35.08-6.76h-.06c-.57,1.91-3.38,8.76-5.15,13.18h-1.09c-1.33-3.43-4.24-11.06-4.88-13.2h0c.1,1.61.14,4.86.14,7.26v5.94h-1.11v-14h1.68c1.9,4.77,4.29,11,4.81,12.61h0c.32-1,3.09-8,5-12.61H1582v14h-1.11Z"/>
      <path class="cls-3" d="M1599.67,503.57c0,3.82-2.05,7.3-6.37,7.3-4,0-6.25-3.18-6.25-7.2s2.23-7.2,6.39-7.2C1597.28,496.47,1599.67,499.48,1599.67,503.57Zm-11.42,0c0,3.21,1.77,6.22,5.11,6.22,3.6,0,5.11-2.94,5.11-6.24s-1.71-6.09-5.07-6.09C1589.82,497.5,1588.25,500.46,1588.25,503.61Z"/>
      <path class="cls-3" d="M1607.7,510.67v-5.26a.68.68,0,0,0-.08-.32l-5-8.42h1.3c1.4,2.37,3.81,6.48,4.42,7.53.6-1.05,3-5.12,4.53-7.53h1.24l-5.21,8.5a.6.6,0,0,0-.07.3v5.2Z"/>
      <path class="cls-3" d="M1626.29,503.8h-7.12v5.83h7.8l-.16,1H1618v-14h8.61v1h-7.48v5.07h7.12Z"/>
      <path class="cls-3" d="M1631.72,510.67v-14h1.65c2.17,3.35,7.25,11.13,8.13,12.64h0c-.13-2-.11-4.07-.11-6.35v-6.29h1.14v14H1641l-8.23-12.88h0c.1,1.83.08,3.89.08,6.42v6.46Z"/>
    </g>
    <rect id="r-3.3" class="cls-6" x="1513.14" y="525.75" width="32.71" height="32.71"/>
    <g id="s-3.3">
      <path class="cls-3" d="M1568.75,536.66h4.9c2.7,0,4.13,1.43,4.13,3.44a3,3,0,0,1-2.15,3.06,3.53,3.53,0,0,1,2.65,3.46c0,2.79-2.09,4-4.55,4h-5Zm4.54,6c2.4,0,3.31-.89,3.31-2.5,0-1.37-.95-2.48-2.9-2.48h-3.85v5Zm-3.44,7h3.91c1.84,0,3.36-.91,3.36-3,0-1.76-1.13-3-3.93-3h-3.34Z"/>
      <path class="cls-3" d="M1584.85,545.85l-1.77,4.81H1582l5.13-14h1.33l5.35,14h-1.22l-1.81-4.81Zm5.52-1c-1.55-4.13-2.35-6.13-2.63-7.07h0c-.34,1.06-1.23,3.54-2.48,7.07Z"/>
      <path class="cls-3" d="M1598.47,546.89c.41,1.85,1.65,2.94,3.93,2.94,2.54,0,3.52-1.26,3.52-2.77s-.7-2.54-3.77-3.3-4.25-1.71-4.25-3.73c0-1.85,1.35-3.57,4.36-3.57s4.4,1.88,4.58,3.59h-1.16c-.32-1.49-1.29-2.56-3.48-2.56-2,0-3.1.93-3.1,2.48s.92,2.12,3.49,2.76c3.94,1,4.53,2.55,4.53,4.24,0,2.07-1.51,3.85-4.76,3.85-3.5,0-4.79-2-5.06-3.93Z"/>
    </g>
    <rect id="b-3" class="cls-7" x="1505.94" y="435.09" width="165.1" height="132.73"/>
    <rect id="r-4.3" class="cls-4" x="1510.52" y="443.95" width="37.7" height="37.7"/>
    <g id="s-4.3">
      <path class="cls-3" d="M1568.75,456.67h1.12v6.09h8.34v-6.09h1.12v14h-1.12v-6.88h-8.34v6.88h-1.12Z"/>
      <path class="cls-3" d="M1586.75,465.87l-1.76,4.8h-1.14l5.13-14h1.33l5.35,14h-1.22l-1.81-4.8Zm5.52-1c-1.55-4.13-2.35-6.13-2.63-7.07h0c-.34,1.06-1.23,3.54-2.48,7.07Z"/>
      <path class="cls-3" d="M1600.62,456.67v8.48c0,3.7,2.09,4.65,4.06,4.65,2.32,0,4-1,4-4.65v-8.48h1.14v8.42c0,4.38-2.33,5.74-5.23,5.74s-5.18-1.49-5.18-5.57v-8.59Z"/>
      <path class="cls-3" d="M1618.7,457.7H1614v-1h10.54v1h-4.71v13h-1.14Z"/>
    </g>
    <rect id="r-5.3" class="cls-8" x="1513.17" y="485.77" width="32.71" height="32.71"/>
    <g id="s-5.3">
      <path class="cls-9" d="M1580.88,504.27c0-2.74,0-5.36.08-6.76h-.06c-.56,1.9-3.37,8.75-5.14,13.17h-1.09c-1.34-3.43-4.24-11.06-4.88-13.19h0c.1,1.6.14,4.85.14,7.25v5.94h-1.12v-14h1.68c1.9,4.78,4.3,11,4.82,12.61h0c.33-1,3.1-8,5-12.61H1582v14h-1.12Z"/>
      <path class="cls-9" d="M1599.69,503.58c0,3.82-2,7.3-6.37,7.3-4,0-6.25-3.18-6.25-7.2s2.23-7.2,6.39-7.2C1597.31,496.48,1599.69,499.5,1599.69,503.58Zm-11.42,0c0,3.21,1.77,6.23,5.11,6.23,3.6,0,5.11-3,5.11-6.25s-1.71-6.09-5.07-6.09C1589.84,497.51,1588.27,500.47,1588.27,503.62Z"/>
      <path class="cls-9" d="M1607.73,510.68v-5.25a.76.76,0,0,0-.08-.33l-5-8.42H1604c1.39,2.37,3.81,6.49,4.41,7.54.6-1.05,3-5.13,4.53-7.54h1.24l-5.21,8.5a.61.61,0,0,0-.06.3v5.2Z"/>
      <path class="cls-9" d="M1626.32,503.82h-7.13v5.83H1627l-.17,1h-8.76v-14h8.61v1h-7.49v5.08h7.13Z"/>
      <path class="cls-9" d="M1631.75,510.68v-14h1.65c2.17,3.36,7.24,11.13,8.12,12.65h0c-.12-2-.1-4.08-.1-6.36v-6.29h1.13v14h-1.52c-2.07-3.23-7.23-11.33-8.23-12.88h0c.1,1.83.08,3.89.08,6.43v6.45Z"/>
    </g>
    <rect id="r-6.3" class="cls-10" x="1513.17" y="525.69" width="32.64" height="33"/>
    <g id="s-6.3">
      <path class="cls-9" d="M1568.77,536.67h4.91c2.69,0,4.13,1.42,4.13,3.44a3,3,0,0,1-2.15,3.06,3.53,3.53,0,0,1,2.64,3.45c0,2.79-2.09,4-4.54,4h-5Zm4.55,6c2.39,0,3.31-.9,3.31-2.5,0-1.38-1-2.48-2.9-2.48h-3.86v5Zm-3.45,7h3.91c1.84,0,3.36-.92,3.36-3,0-1.77-1.13-3-3.92-3h-3.35Z"/>
      <path class="cls-9" d="M1584.88,545.86l-1.77,4.81H1582l5.13-14h1.33l5.36,14h-1.23l-1.8-4.81Zm5.51-1c-1.55-4.13-2.34-6.13-2.62-7.08h0c-.34,1.07-1.24,3.54-2.49,7.08Z"/>
      <path class="cls-9" d="M1598.49,546.9c.42,1.85,1.65,2.94,3.94,2.94,2.54,0,3.51-1.27,3.51-2.78s-.7-2.54-3.76-3.29-4.25-1.71-4.25-3.73c0-1.85,1.35-3.57,4.35-3.57s4.4,1.88,4.58,3.59h-1.16c-.32-1.49-1.28-2.57-3.48-2.57-2,0-3.09.93-3.09,2.48s.91,2.13,3.48,2.76c4,1,4.53,2.56,4.53,4.25,0,2.07-1.51,3.85-4.76,3.85-3.5,0-4.79-2-5.05-3.93Z"/>
    </g>
    <path id="w-1" class="cls-12" d="M1313.58,373.11l43.92,348.44,5.78,2.6-2.54,4.65L1372.36,825v11.21l6.4,62.43-2.67,14.94-4.8,9.6-81.1,6.4-6.94-9.6-56.55-9.07-23.51-4.18,7.82-45-7.82-5.22-17-20.87-15.65-12.39-12.39-5.87L1151,818V753.94l2.24-13.49-7-1.62,2.7-49.65-2.7-11.33-3.78-14V651.33l-12.21-10.72,3-5.39-3-8.31,4.12-10,3.93-5.57,5-3.71.74-4-.25-5L1142,592l.25-10.89-2-9.9s-.5-6.43-.5-7.67,2.23-4.45,2.23-4.45l2-4-4-4.46-4.7-3v-5.19l-5.08-2.48-1.11-5.2,1.11-7.67,5.57-5.19.75-7.68-1.24-3.62-7.67-7,2.59-5.44v-5.69l6.07-4V475.69l-3.47-23.76-1-10.15-4.2-6.43-2.23-5.94-2.72-6.93-3.22-2.72-5.44-9.9s4-4,4.2-4.7,4.7-3.47,4.7-3.47l3.72-2.47,1-4.21.49-4.21-2.72-1.48-3-2-.25-3.94,4.21-3,2.72-5.69-1.24-27.47-1.23-9.65-5.94-6.44-6.68-5.94-4.21-3.46-1.4-6,5.47-8.69h4.19l3.54-1.93-2.9-7.08-3.17-2.58,5.1-1.61-2.89-4.35-3.87-3.05,1.66-5.79,4.78-5.79,1.61-5.15-4.18-49.56,12.22-3.54,1.93-5.47-2.89-4.38,5.79-2.06h5.47l5.42-3.54v-12.5l-6.17,2.34-1.33-4.51,4.17-2.33-.67-4.84,5.17-2.5h1.5l-1.17-12"/>
    <path id="w-2" class="cls-12" d="M353.62,767l39.31-222.81L898.18,314.77v19.17l-3.32,9.78-.54,20.77,3.88,5.9,2.95,3.33-3.14,5-3,13.47-1.48,11.08,2.4,7h0l1.23,15.6L894.69,454l6.43,11,3.91.39,3.13,3.52-7.57,8.57-3.32,8.67L894,499.22l.52,13.08-1.17,23.46-1.56,14.91,3.52,7.39,4.3,11.34,2,10.17-1.17,7.82-4.69,5.87L893.3,607v9.78L891,656.62l3.91,5.87,2.35,6.65-1.56,3.52-3.91,8.21.39,9.78.39,9.39v6.86L891,712.16l.79,9.39-1.57,15.64,1.57,18.39v8.21l.73,8.23,5.52,5.46,1.57,8.21.39,6.65.39,7.82v18.39l-.39,9.38h4.3l-.23,19.3s-.31,11.82-.31,13.07v10.57L899,874.61l-18.35,2.18-10.89-4.67L849,869.94l-7.46-2.8-15.25-5.6-9.64-2.49-8.4-1.86-6.54,4-5,2.49L790.15,860l-3.73,4-3.73,6.53L778,866.21l-3.42,1.86-12.14,6.23-11.2,4.35-6.22,5.6H695.26l-13.75-4-6,4,6,9.28-.86,8.6L663.89,915l-12,5.16-30.41,8.63L564,947.46,325.75,935.91Z"/>
    <path id="w-3" class="cls-12" d="M898.18,314.77l8.16,7.55v12.89l-4.08,10.87v12.09l1.66,8.06,4.24,7.65L905.53,384l-2.36,10.88L901.5,405.3l1.67,20.14-1.67,20.14v8.86l4.55,7.22h3.45l2.38,4.76v4.25L905,477.55,900.49,495l-.26,12.19.26,7.68S901.78,530,902,530.77s-1.9,19.9-1.9,19.9l4.19,15,3.83,9.85L910,586.16,906.85,592l-7.42,10.59-2.65,4.5L900,609.2l1.86,11.13s-.8,10.18-.8,10.79v15.7c0,1.32-.79,8.74-.79,9.53a9,9,0,0,0,1.06,4.24,63.78,63.78,0,0,1,3,6.31l1.72,2.43L904.33,673l-4.37,6.1v9.8l1.59,12.71-2.91,8s-.27,6.89.26,7.68-2.12,13.51-2.12,13.51l3.88,21.54s-.47,14.44-.2,15.5.3,5.34,1.09,5.87,2.78,5.83,2.78,5.83v20.66l3.83,4h3.72v22.51s-2.65,1.86-2.38,2.92.53,22,.53,22l-.53,15.9-5.79,3.39"/>
  </g>
</svg>
