<svg xmlns="http://www.w3.org/2000/svg" width="24in" height="15.99in" viewBox="0 0 1728 1151">
  <defs>
    <style>
      .cls-1, .cls-7 {
        fill: #fff;
      }

      .cls-1 {
        opacity: 0.7;
      }

      .cls-11, .cls-12, .cls-2 {
        fill: none;
      }

      .cls-2, .cls-4, .cls-5, .cls-6 {
        stroke: #231f20;
      }

      .cls-10, .cls-11, .cls-12, .cls-2, .cls-4, .cls-5, .cls-6, .cls-8 {
        stroke-miterlimit: 10;
      }

      .cls-2 {
        stroke-width: 0.75px;
      }

      .cls-3 {
        fill: #302a2b;
      }

      .cls-4 {
        fill: #d76b7d;
      }

      .cls-10, .cls-4, .cls-5, .cls-6, .cls-8 {
        stroke-width: 0.5px;
      }

      .cls-5 {
        fill: #f8e69a;
      }

      .cls-6 {
        fill: #74bc69;
      }

      .cls-8 {
        fill: #f9f4de;
      }

      .cls-10, .cls-8 {
        stroke: #a7a9ac;
      }

      .cls-9 {
        fill: #d6d6d6;
      }

      .cls-10 {
        fill: #e1efdf;
      }

      .cls-11, .cls-12 {
        stroke: #302a2b;
      }

      .cls-12 {
        stroke-width: 2px;
      }
    </style>
  </defs>
  <g id="Tomb">
    <polyline id="c-2" class="cls-2" points="565.29 472.43 217.84 214.01 52.34 214.01"/>
    <g id="t-1.2">
      <path class="cls-3" d="M53.19,189.29H59c4.8,0,8.13,3.35,8.13,8.6s-3.25,8.89-8.16,8.89H53.19Zm1.4,16.2h4.19c4.6,0,6.86-3.23,6.86-7.53,0-3.83-2-7.38-6.86-7.38H54.59Z"/>
      <path class="cls-3" d="M88.21,197.91c0,4.78-2.55,9.12-8,9.12-4.93,0-7.81-4-7.81-9s2.79-9,8-9C85.23,189,88.21,192.81,88.21,197.91ZM74,198c0,4,2.2,7.78,6.38,7.78,4.5,0,6.38-3.68,6.38-7.8s-2.13-7.61-6.33-7.61C75.91,190.33,74,194,74,198Z"/>
      <path class="cls-3" d="M109.67,198.77c0-3.42,0-6.69.1-8.44h-.07c-.71,2.37-4.22,10.93-6.43,16.45h-1.36c-1.67-4.28-5.3-13.81-6.1-16.48h0c.12,2,.17,6.06.17,9.06v7.42H94.54V189.29h2.1c2.38,6,5.37,13.77,6,15.76h0c.4-1.3,3.86-10,6.29-15.76h2.07v17.49h-1.4Z"/>
      <path class="cls-3" d="M133.85,198.77c0-3.42,0-6.69.1-8.44h-.08c-.7,2.37-4.21,10.93-6.42,16.45h-1.37c-1.66-4.28-5.3-13.81-6.1-16.48h0c.13,2,.18,6.06.18,9.06v7.42h-1.4V189.29h2.11c2.37,6,5.36,13.77,6,15.76h0c.4-1.3,3.86-10,6.29-15.76h2.07v17.49h-1.39Z"/>
      <path class="cls-3" d="M144.47,200.78l-2.21,6h-1.42l6.41-17.49h1.67l6.68,17.49h-1.52l-2.26-6Zm6.89-1.29c-1.93-5.17-2.93-7.66-3.28-8.84h0c-.43,1.33-1.55,4.42-3.11,8.84Z"/>
      <path class="cls-3" d="M174.44,206.78h-1.16a12.79,12.79,0,0,1-.17-2.77c-.64,1.2-2,3-5.64,3-5,0-7.6-3.82-7.6-8.79,0-5.22,2.75-9.15,7.88-9.15,3.79,0,6.29,2,6.84,5.21h-1.4c-.74-2.45-2.45-3.92-5.49-3.92-4.35,0-6.33,3.39-6.33,7.78,0,4,1.91,7.59,6.16,7.59s5.56-2.84,5.56-6.66v-.2h-5.61v-1.29h7Z"/>
      <path class="cls-3" d="M191.77,198.21h-8.91v7.28h9.76l-.2,1.29h-11V189.29h10.76v1.29h-9.36v6.34h8.91Z"/>
      <path class="cls-3" d="M198.89,202.08c.52,2.31,2.07,3.67,4.92,3.67,3.17,0,4.39-1.58,4.39-3.47s-.87-3.17-4.7-4.12-5.31-2.14-5.31-4.66c0-2.31,1.68-4.46,5.44-4.46s5.49,2.35,5.72,4.49H207.9c-.4-1.86-1.61-3.21-4.35-3.21-2.5,0-3.86,1.17-3.86,3.1s1.14,2.65,4.35,3.45c4.93,1.22,5.66,3.2,5.66,5.3,0,2.59-1.88,4.81-5.95,4.81-4.37,0-6-2.54-6.31-4.9Z"/>
      <path class="cls-3" d="M105.91,220.58h-5.86v-1.29h13.17v1.29h-5.88v16.2h-1.43Z"/>
      <path class="cls-3" d="M132.56,227.91c0,4.78-2.55,9.12-8,9.12-4.93,0-7.81-4-7.81-9s2.79-9,8-9C129.58,219,132.56,222.81,132.56,227.91ZM118.3,228c0,4,2.2,7.78,6.38,7.78,4.5,0,6.38-3.68,6.38-7.8s-2.13-7.61-6.33-7.61C120.26,220.33,118.3,224,118.3,228Z"/>
      <path class="cls-3" d="M154,228.77c0-3.42,0-6.69.1-8.44h-.07c-.71,2.37-4.22,10.93-6.43,16.45h-1.36c-1.67-4.28-5.3-13.81-6.1-16.48h0c.12,2,.17,6.06.17,9.06v7.42h-1.39V219.29H141c2.38,6,5.37,13.77,6,15.76h.05c.4-1.3,3.86-10,6.29-15.76h2.07v17.49H154Z"/>
      <path class="cls-3" d="M163.06,219.29h6.13c3.37,0,5.17,1.79,5.17,4.3a3.8,3.8,0,0,1-2.69,3.83,4.4,4.4,0,0,1,3.31,4.31c0,3.49-2.62,5.05-5.68,5.05h-6.24Zm5.69,7.51c3,0,4.13-1.12,4.13-3.12,0-1.72-1.19-3.1-3.62-3.1h-4.82v6.22Zm-4.31,8.7h4.89c2.29,0,4.2-1.15,4.2-3.7,0-2.2-1.42-3.72-4.91-3.72h-4.18Z"/>
      <path class="cls-3" d="M191.77,228.21h-8.91v7.28h9.76l-.2,1.29h-11V219.29h10.76v1.29h-9.36v6.34h8.91Z"/>
      <path class="cls-3" d="M198.89,232.08c.52,2.31,2.07,3.67,4.92,3.67,3.17,0,4.39-1.58,4.39-3.47s-.87-3.17-4.7-4.12-5.31-2.14-5.31-4.66c0-2.31,1.68-4.46,5.44-4.46s5.49,2.35,5.72,4.49H207.9c-.4-1.86-1.61-3.21-4.35-3.21-2.5,0-3.86,1.17-3.86,3.1s1.14,2.65,4.35,3.45c4.93,1.22,5.66,3.2,5.66,5.3,0,2.59-1.88,4.81-5.94,4.81-4.38,0-6-2.54-6.32-4.9Z"/>
    </g>
    <rect id="r-1.2" class="cls-4" x="82.66" y="264.6" width="32.71" height="32.71"/>
    <g id="s-1.2">
      <path class="cls-3" d="M138.26,275.51h1.12v6.09h8.34v-6.09h1.12v14h-1.12v-6.88h-8.34v6.88h-1.12Z"/>
      <path class="cls-3" d="M156.27,284.71l-1.77,4.8h-1.14l5.13-14h1.34l5.35,14H164l-1.8-4.8Zm5.51-1c-1.54-4.13-2.34-6.13-2.62-7.07h0c-.34,1.06-1.24,3.54-2.49,7.07Z"/>
      <path class="cls-3" d="M170.14,275.51V284c0,3.7,2.08,4.65,4.05,4.65,2.33,0,4.06-1,4.06-4.65v-8.48h1.14v8.42c0,4.38-2.33,5.74-5.24,5.74S169,288.18,169,284.1v-8.59Z"/>
      <path class="cls-3" d="M188.22,276.54h-4.69v-1h10.54v1h-4.71v13h-1.14Z"/>
    </g>
    <rect id="r-2.2" class="cls-5" x="82.66" y="304.6" width="32.71" height="32.71"/>
    <g id="s-2.2">
      <path class="cls-3" d="M150.37,323.09c0-2.73,0-5.35.08-6.76h-.06c-.56,1.91-3.37,8.76-5.14,13.18h-1.09c-1.34-3.43-4.24-11.06-4.88-13.2h0c.1,1.61.14,4.86.14,7.26v5.94h-1.12v-14h1.68c1.91,4.77,4.3,11,4.82,12.61h0c.32-1,3.09-8,5-12.61h1.66v14h-1.12Z"/>
      <path class="cls-3" d="M169.18,322.41c0,3.82-2,7.3-6.37,7.3-3.95,0-6.25-3.18-6.25-7.2s2.23-7.2,6.39-7.2C166.8,315.31,169.18,318.32,169.18,322.41Zm-11.41,0c0,3.21,1.76,6.22,5.1,6.22,3.6,0,5.11-2.94,5.11-6.24s-1.7-6.09-5.07-6.09C159.34,316.34,157.77,319.3,157.77,322.45Z"/>
      <path class="cls-3" d="M177.22,329.51v-5.26a.68.68,0,0,0-.08-.32l-5-8.42h1.31c1.39,2.37,3.81,6.48,4.41,7.53.6-1.05,3-5.12,4.53-7.53h1.25l-5.22,8.5a.61.61,0,0,0-.06.3v5.2Z"/>
      <path class="cls-3" d="M195.81,322.64h-7.13v5.83h7.81l-.16,1h-8.77v-14h8.61v1h-7.49v5.07h7.13Z"/>
      <path class="cls-3" d="M201.24,329.51v-14h1.65c2.17,3.35,7.25,11.13,8.12,12.65h0c-.12-2-.1-4.08-.1-6.36v-6.29h1.14v14h-1.53c-2.07-3.23-7.23-11.34-8.22-12.88h0c.1,1.83.08,3.89.08,6.42v6.46Z"/>
    </g>
    <rect id="r-3.2" class="cls-6" x="82.66" y="344.59" width="32.71" height="32.71"/>
    <g id="s-3.2">
      <path class="cls-3" d="M138.26,355.5h4.91c2.69,0,4.13,1.43,4.13,3.44a3,3,0,0,1-2.15,3.06,3.55,3.55,0,0,1,2.65,3.46c0,2.79-2.1,4-4.55,4h-5Zm4.55,6c2.4,0,3.31-.89,3.31-2.5,0-1.37-1-2.48-2.9-2.48h-3.86v5Zm-3.45,7h3.92c1.83,0,3.35-.91,3.35-3,0-1.76-1.13-3-3.92-3h-3.35Z"/>
      <path class="cls-3" d="M154.37,364.69l-1.77,4.81h-1.14l5.13-14h1.34l5.35,14h-1.23l-1.8-4.81Zm5.51-1c-1.54-4.13-2.34-6.13-2.62-7.07h0c-.34,1.06-1.24,3.54-2.49,7.07Z"/>
      <path class="cls-3" d="M168,365.73c.42,1.85,1.66,2.94,3.94,2.94,2.54,0,3.51-1.26,3.51-2.77s-.7-2.54-3.76-3.3-4.25-1.71-4.25-3.73c0-1.85,1.35-3.57,4.35-3.57s4.4,1.88,4.58,3.59h-1.16c-.31-1.49-1.28-2.56-3.47-2.56-2,0-3.1.93-3.1,2.48s.91,2.12,3.49,2.76c3.94,1,4.52,2.56,4.52,4.24,0,2.07-1.5,3.85-4.75,3.85-3.5,0-4.8-2-5.06-3.93Z"/>
    </g>
    <rect id="b-2" class="cls-7" x="62.83" y="249.62" width="165.1" height="132.73"/>
    <rect id="r-4.2" class="cls-4" x="80.04" y="262.79" width="37.7" height="37.7"/>
    <g id="s-4.2">
      <path class="cls-3" d="M138.26,275.51h1.12v6.09h8.34v-6.09h1.12v14h-1.12v-6.88h-8.34v6.88h-1.12Z"/>
      <path class="cls-3" d="M156.27,284.71l-1.77,4.8h-1.14l5.13-14h1.34l5.35,14H164l-1.8-4.8Zm5.51-1c-1.54-4.13-2.34-6.13-2.62-7.07h0c-.34,1.06-1.24,3.54-2.49,7.07Z"/>
      <path class="cls-3" d="M170.14,275.51V284c0,3.7,2.08,4.65,4.05,4.65,2.33,0,4.06-1,4.06-4.65v-8.48h1.14v8.42c0,4.38-2.33,5.74-5.24,5.74S169,288.18,169,284.1v-8.59Z"/>
      <path class="cls-3" d="M188.22,276.54h-4.69v-1h10.54v1h-4.71v13h-1.14Z"/>
    </g>
    <rect id="r-5.2" class="cls-8" x="82.68" y="304.61" width="32.71" height="32.71"/>
    <g id="s-5.2">
      <path class="cls-9" d="M150.4,323.11c0-2.74,0-5.36.08-6.76h-.06c-.57,1.9-3.37,8.75-5.15,13.17h-1.09c-1.33-3.43-4.24-11.06-4.88-13.19h0c.1,1.6.14,4.85.14,7.25v5.94h-1.11v-14H140c1.9,4.78,4.29,11,4.81,12.61h0c.32-1,3.09-8,5-12.61h1.66v14H150.4Z"/>
      <path class="cls-9" d="M169.21,322.42c0,3.82-2.05,7.3-6.37,7.3-4,0-6.25-3.18-6.25-7.2s2.23-7.2,6.39-7.2C166.82,315.32,169.21,318.34,169.21,322.42Zm-11.42,0c0,3.21,1.77,6.23,5.11,6.23,3.6,0,5.11-2.95,5.11-6.25s-1.71-6.09-5.07-6.09C159.36,316.35,157.79,319.31,157.79,322.46Z"/>
      <path class="cls-9" d="M177.24,329.52v-5.25a.76.76,0,0,0-.08-.33l-5-8.42h1.3l4.42,7.54c.6-1.05,3-5.13,4.53-7.54h1.24l-5.21,8.5a.61.61,0,0,0-.06.3v5.2Z"/>
      <path class="cls-9" d="M195.84,322.66h-7.13v5.83h7.81l-.17,1h-8.76v-14h8.6v1h-7.48v5.08h7.13Z"/>
      <path class="cls-9" d="M201.27,329.52v-14h1.64c2.17,3.36,7.25,11.13,8.13,12.65h0c-.12-2-.11-4.08-.11-6.36v-6.29h1.14v14h-1.52l-8.23-12.87h0c.1,1.82.08,3.88.08,6.42v6.45Z"/>
    </g>
    <rect id="r-6.2" class="cls-10" x="82.68" y="344.53" width="32.64" height="33"/>
    <g id="s-6.2">
      <path class="cls-9" d="M138.29,355.51h4.9c2.7,0,4.13,1.42,4.13,3.44a3,3,0,0,1-2.15,3.06,3.53,3.53,0,0,1,2.65,3.45c0,2.79-2.09,4.05-4.55,4.05h-5Zm4.54,6c2.4,0,3.31-.9,3.31-2.5,0-1.38-.95-2.48-2.9-2.48h-3.85v5Zm-3.44,7h3.91c1.84,0,3.36-.92,3.36-3,0-1.77-1.13-3-3.93-3h-3.34Z"/>
      <path class="cls-9" d="M154.39,364.7l-1.76,4.81h-1.14l5.13-14H158l5.35,14h-1.22l-1.81-4.81Zm5.52-1c-1.55-4.13-2.35-6.13-2.63-7.08h0c-.34,1.07-1.23,3.54-2.48,7.08Z"/>
      <path class="cls-9" d="M168,365.74c.41,1.85,1.65,2.94,3.93,2.94,2.54,0,3.52-1.27,3.52-2.78s-.7-2.54-3.77-3.29-4.25-1.71-4.25-3.73c0-1.85,1.35-3.57,4.36-3.57s4.4,1.88,4.58,3.59h-1.16c-.32-1.49-1.29-2.57-3.48-2.57-2,0-3.1.93-3.1,2.48s.92,2.13,3.49,2.76c3.94,1,4.53,2.56,4.53,4.25,0,2.07-1.51,3.85-4.76,3.85-3.5,0-4.79-2-5.05-3.93Z"/>
    </g>
    <polygon id="f-1" class="cls-11" points="516.65 467.38 516.65 475.88 523.61 479.37 526.7 488.65 521.67 499.87 521.67 505.67 535.6 511.47 551.46 521.53 556.1 525.01 588.6 517.66 601.36 507.61 617.22 490.97 620.32 485.56 618.38 480.14 622.64 472.43 622.64 467.38 612.19 457.32 602.91 455.38 590.92 449.19 587.05 453.83 579.7 450.74 578.15 445.32 569.64 445.32 559.97 445.32 547.21 448.81 516.65 467.38"/>
    <polygon id="f-2" class="cls-11" points="473.56 223.51 474.57 235.66 483.49 237.89 501.92 237.89 512.65 309.18 517.51 307.56 523.18 310.4 529.66 311.61 519.94 240.93 544.85 243.36 544.85 231.41 538.78 229.18 517.51 226.95 514.07 199 509.21 196.98 496.85 195.76 499.69 224.52 473.56 223.51"/>
    <polygon id="f-3" class="cls-11" points="712.3 320.39 710.99 332.69 706.37 363.87 703.3 390.22 712.3 395.49 738.21 402.07 760.83 404.49 749.85 324.12 745.02 318.63 712.3 320.39"/>
    <polyline id="f-4" class="cls-11" points="1058.67 574.32 1053.56 559.14 1045.28 526.05 1035.21 512.6 1031.25 502.67 1031.25 498.36 1031.25 492.24 1028.38 486.13 1028.38 479.65 960.76 459.87 914.36 459.87 916.16 469.22 923.71 477.13 942.05 490.08 947.42 489.72 957.88 496.92 962.56 512.6 967.23 527.49 966.51 532.16 958.96 536.12 949.61 551.23 952.03 562.02 975.06 580.89"/>
    <polygon id="f-5" class="cls-11" points="1051.75 514.97 1051.75 532.43 1117.51 545.42 1151.21 542.98 1163.38 542.58 1174.34 536.89 1192.2 540.55 1199.51 543.79 1212.91 540.14 1259.18 537.71 1284.76 530.2 1284.76 520.38 1240.11 514.97 1186.52 516.6 1158.11 516.6 1144.71 520.38 1096 514.97 1051.75 514.97"/>
    <path id="f-6" class="cls-11" d="M1029.74,432.78l-2.19,9.4,5.68,2.19h6.13l12.24,1.53,8.74,3.06h14.87s10.27,2.18,11.59,2.62,12.68,3.5,12.68,3.5h19.89l17.05,3.06,9,1.73h31.49l16.39-2.61-.87-7.65L1150,446.32l-11.37-2.39-11.37-.22-4.59,2.61-6.12-4.14s-16-.66-17-.87-23.4-3.5-23.4-3.5l-15.08-1.1-10.71-2Z"/>
    <polygon id="f-7" class="cls-11" points="992.66 417.6 1002.42 385.94 1136.69 396.65 1157.64 409.75 1156.22 414.03 1106.46 417.6 1096.93 417.6 1093.6 432.78 1077.89 433.79 1042.42 421.89 1037.89 417.84 1012.66 419.74 992.66 417.6"/>
    <polyline id="f-8" class="cls-11" points="1442.3 887.59 1389.27 894.47 1356.58 894.47 1290.06 894.47 1290.06 881.28 1290.06 872.68 1280.31 869.53 1269.99 869.53 1274 860.06 1264.83 852.61 1272.86 847.45 1284.33 844.01 1286.05 837.7 1293.5 831.39 1306.12 831.39 1299.81 822.22 1319.88 803.01 1335.94 782.27 1353.56 784.94 1373.79 787.81 1387.55 786.09 1415.65 792.97 1436.29 795.84 1442.3 797.56"/>
    <polygon id="f-9" class="cls-11" points="563.92 305.35 561.02 285.24 596.88 270.94 601.59 272.57 609.74 323.46 605.47 323.46 598.22 318.63 592.04 311.61 577.76 310.71 568.38 306.87 563.92 305.35"/>
    <path id="f-10" class="cls-11" d="M750.29,327.3a12.8,12.8,0,0,1-1.07,4.69,3.4,3.4,0,0,0-.51,2.4c.23.74.78.87,1.14,1.64a3.83,3.83,0,0,1,0,2.65,22.12,22.12,0,0,1-3,6.43c-2.06,3.27-2.83,3.82-3.66,4-1,.27-1.29-.14-2,.25-1.36.75-.91,2.54-2.27,5.05-.77,1.43-1.17,1.31-2,2.65a11.43,11.43,0,0,0-1.64,6.18,10.27,10.27,0,0,1,2.51,1.36c1.28,1,2,2,3.55,4.6,2.62,4.49,2.42,4.9,3.76,6.34a14.24,14.24,0,0,0,3.76,2.86,13.87,13.87,0,0,0,4.78,1.47.89.89,0,0,1,.52.06c.69.35.34,1.83.53,3.76a12.78,12.78,0,0,0,.88,3.46c.72,1.88,1.28,2.11,1.77,3.39.7,1.86.28,3.36.06,5.09a23.82,23.82,0,0,0,.57,8.51"/>
    <path id="f-11" class="cls-11" d="M728.7,332.26a5.78,5.78,0,0,1-.8-2.1,3.46,3.46,0,0,1,.36-2.74,2.56,2.56,0,0,1,1.52-.79,13.91,13.91,0,0,1,6.06-.07,12.35,12.35,0,0,1,5.62,3.32"/>
    <path id="f-12" class="cls-11" d="M721.26,327.86a4.84,4.84,0,0,0-1.08-1.38,6.1,6.1,0,0,0-3.39-1.29,12.35,12.35,0,0,0-4.47.14"/>
    <path id="f-13" class="cls-11" d="M722.13,340.12a2.45,2.45,0,0,0-1.51,0,2.29,2.29,0,0,0-1,.65"/>
    <path id="f-14" class="cls-11" d="M725.81,340.84l1.3.94"/>
    <path id="f-15" class="cls-11" d="M714.7,347.84a26.08,26.08,0,0,0,5-.07,3.29,3.29,0,0,1,2.45.29c.38.28.47.57.94.72s.73,0,1.59-.15a8.46,8.46,0,0,1,1.44-.14c1.1,0,1.43.52,2.67.86a6.33,6.33,0,0,0,2.09.22"/>
    <circle id="f-16" class="cls-11" cx="732.59" cy="331.6" r="1.14"/>
    <circle id="f-17" class="cls-11" cx="716" cy="328.59" r="1.14"/>
    <path id="f-18" class="cls-11" d="M729.63,330.52a7.29,7.29,0,0,1,3.14-.6,8.11,8.11,0,0,1,4,1.36,10.65,10.65,0,0,1,2.44,2"/>
    <path id="f-19" class="cls-11" d="M721,329.75c-.5-.25-1.24-.63-2.12-1.14a22.57,22.57,0,0,0-3.09-1.79A5.63,5.63,0,0,0,712,327"/>
    <path id="f-20" class="cls-11" d="M710,353.22a23.58,23.58,0,0,1,4.85,4c1.39,1.49,1.63,2.16,2.91,3a9.45,9.45,0,0,0,5.18,1.51,11,11,0,0,0,5.07-1.51c.76-.39,1.85-1.13,4-2.59,1.19-.81,2.15-1.49,2.8-1.94"/>
    <path id="f-21" class="cls-11" d="M741.67,318.81a31.47,31.47,0,0,1,.54,5,13.77,13.77,0,0,0,.16,3c.47,2,1.46,2.46,2,4a7,7,0,0,1-.31,4.87l1.08.85a4.39,4.39,0,0,1,1.08-1.52c.47-.43.83-.54,1.13-1.09.17-.32.1-.35.37-.92a4.89,4.89,0,0,0,.46-1,2.93,2.93,0,0,0,.13-.67c.13-1.37,1.37-2.3,1.25-3.84,0-.41-.11-.27-.29-1.21a8.8,8.8,0,0,1-.21-2.09,7.65,7.65,0,0,1,.21-1.55"/>
    <path id="f-22" class="cls-11" d="M733.12,366.25c.24,2.13-.47,1.67-2.37,12.86-.88,5.19-1.21,8.15-.82,11.83.07.71.4,3.78,1,3.81.46,0,.79-1.61,1.54-4,1.15-3.71,1.9-6.1,3.39-8.13.21-.28,4-5.34,7.51-4.22,2.12.68,3,3.67,3.09,3.6s-.8-2.84-2.68-6.27c-1.66-3.05-1.59-2.15-4.21-6.48a13.5,13.5,0,0,0-3.6-4.32c-.6-.45-1.81-1.32-2.47-.93S733.06,365.81,733.12,366.25Z"/>
    <path id="f-23" class="cls-11" d="M706.37,372.22c.81-.22,2.85,1.84,6.89,6,1.25,1.27,1.87,1.9,2.57,2.67a146.78,146.78,0,0,1,10.09,12.55c-2.23-1.74-4-3.26-5.15-4.32-2.52-2.28-3.37-3.3-5.45-4.42a9.8,9.8,0,0,0-4.83-1.55,17.17,17.17,0,0,0-3.91.62c-.56.15-1,.3-1.34.41C704.91,380.52,704.4,372.76,706.37,372.22Z"/>
  </g>
  <g id="ERoW">
    <polyline id="c-3" class="cls-2" points="1072.17 641.8 1504.38 383.4 1669.88 383.4"/>
    <g id="t-1.3">
      <path class="cls-3" d="M1516.52,318.29h-8.91v7.28h9.76l-.21,1.29h-11V309.37H1517v1.29h-9.36V317h8.91Z"/>
      <path class="cls-3" d="M1534.1,326.86l-5.24-7.83h0l-5.19,7.83H1522l6-8.89-5.72-8.6h1.64l5,7.44h0l5.06-7.44h1.63l-5.89,8.49,6.07,9Z"/>
      <path class="cls-3" d="M1541.16,309.37h6.27c3.21,0,5.41,1.78,5.41,4.89s-2.18,5-5.58,5h-4.67v7.59h-1.43Zm1.43,8.61h4.78c2.8,0,4-1.48,4-3.67s-1.54-3.65-3.87-3.65h-4.88Z"/>
      <path class="cls-3" d="M1558.89,309.37h1.4v16.2h9.38l-.25,1.29h-10.53Z"/>
      <path class="cls-3" d="M1589.06,318c0,4.78-2.56,9.12-8,9.12-4.93,0-7.81-4-7.81-9s2.78-9,8-9C1586.08,309.12,1589.06,312.89,1589.06,318Zm-14.27.05c0,4,2.21,7.78,6.39,7.78,4.49,0,6.38-3.67,6.38-7.8s-2.13-7.61-6.34-7.61C1576.76,310.41,1574.79,314.11,1574.79,318Z"/>
      <path class="cls-3" d="M1595.49,322.16c.52,2.31,2.06,3.67,4.92,3.67,3.17,0,4.39-1.58,4.39-3.47s-.87-3.17-4.7-4.12-5.31-2.14-5.31-4.66c0-2.31,1.68-4.46,5.44-4.46s5.49,2.35,5.72,4.49h-1.45c-.4-1.86-1.61-3.21-4.35-3.21-2.5,0-3.86,1.17-3.86,3.1s1.14,2.65,4.35,3.45c4.93,1.22,5.66,3.2,5.66,5.3,0,2.59-1.89,4.81-6,4.81-4.37,0-6-2.54-6.31-4.9Z"/>
      <path class="cls-3" d="M1614,309.37v17.49h-1.4V309.37Z"/>
      <path class="cls-3" d="M1625.78,326.86l-6.49-17.49h1.5l3.38,9.12c1,2.65,2.06,5.55,2.44,7h.05c.37-1.3,1.56-4.35,2.53-6.93l3.51-9.22h1.48l-6.74,17.49Z"/>
      <path class="cls-3" d="M1649.94,318.29H1641v7.28h9.75l-.2,1.29h-10.95V309.37h10.75v1.29H1641V317h8.9Z"/>
      <path class="cls-3" d="M1507.64,342.72v8.14h-1.43V333.37h6.3c3.46,0,5.29,1.86,5.29,4.6a4,4,0,0,1-3.26,4.1c1.78.43,3,1.59,3,4.57v.68a11.45,11.45,0,0,0,.23,3.54h-1.42a11.46,11.46,0,0,1-.26-3.65v-.45c0-2.85-.84-4-4.18-4Zm0-1.29h4.2c3.05,0,4.46-1.14,4.46-3.42s-1.39-3.35-4.09-3.35h-4.57Z"/>
      <path class="cls-3" d="M1534.87,342.29H1526v7.28h9.76l-.21,1.29h-11V333.37h10.76v1.29H1526V341h8.91Z"/>
      <path class="cls-3" d="M1556.79,342.85c0-3.41,0-6.69.1-8.44h-.07c-.7,2.37-4.21,10.93-6.43,16.45H1549c-1.67-4.28-5.3-13.81-6.1-16.48h0c.13,2,.18,6.06.18,9.06v7.42h-1.4V333.37h2.1c2.38,6,5.37,13.77,6,15.76h0c.4-1.3,3.86-10,6.29-15.76h2.07v17.49h-1.4Z"/>
      <path class="cls-3" d="M1565.84,350.86V333.37h2.05c2.72,4.19,9.06,13.91,10.15,15.81h0c-.15-2.51-.13-5.1-.13-7.95v-7.86h1.42v17.49h-1.9c-2.59-4-9-14.16-10.28-16.08h0c.13,2.28.11,4.85.11,8v8.06Z"/>
      <path class="cls-3" d="M1588.64,344.86l-2.2,6H1585l6.41-17.49h1.67l6.69,17.49h-1.53l-2.26-6Zm6.9-1.29c-1.94-5.17-2.93-7.66-3.29-8.84h0c-.43,1.33-1.54,4.42-3.11,8.84Z"/>
      <path class="cls-3" d="M1605.36,350.86V333.37h2.06c2.71,4.19,9.06,13.91,10.15,15.81h0c-.16-2.51-.13-5.1-.13-7.95v-7.86h1.42v17.49H1617c-2.58-4-9-14.16-10.27-16.08h0c.12,2.28.1,4.85.1,8v8.06Z"/>
      <path class="cls-3" d="M1630,334.66h-5.86v-1.29h13.17v1.29h-5.89v16.2H1630Z"/>
      <path class="cls-3" d="M1642.59,346.16c.52,2.31,2.06,3.67,4.92,3.67,3.17,0,4.39-1.58,4.39-3.47s-.88-3.17-4.7-4.12-5.32-2.14-5.32-4.66c0-2.31,1.69-4.46,5.45-4.46s5.49,2.35,5.72,4.49h-1.45c-.4-1.86-1.61-3.21-4.35-3.21-2.5,0-3.87,1.17-3.87,3.1s1.15,2.65,4.36,3.45c4.93,1.22,5.66,3.2,5.66,5.3,0,2.59-1.89,4.81-6,4.81-4.37,0-6-2.54-6.31-4.9Z"/>
      <path class="cls-3" d="M1520.93,366c0,4.78-2.55,9.12-8,9.12-4.93,0-7.8-4-7.8-9s2.78-9,8-9C1518,357.12,1520.93,360.89,1520.93,366Zm-14.26.05c0,4,2.21,7.78,6.38,7.78,4.5,0,6.38-3.67,6.38-7.8s-2.13-7.61-6.33-7.61C1508.63,358.41,1506.67,362.11,1506.67,366Z"/>
      <path class="cls-3" d="M1527.26,357.37h10.63v1.29h-9.23v6.55h8.66v1.29h-8.66v8.36h-1.4Z"/>
      <path class="cls-3" d="M1555.53,374.86l-4.84-17.49h1.46c1.18,4.28,3.79,13.82,4.18,15.87h0c.33-1.66,3.18-11.25,4.4-15.87h1.54c1.14,4.26,3.92,14.45,4.2,15.84h0c.55-2.5,3.44-11.7,4.63-15.84h1.42l-5.33,17.49h-1.6c-1.14-4.11-3.84-14.14-4.15-15.67h0c-.46,2.29-3.13,11.34-4.37,15.67Z"/>
      <path class="cls-3" d="M1578.59,368.86l-2.2,6H1575l6.42-17.49H1583l6.69,17.49h-1.53l-2.26-6Zm6.9-1.29c-1.94-5.17-2.93-7.66-3.28-8.84h0c-.42,1.33-1.54,4.42-3.11,8.84Z"/>
      <path class="cls-3" d="M1596.74,366.72v8.14h-1.43V357.37h6.3c3.46,0,5.29,1.86,5.29,4.6a4,4,0,0,1-3.26,4.1c1.78.43,3,1.59,3,4.57v.68a11.45,11.45,0,0,0,.23,3.54h-1.42a11.46,11.46,0,0,1-.26-3.65v-.45c0-2.85-.84-4-4.18-4Zm0-1.29h4.2c3,0,4.46-1.14,4.46-3.42s-1.39-3.35-4.1-3.35h-4.56Z"/>
      <path class="cls-3" d="M1510.61,392.42a17.81,17.81,0,0,0-4,11.22,18.48,18.48,0,0,0,4,11.47h-1.47a18.91,18.91,0,0,1-3.82-11.49,18.13,18.13,0,0,1,3.82-11.2Z"/>
      <path class="cls-3" d="M1526.87,402.29H1518v7.28h9.76l-.21,1.29h-11V393.37h10.76v1.29H1518V401h8.91Z"/>
      <path class="cls-3" d="M1535.09,402.72v8.14h-1.43V393.37h6.3c3.46,0,5.29,1.86,5.29,4.6a4,4,0,0,1-3.26,4.1c1.78.43,3,1.59,3,4.57v.68a11.76,11.76,0,0,0,.23,3.54h-1.42a11.46,11.46,0,0,1-.26-3.65v-.45c0-2.85-.84-4-4.17-4Zm0-1.29h4.2c3,0,4.46-1.14,4.46-3.42s-1.39-3.35-4.09-3.35h-4.57Z"/>
      <path class="cls-3" d="M1561.83,404.58c0,3.49-1.94,6.58-5.67,6.58-3.39,0-5.49-2.77-5.49-6.55,0-3.58,2-6.55,5.62-6.55C1559.62,398.06,1561.83,400.66,1561.83,404.58Zm-9.79,0c0,3,1.59,5.34,4.22,5.34s4.19-2.21,4.19-5.34c0-2.94-1.49-5.34-4.24-5.34S1552,401.62,1552,404.61Z"/>
      <path class="cls-3" d="M1570.61,410.86l-4.84-17.49h1.45c1.19,4.28,3.79,13.82,4.19,15.87h0c.33-1.66,3.18-11.25,4.39-15.87h1.55c1.14,4.26,3.91,14.45,4.2,15.84h0c.55-2.5,3.45-11.7,4.64-15.84h1.42l-5.33,17.49h-1.61c-1.14-4.11-3.84-14.14-4.14-15.67h0c-.45,2.29-3.13,11.34-4.37,15.67Z"/>
      <path class="cls-3" d="M1591.79,415.11a17.81,17.81,0,0,0,4-11.22,18.52,18.52,0,0,0-4-11.47h1.47a18.94,18.94,0,0,1,3.82,11.5,18.12,18.12,0,0,1-3.82,11.19Z"/>
    </g>
    <path id="a-1" class="cls-12" d="M1121.65,869.53q1.33,18,2.66,35.91c-.81,1-1.44,2.91-3.1,3.33-29.77,7.5-49.44,5.8-68.64-9.85-4.67-3.81-28.53-10-28.53-10-3.65-3.82-14.47-1.65-19.81-13.46-1.9-4.2-3.86-17.53-7.24-32.77-2-8.94-3.17-17-4.57-24.38-3.27-17.32-2.87-39.52-6.28-53-7.44-29.34-12.32-53.26-20.39-84.58-8-31.07-17.93-72.33-18.13-73h0c-2.69-9.2,22-26.92,45-34.2,16.54-5.23,30.44-4.5,38.8-4,0,0,23.77.85,46.79,12.19a18.83,18.83,0,0,1,5.09,3.55c5.2,5.15,5.73,12.19,6.21,17.74,2.3,26.55,3.37,19.48,4,40.13.22,7.34.24,13.13.23,16.4-.08,25.43-1.88,36.11-2.67,65.85-.08,3.11-2.59,9.5-.22,11.09,2,1.32,6.06-1.31,8.84-3.41q7.62-13.1,15.22-26.19a71.61,71.61,0,0,1,14.62-7.91c11.72-4.66,15.55-2.49,26.18-6.09s9.26-6.59,26.18-15.22a117.8,117.8,0,0,1,21.92-9.14,97.8,97.8,0,0,1,31.67-3.65,95.42,95.42,0,0,1-6.09,13.39c-4.42,8-7.95,11.68-14.62,21.32,0,0-5.31,7.67-9.74,15.22-4.75,8.09-10.66,21.67-12.18,43.23a50.36,50.36,0,0,1,8.53,9.13,52.36,52.36,0,0,1,7.3,14.62c2.32,6.74,7.46,16.61,20.1,29.83-7.74-.77-16.1-1.94-25-3.65a275.45,275.45,0,0,1-29.22-7.31q-2.23,12.87-4.27,26.19-3.55,23.39-6.08,45.66c-4.79.19-9.87.21-15.23,0A195.71,195.71,0,0,1,1121.65,869.53Z"/>
    <path id="a-2" class="cls-11" d="M961.9,665.62a97.52,97.52,0,0,0,43.31,19.26c7.88,1.38,25.5,4.27,46.12-2.94a85.3,85.3,0,0,0,40.11-29.67"/>
    <path id="a-3" class="cls-11" d="M952,622.16c5.87,4.57,19,13.38,40.15,16.51a102.2,102.2,0,0,0,46.4-3.09A108.37,108.37,0,0,0,1083.17,609"/>
    <path id="a-4" class="cls-11" d="M1090.83,736.5a55.48,55.48,0,0,1-2.73,16.4c-2.86,8.67-6.66,12.69-13.26,27-1.47,3.19-2.59,5.84-3.31,7.57a64.49,64.49,0,0,0,15.15,31.72l-21.3,2.37c-1.22.82-7.15,5-8.05,12.31a15.7,15.7,0,0,0,.47,6.15,74.11,74.11,0,0,0,16.1,12.78c4.68,2.75,9.6,4.91,36.45,13.26l11.3,3.48"/>
    <path id="a-5" class="cls-11" d="M1191.6,735.92c-5.1,2.71-13.13,7.17-22.62,13.35-16.2,10.55-18,14-28.55,18.91-7.91,3.71-15.41,5.44-30.4,8.9-11.15,2.57-20.5,4.19-27.07,5.19"/>
  </g>
</svg>
