<svg xmlns="http://www.w3.org/2000/svg" width="24in" height="15.99in" viewBox="0 0 1728 1151">
  <defs>
    <style>
      .cls-1, .cls-8 {
        fill: #fff;
      }

      .cls-1 {
        opacity: 0.7;
      }

      .cls-12, .cls-2, .cls-4 {
        fill: none;
      }

      .cls-12, .cls-2, .cls-4, .cls-5, .cls-6, .cls-7 {
        stroke: #231f20;
      }

      .cls-11, .cls-12, .cls-2, .cls-4, .cls-5, .cls-6, .cls-7, .cls-9 {
        stroke-miterlimit: 10;
      }

      .cls-2 {
        stroke-width: 0.75px;
      }

      .cls-3 {
        fill: #302a2b;
      }

      .cls-4 {
        stroke-width: 2px;
      }

      .cls-5 {
        fill: #d76b7d;
      }

      .cls-11, .cls-5, .cls-6, .cls-7, .cls-9 {
        stroke-width: 0.5px;
      }

      .cls-6 {
        fill: #f8e69a;
      }

      .cls-7 {
        fill: #74bc69;
      }

      .cls-9 {
        fill: #f9f4de;
      }

      .cls-11, .cls-9 {
        stroke: #a7a9ac;
      }

      .cls-10 {
        fill: #d6d6d6;
      }

      .cls-11 {
        fill: #e1efdf;
      }
    </style>
  </defs>
  <g id="Opacity_Rectangle" data-name="Opacity Rectangle">
    <rect id="o-1" class="cls-1" width="1728" height="1151"/>
  </g>
  <g id="Wall">
    <polyline id="c-1" class="cls-2" points="532.43 609.04 217.84 553.64 52.34 553.64"/>
    <g id="t-1.1">
      <path class="cls-3" d="M53.19,528.92H59c4.8,0,8.13,3.35,8.13,8.6s-3.25,8.89-8.16,8.89H53.19Zm1.4,16.2h4.19c4.6,0,6.86-3.23,6.86-7.53,0-3.83-2-7.38-6.86-7.38H54.59Z"/>
      <path class="cls-3" d="M88.21,537.54c0,4.78-2.55,9.12-8,9.12-4.93,0-7.81-4-7.81-9s2.79-9,8-9C85.23,528.67,88.21,532.44,88.21,537.54ZM74,537.59c0,4,2.2,7.78,6.38,7.78,4.5,0,6.38-3.67,6.38-7.8S84.58,530,80.38,530C75.91,530,74,533.66,74,537.59Z"/>
      <path class="cls-3" d="M109.67,538.4c0-3.41,0-6.69.1-8.44h-.07c-.71,2.37-4.22,10.93-6.43,16.45h-1.36c-1.67-4.28-5.3-13.81-6.1-16.48h0c.12,2,.17,6.06.17,9.06v7.42H94.54V528.92h2.1c2.38,6,5.37,13.77,6,15.76h0c.4-1.3,3.86-10,6.29-15.76h2.07v17.49h-1.4Z"/>
      <path class="cls-3" d="M133.85,538.4c0-3.41,0-6.69.1-8.44h-.08c-.7,2.37-4.21,10.93-6.42,16.45h-1.37c-1.66-4.28-5.3-13.81-6.1-16.48h0c.13,2,.18,6.06.18,9.06v7.42h-1.4V528.92h2.11c2.37,6,5.36,13.77,6,15.76h0c.4-1.3,3.86-10,6.29-15.76h2.07v17.49h-1.39Z"/>
      <path class="cls-3" d="M144.47,540.41l-2.21,6h-1.42l6.41-17.49h1.67l6.68,17.49h-1.52l-2.26-6Zm6.89-1.29c-1.93-5.16-2.93-7.66-3.28-8.84h0c-.43,1.33-1.55,4.42-3.11,8.84Z"/>
      <path class="cls-3" d="M174.44,546.41h-1.16a12.79,12.79,0,0,1-.17-2.77c-.64,1.2-2,3-5.64,3-5,0-7.6-3.82-7.6-8.79,0-5.22,2.75-9.15,7.88-9.15,3.79,0,6.29,2,6.84,5.21h-1.4c-.74-2.45-2.45-3.92-5.49-3.92-4.35,0-6.33,3.39-6.33,7.78,0,4,1.91,7.59,6.16,7.59s5.56-2.84,5.56-6.66v-.2h-5.61v-1.29h7Z"/>
      <path class="cls-3" d="M191.77,537.84h-8.91v7.28h9.76l-.2,1.29h-11V528.92h10.76v1.29h-9.36v6.34h8.91Z"/>
      <path class="cls-3" d="M198.89,541.71c.52,2.31,2.07,3.67,4.92,3.67,3.17,0,4.39-1.58,4.39-3.47s-.87-3.17-4.7-4.12-5.31-2.14-5.31-4.66c0-2.31,1.68-4.46,5.44-4.46s5.49,2.35,5.72,4.49H207.9c-.4-1.86-1.61-3.2-4.35-3.2-2.5,0-3.86,1.16-3.86,3.09s1.14,2.65,4.35,3.45c4.93,1.23,5.66,3.2,5.66,5.3,0,2.59-1.88,4.81-5.95,4.81-4.37,0-6-2.54-6.31-4.9Z"/>
      <path class="cls-3" d="M151.17,568.4c0-3.41,0-6.69.1-8.44h-.07c-.71,2.37-4.22,10.93-6.43,16.45h-1.36c-1.67-4.28-5.3-13.81-6.1-16.48h-.05c.12,2,.17,6.06.17,9.06v7.42H136V558.92h2.1c2.38,6,5.37,13.77,6,15.76h.05c.4-1.3,3.86-10,6.29-15.76h2.07v17.49h-1.4Z"/>
      <path class="cls-3" d="M161.56,558.92v10.59c0,4.62,2.61,5.82,5.07,5.82,2.9,0,5.06-1.23,5.06-5.82V558.92h1.43v10.52c0,5.48-2.91,7.17-6.54,7.17-3.46,0-6.47-1.86-6.47-7V558.92Z"/>
      <path class="cls-3" d="M181.91,568.27v8.14h-1.42V558.92h6.3c3.46,0,5.29,1.86,5.29,4.6a4,4,0,0,1-3.26,4.1c1.78.43,3,1.59,3,4.57v.68a11.81,11.81,0,0,0,.22,3.54H190.6a11.82,11.82,0,0,1-.25-3.65v-.45c0-2.85-.84-4-4.18-4Zm0-1.29h4.2c3,0,4.47-1.14,4.47-3.42s-1.39-3.35-4.1-3.35h-4.57Z"/>
      <path class="cls-3" d="M198.89,571.71c.52,2.31,2.07,3.67,4.92,3.67,3.17,0,4.39-1.58,4.39-3.47s-.87-3.17-4.7-4.12-5.31-2.14-5.31-4.66c0-2.31,1.68-4.46,5.44-4.46s5.49,2.35,5.72,4.49H207.9c-.4-1.86-1.61-3.2-4.35-3.2-2.5,0-3.86,1.16-3.86,3.09s1.14,2.65,4.35,3.45c4.93,1.23,5.66,3.2,5.66,5.3,0,2.59-1.88,4.81-5.95,4.81-4.37,0-6-2.54-6.31-4.9Z"/>
    </g>
    <polygon id="w-1" class="cls-4" points="529.82 553.64 673.88 444.42 673.88 433.5 686.88 424.66 690 387.21 688.47 383.24 688.64 378.54 690 375.14 833.29 252.26 836.28 252.26 866.15 228.63 871.67 230.14 874.58 227.24 879.11 229.43 881.12 226.24 1037.31 358.73 1041.5 369.5 1045.68 389.94 1052.69 416.62 1083.01 436.43 1083.01 445.57 1083.01 453.57 1086.82 462.33 1092.15 475.66 1092.15 487.47 1094.82 535.46 1120.01 549.25 1118.98 523.1 1130.63 529.84 1132.67 555.38 1147.38 562.94 1144.32 522.9 1145.14 517.38 1147.38 506.96 1211.74 543.94 1211.74 535.9 1216.93 538.98 1235.16 516.39 1255.69 532.31 1275.45 570.8 1275.45 579.79 1336.28 622.14 1336.28 624.96 1333.71 628.81 1331.92 634.2 1333.2 639.85 1366.95 853.14 1370.58 858.46 1370.58 861.26 1370.58 876.64 1323.8 882.25 1314.08 879.82 866.15 938.64 480.11 904.45 529.82 553.64"/>
    <rect id="r-1.1" class="cls-5" x="82.3" y="613.05" width="32.71" height="32.71"/>
    <g id="s-1.1">
      <path class="cls-3" d="M137.9,624H139v6.09h8.34V624h1.12v14h-1.12v-6.88H139V638H137.9Z"/>
      <path class="cls-3" d="M155.91,633.16l-1.77,4.8H153l5.14-14h1.33l5.35,14H163.6l-1.81-4.8Zm5.52-1c-1.55-4.14-2.35-6.13-2.63-7.08h0c-.34,1.07-1.24,3.54-2.49,7.08Z"/>
      <path class="cls-3" d="M169.78,624v8.48c0,3.7,2.09,4.65,4.06,4.65,2.32,0,4-1,4-4.65V624H179v8.42c0,4.39-2.33,5.74-5.23,5.74s-5.18-1.49-5.18-5.56V624Z"/>
      <path class="cls-3" d="M187.86,625h-4.69v-1h10.54v1H189v13h-1.14Z"/>
    </g>
    <rect id="r-2.1" class="cls-6" x="82.3" y="653.05" width="32.71" height="32.71"/>
    <g id="s-2.1">
      <path class="cls-3" d="M150,671.54c0-2.73,0-5.35.09-6.75H150c-.57,1.9-3.38,8.75-5.15,13.17H143.8c-1.33-3.43-4.24-11.06-4.88-13.19h0c.1,1.6.14,4.85.14,7.25V678H137.9V664h1.69c1.9,4.78,4.29,11,4.81,12.61h0c.32-1,3.09-8,5-12.61h1.65v14H150Z"/>
      <path class="cls-3" d="M168.83,670.86c0,3.82-2.05,7.3-6.37,7.3-4,0-6.25-3.18-6.25-7.2s2.22-7.2,6.39-7.2C166.44,663.76,168.83,666.78,168.83,670.86Zm-11.42,0c0,3.21,1.77,6.23,5.11,6.23,3.6,0,5.1-3,5.1-6.25s-1.7-6.09-5.06-6.09C159,664.79,157.41,667.75,157.41,670.9Z"/>
      <path class="cls-3" d="M176.86,678v-5.25a.73.73,0,0,0-.08-.33l-5-8.42h1.3c1.4,2.37,3.81,6.49,4.42,7.54.6-1,3-5.13,4.53-7.54h1.24l-5.21,8.5a.6.6,0,0,0-.07.3V678Z"/>
      <path class="cls-3" d="M195.45,671.1h-7.13v5.83h7.81l-.16,1H187.2V664h8.61v1h-7.49v5.08h7.13Z"/>
      <path class="cls-3" d="M200.88,678V664h1.65c2.17,3.36,7.25,11.13,8.12,12.65h0c-.12-2-.1-4.08-.1-6.36V664h1.14v14h-1.53L202,665.08h0c.1,1.83.08,3.89.08,6.43V678Z"/>
    </g>
    <rect id="r-3.1" class="cls-7" x="82.3" y="693.04" width="32.71" height="32.71"/>
    <g id="s-3.1">
      <path class="cls-3" d="M137.9,704h4.91c2.69,0,4.13,1.43,4.13,3.45a3,3,0,0,1-2.15,3.06,3.53,3.53,0,0,1,2.65,3.45c0,2.79-2.1,4-4.55,4h-5Zm4.55,6c2.4,0,3.31-.89,3.31-2.5,0-1.37-.95-2.48-2.9-2.48H139v5Zm-3.44,7h3.91c1.83,0,3.36-.91,3.36-2.95,0-1.77-1.13-3-3.93-3H139Z"/>
      <path class="cls-3" d="M154,713.15l-1.77,4.8H151.1l5.14-14h1.33l5.35,14H161.7l-1.81-4.8Zm5.52-1C158,708,157.18,706,156.9,705h0c-.34,1.07-1.24,3.54-2.49,7.08Z"/>
      <path class="cls-3" d="M167.63,714.19c.41,1.85,1.65,2.94,3.93,2.94,2.54,0,3.52-1.27,3.52-2.78s-.7-2.54-3.77-3.3-4.25-1.71-4.25-3.72,1.35-3.58,4.36-3.58,4.4,1.89,4.58,3.59h-1.17c-.31-1.48-1.28-2.56-3.47-2.56-2,0-3.1.93-3.1,2.48s.92,2.12,3.49,2.76c3.94,1,4.53,2.56,4.53,4.24,0,2.07-1.51,3.85-4.76,3.85-3.5,0-4.79-2-5.06-3.92Z"/>
    </g>
    <rect id="b-1" class="cls-8" x="62.48" y="598.07" width="165.1" height="132.73"/>
    <rect id="r-4.1" class="cls-5" x="79.68" y="611.24" width="37.7" height="37.7"/>
    <g id="s-4.1">
      <path class="cls-3" d="M137.9,624H139v6.09h8.34V624h1.12v14h-1.12v-6.88H139V638H137.9Z"/>
      <path class="cls-3" d="M155.91,633.16l-1.77,4.8H153l5.14-14h1.33l5.35,14H163.6l-1.81-4.8Zm5.52-1c-1.55-4.14-2.35-6.13-2.63-7.08h0c-.34,1.07-1.24,3.54-2.49,7.08Z"/>
      <path class="cls-3" d="M169.78,624v8.48c0,3.7,2.09,4.65,4.06,4.65,2.32,0,4-1,4-4.65V624H179v8.42c0,4.39-2.33,5.74-5.23,5.74s-5.18-1.49-5.18-5.56V624Z"/>
      <path class="cls-3" d="M187.86,625h-4.69v-1h10.54v1H189v13h-1.14Z"/>
    </g>
    <rect id="r-5.1" class="cls-9" x="82.33" y="653.06" width="32.71" height="32.71"/>
    <g id="s-5.1">
      <path class="cls-10" d="M150,671.56c0-2.73,0-5.35.08-6.76h-.06c-.56,1.9-3.37,8.75-5.14,13.17h-1.09c-1.34-3.43-4.25-11.05-4.88-13.19h0c.1,1.6.14,4.85.14,7.25V678h-1.11V664h1.68c1.9,4.78,4.3,11,4.81,12.61h0c.33-1,3.1-8,5-12.61h1.66v14H150Z"/>
      <path class="cls-10" d="M168.85,670.87c0,3.83-2,7.3-6.37,7.3-3.95,0-6.25-3.18-6.25-7.2s2.23-7.2,6.39-7.2C166.47,663.77,168.85,666.79,168.85,670.87Zm-11.42,0c0,3.21,1.77,6.23,5.11,6.23,3.6,0,5.11-2.94,5.11-6.25s-1.71-6.09-5.07-6.09C159,664.8,157.43,667.76,157.43,670.91Z"/>
      <path class="cls-10" d="M176.89,678v-5.25a.68.68,0,0,0-.08-.32l-5-8.43h1.31c1.39,2.38,3.81,6.49,4.41,7.54.6-1,3-5.12,4.53-7.54h1.24l-5.21,8.5a.63.63,0,0,0-.06.31V678Z"/>
      <path class="cls-10" d="M195.48,671.11h-7.13v5.83h7.81l-.17,1h-8.76V664h8.61v1h-7.49v5.07h7.13Z"/>
      <path class="cls-10" d="M200.91,678V664h1.64c2.17,3.36,7.25,11.13,8.13,12.65h0c-.12-2-.1-4.07-.1-6.35V664h1.13v14h-1.52c-2.07-3.23-7.23-11.33-8.23-12.87h0c.1,1.82.08,3.88.08,6.42V678Z"/>
    </g>
    <rect id="r-6.1" class="cls-11" x="82.33" y="692.98" width="32.64" height="33"/>
    <g id="s-6.1">
      <path class="cls-10" d="M137.93,704h4.9c2.7,0,4.14,1.43,4.14,3.44a3,3,0,0,1-2.16,3.06,3.53,3.53,0,0,1,2.65,3.46c0,2.79-2.09,4-4.54,4h-5Zm4.55,6c2.39,0,3.31-.9,3.31-2.5,0-1.37-1-2.48-2.9-2.48H139v5Zm-3.45,7h3.91c1.84,0,3.36-.91,3.36-3,0-1.76-1.13-3-3.92-3H139Z"/>
      <path class="cls-10" d="M154,713.15,152.27,718h-1.14l5.13-14h1.33l5.35,14h-1.22l-1.8-4.81Zm5.52-1C158,708,157.21,706,156.92,705h0c-.35,1.07-1.24,3.54-2.49,7.08Z"/>
      <path class="cls-10" d="M167.65,714.19c.42,1.85,1.65,2.94,3.94,2.94,2.54,0,3.51-1.26,3.51-2.77s-.7-2.54-3.76-3.3-4.25-1.71-4.25-3.73c0-1.85,1.35-3.57,4.35-3.57s4.4,1.88,4.58,3.59h-1.16c-.32-1.49-1.29-2.56-3.48-2.56-2,0-3.09.93-3.09,2.48s.91,2.12,3.48,2.76c3.95,1,4.53,2.55,4.53,4.24,0,2.07-1.51,3.85-4.76,3.85-3.5,0-4.79-2-5-3.93Z"/>
    </g>
  </g>
  <g id="Roof">
    <polyline id="c-2" class="cls-2" points="628.93 470.67 217.84 214.01 52.34 214.01"/>
    <g id="t-1.2">
      <path class="cls-3" d="M53.19,189.29H59c4.8,0,8.13,3.35,8.13,8.6s-3.25,8.89-8.16,8.89H53.19Zm1.4,16.2h4.19c4.6,0,6.86-3.23,6.86-7.53,0-3.83-2-7.38-6.86-7.38H54.59Z"/>
      <path class="cls-3" d="M88.21,197.91c0,4.78-2.55,9.12-8,9.12-4.93,0-7.81-4-7.81-9s2.79-9,8-9C85.23,189,88.21,192.81,88.21,197.91ZM74,198c0,4,2.2,7.78,6.38,7.78,4.5,0,6.38-3.68,6.38-7.8s-2.13-7.61-6.33-7.61C75.91,190.33,74,194,74,198Z"/>
      <path class="cls-3" d="M109.67,198.77c0-3.42,0-6.69.1-8.44h-.07c-.71,2.37-4.22,10.93-6.43,16.45h-1.36c-1.67-4.28-5.3-13.81-6.1-16.48h0c.12,2,.17,6.06.17,9.06v7.42H94.54V189.29h2.1c2.38,6,5.37,13.77,6,15.76h0c.4-1.3,3.86-10,6.29-15.76h2.07v17.49h-1.4Z"/>
      <path class="cls-3" d="M133.85,198.77c0-3.42,0-6.69.1-8.44h-.08c-.7,2.37-4.21,10.93-6.42,16.45h-1.37c-1.66-4.28-5.3-13.81-6.1-16.48h0c.13,2,.18,6.06.18,9.06v7.42h-1.4V189.29h2.11c2.37,6,5.36,13.77,6,15.76h0c.4-1.3,3.86-10,6.29-15.76h2.07v17.49h-1.39Z"/>
      <path class="cls-3" d="M144.47,200.78l-2.21,6h-1.42l6.41-17.49h1.67l6.68,17.49h-1.52l-2.26-6Zm6.89-1.29c-1.93-5.17-2.93-7.66-3.28-8.84h0c-.43,1.33-1.55,4.42-3.11,8.84Z"/>
      <path class="cls-3" d="M174.44,206.78h-1.16a12.79,12.79,0,0,1-.17-2.77c-.64,1.2-2,3-5.64,3-5,0-7.6-3.82-7.6-8.79,0-5.22,2.75-9.15,7.88-9.15,3.79,0,6.29,2,6.84,5.21h-1.4c-.74-2.45-2.45-3.92-5.49-3.92-4.35,0-6.33,3.39-6.33,7.78,0,4,1.91,7.59,6.16,7.59s5.56-2.84,5.56-6.66v-.2h-5.61v-1.29h7Z"/>
      <path class="cls-3" d="M191.77,198.21h-8.91v7.28h9.76l-.2,1.29h-11V189.29h10.76v1.29h-9.36v6.34h8.91Z"/>
      <path class="cls-3" d="M198.89,202.08c.52,2.31,2.07,3.67,4.92,3.67,3.17,0,4.39-1.58,4.39-3.47s-.87-3.17-4.7-4.12-5.31-2.14-5.31-4.66c0-2.31,1.68-4.46,5.44-4.46s5.49,2.35,5.72,4.49H207.9c-.4-1.86-1.61-3.21-4.35-3.21-2.5,0-3.86,1.17-3.86,3.1s1.14,2.65,4.35,3.45c4.93,1.22,5.66,3.2,5.66,5.3,0,2.59-1.88,4.81-5.95,4.81-4.37,0-6-2.54-6.31-4.9Z"/>
      <path class="cls-3" d="M158,220.58h-5.86v-1.29h13.17v1.29h-5.88v16.2H158Z"/>
      <path class="cls-3" d="M184.66,227.91c0,4.78-2.55,9.12-8,9.12-4.93,0-7.81-4-7.81-9s2.79-9,8-9C181.68,219,184.66,222.81,184.66,227.91ZM170.4,228c0,4,2.2,7.78,6.38,7.78,4.5,0,6.38-3.68,6.38-7.8s-2.13-7.61-6.33-7.61C172.36,220.33,170.4,224,170.4,228Z"/>
      <path class="cls-3" d="M192.39,219.29v17.49H191V219.29Z"/>
      <path class="cls-3" d="M203.51,220.58h-5.86v-1.29h13.17v1.29h-5.88v16.2h-1.43Z"/>
    </g>
    <rect id="r-1.2" class="cls-5" x="82.66" y="264.6" width="32.71" height="32.71"/>
    <g id="s-1.2">
      <path class="cls-3" d="M138.26,275.51h1.12v6.09h8.34v-6.09h1.12v14h-1.12v-6.88h-8.34v6.88h-1.12Z"/>
      <path class="cls-3" d="M156.27,284.71l-1.77,4.8h-1.14l5.13-14h1.34l5.35,14H164l-1.8-4.8Zm5.51-1c-1.54-4.13-2.34-6.13-2.62-7.07h0c-.34,1.06-1.24,3.54-2.49,7.07Z"/>
      <path class="cls-3" d="M170.14,275.51V284c0,3.7,2.08,4.65,4.05,4.65,2.33,0,4.06-1,4.06-4.65v-8.48h1.14v8.42c0,4.38-2.33,5.74-5.24,5.74S169,288.18,169,284.1v-8.59Z"/>
      <path class="cls-3" d="M188.22,276.54h-4.69v-1h10.54v1h-4.71v13h-1.14Z"/>
    </g>
    <rect id="r-2.2" class="cls-6" x="82.66" y="304.6" width="32.71" height="32.71"/>
    <g id="s-2.2">
      <path class="cls-3" d="M150.37,323.09c0-2.73,0-5.35.08-6.76h-.06c-.56,1.91-3.37,8.76-5.14,13.18h-1.09c-1.34-3.43-4.24-11.06-4.88-13.2h0c.1,1.61.14,4.86.14,7.26v5.94h-1.12v-14h1.68c1.91,4.77,4.3,11,4.82,12.61h0c.32-1,3.09-8,5-12.61h1.66v14h-1.12Z"/>
      <path class="cls-3" d="M169.18,322.41c0,3.82-2,7.3-6.37,7.3-3.95,0-6.25-3.18-6.25-7.2s2.23-7.2,6.39-7.2C166.8,315.31,169.18,318.32,169.18,322.41Zm-11.41,0c0,3.21,1.76,6.22,5.1,6.22,3.6,0,5.11-2.94,5.11-6.24s-1.7-6.09-5.07-6.09C159.34,316.34,157.77,319.3,157.77,322.45Z"/>
      <path class="cls-3" d="M177.22,329.51v-5.26a.68.68,0,0,0-.08-.32l-5-8.42h1.31c1.39,2.37,3.81,6.48,4.41,7.53.6-1.05,3-5.12,4.53-7.53h1.25l-5.22,8.5a.61.61,0,0,0-.06.3v5.2Z"/>
      <path class="cls-3" d="M195.81,322.64h-7.13v5.83h7.81l-.16,1h-8.77v-14h8.61v1h-7.49v5.07h7.13Z"/>
      <path class="cls-3" d="M201.24,329.51v-14h1.65c2.17,3.35,7.25,11.13,8.12,12.65h0c-.12-2-.1-4.08-.1-6.36v-6.29h1.14v14h-1.53c-2.07-3.23-7.23-11.34-8.22-12.88h0c.1,1.83.08,3.89.08,6.42v6.46Z"/>
    </g>
    <rect id="r-3.2" class="cls-7" x="82.66" y="344.59" width="32.71" height="32.71"/>
    <g id="s-3.2">
      <path class="cls-3" d="M138.26,355.5h4.91c2.69,0,4.13,1.43,4.13,3.44a3,3,0,0,1-2.15,3.06,3.55,3.55,0,0,1,2.65,3.46c0,2.79-2.1,4-4.55,4h-5Zm4.55,6c2.4,0,3.31-.89,3.31-2.5,0-1.37-1-2.48-2.9-2.48h-3.86v5Zm-3.45,7h3.92c1.83,0,3.35-.91,3.35-3,0-1.76-1.13-3-3.92-3h-3.35Z"/>
      <path class="cls-3" d="M154.37,364.69l-1.77,4.81h-1.14l5.13-14h1.34l5.35,14h-1.23l-1.8-4.81Zm5.51-1c-1.54-4.13-2.34-6.13-2.62-7.07h0c-.34,1.06-1.24,3.54-2.49,7.07Z"/>
      <path class="cls-3" d="M168,365.73c.42,1.85,1.66,2.94,3.94,2.94,2.54,0,3.51-1.26,3.51-2.77s-.7-2.54-3.76-3.3-4.25-1.71-4.25-3.73c0-1.85,1.35-3.57,4.35-3.57s4.4,1.88,4.58,3.59h-1.16c-.31-1.49-1.28-2.56-3.47-2.56-2,0-3.1.93-3.1,2.48s.91,2.12,3.49,2.76c3.94,1,4.52,2.56,4.52,4.24,0,2.07-1.5,3.85-4.75,3.85-3.5,0-4.8-2-5.06-3.93Z"/>
    </g>
    <rect id="b-2" class="cls-8" x="62.83" y="249.62" width="165.1" height="132.73"/>
    <rect id="r-4.2" class="cls-5" x="80.04" y="262.79" width="37.7" height="37.7"/>
    <g id="s-4.2">
      <path class="cls-3" d="M138.26,275.51h1.12v6.09h8.34v-6.09h1.12v14h-1.12v-6.88h-8.34v6.88h-1.12Z"/>
      <path class="cls-3" d="M156.27,284.71l-1.77,4.8h-1.14l5.13-14h1.34l5.35,14H164l-1.8-4.8Zm5.51-1c-1.54-4.13-2.34-6.13-2.62-7.07h0c-.34,1.06-1.24,3.54-2.49,7.07Z"/>
      <path class="cls-3" d="M170.14,275.51V284c0,3.7,2.08,4.65,4.05,4.65,2.33,0,4.06-1,4.06-4.65v-8.48h1.14v8.42c0,4.38-2.33,5.74-5.24,5.74S169,288.18,169,284.1v-8.59Z"/>
      <path class="cls-3" d="M188.22,276.54h-4.69v-1h10.54v1h-4.71v13h-1.14Z"/>
    </g>
    <rect id="r-5.2" class="cls-9" x="82.68" y="304.61" width="32.71" height="32.71"/>
    <g id="s-5.2">
      <path class="cls-10" d="M150.4,323.11c0-2.74,0-5.36.08-6.76h-.06c-.57,1.9-3.37,8.75-5.15,13.17h-1.09c-1.33-3.43-4.24-11.06-4.88-13.19h0c.1,1.6.14,4.85.14,7.25v5.94h-1.11v-14H140c1.9,4.78,4.29,11,4.81,12.61h0c.32-1,3.09-8,5-12.61h1.66v14H150.4Z"/>
      <path class="cls-10" d="M169.21,322.42c0,3.82-2.05,7.3-6.37,7.3-4,0-6.25-3.18-6.25-7.2s2.23-7.2,6.39-7.2C166.82,315.32,169.21,318.34,169.21,322.42Zm-11.42,0c0,3.21,1.77,6.23,5.11,6.23,3.6,0,5.11-2.95,5.11-6.25s-1.71-6.09-5.07-6.09C159.36,316.35,157.79,319.31,157.79,322.46Z"/>
      <path class="cls-10" d="M177.24,329.52v-5.25a.76.76,0,0,0-.08-.33l-5-8.42h1.3l4.42,7.54c.6-1.05,3-5.13,4.53-7.54h1.24l-5.21,8.5a.61.61,0,0,0-.06.3v5.2Z"/>
      <path class="cls-10" d="M195.84,322.66h-7.13v5.83h7.81l-.17,1h-8.76v-14h8.6v1h-7.48v5.08h7.13Z"/>
      <path class="cls-10" d="M201.27,329.52v-14h1.64c2.17,3.36,7.25,11.13,8.13,12.65h0c-.12-2-.11-4.08-.11-6.36v-6.29h1.14v14h-1.52l-8.23-12.87h0c.1,1.82.08,3.88.08,6.42v6.45Z"/>
    </g>
    <rect id="r-6.2" class="cls-11" x="82.68" y="344.53" width="32.64" height="33"/>
    <g id="s-6.2">
      <path class="cls-10" d="M138.29,355.51h4.9c2.7,0,4.13,1.42,4.13,3.44a3,3,0,0,1-2.15,3.06,3.53,3.53,0,0,1,2.65,3.45c0,2.79-2.09,4.05-4.55,4.05h-5Zm4.54,6c2.4,0,3.31-.9,3.31-2.5,0-1.38-.95-2.48-2.9-2.48h-3.85v5Zm-3.44,7h3.91c1.84,0,3.36-.92,3.36-3,0-1.77-1.13-3-3.93-3h-3.34Z"/>
      <path class="cls-10" d="M154.39,364.7l-1.76,4.81h-1.14l5.13-14H158l5.35,14h-1.22l-1.81-4.81Zm5.52-1c-1.55-4.13-2.35-6.13-2.63-7.08h0c-.34,1.07-1.23,3.54-2.48,7.08Z"/>
      <path class="cls-10" d="M168,365.74c.41,1.85,1.65,2.94,3.93,2.94,2.54,0,3.52-1.27,3.52-2.78s-.7-2.54-3.77-3.29-4.25-1.71-4.25-3.73c0-1.85,1.35-3.57,4.36-3.57s4.4,1.88,4.58,3.59h-1.16c-.32-1.49-1.29-2.57-3.48-2.57-2,0-3.1.93-3.1,2.48s.92,2.13,3.49,2.76c3.94,1,4.53,2.56,4.53,4.25,0,2.07-1.51,3.85-4.76,3.85-3.5,0-4.79-2-5.05-3.93Z"/>
    </g>
    <polyline id="a-1" class="cls-4" points="1328.9 617 1338.43 617 1334.72 613.29 1318.4 597.71 1307.64 591.4 1298.74 591.4 1292.06 586.58 1298.74 584.36 1290.21 579.16 1282.79 579.16 1282.79 571.74 1254.97 507.19 1240.33 496.17 1228.26 484.94 1221.95 485.31 1221.95 491.62 1214.16 502 1207.11 507.19 1203.03 510.67 1201.18 519.07 1203.03 527.6 1198.21 525 1190.42 520.55 1180.03 510.68 1171.13 506.45 1161.11 500.89 1154.81 500.89 1148.87 501.26 1143.68 503.49 1138.48 505.71 1131.44 502.74 1126.24 504.23 1123.65 510.68 1123.65 515.73 1116.97 519.44 1116.97 510.68 1116.97 506.08 1113.63 503.86 1110.29 514.99 1110.29 521.29 1103.62 523.15 1100.47 519.67 1097.72 471.73 1097.72 459.93 1092.23 446.69 1088.3 438 1088.3 430 1084.99 426.76 1059.13 409.25 1049.84 375.06 1045.52 354.7 1040.32 349 880.26 214.41 878.19 217.64 873.52 215.53 870.53 218.49 864.84 217.09 834.06 241.26 830.97 241.32 684.41 369.5 681.91 370.28 681.75 374.98 683.32 378.93 680.1 416.43 666.71 425.51 666.71 436.43 665.51 439.74 660.49 437.37 657.32 438.95 659.43 444.23 659.43 449.25 652.56 445.03 638.03 456.39 638.03 459.03 620.6 477.52 614.78 484.39 594.44 500.51 584.66 504.21 581.23 510.67 575.68 513.19 574.15 520.03 561.56 529.57 552.96 528.25 540.28 528.78 534.47 543.84 528.92 550.66 529.82 553.64"/>
  </g>
  <g id="Window">
    <polyline id="c-3" class="cls-2" points="1052.69 576.3 1504.38 383.4 1669.88 383.4"/>
    <g id="t-1.3">
      <path class="cls-3" d="M1507.74,360.11h5.82c4.8,0,8.13,3.35,8.13,8.59s-3.25,8.9-8.16,8.9h-5.79Zm1.4,16.2h4.19c4.6,0,6.86-3.23,6.86-7.53,0-3.83-2-7.38-6.86-7.38h-4.19Z"/>
      <path class="cls-3" d="M1542.76,368.73c0,4.77-2.55,9.12-8,9.12-4.93,0-7.81-4-7.81-9s2.79-9,8-9C1539.78,359.86,1542.76,363.63,1542.76,368.73Zm-14.26,0c0,4,2.2,7.78,6.38,7.78,4.5,0,6.38-3.68,6.38-7.81s-2.13-7.6-6.33-7.6C1530.46,361.15,1528.5,364.84,1528.5,368.78Z"/>
      <path class="cls-3" d="M1564.22,369.58c0-3.41,0-6.68.1-8.44h-.07c-.71,2.38-4.22,10.94-6.43,16.46h-1.36c-1.67-4.29-5.3-13.82-6.1-16.48h0c.12,2,.17,6.06.17,9.06v7.42h-1.39V360.11h2.1c2.38,6,5.37,13.76,6,15.75h0c.41-1.29,3.87-10,6.3-15.75h2.07V377.6h-1.4Z"/>
      <path class="cls-3" d="M1588.4,369.58c0-3.41,0-6.68.1-8.44h-.08c-.7,2.38-4.21,10.94-6.42,16.46h-1.37c-1.66-4.29-5.3-13.82-6.1-16.48h0c.13,2,.18,6.06.18,9.06v7.42h-1.4V360.11h2.11c2.37,6,5.36,13.76,6,15.75h0c.4-1.29,3.86-10,6.29-15.75h2.07V377.6h-1.39Z"/>
      <path class="cls-3" d="M1599,371.59l-2.21,6h-1.42l6.41-17.49h1.67l6.68,17.49h-1.53l-2.25-6Zm6.89-1.28c-1.93-5.17-2.93-7.66-3.28-8.85h0c-.43,1.34-1.55,4.43-3.11,8.85Z"/>
      <path class="cls-3" d="M1629,377.6h-1.16a12.93,12.93,0,0,1-.17-2.78c-.64,1.2-2,3-5.64,3-5,0-7.6-3.82-7.6-8.8,0-5.22,2.75-9.14,7.88-9.14,3.79,0,6.29,2,6.84,5.2h-1.4c-.74-2.44-2.45-3.92-5.49-3.92-4.35,0-6.33,3.39-6.33,7.79,0,4,1.91,7.58,6.16,7.58s5.56-2.83,5.56-6.66v-.19H1622v-1.29h7Z"/>
      <path class="cls-3" d="M1646.32,369h-8.91v7.28h9.76l-.2,1.29h-11V360.11h10.76v1.29h-9.36v6.34h8.91Z"/>
      <path class="cls-3" d="M1653.44,372.89c.52,2.31,2.06,3.67,4.92,3.67,3.17,0,4.39-1.58,4.39-3.46s-.87-3.18-4.7-4.12-5.31-2.14-5.31-4.66c0-2.31,1.68-4.46,5.44-4.46s5.49,2.35,5.72,4.48h-1.45c-.4-1.85-1.61-3.2-4.35-3.2-2.5,0-3.86,1.16-3.86,3.1s1.14,2.65,4.35,3.45c4.93,1.22,5.66,3.19,5.66,5.3,0,2.59-1.88,4.81-6,4.81-4.37,0-6-2.54-6.31-4.91Z"/>
      <path class="cls-3" d="M1507.74,390.11h10.63v1.29h-9.23v6.54h8.65v1.29h-8.65v8.37h-1.4Z"/>
      <path class="cls-3" d="M1534.27,399h-8.91v7.28h9.76l-.2,1.29h-11V390.11h10.76v1.29h-9.36v6.34h8.91Z"/>
      <path class="cls-3" d="M1541.06,407.6V390.11h2.06c2.71,4.19,9.06,13.9,10.15,15.8h0c-.15-2.51-.13-5.09-.13-7.94v-7.86h1.42V407.6h-1.91c-2.58-4-9-14.16-10.27-16.09h0c.13,2.28.1,4.86.1,8v8.06Z"/>
      <path class="cls-3" d="M1572.52,399h-8.91v7.28h9.76l-.2,1.29h-11V390.11H1573v1.29h-9.36v6.34h8.91Zm-4.12-13.94,3.3,3.18H1570l-2.38-2.29-2.6,2.29h-1.62l3.47-3.18Z"/>
      <path class="cls-3" d="M1583.71,391.4h-5.86v-1.29H1591v1.29h-5.88v16.2h-1.43Z"/>
      <path class="cls-3" d="M1597.54,399.45v8.15h-1.43V390.11h6.31c3.45,0,5.28,1.85,5.28,4.6a4,4,0,0,1-3.26,4.1c1.78.42,3,1.59,3,4.57v.67a11.81,11.81,0,0,0,.23,3.55h-1.42a11.53,11.53,0,0,1-.26-3.66v-.44c0-2.85-.84-4.05-4.17-4.05Zm0-1.28h4.2c3,0,4.46-1.15,4.46-3.43s-1.39-3.34-4.09-3.34h-4.57Z"/>
      <path class="cls-3" d="M1624.77,399h-8.91v7.28h9.76l-.2,1.29h-11V390.11h10.76v1.29h-9.36v6.34h8.91Z"/>
      <path class="cls-3" d="M1631.89,402.89c.52,2.31,2.07,3.67,4.92,3.67,3.17,0,4.39-1.58,4.39-3.46s-.87-3.18-4.7-4.12-5.31-2.14-5.31-4.66c0-2.31,1.68-4.46,5.44-4.46s5.49,2.35,5.72,4.48h-1.45c-.4-1.85-1.61-3.2-4.35-3.2-2.5,0-3.86,1.16-3.86,3.1s1.14,2.65,4.35,3.45c4.93,1.22,5.66,3.19,5.66,5.3,0,2.59-1.88,4.81-6,4.81-4.37,0-6-2.54-6.31-4.91Z"/>
    </g>
    <rect id="r-1.3" class="cls-5" x="1513.14" y="445.76" width="32.71" height="32.71"/>
    <g id="s-1.3">
      <path class="cls-3" d="M1568.75,456.67h1.12v6.09h8.34v-6.09h1.12v14h-1.12v-6.88h-8.34v6.88h-1.12Z"/>
      <path class="cls-3" d="M1586.75,465.87l-1.76,4.8h-1.14l5.13-14h1.33l5.35,14h-1.22l-1.81-4.8Zm5.52-1c-1.55-4.13-2.35-6.13-2.63-7.07h0c-.34,1.06-1.23,3.54-2.48,7.07Z"/>
      <path class="cls-3" d="M1600.62,456.67v8.48c0,3.7,2.09,4.65,4.06,4.65,2.32,0,4-1,4-4.65v-8.48h1.14v8.42c0,4.38-2.33,5.74-5.23,5.74s-5.18-1.49-5.18-5.57v-8.59Z"/>
      <path class="cls-3" d="M1618.7,457.7H1614v-1h10.54v1h-4.71v13h-1.14Z"/>
    </g>
    <rect id="r-2.3" class="cls-6" x="1513.14" y="485.76" width="32.71" height="32.71"/>
    <g id="s-2.3">
      <path class="cls-3" d="M1580.86,504.25c0-2.73,0-5.35.08-6.76h-.06c-.57,1.91-3.38,8.76-5.15,13.18h-1.09c-1.33-3.43-4.24-11.06-4.88-13.2h0c.1,1.61.14,4.86.14,7.26v5.94h-1.11v-14h1.68c1.9,4.77,4.29,11,4.81,12.61h0c.32-1,3.09-8,5-12.61H1582v14h-1.11Z"/>
      <path class="cls-3" d="M1599.67,503.57c0,3.82-2.05,7.3-6.37,7.3-4,0-6.25-3.18-6.25-7.2s2.23-7.2,6.39-7.2C1597.28,496.47,1599.67,499.48,1599.67,503.57Zm-11.42,0c0,3.21,1.77,6.22,5.11,6.22,3.6,0,5.11-2.94,5.11-6.24s-1.71-6.09-5.07-6.09C1589.82,497.5,1588.25,500.46,1588.25,503.61Z"/>
      <path class="cls-3" d="M1607.7,510.67v-5.26a.68.68,0,0,0-.08-.32l-5-8.42h1.3c1.4,2.37,3.81,6.48,4.42,7.53.6-1.05,3-5.12,4.53-7.53h1.24l-5.21,8.5a.6.6,0,0,0-.07.3v5.2Z"/>
      <path class="cls-3" d="M1626.29,503.8h-7.12v5.83h7.8l-.16,1H1618v-14h8.61v1h-7.48v5.07h7.12Z"/>
      <path class="cls-3" d="M1631.72,510.67v-14h1.65c2.17,3.35,7.25,11.13,8.13,12.64h0c-.13-2-.11-4.07-.11-6.35v-6.29h1.14v14H1641l-8.23-12.88h0c.1,1.83.08,3.89.08,6.42v6.46Z"/>
    </g>
    <rect id="r-3.3" class="cls-7" x="1513.14" y="525.75" width="32.71" height="32.71"/>
    <g id="s-3.3">
      <path class="cls-3" d="M1568.75,536.66h4.9c2.7,0,4.13,1.43,4.13,3.44a3,3,0,0,1-2.15,3.06,3.53,3.53,0,0,1,2.65,3.46c0,2.79-2.09,4-4.55,4h-5Zm4.54,6c2.4,0,3.31-.89,3.31-2.5,0-1.37-.95-2.48-2.9-2.48h-3.85v5Zm-3.44,7h3.91c1.84,0,3.36-.91,3.36-3,0-1.76-1.13-3-3.93-3h-3.34Z"/>
      <path class="cls-3" d="M1584.85,545.85l-1.77,4.81H1582l5.13-14h1.33l5.35,14h-1.22l-1.81-4.81Zm5.52-1c-1.55-4.13-2.35-6.13-2.63-7.07h0c-.34,1.06-1.23,3.54-2.48,7.07Z"/>
      <path class="cls-3" d="M1598.47,546.89c.41,1.85,1.65,2.94,3.93,2.94,2.54,0,3.52-1.26,3.52-2.77s-.7-2.54-3.77-3.3-4.25-1.71-4.25-3.73c0-1.85,1.35-3.57,4.36-3.57s4.4,1.88,4.58,3.59h-1.16c-.32-1.49-1.29-2.56-3.48-2.56-2,0-3.1.93-3.1,2.48s.92,2.12,3.49,2.76c3.94,1,4.53,2.55,4.53,4.24,0,2.07-1.51,3.85-4.76,3.85-3.5,0-4.79-2-5.06-3.93Z"/>
    </g>
    <rect id="b-3" class="cls-8" x="1505.94" y="435.09" width="165.1" height="132.73"/>
    <rect id="r-4.3" class="cls-5" x="1510.52" y="443.95" width="37.7" height="37.7"/>
    <g id="s-4.3">
      <path class="cls-3" d="M1568.75,456.67h1.12v6.09h8.34v-6.09h1.12v14h-1.12v-6.88h-8.34v6.88h-1.12Z"/>
      <path class="cls-3" d="M1586.75,465.87l-1.76,4.8h-1.14l5.13-14h1.33l5.35,14h-1.22l-1.81-4.8Zm5.52-1c-1.55-4.13-2.35-6.13-2.63-7.07h0c-.34,1.06-1.23,3.54-2.48,7.07Z"/>
      <path class="cls-3" d="M1600.62,456.67v8.48c0,3.7,2.09,4.65,4.06,4.65,2.32,0,4-1,4-4.65v-8.48h1.14v8.42c0,4.38-2.33,5.74-5.23,5.74s-5.18-1.49-5.18-5.57v-8.59Z"/>
      <path class="cls-3" d="M1618.7,457.7H1614v-1h10.54v1h-4.71v13h-1.14Z"/>
    </g>
    <rect id="r-5.3" class="cls-9" x="1513.17" y="485.77" width="32.71" height="32.71"/>
    <g id="s-5.3">
      <path class="cls-10" d="M1580.88,504.27c0-2.74,0-5.36.08-6.76h-.06c-.56,1.9-3.37,8.75-5.14,13.17h-1.09c-1.34-3.43-4.24-11.06-4.88-13.19h0c.1,1.6.14,4.85.14,7.25v5.94h-1.12v-14h1.68c1.9,4.78,4.3,11,4.82,12.61h0c.33-1,3.1-8,5-12.61H1582v14h-1.12Z"/>
      <path class="cls-10" d="M1599.69,503.58c0,3.82-2,7.3-6.37,7.3-4,0-6.25-3.18-6.25-7.2s2.23-7.2,6.39-7.2C1597.31,496.48,1599.69,499.5,1599.69,503.58Zm-11.42,0c0,3.21,1.77,6.23,5.11,6.23,3.6,0,5.11-3,5.11-6.25s-1.71-6.09-5.07-6.09C1589.84,497.51,1588.27,500.47,1588.27,503.62Z"/>
      <path class="cls-10" d="M1607.73,510.68v-5.25a.76.76,0,0,0-.08-.33l-5-8.42H1604c1.39,2.37,3.81,6.49,4.41,7.54.6-1.05,3-5.13,4.53-7.54h1.24l-5.21,8.5a.61.61,0,0,0-.06.3v5.2Z"/>
      <path class="cls-10" d="M1626.32,503.82h-7.13v5.83H1627l-.17,1h-8.76v-14h8.61v1h-7.49v5.08h7.13Z"/>
      <path class="cls-10" d="M1631.75,510.68v-14h1.65c2.17,3.36,7.24,11.13,8.12,12.65h0c-.12-2-.1-4.08-.1-6.36v-6.29h1.13v14h-1.52c-2.07-3.23-7.23-11.33-8.23-12.88h0c.1,1.83.08,3.89.08,6.43v6.45Z"/>
    </g>
    <rect id="r-6.3" class="cls-11" x="1513.17" y="525.69" width="32.64" height="33"/>
    <g id="s-6.3">
      <path class="cls-10" d="M1568.77,536.67h4.91c2.69,0,4.13,1.42,4.13,3.44a3,3,0,0,1-2.15,3.06,3.53,3.53,0,0,1,2.64,3.45c0,2.79-2.09,4-4.54,4h-5Zm4.55,6c2.39,0,3.31-.9,3.31-2.5,0-1.38-1-2.48-2.9-2.48h-3.86v5Zm-3.45,7h3.91c1.84,0,3.36-.92,3.36-3,0-1.77-1.13-3-3.92-3h-3.35Z"/>
      <path class="cls-10" d="M1584.88,545.86l-1.77,4.81H1582l5.13-14h1.33l5.36,14h-1.23l-1.8-4.81Zm5.51-1c-1.55-4.13-2.34-6.13-2.62-7.08h0c-.34,1.07-1.24,3.54-2.49,7.08Z"/>
      <path class="cls-10" d="M1598.49,546.9c.42,1.85,1.65,2.94,3.94,2.94,2.54,0,3.51-1.27,3.51-2.78s-.7-2.54-3.76-3.29-4.25-1.71-4.25-3.73c0-1.85,1.35-3.57,4.35-3.57s4.4,1.88,4.58,3.59h-1.16c-.32-1.49-1.28-2.57-3.48-2.57-2,0-3.09.93-3.09,2.48s.91,2.13,3.48,2.76c4,1,4.53,2.56,4.53,4.25,0,2.07-1.51,3.85-4.76,3.85-3.5,0-4.79-2-5.05-3.93Z"/>
    </g>
    <path id="f-1" class="cls-12" d="M1205.73,785c-.43-.64-3.57-5.13-9.12-5.49a11.62,11.62,0,0,0-7.18,2v-1l6.68,61.28,15.82,1.12-6.79-59.35"/>
    <path id="f-2" class="cls-12" d="M1173.22,781a14.48,14.48,0,0,0-10.43-5.77,14,14,0,0,0-8.21,2.13V776.3l7.64,64.45,18.1,1.18-7.76-62.42"/>
    <path id="f-3" class="cls-12" d="M1137.74,775.2a17.28,17.28,0,0,0-12-6.69,17.55,17.55,0,0,0-9.71,1.9l0-1.17,6.14,69.6,21.16,2.13L1137,773.54"/>
    <path id="f-4" class="cls-12" d="M1081.86,766.69a26.76,26.76,0,0,0-16.72-8.48,30.26,30.26,0,0,0-13.87,1.38l.11-1.31,4.78,80.63,31,2.31-6.3-76.46"/>
    <path id="f-5" class="cls-12" d="M1029,758.14c-.84-1-7-7.77-19-9.55a36.84,36.84,0,0,0-15.89,1.06l.15-1.41,1.28,24.29L992.28,778v3.79l2.37,6.16-2.37,2.68V799l-2,5.66.92,7.13,1.6,12.15,2.69,3.32,1.57,3.31,1.79,4.52L1034,837.8l-6.09-81.75"/>
    <path id="f-6" class="cls-12" d="M976.6,777.52l-1.18-8.06-2.17-3.94s-2-8.85-2-9.83-1.77-5.31-1.77-5.31-8.26-7.28-9-7.67S944,740,944,740v-3.34h-4.53l-4.72,1.77-3.93-3.74-5.42,2.56-2.84,2.56v5.7L919,749.39l-6.89,1.18-4.52,3.74-1.18,14.12-3.54,4.37,1.77,4.72-4.92,8.85-1.38,3.15-2.95,1.57v4.33l-3.34,3,1.38,6.33L892,811.94l-2.36,9.64s1.18,8.65,1.77,8.65,5.7,5.9,6.29,6.1,6.69,4.89,6.69,4.89,11.8,3.76,13,3.76,11.41,2.36,11.41,2.36l2.36-8.45,4.33-1.09h5.11l2.17-2.85,10.42,1.58L949.26,841l7.27,6.37,4.72-3.93,8.07,5.51-3,6.68,6.09,2.95-3-23.2,5.71.19,2.95-15.14.79-8.46,3.34-7.24,4.92-2.59,2.75-2.52V788.53l1.18-3.73H982.3l-1.38-4.92-4.91-.39Z"/>
    <path id="f-7" class="cls-12" d="M779.09,748.67a50.56,50.56,0,0,1,15.47-8.94,46.3,46.3,0,0,1,25.88-1.49l-.24-.39-2.48,98.09-42.18,1.86,3.77-89.63"/>
    <path id="f-8" class="cls-12" d="M720.87,754.86a36.62,36.62,0,0,1,12.34-7.54,31.94,31.94,0,0,1,20.64-.12l-.19-.38-2,90.85L718,837.34l3-82.92"/>
    <path id="f-9" class="cls-12" d="M674,763.59a27.83,27.83,0,0,1,9.7-6.62,21,21,0,0,1,15.9.31l-.13-.35-3.72,82.72-25.91-1,4.31-75.48"/>
    <path id="f-10" class="cls-12" d="M619.59,773.32a22.16,22.16,0,0,1,7.47-6.08,13.83,13.83,0,0,1,12.23.22l-.11-.32L636,842.72l-19.91-.8,3.6-69"/>
    <path id="f-11" class="cls-12" d="M586.22,778.1a21.51,21.51,0,0,1,7.46-5.49,15.1,15.1,0,0,1,12.22.22l-.1-.28-3,68.52-19.91-.77,3.43-62.53"/>
    <path id="f-11-2" data-name="f-11" class="cls-12" d="M558.89,782.19a17.39,17.39,0,0,1,5.77-5.11,9.57,9.57,0,0,1,9.31.26l-.08-.27-3.33,64.09-15.16-.81L559,781.87"/>
    <path id="f-12" class="cls-12" d="M535.07,785.71a15.26,15.26,0,0,1,4.61-4.78,6.41,6.41,0,0,1,7.28.3l-.05-.25L543,841.22l-11.84-.84,4-55"/>
    <polygon id="f-13" class="cls-12" points="823.55 684.81 823.55 602.49 793.09 614.16 790.5 693.24 823.55 684.81"/>
    <polygon id="f-14" class="cls-12" points="761.65 623.56 735.95 632.63 731.18 707.18 757.76 700.37 761.65 623.56"/>
    <polygon id="f-15" class="cls-12" points="708.17 642.03 688.73 649.81 683.22 718.84 703.63 713.01 708.17 642.03"/>
    <polygon id="f-16" class="cls-12" points="639.29 673.47 632.98 733.11 649.51 728.57 655.34 665.37 639.29 673.47"/>
    <polygon id="f-17" class="cls-12" points="605.9 685.79 599.92 739.91 613.86 737.06 619.37 678.98 605.9 685.79"/>
    <polygon id="f-18" class="cls-12" points="575.29 695.18 569.46 747.69 580.8 744.13 586.31 689.67 575.29 695.18"/>
    <polygon id="f-19" class="cls-12" points="548.71 701.67 542.55 753.52 552.28 750.61 558.76 697.13 548.71 701.67"/>
    <polygon id="f-20" class="cls-12" points="828.68 476.36 826.96 552.02 795.11 566.38 797.61 495.61 828.68 476.36"/>
    <polygon id="f-21" class="cls-12" points="767.64 508.31 764.31 578.66 739.33 589.48 743.49 523.71 767.64 508.31"/>
    <polygon id="f-22" class="cls-12" points="716.64 535.57 712.27 600.72 692.08 609.25 696.45 548.89 716.64 535.57"/>
    <polygon id="f-23" class="cls-12" points="660.03 570.75 655.34 629.24 642.33 635.07 647.75 577.62 660.03 570.75"/>
    <polygon id="f-24" class="cls-12" points="627.97 588.65 622.56 642.03 608.2 649.63 615.07 594.68 627.97 588.65"/>
    <polygon id="f-25" class="cls-12" points="596.75 605.3 591.34 656.71 579.06 661.5 584.89 611.75 596.75 605.3"/>
    <polygon id="f-26" class="cls-12" points="568.44 619.14 563.45 668.78 551.79 672.95 557.83 625.07 568.44 619.14"/>
    <polygon id="f-27" class="cls-12" points="719.57 424.44 723.52 430.13 719.57 485.02 700.03 497.63 705.97 440.51 702.51 436.56 719.57 424.44"/>
    <polygon id="f-28" class="cls-12" points="668.51 483.18 663.98 538.18 651.18 546.41 656.93 490.78 668.51 483.18"/>
    <polygon id="f-29" class="cls-12" points="636.48 504.89 631.6 555.73 618.09 563.87 624 512.13 636.48 504.89"/>
    <polygon id="f-30" class="cls-12" points="605.36 524.43 600.48 573.46 588.9 580.34 594.51 531.12 605.36 524.43"/>
    <polygon id="f-31" class="cls-12" points="577.32 543.43 573.34 589.48 563.21 594.45 567.73 550.66 577.32 543.43"/>
    <polygon id="f-32" class="cls-12" points="923.17 686.53 958.46 695.13 956.41 617 923.17 603.82 923.17 686.53"/>
    <polygon id="f-33" class="cls-12" points="989.3 624.98 991.9 701.81 1019.7 707.92 1017.1 635.82 989.3 624.98"/>
    <polygon id="f-34" class="cls-12" points="1045.52 641.98 1049.54 712.9 1051.89 714.08 1052.56 718.1 1071.84 721.28 1069.5 650.87 1045.52 641.98"/>
    <polygon id="f-35" class="cls-12" points="1105.9 666.45 1110.75 722.61 1117.09 723.91 1117.09 731.93 1132.2 735.85 1126.61 673.35 1105.9 666.45"/>
    <polygon id="f-36" class="cls-12" points="1145.07 678.11 1149.57 731.44 1156.32 733.24 1156.32 741.11 1168.7 744.26 1163.07 685.54 1145.07 678.11"/>
    <polygon id="f-37" class="cls-12" points="1179.58 692.43 1184.04 738.12 1190.31 740.49 1190.31 748.15 1198.39 750.1 1192.84 697.41 1179.58 692.43"/>
    <polygon id="f-38" class="cls-12" points="1208.7 701.15 1213.65 746.29 1219.61 747.45 1220.34 754.87 1224.85 755.6 1219.03 704.54 1208.7 701.15"/>
    <polygon id="f-39" class="cls-12" points="921.14 474.32 923.17 552.83 955.98 566.38 954.6 492.84 921.14 474.32"/>
    <polygon id="f-40" class="cls-12" points="985.42 506.64 987.71 578.56 1015.83 590.03 1013.15 521.75 985.42 506.64"/>
    <polygon id="f-41" class="cls-12" points="1039.73 535.71 1043.18 599.98 1064.79 608.39 1061.35 548.34 1039.73 535.71"/>
    <polygon id="f-42" class="cls-12" points="1098.26 568.99 1102.09 629.24 1121.6 637.85 1117.77 579.51 1098.26 568.99"/>
    <polygon id="f-43" class="cls-12" points="1136.51 588.31 1141.49 645.5 1158.32 651.81 1156.02 605.52 1152.01 594.24 1136.51 588.31"/>
    <polygon id="f-44" class="cls-12" points="1169.79 604.38 1175.53 658.89 1190.64 664.43 1187.58 621.02 1183.75 610.31 1169.79 604.38"/>
    <polygon id="f-45" class="cls-12" points="1199.63 618.72 1205.56 670.55 1216.77 675.53 1212.32 629.94 1208.7 623.11 1199.63 618.72"/>
    <polygon id="f-46" class="cls-12" points="921.14 418.17 955.98 439.3 955.98 365.52 928.29 346.29 921.14 354.17 921.14 418.17"/>
    <polygon id="f-47" class="cls-12" points="982.07 395.56 983.72 455.68 1010.14 470.67 1010.14 395.56 988.01 383.4 982.07 395.56"/>
    <polygon id="f-48" class="cls-12" points="1036.25 422.41 1033.72 430.7 1034.99 482.59 1058.23 497 1056.79 436.46 1036.25 422.41"/>
    <polygon id="f-49" class="cls-12" points="1163.48 524.05 1165.31 533.81 1163.48 538.28 1167.14 575.5 1180.96 582.44 1177.1 532.39 1163.48 524.05"/>
    <polygon id="f-50" class="cls-12" points="1192.35 542.96 1191.53 547.23 1193.36 549.06 1193.36 553.25 1192.45 556.37 1196.01 591.34 1209.62 598.45 1207.39 562.07 1203.12 548.65 1192.35 542.96"/>
    <polyline id="f-51" class="cls-12" points="822.26 343.19 830.96 352.8 830.96 415.71 800.09 439.3 801.73 373.83 793.81 365.09 822.26 343.19"/>
    <polyline id="f-52" class="cls-12" points="763.86 384.37 771.54 393.57 770.72 453.05 742.7 474.98 745.03 413.09 738.03 404.73 763.86 384.37"/>
    <polygon id="f-53" class="cls-12" points="1015.04 349.16 1016.76 383.4 1033.72 395.85 1033.72 365.01 1015.04 349.16"/>
    <polygon id="f-54" class="cls-12" points="974.11 316.02 972.96 349.16 978.72 353.48 978.72 358.67 1000.34 372.5 1000.34 346.29 996.11 332.73 974.11 316.02"/>
    <polygon id="f-55" class="cls-12" points="919.64 276.25 921.14 316.02 942.12 329.52 942.12 291.81 919.64 276.25"/>
    <polygon id="f-56" class="cls-12" points="833.48 276.25 833.48 313.71 811.28 329.51 811.28 293.54 833.48 276.25"/>
    <polygon id="f-57" class="cls-12" points="778.43 314 778.43 352.33 759.12 365.59 759.12 330.72 778.43 314"/>
    <polygon id="f-58" class="cls-12" points="729.15 356.94 727.71 386.63 713.01 398.15 714.16 369.5 729.15 356.94"/>
    <path id="f-59" class="cls-12" d="M1235,789.52a12.19,12.19,0,0,0-8.8-5,11.59,11.59,0,0,0-6.93,1.87v-1l6.45,56.46,15.27,1-6.55-54.69"/>
  </g>
  <g id="Impact">
    <polyline id="c-4" class="cls-2" points="955.98 819.81 1495.59 979.45 1611.58 979.45"/>
    <g id="t-1.4">
      <path class="cls-3" d="M1506.54,956.56v17.49h-1.4V956.56Z"/>
      <path class="cls-3" d="M1529.29,966c0-3.42,0-6.69.1-8.45h-.07c-.7,2.38-4.21,10.94-6.43,16.46h-1.36c-1.67-4.28-5.3-13.82-6.1-16.48h0c.13,2,.18,6.06.18,9.06v7.42h-1.4V956.56h2.1c2.38,6,5.37,13.77,6,15.75h0c.4-1.29,3.86-10,6.29-15.75h2.07v17.49h-1.4Z"/>
      <path class="cls-3" d="M1538.34,956.56h6.26c3.21,0,5.42,1.78,5.42,4.88s-2.19,5-5.59,5h-4.67v7.6h-1.42Zm1.42,8.61h4.78c2.8,0,4-1.49,4-3.68s-1.54-3.64-3.88-3.64h-4.88Z"/>
      <path class="cls-3" d="M1556.12,968.05l-2.21,6h-1.42l6.41-17.49h1.67l6.68,17.49h-1.53l-2.25-6Zm6.89-1.29c-1.93-5.17-2.93-7.66-3.28-8.85h0c-.43,1.34-1.55,4.43-3.11,8.85Z"/>
      <path class="cls-3" d="M1585.79,969.36a6.39,6.39,0,0,1-6.59,4.89c-5,0-7.68-4-7.68-8.92,0-4.72,2.6-9,7.71-9,3.79,0,6,2.11,6.58,5h-1.4a5,5,0,0,0-5.26-3.75c-4.32,0-6.13,3.94-6.13,7.7s1.78,7.66,6.23,7.66a5.09,5.09,0,0,0,5.14-3.6Z"/>
      <path class="cls-3" d="M1595.76,957.85h-5.86v-1.29h13.17v1.29h-5.89v16.2h-1.42Z"/>
    </g>
  </g>
</svg>
