<svg xmlns="http://www.w3.org/2000/svg" width="24in" height="15.99in" viewBox="0 0 1728 1151">
  <defs>
    <style>
      .cls-1, .cls-12 {
        fill: #fff;
      }

      .cls-1 {
        opacity: 0.7;
      }

      .cls-14, .cls-2, .cls-4 {
        fill: none;
      }

      .cls-11, .cls-14, .cls-2, .cls-4, .cls-5, .cls-6, .cls-7 {
        stroke: #231f20;
      }

      .cls-10, .cls-11, .cls-13, .cls-14, .cls-2, .cls-4, .cls-5, .cls-6, .cls-7, .cls-8 {
        stroke-miterlimit: 10;
      }

      .cls-2 {
        stroke-width: 0.75px;
      }

      .cls-3 {
        fill: #302a2b;
      }

      .cls-5 {
        fill: #d76b7d;
      }

      .cls-10, .cls-11, .cls-13, .cls-5, .cls-6, .cls-7, .cls-8 {
        stroke-width: 0.5px;
      }

      .cls-6 {
        fill: #f8e69a;
      }

      .cls-7 {
        fill: #74bc69;
      }

      .cls-8 {
        fill: #e2b7c0;
      }

      .cls-10, .cls-13, .cls-8 {
        stroke: #a7a9ac;
      }

      .cls-9 {
        fill: #d6d6d6;
      }

      .cls-10 {
        fill: #e1efdf;
      }

      .cls-11 {
        fill: #f7e599;
      }

      .cls-13 {
        fill: #f9f4de;
      }

      .cls-14 {
        stroke-width: 2px;
      }
    </style>
  </defs>
  <g id="Opacity_Rectangle" data-name="Opacity Rectangle">
    <rect id="o-1" class="cls-1" x="290" y="144" width="1152.3" height="864.6"/>
  </g>
  <g id="Wall">
    <polyline id="c-1" class="cls-2" points="390.97 415.8 217.84 553.64 52.34 553.64"/>
    <g id="t-1.1">
      <path class="cls-3" d="M53.19,528.92H59c4.8,0,8.13,3.35,8.13,8.6s-3.25,8.89-8.16,8.89H53.19Zm1.4,16.2h4.19c4.6,0,6.86-3.23,6.86-7.53,0-3.83-2-7.38-6.86-7.38H54.59Z"/>
      <path class="cls-3" d="M88.21,537.54c0,4.78-2.55,9.12-8,9.12-4.93,0-7.81-4-7.81-9s2.79-9,8-9C85.23,528.67,88.21,532.44,88.21,537.54ZM74,537.59c0,4,2.2,7.78,6.38,7.78,4.5,0,6.38-3.67,6.38-7.8S84.58,530,80.38,530C75.91,530,74,533.66,74,537.59Z"/>
      <path class="cls-3" d="M109.67,538.4c0-3.41,0-6.69.1-8.44h-.07c-.71,2.37-4.22,10.93-6.43,16.45h-1.36c-1.67-4.28-5.3-13.81-6.1-16.48h0c.12,2,.17,6.06.17,9.06v7.42H94.54V528.92h2.1c2.38,6,5.37,13.77,6,15.76h0c.4-1.3,3.86-10,6.29-15.76h2.07v17.49h-1.4Z"/>
      <path class="cls-3" d="M133.85,538.4c0-3.41,0-6.69.1-8.44h-.08c-.7,2.37-4.21,10.93-6.42,16.45h-1.37c-1.66-4.28-5.3-13.81-6.1-16.48h0c.13,2,.18,6.06.18,9.06v7.42h-1.4V528.92h2.11c2.37,6,5.36,13.77,6,15.76h0c.4-1.3,3.86-10,6.29-15.76h2.07v17.49h-1.39Z"/>
      <path class="cls-3" d="M144.47,540.41l-2.21,6h-1.42l6.41-17.49h1.67l6.68,17.49h-1.52l-2.26-6Zm6.89-1.29c-1.93-5.16-2.93-7.66-3.28-8.84h0c-.43,1.33-1.55,4.42-3.11,8.84Z"/>
      <path class="cls-3" d="M174.44,546.41h-1.16a12.79,12.79,0,0,1-.17-2.77c-.64,1.2-2,3-5.64,3-5,0-7.6-3.82-7.6-8.79,0-5.22,2.75-9.15,7.88-9.15,3.79,0,6.29,2,6.84,5.21h-1.4c-.74-2.45-2.45-3.92-5.49-3.92-4.35,0-6.33,3.39-6.33,7.78,0,4,1.91,7.59,6.16,7.59s5.56-2.84,5.56-6.66v-.2h-5.61v-1.29h7Z"/>
      <path class="cls-3" d="M191.77,537.84h-8.91v7.28h9.76l-.2,1.29h-11V528.92h10.76v1.29h-9.36v6.34h8.91Z"/>
      <path class="cls-3" d="M198.89,541.71c.52,2.31,2.07,3.67,4.92,3.67,3.17,0,4.39-1.58,4.39-3.47s-.87-3.17-4.7-4.12-5.31-2.14-5.31-4.66c0-2.31,1.68-4.46,5.44-4.46s5.49,2.35,5.72,4.49H207.9c-.4-1.86-1.61-3.2-4.35-3.2-2.5,0-3.86,1.16-3.86,3.09s1.14,2.65,4.35,3.45c4.93,1.23,5.66,3.2,5.66,5.3,0,2.59-1.88,4.81-5.95,4.81-4.37,0-6-2.54-6.31-4.9Z"/>
      <path class="cls-3" d="M151.17,568.4c0-3.41,0-6.69.1-8.44h-.07c-.71,2.37-4.22,10.93-6.43,16.45h-1.36c-1.67-4.28-5.3-13.81-6.1-16.48h-.05c.12,2,.17,6.06.17,9.06v7.42H136V558.92h2.1c2.38,6,5.37,13.77,6,15.76h.05c.4-1.3,3.86-10,6.29-15.76h2.07v17.49h-1.4Z"/>
      <path class="cls-3" d="M161.56,558.92v10.59c0,4.62,2.61,5.82,5.07,5.82,2.9,0,5.06-1.23,5.06-5.82V558.92h1.43v10.52c0,5.48-2.91,7.17-6.54,7.17-3.46,0-6.47-1.86-6.47-7V558.92Z"/>
      <path class="cls-3" d="M181.91,568.27v8.14h-1.42V558.92h6.3c3.46,0,5.29,1.86,5.29,4.6a4,4,0,0,1-3.26,4.1c1.78.43,3,1.59,3,4.57v.68a11.81,11.81,0,0,0,.22,3.54H190.6a11.82,11.82,0,0,1-.25-3.65v-.45c0-2.85-.84-4-4.18-4Zm0-1.29h4.2c3,0,4.47-1.14,4.47-3.42s-1.39-3.35-4.1-3.35h-4.57Z"/>
      <path class="cls-3" d="M198.89,571.71c.52,2.31,2.07,3.67,4.92,3.67,3.17,0,4.39-1.58,4.39-3.47s-.87-3.17-4.7-4.12-5.31-2.14-5.31-4.66c0-2.31,1.68-4.46,5.44-4.46s5.49,2.35,5.72,4.49H207.9c-.4-1.86-1.61-3.2-4.35-3.2-2.5,0-3.86,1.16-3.86,3.09s1.14,2.65,4.35,3.45c4.93,1.23,5.66,3.2,5.66,5.3,0,2.59-1.88,4.81-5.95,4.81-4.37,0-6-2.54-6.31-4.9Z"/>
    </g>
    <polygon id="w-1" class="cls-4" points="301.76 710.99 373.63 227.23 373.63 218.24 461.02 194.56 466.34 199.59 466.34 208.15 486.3 223.84 486.3 215.75 664.56 340.77 664.56 348.85 672.17 354.08 733.01 341.25 736.51 345.69 782.44 380.4 782.44 389.51 789.03 390.76 789.03 385.11 833.96 422.18 833.96 429.41 841.5 428.78 836.03 577.69 1100.89 601.46 1100.89 648.89 1089.43 650.12 1089.43 710.99 831.28 710.99 709.72 710.99 646.9 704.19 301.76 710.99"/>
    <polyline id="r-1.1" class="cls-5" points="112.4 612.14 112.4 644.85 79.69 644.85 79.69 612.14"/>
    <g id="s-1.1">
      <path class="cls-3" d="M135.29,623.05h1.12v6.09h8.34v-6.09h1.12v14h-1.12v-6.88h-8.34v6.88h-1.12Z"/>
      <path class="cls-3" d="M153.29,632.25l-1.76,4.8h-1.14l5.13-14h1.33l5.35,14H161l-1.8-4.8Zm5.52-1c-1.55-4.14-2.34-6.13-2.63-7.08h0c-.34,1.07-1.23,3.54-2.48,7.08Z"/>
      <path class="cls-3" d="M167.17,623.05v8.48c0,3.7,2.08,4.65,4.05,4.65,2.33,0,4.05-1,4.05-4.65v-8.48h1.14v8.42c0,4.39-2.33,5.74-5.23,5.74s-5.17-1.49-5.17-5.56v-8.6Z"/>
      <path class="cls-3" d="M185.25,624.09h-4.69v-1H191.1v1h-4.71v13h-1.14Z"/>
    </g>
    <rect id="r-2.1" class="cls-6" x="79.73" y="652.76" width="32.71" height="32.71"/>
    <g id="s-2.1">
      <path class="cls-3" d="M147.45,671.25c0-2.73,0-5.35.08-6.75h-.06c-.57,1.9-3.37,8.75-5.14,13.17h-1.1c-1.33-3.43-4.24-11.06-4.88-13.19h0c.1,1.6.14,4.85.14,7.25v5.94h-1.11v-14H137c1.9,4.77,4.29,11,4.81,12.61h0c.32-1,3.09-8,5-12.61h1.66v14h-1.12Z"/>
      <path class="cls-3" d="M166.26,670.57c0,3.82-2,7.3-6.37,7.3-3.95,0-6.25-3.18-6.25-7.2s2.23-7.2,6.39-7.2C163.87,663.47,166.26,666.49,166.26,670.57Zm-11.42,0c0,3.21,1.77,6.23,5.11,6.23,3.6,0,5.11-3,5.11-6.25s-1.71-6.09-5.07-6.09C156.41,664.5,154.84,667.46,154.84,670.61Z"/>
      <path class="cls-3" d="M174.29,677.67v-5.26a.68.68,0,0,0-.08-.32l-5-8.42h1.3c1.4,2.37,3.81,6.48,4.42,7.53.6-1,3-5.12,4.53-7.53h1.24l-5.21,8.5a.61.61,0,0,0-.06.3v5.2Z"/>
      <path class="cls-3" d="M192.89,670.81h-7.13v5.83h7.81l-.17,1h-8.76v-14h8.6v1h-7.48v5.07h7.13Z"/>
      <path class="cls-3" d="M198.32,677.67v-14H200c2.17,3.35,7.25,11.13,8.13,12.65h0c-.12-2-.11-4.08-.11-6.36v-6.29h1.14v14h-1.52l-8.23-12.88h0c.1,1.83.08,3.89.08,6.43v6.45Z"/>
    </g>
    <rect id="r-3.1" class="cls-7" x="79.69" y="692.13" width="32.71" height="32.71"/>
    <g id="s-3.1">
      <path class="cls-3" d="M135.29,703h4.9c2.7,0,4.13,1.43,4.13,3.45a3,3,0,0,1-2.15,3.06,3.53,3.53,0,0,1,2.65,3.45c0,2.79-2.09,4-4.54,4h-5Zm4.54,6c2.4,0,3.32-.89,3.32-2.5,0-1.37-1-2.48-2.9-2.48h-3.86v5Zm-3.44,7h3.91c1.84,0,3.36-.91,3.36-3,0-1.77-1.13-3-3.93-3h-3.34Z"/>
      <path class="cls-3" d="M151.39,712.24l-1.76,4.8h-1.14l5.13-14H155l5.35,14h-1.22l-1.81-4.8Zm5.52-1c-1.55-4.14-2.35-6.13-2.63-7.08h0c-.34,1.07-1.23,3.54-2.48,7.08Z"/>
      <path class="cls-3" d="M165,713.28c.42,1.85,1.65,2.94,3.94,2.94,2.54,0,3.51-1.27,3.51-2.78s-.7-2.54-3.76-3.3-4.26-1.71-4.26-3.72,1.36-3.58,4.36-3.58,4.4,1.89,4.58,3.59h-1.16c-.32-1.48-1.29-2.56-3.48-2.56-2,0-3.09.93-3.09,2.48s.91,2.12,3.48,2.76c3.94,1,4.53,2.56,4.53,4.24,0,2.07-1.51,3.85-4.76,3.85-3.5,0-4.79-2-5.05-3.92Z"/>
    </g>
    <polyline id="r-4.1" class="cls-8" points="112.4 612.14 112.4 644.85 79.69 644.85 79.69 612.14"/>
    <g id="s-4.1">
      <path class="cls-9" d="M135.31,623.05h1.12v6.09h8.34v-6.09h1.12v14h-1.12v-6.88h-8.34v6.88h-1.12Z"/>
      <path class="cls-9" d="M153.31,632.25l-1.76,4.8h-1.14l5.13-14h1.33l5.35,14H161l-1.81-4.8Zm5.52-1c-1.55-4.14-2.35-6.13-2.63-7.08h0c-.34,1.07-1.23,3.54-2.48,7.08Z"/>
      <path class="cls-9" d="M167.19,623.05v8.48c0,3.7,2.08,4.66,4.05,4.66,2.33,0,4-1,4-4.66v-8.48h1.14v8.42c0,4.39-2.33,5.74-5.23,5.74s-5.18-1.49-5.18-5.56v-8.6Z"/>
      <path class="cls-9" d="M185.26,624.09h-4.68v-1h10.54v1h-4.71v13h-1.15Z"/>
    </g>
    <g id="s-5.1">
      <path class="cls-3" d="M147.47,671.27c0-2.73,0-5.36.08-6.76h-.06c-.56,1.9-3.37,8.75-5.14,13.17h-1.09c-1.34-3.43-4.24-11.06-4.88-13.19h0c.1,1.6.14,4.85.14,7.25v5.94h-1.12v-14H137c1.9,4.78,4.3,11,4.82,12.61h0c.32-1,3.09-8,5-12.61h1.66v14h-1.12Z"/>
      <path class="cls-3" d="M166.28,670.58c0,3.82-2,7.3-6.37,7.3-3.95,0-6.25-3.18-6.25-7.2s2.23-7.2,6.39-7.2C163.9,663.48,166.28,666.5,166.28,670.58Zm-11.41,0c0,3.21,1.76,6.23,5.1,6.23,3.6,0,5.11-2.94,5.11-6.25s-1.7-6.09-5.07-6.09C156.44,664.51,154.87,667.47,154.87,670.62Z"/>
      <path class="cls-3" d="M174.32,677.68v-5.25a.68.68,0,0,0-.08-.32l-5-8.43h1.31c1.39,2.38,3.81,6.49,4.41,7.54.6-1.05,3-5.13,4.53-7.54h1.24l-5.21,8.5a.63.63,0,0,0-.06.31v5.19Z"/>
      <path class="cls-3" d="M192.91,670.82h-7.13v5.83h7.81l-.16,1h-8.77v-14h8.61v1h-7.49v5.08h7.13Z"/>
      <path class="cls-3" d="M198.34,677.68v-14H200c2.17,3.36,7.25,11.13,8.12,12.65h0c-.12-2-.1-4.07-.1-6.36v-6.29h1.14v14h-1.53c-2.07-3.23-7.23-11.33-8.22-12.87h0c.1,1.82.09,3.88.09,6.42v6.45Z"/>
    </g>
    <rect id="r-6.1" class="cls-10" x="79.77" y="691.99" width="32.64" height="33"/>
    <rect id="r-5.1" class="cls-11" x="77.31" y="649.62" width="37.7" height="37.7"/>
    <g id="s-6.1">
      <path class="cls-9" d="M135.29,703h4.9c2.7,0,4.13,1.43,4.13,3.45a3,3,0,0,1-2.15,3.06,3.53,3.53,0,0,1,2.65,3.45c0,2.79-2.09,4-4.54,4h-5Zm4.54,6c2.4,0,3.32-.89,3.32-2.5,0-1.37-1-2.48-2.9-2.48h-3.86v5Zm-3.44,7h3.91c1.84,0,3.36-.91,3.36-3,0-1.77-1.13-3-3.93-3h-3.34Z"/>
      <path class="cls-9" d="M151.39,712.24l-1.76,4.8h-1.14l5.13-14H155l5.35,14h-1.22l-1.81-4.8Zm5.52-1c-1.55-4.14-2.35-6.13-2.63-7.08h0c-.34,1.07-1.23,3.54-2.48,7.08Z"/>
      <path class="cls-9" d="M165,713.28c.42,1.85,1.65,2.94,3.94,2.94,2.54,0,3.51-1.27,3.51-2.78s-.7-2.54-3.76-3.3-4.26-1.71-4.26-3.72,1.36-3.58,4.36-3.58,4.4,1.89,4.58,3.59h-1.16c-.32-1.48-1.29-2.56-3.48-2.56-2,0-3.09.93-3.09,2.48s.91,2.12,3.48,2.76c3.94,1,4.53,2.56,4.53,4.24,0,2.07-1.51,3.85-4.76,3.85-3.5,0-4.79-2-5.05-3.92Z"/>
    </g>
  </g>
  <g id="Window">
    <polyline id="c-3" class="cls-2" points="844.68 877.7 1504.38 383.4 1669.88 383.4"/>
    <g id="t-1.3">
      <path class="cls-3" d="M1507.74,360.11h5.82c4.8,0,8.13,3.35,8.13,8.59s-3.25,8.9-8.16,8.9h-5.79Zm1.4,16.2h4.19c4.6,0,6.86-3.23,6.86-7.53,0-3.83-2-7.38-6.86-7.38h-4.19Z"/>
      <path class="cls-3" d="M1542.76,368.73c0,4.77-2.55,9.12-8,9.12-4.93,0-7.81-4-7.81-9s2.79-9,8-9C1539.78,359.86,1542.76,363.63,1542.76,368.73Zm-14.26,0c0,4,2.2,7.78,6.38,7.78,4.5,0,6.38-3.68,6.38-7.81s-2.13-7.6-6.33-7.6C1530.46,361.15,1528.5,364.84,1528.5,368.78Z"/>
      <path class="cls-3" d="M1564.22,369.58c0-3.41,0-6.68.1-8.44h-.07c-.71,2.38-4.22,10.94-6.43,16.46h-1.36c-1.67-4.29-5.3-13.82-6.1-16.48h0c.12,2,.17,6.06.17,9.06v7.42h-1.39V360.11h2.1c2.38,6,5.37,13.76,6,15.75h0c.41-1.29,3.87-10,6.3-15.75h2.07V377.6h-1.4Z"/>
      <path class="cls-3" d="M1588.4,369.58c0-3.41,0-6.68.1-8.44h-.08c-.7,2.38-4.21,10.94-6.42,16.46h-1.37c-1.66-4.29-5.3-13.82-6.1-16.48h0c.13,2,.18,6.06.18,9.06v7.42h-1.4V360.11h2.11c2.37,6,5.36,13.76,6,15.75h0c.4-1.29,3.86-10,6.29-15.75h2.07V377.6h-1.39Z"/>
      <path class="cls-3" d="M1599,371.59l-2.21,6h-1.42l6.41-17.49h1.67l6.68,17.49h-1.53l-2.25-6Zm6.89-1.28c-1.93-5.17-2.93-7.66-3.28-8.85h0c-.43,1.34-1.55,4.43-3.11,8.85Z"/>
      <path class="cls-3" d="M1629,377.6h-1.16a12.93,12.93,0,0,1-.17-2.78c-.64,1.2-2,3-5.64,3-5,0-7.6-3.82-7.6-8.8,0-5.22,2.75-9.14,7.88-9.14,3.79,0,6.29,2,6.84,5.2h-1.4c-.74-2.44-2.45-3.92-5.49-3.92-4.35,0-6.33,3.39-6.33,7.79,0,4,1.91,7.58,6.16,7.58s5.56-2.83,5.56-6.66v-.19H1622v-1.29h7Z"/>
      <path class="cls-3" d="M1646.32,369h-8.91v7.28h9.76l-.2,1.29h-11V360.11h10.76v1.29h-9.36v6.34h8.91Z"/>
      <path class="cls-3" d="M1653.44,372.89c.52,2.31,2.06,3.67,4.92,3.67,3.17,0,4.39-1.58,4.39-3.46s-.87-3.18-4.7-4.12-5.31-2.14-5.31-4.66c0-2.31,1.68-4.46,5.44-4.46s5.49,2.35,5.72,4.48h-1.45c-.4-1.85-1.61-3.2-4.35-3.2-2.5,0-3.86,1.16-3.86,3.1s1.14,2.65,4.35,3.45c4.93,1.22,5.66,3.19,5.66,5.3,0,2.59-1.88,4.81-6,4.81-4.37,0-6-2.54-6.31-4.91Z"/>
      <path class="cls-3" d="M1512.13,407.6l-6.49-17.49h1.51l3.38,9.12c1,2.64,2.06,5.55,2.43,7h0c.38-1.31,1.57-4.36,2.54-6.93l3.5-9.22h1.48l-6.74,17.49Z"/>
      <path class="cls-3" d="M1536.3,399h-8.91v7.28h9.76l-.21,1.29h-11V390.11h10.75v1.29h-9.35v6.34h8.91Zm-.27-14.26-4.2,3.42h-1.59l3.84-3.42Z"/>
      <path class="cls-3" d="M1543.09,390.11h1.4v7.6h10.42v-7.6h1.4V407.6h-1.4V399h-10.42v8.6h-1.4Z"/>
      <path class="cls-3" d="M1565.34,390.11V407.6h-1.4V390.11Z"/>
      <path class="cls-3" d="M1585.94,402.91a6.4,6.4,0,0,1-6.59,4.89c-5,0-7.68-4-7.68-8.92,0-4.72,2.6-9,7.71-9,3.79,0,6,2.11,6.58,5h-1.4a5,5,0,0,0-5.26-3.75c-4.32,0-6.13,3.95-6.13,7.71s1.78,7.66,6.23,7.66a5.09,5.09,0,0,0,5.14-3.6Z"/>
      <path class="cls-3" d="M1593.31,390.11V400.7c0,4.62,2.61,5.81,5.07,5.81,2.9,0,5.06-1.22,5.06-5.81V390.11h1.43v10.51c0,5.48-2.92,7.18-6.54,7.18-3.46,0-6.47-1.87-6.47-7V390.11Z"/>
      <path class="cls-3" d="M1612.24,390.11h1.4v16.2H1623l-.25,1.29h-10.53Z"/>
      <path class="cls-3" d="M1638.52,399h-8.91v7.28h9.76l-.2,1.29h-11V390.11H1639v1.29h-9.36v6.34h8.91Z"/>
      <path class="cls-3" d="M1645.64,402.89c.52,2.31,2.07,3.67,4.92,3.67,3.17,0,4.39-1.58,4.39-3.46s-.87-3.18-4.7-4.12-5.31-2.14-5.31-4.66c0-2.31,1.68-4.46,5.44-4.46s5.49,2.35,5.72,4.48h-1.45c-.4-1.85-1.61-3.2-4.35-3.2-2.5,0-3.86,1.16-3.86,3.1s1.14,2.65,4.35,3.45c4.93,1.22,5.66,3.19,5.66,5.3,0,2.59-1.88,4.81-6,4.81-4.37,0-6-2.54-6.31-4.91Z"/>
    </g>
    <rect id="r-1.3" class="cls-5" x="1513.14" y="445.76" width="32.71" height="32.71"/>
    <g id="s-1.3">
      <path class="cls-3" d="M1568.75,456.67h1.12v6.09h8.34v-6.09h1.12v14h-1.12v-6.88h-8.34v6.88h-1.12Z"/>
      <path class="cls-3" d="M1586.75,465.87l-1.76,4.8h-1.14l5.13-14h1.33l5.35,14h-1.22l-1.81-4.8Zm5.52-1c-1.55-4.13-2.35-6.13-2.63-7.07h0c-.34,1.06-1.23,3.54-2.48,7.07Z"/>
      <path class="cls-3" d="M1600.62,456.67v8.48c0,3.7,2.09,4.65,4.06,4.65,2.32,0,4-1,4-4.65v-8.48h1.14v8.42c0,4.38-2.33,5.74-5.23,5.74s-5.18-1.49-5.18-5.57v-8.59Z"/>
      <path class="cls-3" d="M1618.7,457.7H1614v-1h10.54v1h-4.71v13h-1.14Z"/>
    </g>
    <rect id="r-2.3" class="cls-6" x="1513.14" y="485.76" width="32.71" height="32.71"/>
    <g id="s-2.3">
      <path class="cls-3" d="M1580.86,504.25c0-2.73,0-5.35.08-6.76h-.06c-.57,1.91-3.38,8.76-5.15,13.18h-1.09c-1.33-3.43-4.24-11.06-4.88-13.2h0c.1,1.61.14,4.86.14,7.26v5.94h-1.11v-14h1.68c1.9,4.77,4.29,11,4.81,12.61h0c.32-1,3.09-8,5-12.61H1582v14h-1.11Z"/>
      <path class="cls-3" d="M1599.67,503.57c0,3.82-2.05,7.3-6.37,7.3-4,0-6.25-3.18-6.25-7.2s2.23-7.2,6.39-7.2C1597.28,496.47,1599.67,499.48,1599.67,503.57Zm-11.42,0c0,3.21,1.77,6.22,5.11,6.22,3.6,0,5.11-2.94,5.11-6.24s-1.71-6.09-5.07-6.09C1589.82,497.5,1588.25,500.46,1588.25,503.61Z"/>
      <path class="cls-3" d="M1607.7,510.67v-5.26a.68.68,0,0,0-.08-.32l-5-8.42h1.3c1.4,2.37,3.81,6.48,4.42,7.53.6-1.05,3-5.12,4.53-7.53h1.24l-5.21,8.5a.6.6,0,0,0-.07.3v5.2Z"/>
      <path class="cls-3" d="M1626.29,503.8h-7.12v5.83h7.8l-.16,1H1618v-14h8.61v1h-7.48v5.07h7.12Z"/>
      <path class="cls-3" d="M1631.72,510.67v-14h1.65c2.17,3.35,7.25,11.13,8.13,12.64h0c-.13-2-.11-4.07-.11-6.35v-6.29h1.14v14H1641l-8.23-12.88h0c.1,1.83.08,3.89.08,6.42v6.46Z"/>
    </g>
    <rect id="r-3.3" class="cls-7" x="1513.14" y="525.75" width="32.71" height="32.71"/>
    <g id="s-3.3">
      <path class="cls-3" d="M1568.75,536.66h4.9c2.7,0,4.13,1.43,4.13,3.44a3,3,0,0,1-2.15,3.06,3.53,3.53,0,0,1,2.65,3.46c0,2.79-2.09,4-4.55,4h-5Zm4.54,6c2.4,0,3.31-.89,3.31-2.5,0-1.37-.95-2.48-2.9-2.48h-3.85v5Zm-3.44,7h3.91c1.84,0,3.36-.91,3.36-3,0-1.76-1.13-3-3.93-3h-3.34Z"/>
      <path class="cls-3" d="M1584.85,545.85l-1.77,4.81H1582l5.13-14h1.33l5.35,14h-1.22l-1.81-4.81Zm5.52-1c-1.55-4.13-2.35-6.13-2.63-7.07h0c-.34,1.06-1.23,3.54-2.48,7.07Z"/>
      <path class="cls-3" d="M1598.47,546.89c.41,1.85,1.65,2.94,3.93,2.94,2.54,0,3.52-1.26,3.52-2.77s-.7-2.54-3.77-3.3-4.25-1.71-4.25-3.73c0-1.85,1.35-3.57,4.36-3.57s4.4,1.88,4.58,3.59h-1.16c-.32-1.49-1.29-2.56-3.48-2.56-2,0-3.1.93-3.1,2.48s.92,2.12,3.49,2.76c3.94,1,4.53,2.55,4.53,4.24,0,2.07-1.51,3.85-4.76,3.85-3.5,0-4.79-2-5.06-3.93Z"/>
    </g>
    <rect id="b-3" class="cls-12" x="1505.94" y="435.09" width="165.1" height="132.73"/>
    <rect id="r-4.3" class="cls-5" x="1510.52" y="443.95" width="37.7" height="37.7"/>
    <g id="s-4.3">
      <path class="cls-3" d="M1568.75,456.67h1.12v6.09h8.34v-6.09h1.12v14h-1.12v-6.88h-8.34v6.88h-1.12Z"/>
      <path class="cls-3" d="M1586.75,465.87l-1.76,4.8h-1.14l5.13-14h1.33l5.35,14h-1.22l-1.81-4.8Zm5.52-1c-1.55-4.13-2.35-6.13-2.63-7.07h0c-.34,1.06-1.23,3.54-2.48,7.07Z"/>
      <path class="cls-3" d="M1600.62,456.67v8.48c0,3.7,2.09,4.65,4.06,4.65,2.32,0,4-1,4-4.65v-8.48h1.14v8.42c0,4.38-2.33,5.74-5.23,5.74s-5.18-1.49-5.18-5.57v-8.59Z"/>
      <path class="cls-3" d="M1618.7,457.7H1614v-1h10.54v1h-4.71v13h-1.14Z"/>
    </g>
    <rect id="r-5.3" class="cls-13" x="1513.17" y="485.77" width="32.71" height="32.71"/>
    <g id="s-5.3">
      <path class="cls-9" d="M1580.88,504.27c0-2.74,0-5.36.08-6.76h-.06c-.56,1.9-3.37,8.75-5.14,13.17h-1.09c-1.34-3.43-4.24-11.06-4.88-13.19h0c.1,1.6.14,4.85.14,7.25v5.94h-1.12v-14h1.68c1.9,4.78,4.3,11,4.82,12.61h0c.33-1,3.1-8,5-12.61H1582v14h-1.12Z"/>
      <path class="cls-9" d="M1599.69,503.58c0,3.82-2,7.3-6.37,7.3-4,0-6.25-3.18-6.25-7.2s2.23-7.2,6.39-7.2C1597.31,496.48,1599.69,499.5,1599.69,503.58Zm-11.42,0c0,3.21,1.77,6.23,5.11,6.23,3.6,0,5.11-3,5.11-6.25s-1.71-6.09-5.07-6.09C1589.84,497.51,1588.27,500.47,1588.27,503.62Z"/>
      <path class="cls-9" d="M1607.73,510.68v-5.25a.76.76,0,0,0-.08-.33l-5-8.42H1604c1.39,2.37,3.81,6.49,4.41,7.54.6-1.05,3-5.13,4.53-7.54h1.24l-5.21,8.5a.61.61,0,0,0-.06.3v5.2Z"/>
      <path class="cls-9" d="M1626.32,503.82h-7.13v5.83H1627l-.17,1h-8.76v-14h8.61v1h-7.49v5.08h7.13Z"/>
      <path class="cls-9" d="M1631.75,510.68v-14h1.65c2.17,3.36,7.24,11.13,8.12,12.65h0c-.12-2-.1-4.08-.1-6.36v-6.29h1.13v14h-1.52c-2.07-3.23-7.23-11.33-8.23-12.88h0c.1,1.83.08,3.89.08,6.43v6.45Z"/>
    </g>
    <rect id="r-6.3" class="cls-10" x="1513.17" y="525.69" width="32.64" height="33"/>
    <g id="s-6.3">
      <path class="cls-9" d="M1568.77,536.67h4.91c2.69,0,4.13,1.42,4.13,3.44a3,3,0,0,1-2.15,3.06,3.53,3.53,0,0,1,2.64,3.45c0,2.79-2.09,4-4.54,4h-5Zm4.55,6c2.39,0,3.31-.9,3.31-2.5,0-1.38-1-2.48-2.9-2.48h-3.86v5Zm-3.45,7h3.91c1.84,0,3.36-.92,3.36-3,0-1.77-1.13-3-3.92-3h-3.35Z"/>
      <path class="cls-9" d="M1584.88,545.86l-1.77,4.81H1582l5.13-14h1.33l5.36,14h-1.23l-1.8-4.81Zm5.51-1c-1.55-4.13-2.34-6.13-2.62-7.08h0c-.34,1.07-1.24,3.54-2.49,7.08Z"/>
      <path class="cls-9" d="M1598.49,546.9c.42,1.85,1.65,2.94,3.94,2.94,2.54,0,3.51-1.27,3.51-2.78s-.7-2.54-3.76-3.29-4.25-1.71-4.25-3.73c0-1.85,1.35-3.57,4.35-3.57s4.4,1.88,4.58,3.59h-1.16c-.32-1.49-1.28-2.57-3.48-2.57-2,0-3.09.93-3.09,2.48s.91,2.13,3.48,2.76c4,1,4.53,2.56,4.53,4.25,0,2.07-1.51,3.85-4.76,3.85-3.5,0-4.79-2-5.05-3.93Z"/>
    </g>
    <path id="a-1" class="cls-14" d="M932.63,899.91c-15.41,10.48-34.3,19.41-34.3,19.41-22.09,10.45-19.69,7.16-34.62,14.89a44.18,44.18,0,0,1-11.32,4.53c-11.28,2.57-20.84-.68-24.6-2-16.37-5.53-57.93-19.57-82.18-24.26-20.06-3.89-18.67.47-44.66-2.27-21.08-2.22-83.53-8.81-119.72-46.59-25.11-26.22-37.67-39.33-40.45-46.28-.58-1.44-3.23-8.76-9.06-10.67-.92-.31-1-.18-4.21-1-7.64-1.91-8.68-3.07-9.06-3.56-1.24-1.64-.72-3.3-.64-6.48.28-11-5.31-15.35-2.27-20.7,1-1.8,1.43-.93,3.56-3.56,3.79-4.68,6.5-12.4,3.56-16.51-1.56-2.17-3.34-1.44-4.53-3.56-2.46-4.39,3-11.62,3.24-12,4.76-6.2,8.46-3.81,14.56-9.71s5.56-11.16,11.32-13.26a13,13,0,0,1,7.12-.33c15.3,2.88,94.74,16.21,101.28,15.86a6.6,6.6,0,0,1,2.91.45c2.23.91,3.18,2.84,3.94,3.94,3,4.3,10.23,6.32,14.43,4.57,2.56-1.07,2.07-2.72,5.11-5.1,4.11-3.24,9-3.33,12.58-3.41,3.93-.07,11.25-.22,17.35,5.11,4.15,3.62,2.25,8.22,6.8,11.9a14.74,14.74,0,0,0,6.75,2.91c19.87,3.94,138.39,51.09,145.63,56.92a4.63,4.63,0,0,0,2.78,1.16c2.72.06,4.64-3,5.91-4.54,6.16-7.48,19.61-6.32,20.33-6.25,7.8.76,13,5.15,15.23,7,5.17,4.46,12.32,13.68,10.11,19.43-.41,1.06-1.63,3.29-.68,5.11A4.54,4.54,0,0,0,927.1,833c4.92,2.5,7.4,3.75,8.18,3.4,2.53-1.11,1-6.19,3.63-7.61,1.43-.77,3.36-.05,7,2,2.49,1.47,17.31,10.15,15.58,14.74-.23.59-.72,1-1.7,1.86-2.55,2.21-4.37,1.81-5.08,3-.9,1.57,1.15,3.76,2.88,7.11a29.33,29.33,0,0,1,3.05,11.85c.25,3.46.74,10-3.22,13.89-.6.59-2.44,1.48-6.09,3.22-8.32,4-8.3,3.38-9.83,4.74-2.37,2.12-2.78,3.87-6.6,6.94C934.62,898.45,933.79,899.12,932.63,899.91Z"/>
  </g>
  <g id="Fire">
    <g id="t-1.4">
      <path class="cls-3" d="M1500.34,177.07v17.49h-1.4V177.07Z"/>
      <path class="cls-3" d="M1508,194.56V177.07H1510c2.71,4.19,9.06,13.9,10.15,15.8h0c-.15-2.51-.13-5.09-.13-7.94v-7.86h1.42v17.49h-1.91c-2.58-4-9-14.16-10.27-16.09h0c.13,2.29.1,4.86.1,8v8.06Z"/>
      <path class="cls-3" d="M1542.09,189.87a6.39,6.39,0,0,1-6.59,4.89c-5,0-7.68-4-7.68-8.92,0-4.72,2.6-9,7.71-9,3.79,0,6,2.11,6.59,5h-1.4a5,5,0,0,0-5.27-3.75c-4.32,0-6.13,4-6.13,7.71s1.78,7.66,6.23,7.66a5.09,5.09,0,0,0,5.14-3.6Z"/>
      <path class="cls-3" d="M1558.67,186h-8.91v7.28h9.76l-.2,1.29h-11V177.07h10.76v1.29h-9.36v6.34h8.91Z"/>
      <path class="cls-3" d="M1565.46,194.56V177.07h2.06c2.71,4.19,9.06,13.9,10.15,15.8h0c-.15-2.51-.13-5.09-.13-7.94v-7.86H1579v17.49h-1.91c-2.58-4-9-14.16-10.27-16.09h0c.13,2.29.1,4.86.1,8v8.06Z"/>
      <path class="cls-3" d="M1586.61,177.07h5.83c4.8,0,8.12,3.35,8.12,8.59s-3.25,8.9-8.15,8.9h-5.8Zm1.41,16.2h4.19c4.59,0,6.85-3.23,6.85-7.53,0-3.83-2-7.38-6.85-7.38H1588Z"/>
      <path class="cls-3" d="M1608.32,177.07v17.49h-1.41V177.07Z"/>
      <path class="cls-3" d="M1626.25,186h-8.91v7.28h9.76l-.21,1.29h-11V177.07h10.75v1.29h-9.35v6.34h8.91Z"/>
      <path class="cls-3" d="M1633.37,189.85c.52,2.31,2.06,3.68,4.92,3.68,3.17,0,4.39-1.59,4.39-3.47s-.88-3.18-4.71-4.12-5.31-2.14-5.31-4.66c0-2.31,1.69-4.46,5.44-4.46s5.5,2.35,5.72,4.48h-1.45c-.39-1.85-1.6-3.2-4.34-3.2-2.5,0-3.87,1.16-3.87,3.1s1.14,2.65,4.36,3.45c4.92,1.22,5.66,3.19,5.66,5.3,0,2.59-1.89,4.81-6,4.81-4.37,0-6-2.54-6.31-4.91Z"/>
    </g>
    <polyline id="c-2" class="cls-2" points="1021.54 620.17 1489.38 202.47 1657.38 202.47 1489.38 202.47 810.62 546.41"/>
    <polygon id="w-2" class="cls-2" points="795.31 489.98 795.31 519.66 791.31 529.93 791.31 541.34 793.31 550.66 791.31 565.88 822.13 575.5 822.13 567.02 825.56 555.04 825.56 546.41 825.56 528.22 825.56 507.1 825.56 489.98 810.62 480.28 797.02 470.67 795.31 489.98"/>
    <polygon id="w-3" class="cls-2" points="987.63 596.13 990.48 612.11 990.48 628.5 990.48 640.07 989.06 653.77 990.48 660.05 999.62 660.05 1033.29 660.05 1047.55 660.05 1053.83 660.05 1053.83 649.2 1056.68 640.64 1054.4 630.55 1053.83 615.53 1054.01 605.2 1052.74 598.3 986.4 592.84 987.63 596.13"/>
  </g>
</svg>
