<svg xmlns="http://www.w3.org/2000/svg" width="24in" height="15.99in" viewBox="0 0 1728 1151">
  <defs>
    <style>
      .cls-1, .cls-7 {
        fill: #fff;
      }

      .cls-1 {
        opacity: 0.7;
      }

      .cls-11, .cls-12, .cls-2 {
        fill: none;
      }

      .cls-11, .cls-12, .cls-2, .cls-4, .cls-5, .cls-6 {
        stroke: #231f20;
      }

      .cls-10, .cls-11, .cls-12, .cls-2, .cls-4, .cls-5, .cls-6, .cls-8 {
        stroke-miterlimit: 10;
      }

      .cls-2 {
        stroke-width: 0.75px;
      }

      .cls-3 {
        fill: #302a2b;
      }

      .cls-4 {
        fill: #d76b7d;
      }

      .cls-10, .cls-4, .cls-5, .cls-6, .cls-8 {
        stroke-width: 0.5px;
      }

      .cls-5 {
        fill: #f8e69a;
      }

      .cls-6 {
        fill: #74bc69;
      }

      .cls-8 {
        fill: #f9f4de;
      }

      .cls-10, .cls-8 {
        stroke: #a7a9ac;
      }

      .cls-9 {
        fill: #d6d6d6;
      }

      .cls-10 {
        fill: #e1efdf;
      }

      .cls-11 {
        stroke-width: 2px;
      }
    </style>
  </defs>
  <g id="Wall">
    <polyline id="c-1" class="cls-2" points="1105.21 714.45 217.84 553.64 52.34 553.64"/>
    <g id="t-1.1">
      <path class="cls-3" d="M53.19,528.92H59c4.8,0,8.13,3.35,8.13,8.6s-3.25,8.89-8.16,8.89H53.19Zm1.4,16.2h4.19c4.6,0,6.86-3.23,6.86-7.53,0-3.83-2-7.38-6.86-7.38H54.59Z"/>
      <path class="cls-3" d="M88.21,537.54c0,4.78-2.55,9.12-8,9.12-4.93,0-7.81-4-7.81-9s2.79-9,8-9C85.23,528.67,88.21,532.44,88.21,537.54ZM74,537.59c0,4,2.2,7.78,6.38,7.78,4.5,0,6.38-3.67,6.38-7.8S84.58,530,80.38,530C75.91,530,74,533.66,74,537.59Z"/>
      <path class="cls-3" d="M109.67,538.4c0-3.41,0-6.69.1-8.44h-.07c-.71,2.37-4.22,10.93-6.43,16.45h-1.36c-1.67-4.28-5.3-13.81-6.1-16.48h0c.12,2,.17,6.06.17,9.06v7.42H94.54V528.92h2.1c2.38,6,5.37,13.77,6,15.76h0c.4-1.3,3.86-10,6.29-15.76h2.07v17.49h-1.4Z"/>
      <path class="cls-3" d="M133.85,538.4c0-3.41,0-6.69.1-8.44h-.08c-.7,2.37-4.21,10.93-6.42,16.45h-1.37c-1.66-4.28-5.3-13.81-6.1-16.48h0c.13,2,.18,6.06.18,9.06v7.42h-1.4V528.92h2.11c2.37,6,5.36,13.77,6,15.76h0c.4-1.3,3.86-10,6.29-15.76h2.07v17.49h-1.39Z"/>
      <path class="cls-3" d="M144.47,540.41l-2.21,6h-1.42l6.41-17.49h1.67l6.68,17.49h-1.52l-2.26-6Zm6.89-1.29c-1.93-5.16-2.93-7.66-3.28-8.84h0c-.43,1.33-1.55,4.42-3.11,8.84Z"/>
      <path class="cls-3" d="M174.44,546.41h-1.16a12.79,12.79,0,0,1-.17-2.77c-.64,1.2-2,3-5.64,3-5,0-7.6-3.82-7.6-8.79,0-5.22,2.75-9.15,7.88-9.15,3.79,0,6.29,2,6.84,5.21h-1.4c-.74-2.45-2.45-3.92-5.49-3.92-4.35,0-6.33,3.39-6.33,7.78,0,4,1.91,7.59,6.16,7.59s5.56-2.84,5.56-6.66v-.2h-5.61v-1.29h7Z"/>
      <path class="cls-3" d="M191.77,537.84h-8.91v7.28h9.76l-.2,1.29h-11V528.92h10.76v1.29h-9.36v6.34h8.91Z"/>
      <path class="cls-3" d="M198.89,541.71c.52,2.31,2.07,3.67,4.92,3.67,3.17,0,4.39-1.58,4.39-3.47s-.87-3.17-4.7-4.12-5.31-2.14-5.31-4.66c0-2.31,1.68-4.46,5.44-4.46s5.49,2.35,5.72,4.49H207.9c-.4-1.86-1.61-3.2-4.35-3.2-2.5,0-3.86,1.16-3.86,3.09s1.14,2.65,4.35,3.45c4.93,1.23,5.66,3.2,5.66,5.3,0,2.59-1.88,4.81-5.95,4.81-4.37,0-6-2.54-6.31-4.9Z"/>
      <path class="cls-3" d="M151.17,568.4c0-3.41,0-6.69.1-8.44h-.07c-.71,2.37-4.22,10.93-6.43,16.45h-1.36c-1.67-4.28-5.3-13.81-6.1-16.48h-.05c.12,2,.17,6.06.17,9.06v7.42H136V558.92h2.1c2.38,6,5.37,13.77,6,15.76h.05c.4-1.3,3.86-10,6.29-15.76h2.07v17.49h-1.4Z"/>
      <path class="cls-3" d="M161.56,558.92v10.59c0,4.62,2.61,5.82,5.07,5.82,2.9,0,5.06-1.23,5.06-5.82V558.92h1.43v10.52c0,5.48-2.91,7.17-6.54,7.17-3.46,0-6.47-1.86-6.47-7V558.92Z"/>
      <path class="cls-3" d="M181.91,568.27v8.14h-1.42V558.92h6.3c3.46,0,5.29,1.86,5.29,4.6a4,4,0,0,1-3.26,4.1c1.78.43,3,1.59,3,4.57v.68a11.81,11.81,0,0,0,.22,3.54H190.6a11.82,11.82,0,0,1-.25-3.65v-.45c0-2.85-.84-4-4.18-4Zm0-1.29h4.2c3,0,4.47-1.14,4.47-3.42s-1.39-3.35-4.1-3.35h-4.57Z"/>
      <path class="cls-3" d="M198.89,571.71c.52,2.31,2.07,3.67,4.92,3.67,3.17,0,4.39-1.58,4.39-3.47s-.87-3.17-4.7-4.12-5.31-2.14-5.31-4.66c0-2.31,1.68-4.46,5.44-4.46s5.49,2.35,5.72,4.49H207.9c-.4-1.86-1.61-3.2-4.35-3.2-2.5,0-3.86,1.16-3.86,3.09s1.14,2.65,4.35,3.45c4.93,1.23,5.66,3.2,5.66,5.3,0,2.59-1.88,4.81-5.95,4.81-4.37,0-6-2.54-6.31-4.9Z"/>
    </g>
    <rect id="r-1.1" class="cls-4" x="82.66" y="603.48" width="32.71" height="32.71"/>
    <g id="s-1.1">
      <path class="cls-3" d="M138.26,614.4h1.12v6.08h8.34V614.4h1.12v14h-1.12v-6.89h-8.34v6.89h-1.12Z"/>
      <path class="cls-3" d="M156.27,623.59l-1.77,4.81h-1.14l5.13-14h1.34l5.35,14H164l-1.8-4.81Zm5.51-1c-1.54-4.14-2.34-6.13-2.62-7.08h0c-.34,1.07-1.24,3.54-2.49,7.08Z"/>
      <path class="cls-3" d="M170.14,614.4v8.47c0,3.7,2.08,4.66,4.05,4.66,2.33,0,4.06-1,4.06-4.66V614.4h1.14v8.41c0,4.39-2.33,5.75-5.24,5.75S169,627.06,169,623V614.4Z"/>
      <path class="cls-3" d="M188.22,615.43h-4.69v-1h10.54v1h-4.71v13h-1.14Z"/>
    </g>
    <rect id="r-2.1" class="cls-5" x="82.66" y="643.48" width="32.71" height="32.71"/>
    <g id="s-2.1">
      <path class="cls-3" d="M150.37,662c0-2.74,0-5.36.08-6.76h-.06c-.56,1.9-3.37,8.75-5.14,13.17h-1.09c-1.34-3.43-4.24-11.06-4.88-13.19h0c.1,1.6.14,4.85.14,7.25v5.94h-1.12v-14h1.68c1.91,4.78,4.3,11,4.82,12.61h0c.32-1,3.09-8,5-12.61h1.66v14h-1.12Z"/>
      <path class="cls-3" d="M169.18,661.29c0,3.82-2,7.3-6.37,7.3-3.95,0-6.25-3.18-6.25-7.2s2.23-7.2,6.39-7.2C166.8,654.19,169.18,657.21,169.18,661.29Zm-11.41,0c0,3.21,1.76,6.23,5.1,6.23,3.6,0,5.11-2.95,5.11-6.25s-1.7-6.09-5.07-6.09C159.34,655.22,157.77,658.18,157.77,661.33Z"/>
      <path class="cls-3" d="M177.22,668.39v-5.25a.76.76,0,0,0-.08-.33l-5-8.42h1.31c1.39,2.38,3.81,6.49,4.41,7.54.6-1,3-5.13,4.53-7.54h1.25l-5.22,8.5a.63.63,0,0,0-.06.31v5.19Z"/>
      <path class="cls-3" d="M195.81,661.53h-7.13v5.83h7.81l-.16,1h-8.77v-14h8.61v1h-7.49v5.08h7.13Z"/>
      <path class="cls-3" d="M201.24,668.39v-14h1.65c2.17,3.36,7.25,11.13,8.12,12.65h0c-.12-2-.1-4.08-.1-6.36v-6.29h1.14v14h-1.53c-2.07-3.23-7.23-11.33-8.22-12.87h0c.1,1.82.08,3.88.08,6.42v6.45Z"/>
    </g>
    <rect id="r-3.1" class="cls-6" x="82.66" y="683.48" width="32.71" height="32.71"/>
    <g id="s-3.1">
      <path class="cls-3" d="M138.26,694.39h4.91c2.69,0,4.13,1.42,4.13,3.44a3,3,0,0,1-2.15,3.06,3.53,3.53,0,0,1,2.65,3.45c0,2.79-2.1,4-4.55,4h-5Zm4.55,6c2.4,0,3.31-.89,3.31-2.5,0-1.37-1-2.47-2.9-2.47h-3.86v5Zm-3.45,7h3.92c1.83,0,3.35-.92,3.35-3,0-1.77-1.13-3-3.92-3h-3.35Z"/>
      <path class="cls-3" d="M154.37,703.58l-1.77,4.8h-1.14l5.13-14h1.34l5.35,14h-1.23l-1.8-4.8Zm5.51-1c-1.54-4.14-2.34-6.13-2.62-7.08h0c-.34,1.07-1.24,3.54-2.49,7.08Z"/>
      <path class="cls-3" d="M168,704.62c.42,1.85,1.66,2.94,3.94,2.94,2.54,0,3.51-1.27,3.51-2.78s-.7-2.54-3.76-3.29-4.25-1.72-4.25-3.73,1.35-3.57,4.35-3.57,4.4,1.88,4.58,3.59h-1.16c-.31-1.49-1.28-2.57-3.47-2.57-2,0-3.1.93-3.1,2.48s.91,2.12,3.49,2.76c3.94,1,4.52,2.56,4.52,4.25,0,2.07-1.5,3.84-4.75,3.84-3.5,0-4.8-2-5.06-3.92Z"/>
    </g>
    <rect id="b-1" class="cls-7" x="62.83" y="588.5" width="165.1" height="132.73"/>
    <rect id="r-4.1" class="cls-4" x="80.04" y="601.67" width="37.7" height="37.7"/>
    <g id="s-4.1">
      <path class="cls-3" d="M138.26,614.4h1.12v6.08h8.34V614.4h1.12v14h-1.12v-6.89h-8.34v6.89h-1.12Z"/>
      <path class="cls-3" d="M156.27,623.59l-1.77,4.81h-1.14l5.13-14h1.34l5.35,14H164l-1.8-4.81Zm5.51-1c-1.54-4.14-2.34-6.13-2.62-7.08h0c-.34,1.07-1.24,3.54-2.49,7.08Z"/>
      <path class="cls-3" d="M170.14,614.4v8.47c0,3.7,2.08,4.66,4.05,4.66,2.33,0,4.06-1,4.06-4.66V614.4h1.14v8.41c0,4.39-2.33,5.75-5.24,5.75S169,627.06,169,623V614.4Z"/>
      <path class="cls-3" d="M188.22,615.43h-4.69v-1h10.54v1h-4.71v13h-1.14Z"/>
    </g>
    <rect id="r-5.1" class="cls-8" x="82.68" y="643.5" width="32.71" height="32.71"/>
    <g id="s-5.1">
      <path class="cls-9" d="M150.4,662c0-2.73,0-5.35.08-6.76h-.06c-.57,1.9-3.37,8.76-5.15,13.17h-1.09c-1.33-3.42-4.24-11-4.88-13.19h0c.1,1.6.14,4.86.14,7.25v5.94h-1.11v-14H140c1.9,4.77,4.29,11,4.81,12.6h0c.32-1,3.09-8,5-12.6h1.66v14H150.4Z"/>
      <path class="cls-9" d="M169.21,661.31c0,3.82-2.05,7.29-6.37,7.29-4,0-6.25-3.18-6.25-7.19s2.23-7.2,6.39-7.2C166.82,654.21,169.21,657.22,169.21,661.31Zm-11.42,0c0,3.21,1.77,6.23,5.11,6.23,3.6,0,5.11-2.94,5.11-6.24s-1.71-6.09-5.07-6.09C159.36,655.24,157.79,658.19,157.79,661.34Z"/>
      <path class="cls-9" d="M177.24,668.4v-5.25a.68.68,0,0,0-.08-.32l-5-8.42h1.3c1.4,2.37,3.81,6.48,4.42,7.53.6-1.05,3-5.12,4.53-7.53h1.24l-5.21,8.5a.61.61,0,0,0-.06.3v5.19Z"/>
      <path class="cls-9" d="M195.84,661.54h-7.13v5.83h7.81l-.17,1h-8.76v-14h8.6v1h-7.48v5.07h7.13Z"/>
      <path class="cls-9" d="M201.27,668.4v-14h1.64c2.17,3.35,7.25,11.12,8.13,12.64h0c-.12-2-.11-4.07-.11-6.35v-6.29h1.14v14h-1.52l-8.23-12.87h0c.1,1.83.08,3.88.08,6.42v6.45Z"/>
    </g>
    <rect id="r-6.1" class="cls-10" x="82.68" y="683.41" width="32.64" height="33"/>
    <g id="s-6.1">
      <path class="cls-9" d="M138.29,694.39h4.9c2.7,0,4.13,1.43,4.13,3.44a3,3,0,0,1-2.15,3.06,3.55,3.55,0,0,1,2.65,3.46c0,2.79-2.09,4-4.55,4h-5Zm4.54,6c2.4,0,3.31-.89,3.31-2.5,0-1.37-.95-2.48-2.9-2.48h-3.85v5Zm-3.44,7h3.91c1.84,0,3.36-.91,3.36-3,0-1.76-1.13-3-3.93-3h-3.34Z"/>
      <path class="cls-9" d="M154.39,703.58l-1.76,4.81h-1.14l5.13-14H158l5.35,14h-1.22l-1.81-4.81Zm5.52-1c-1.55-4.13-2.35-6.13-2.63-7.07h0c-.34,1.06-1.23,3.54-2.48,7.07Z"/>
      <path class="cls-9" d="M168,704.62c.41,1.85,1.65,2.94,3.93,2.94,2.54,0,3.52-1.26,3.52-2.77s-.7-2.54-3.77-3.3-4.25-1.71-4.25-3.73c0-1.85,1.35-3.57,4.36-3.57s4.4,1.88,4.58,3.59h-1.16c-.32-1.49-1.29-2.56-3.48-2.56-2,0-3.1.93-3.1,2.48s.92,2.12,3.49,2.76c3.94,1,4.53,2.56,4.53,4.24,0,2.07-1.51,3.85-4.76,3.85-3.5,0-4.79-2-5.05-3.93Z"/>
    </g>
    <polyline id="w-1" class="cls-11" points="871.79 425.77 871.79 488.32 876.63 488.32 880.81 727.32 1055.64 755.14 1086.71 763.49 1050.54 789.23 1108.97 841.4 1130.53 849.05 1134.71 841.4 1177.14 862.97 1172.27 869.92 1198.01 883.83 1198.01 897.05 1193.14 913.05 1190.36 919.31 1221.66 929.75 1230.01 917.92 1242.53 913.05 1274.53 929.75 1278.7 938.79 1392.78 991.65 1408.08 988.87 1403.91 933.22 1385.82 863.66 1382.35 846.27 1283.57 828.88 1284.96 817.05 1198.01 789.93 1201.49 766.97 1228.62 778.8 1235.57 775.32 1316.96 804.53 1381.65 833.05 1387.21 825.4 1319.74 794.79 1300.96 789.23 1399.04 817.05 1399.04 810.1 1377.48 802.45 1385.82 787.84 1390.69 780.88 1378.87 776.01 1376.78 763.49 1360.78 760.01 1358 741.23 1350.35 727.32 1366.35 699.5 1337.13 687.67 1311.39 656.37 1295.39 652.19 1294 628.39 1301.65 604.2 1322.52 625.07 1344.78 637.59 1351.74 575.5 1351.04 538.56 1339.91 534.63 1391.39 444.2 1425.47 403.16 1389.3 390.5 1375.39 390.73 1354.52 436.03 1338.52 465.07 1282.87 582.63 1243.92 586.11 1243.92 570.81 1239.05 538.56 1237.66 498.46 1243.22 486.64 1238.66 397.29"/>
  </g>
  <g id="Roof">
    <polyline id="c-2" class="cls-2" points="845.73 362.35 217.84 214.01 52.34 214.01"/>
    <g id="t-1.2">
      <path class="cls-3" d="M53.19,189.58H59c4.8,0,8.13,3.35,8.13,8.59s-3.25,8.9-8.16,8.9H53.19Zm1.4,16.2h4.19c4.6,0,6.86-3.23,6.86-7.53,0-3.83-2-7.38-6.86-7.38H54.59Z"/>
      <path class="cls-3" d="M88.21,198.2c0,4.78-2.55,9.12-8,9.12-4.93,0-7.81-4-7.81-9s2.79-9,8-9C85.23,189.33,88.21,193.1,88.21,198.2ZM74,198.25c0,4,2.2,7.78,6.38,7.78,4.5,0,6.38-3.68,6.38-7.8s-2.13-7.61-6.33-7.61C75.91,190.62,74,194.31,74,198.25Z"/>
      <path class="cls-3" d="M109.67,199.06c0-3.42,0-6.69.1-8.45h-.07c-.71,2.38-4.22,10.94-6.43,16.46h-1.36c-1.67-4.28-5.3-13.81-6.1-16.48h0c.12,2,.17,6.06.17,9.06v7.42H94.54V189.58h2.1c2.38,6,5.37,13.77,6,15.75h0c.4-1.29,3.86-10,6.29-15.75h2.07v17.49h-1.4Z"/>
      <path class="cls-3" d="M133.85,199.06c0-3.42,0-6.69.1-8.45h-.08c-.7,2.38-4.21,10.94-6.42,16.46h-1.37c-1.66-4.28-5.3-13.81-6.1-16.48h0c.13,2,.18,6.06.18,9.06v7.42h-1.4V189.58h2.11c2.37,6,5.36,13.77,6,15.75h0c.4-1.29,3.86-10,6.29-15.75h2.07v17.49h-1.39Z"/>
      <path class="cls-3" d="M144.47,201.07l-2.21,6h-1.42l6.41-17.49h1.67l6.68,17.49h-1.52l-2.26-6Zm6.89-1.29c-1.93-5.17-2.93-7.66-3.28-8.85h0c-.43,1.34-1.55,4.43-3.11,8.85Z"/>
      <path class="cls-3" d="M174.44,207.07h-1.16a12.93,12.93,0,0,1-.17-2.78c-.64,1.21-2,3-5.64,3-5,0-7.6-3.82-7.6-8.79,0-5.23,2.75-9.15,7.88-9.15,3.79,0,6.29,2,6.84,5.2h-1.4c-.74-2.44-2.45-3.91-5.49-3.91-4.35,0-6.33,3.39-6.33,7.78,0,4,1.91,7.59,6.16,7.59s5.56-2.84,5.56-6.66v-.2h-5.61v-1.29h7Z"/>
      <path class="cls-3" d="M191.77,198.5h-8.91v7.28h9.76l-.2,1.29h-11V189.58h10.76v1.29h-9.36v6.34h8.91Z"/>
      <path class="cls-3" d="M198.89,202.36c.52,2.32,2.07,3.68,4.92,3.68,3.17,0,4.39-1.59,4.39-3.47s-.87-3.17-4.7-4.12-5.31-2.14-5.31-4.66c0-2.31,1.68-4.46,5.44-4.46s5.49,2.35,5.72,4.49H207.9c-.4-1.86-1.61-3.21-4.35-3.21-2.5,0-3.86,1.17-3.86,3.1s1.14,2.65,4.35,3.45c4.93,1.22,5.66,3.19,5.66,5.3,0,2.59-1.88,4.81-5.95,4.81-4.37,0-6-2.54-6.31-4.91Z"/>
      <path class="cls-3" d="M158,220.87h-5.86v-1.29h13.17v1.29h-5.88v16.2H158Z"/>
      <path class="cls-3" d="M184.66,228.2c0,4.78-2.55,9.12-8,9.12-4.93,0-7.81-4-7.81-9s2.79-9,8-9C181.68,219.33,184.66,223.1,184.66,228.2Zm-14.26.05c0,4,2.2,7.78,6.38,7.78,4.5,0,6.38-3.68,6.38-7.8s-2.13-7.61-6.33-7.61C172.36,220.62,170.4,224.31,170.4,228.25Z"/>
      <path class="cls-3" d="M192.39,219.58v17.49H191V219.58Z"/>
      <path class="cls-3" d="M203.51,220.87h-5.86v-1.29h13.17v1.29h-5.88v16.2h-1.43Z"/>
    </g>
    <rect id="r-1.2" class="cls-4" x="82.66" y="264.6" width="32.71" height="32.71"/>
    <g id="s-1.2">
      <path class="cls-3" d="M138.26,275.51h1.12v6.09h8.34v-6.09h1.12v14h-1.12v-6.88h-8.34v6.88h-1.12Z"/>
      <path class="cls-3" d="M156.27,284.71l-1.77,4.8h-1.14l5.13-14h1.34l5.35,14H164l-1.8-4.8Zm5.51-1c-1.54-4.13-2.34-6.13-2.62-7.07h0c-.34,1.06-1.24,3.54-2.49,7.07Z"/>
      <path class="cls-3" d="M170.14,275.51V284c0,3.7,2.08,4.65,4.05,4.65,2.33,0,4.06-1,4.06-4.65v-8.48h1.14v8.42c0,4.38-2.33,5.74-5.24,5.74S169,288.18,169,284.1v-8.59Z"/>
      <path class="cls-3" d="M188.22,276.54h-4.69v-1h10.54v1h-4.71v13h-1.14Z"/>
    </g>
    <rect id="r-2.2" class="cls-5" x="82.66" y="304.6" width="32.71" height="32.71"/>
    <g id="s-2.2">
      <path class="cls-3" d="M150.37,323.09c0-2.73,0-5.35.08-6.76h-.06c-.56,1.91-3.37,8.76-5.14,13.18h-1.09c-1.34-3.43-4.24-11.06-4.88-13.2h0c.1,1.61.14,4.86.14,7.26v5.94h-1.12v-14h1.68c1.91,4.77,4.3,11,4.82,12.61h0c.32-1,3.09-8,5-12.61h1.66v14h-1.12Z"/>
      <path class="cls-3" d="M169.18,322.41c0,3.82-2,7.3-6.37,7.3-3.95,0-6.25-3.18-6.25-7.2s2.23-7.2,6.39-7.2C166.8,315.31,169.18,318.32,169.18,322.41Zm-11.41,0c0,3.21,1.76,6.22,5.1,6.22,3.6,0,5.11-2.94,5.11-6.24s-1.7-6.09-5.07-6.09C159.34,316.34,157.77,319.3,157.77,322.45Z"/>
      <path class="cls-3" d="M177.22,329.51v-5.26a.68.68,0,0,0-.08-.32l-5-8.42h1.31c1.39,2.37,3.81,6.48,4.41,7.53.6-1.05,3-5.12,4.53-7.53h1.25l-5.22,8.5a.61.61,0,0,0-.06.3v5.2Z"/>
      <path class="cls-3" d="M195.81,322.64h-7.13v5.83h7.81l-.16,1h-8.77v-14h8.61v1h-7.49v5.07h7.13Z"/>
      <path class="cls-3" d="M201.24,329.51v-14h1.65c2.17,3.35,7.25,11.13,8.12,12.65h0c-.12-2-.1-4.08-.1-6.36v-6.29h1.14v14h-1.53c-2.07-3.23-7.23-11.34-8.22-12.88h0c.1,1.83.08,3.89.08,6.42v6.46Z"/>
    </g>
    <rect id="r-3.2" class="cls-6" x="82.66" y="344.59" width="32.71" height="32.71"/>
    <g id="s-3.2">
      <path class="cls-3" d="M138.26,355.5h4.91c2.69,0,4.13,1.43,4.13,3.44a3,3,0,0,1-2.15,3.06,3.55,3.55,0,0,1,2.65,3.46c0,2.79-2.1,4-4.55,4h-5Zm4.55,6c2.4,0,3.31-.89,3.31-2.5,0-1.37-1-2.48-2.9-2.48h-3.86v5Zm-3.45,7h3.92c1.83,0,3.35-.91,3.35-3,0-1.76-1.13-3-3.92-3h-3.35Z"/>
      <path class="cls-3" d="M154.37,364.69l-1.77,4.81h-1.14l5.13-14h1.34l5.35,14h-1.23l-1.8-4.81Zm5.51-1c-1.54-4.13-2.34-6.13-2.62-7.07h0c-.34,1.06-1.24,3.54-2.49,7.07Z"/>
      <path class="cls-3" d="M168,365.73c.42,1.85,1.66,2.94,3.94,2.94,2.54,0,3.51-1.26,3.51-2.77s-.7-2.54-3.76-3.3-4.25-1.71-4.25-3.73c0-1.85,1.35-3.57,4.35-3.57s4.4,1.88,4.58,3.59h-1.16c-.31-1.49-1.28-2.56-3.47-2.56-2,0-3.1.93-3.1,2.48s.91,2.12,3.49,2.76c3.94,1,4.52,2.56,4.52,4.24,0,2.07-1.5,3.85-4.75,3.85-3.5,0-4.8-2-5.06-3.93Z"/>
    </g>
    <rect id="b-2" class="cls-7" x="62.83" y="249.62" width="165.1" height="132.73"/>
    <rect id="r-4.2" class="cls-4" x="80.04" y="262.79" width="37.7" height="37.7"/>
    <g id="s-4.2">
      <path class="cls-3" d="M138.26,275.51h1.12v6.09h8.34v-6.09h1.12v14h-1.12v-6.88h-8.34v6.88h-1.12Z"/>
      <path class="cls-3" d="M156.27,284.71l-1.77,4.8h-1.14l5.13-14h1.34l5.35,14H164l-1.8-4.8Zm5.51-1c-1.54-4.13-2.34-6.13-2.62-7.07h0c-.34,1.06-1.24,3.54-2.49,7.07Z"/>
      <path class="cls-3" d="M170.14,275.51V284c0,3.7,2.08,4.65,4.05,4.65,2.33,0,4.06-1,4.06-4.65v-8.48h1.14v8.42c0,4.38-2.33,5.74-5.24,5.74S169,288.18,169,284.1v-8.59Z"/>
      <path class="cls-3" d="M188.22,276.54h-4.69v-1h10.54v1h-4.71v13h-1.14Z"/>
    </g>
    <rect id="r-5.2" class="cls-8" x="82.68" y="304.61" width="32.71" height="32.71"/>
    <g id="s-5.2">
      <path class="cls-9" d="M150.4,323.11c0-2.74,0-5.36.08-6.76h-.06c-.57,1.9-3.37,8.75-5.15,13.17h-1.09c-1.33-3.43-4.24-11.06-4.88-13.19h0c.1,1.6.14,4.85.14,7.25v5.94h-1.11v-14H140c1.9,4.78,4.29,11,4.81,12.61h0c.32-1,3.09-8,5-12.61h1.66v14H150.4Z"/>
      <path class="cls-9" d="M169.21,322.42c0,3.82-2.05,7.3-6.37,7.3-4,0-6.25-3.18-6.25-7.2s2.23-7.2,6.39-7.2C166.82,315.32,169.21,318.34,169.21,322.42Zm-11.42,0c0,3.21,1.77,6.23,5.11,6.23,3.6,0,5.11-2.95,5.11-6.25s-1.71-6.09-5.07-6.09C159.36,316.35,157.79,319.31,157.79,322.46Z"/>
      <path class="cls-9" d="M177.24,329.52v-5.25a.76.76,0,0,0-.08-.33l-5-8.42h1.3l4.42,7.54c.6-1.05,3-5.13,4.53-7.54h1.24l-5.21,8.5a.61.61,0,0,0-.06.3v5.2Z"/>
      <path class="cls-9" d="M195.84,322.66h-7.13v5.83h7.81l-.17,1h-8.76v-14h8.6v1h-7.48v5.08h7.13Z"/>
      <path class="cls-9" d="M201.27,329.52v-14h1.64c2.17,3.36,7.25,11.13,8.13,12.65h0c-.12-2-.11-4.08-.11-6.36v-6.29h1.14v14h-1.52l-8.23-12.87h0c.1,1.82.08,3.88.08,6.42v6.45Z"/>
    </g>
    <rect id="r-6.2" class="cls-10" x="82.68" y="344.53" width="32.64" height="33"/>
    <g id="s-6.2">
      <path class="cls-9" d="M138.29,355.51h4.9c2.7,0,4.13,1.42,4.13,3.44a3,3,0,0,1-2.15,3.06,3.53,3.53,0,0,1,2.65,3.45c0,2.79-2.09,4.05-4.55,4.05h-5Zm4.54,6c2.4,0,3.31-.9,3.31-2.5,0-1.38-.95-2.48-2.9-2.48h-3.85v5Zm-3.44,7h3.91c1.84,0,3.36-.92,3.36-3,0-1.77-1.13-3-3.93-3h-3.34Z"/>
      <path class="cls-9" d="M154.39,364.7l-1.76,4.81h-1.14l5.13-14H158l5.35,14h-1.22l-1.81-4.81Zm5.52-1c-1.55-4.13-2.35-6.13-2.63-7.08h0c-.34,1.07-1.23,3.54-2.48,7.08Z"/>
      <path class="cls-9" d="M168,365.74c.41,1.85,1.65,2.94,3.93,2.94,2.54,0,3.52-1.27,3.52-2.78s-.7-2.54-3.77-3.29-4.25-1.71-4.25-3.73c0-1.85,1.35-3.57,4.36-3.57s4.4,1.88,4.58,3.59h-1.16c-.32-1.49-1.29-2.57-3.48-2.57-2,0-3.1.93-3.1,2.48s.92,2.13,3.49,2.76c3.94,1,4.53,2.56,4.53,4.25,0,2.07-1.51,3.85-4.76,3.85-3.5,0-4.79-2-5.05-3.93Z"/>
    </g>
    <polygon id="a-1" class="cls-11" points="822.06 362.35 822.06 429.63 1424.01 382.9 1424.01 362.35 1433.35 362.35 1436.27 306.32 1424.01 289.51 1331.21 294.84 1249.5 317.79 1072.07 329.52 945.42 346.59 870.71 359.57 870.3 350.25 851.22 345.39 852.26 349.21 858.85 353.37 858.51 357.18 822.06 362.35"/>
  </g>
  <g id="Window">
    <polyline id="c-3" class="cls-2" points="1191.19 429.63 1505.87 215.23 1671.37 215.23"/>
    <polyline id="c-4" class="cls-2" points="1671.37 215.23 1505.97 215.23 439.9 538.56"/>
    <g id="t-1.3">
      <path class="cls-3" d="M1508.06,192.14h5.82c4.81,0,8.13,3.35,8.13,8.6s-3.25,8.89-8.15,8.89h-5.8Zm1.4,16.21h4.2c4.59,0,6.85-3.24,6.85-7.54,0-3.83-2-7.38-6.85-7.38h-4.2Z"/>
      <path class="cls-3" d="M1543.08,200.76c0,4.78-2.55,9.12-8,9.12-4.93,0-7.8-4-7.8-9s2.78-9,8-9C1540.11,191.89,1543.08,195.66,1543.08,200.76Zm-14.26.05c0,4,2.21,7.78,6.38,7.78,4.5,0,6.38-3.67,6.38-7.8s-2.13-7.61-6.33-7.61C1530.78,193.18,1528.82,196.88,1528.82,200.81Z"/>
      <path class="cls-3" d="M1564.54,201.62c0-3.41,0-6.69.1-8.44h-.07c-.7,2.37-4.21,10.93-6.43,16.45h-1.36c-1.67-4.28-5.3-13.81-6.1-16.48h0c.13,2,.18,6.06.18,9.06v7.42h-1.4V192.14h2.1c2.38,6,5.37,13.77,6,15.76h0c.4-1.3,3.86-10,6.29-15.76h2.07v17.49h-1.4Z"/>
      <path class="cls-3" d="M1588.72,201.62c0-3.41,0-6.69.1-8.44h-.08c-.7,2.37-4.21,10.93-6.42,16.45H1581c-1.66-4.28-5.29-13.81-6.09-16.48h0c.12,2,.17,6.06.17,9.06v7.42h-1.39V192.14h2.1c2.37,6,5.37,13.77,6,15.76h0c.4-1.3,3.87-10,6.29-15.76h2.08v17.49h-1.4Z"/>
      <path class="cls-3" d="M1599.34,203.63l-2.2,6h-1.43l6.41-17.49h1.67l6.69,17.49H1609l-2.26-6Zm6.9-1.29c-1.94-5.16-2.93-7.66-3.28-8.84h0c-.43,1.33-1.54,4.42-3.11,8.84Z"/>
      <path class="cls-3" d="M1629.32,209.63h-1.16a12.42,12.42,0,0,1-.18-2.77c-.63,1.2-2,3-5.64,3-5,0-7.6-3.82-7.6-8.79,0-5.22,2.76-9.15,7.89-9.15,3.79,0,6.29,2,6.83,5.21h-1.4c-.74-2.45-2.44-3.92-5.48-3.92-4.36,0-6.34,3.39-6.34,7.78,0,4,1.91,7.59,6.17,7.59s5.56-2.84,5.56-6.66v-.2h-5.61V200.4h7Z"/>
      <path class="cls-3" d="M1646.64,201.06h-8.9v7.28h9.75l-.2,1.29h-11V192.14h10.75v1.29h-9.35v6.34h8.9Z"/>
      <path class="cls-3" d="M1653.76,204.93c.53,2.31,2.07,3.67,4.92,3.67,3.18,0,4.39-1.58,4.39-3.47s-.87-3.17-4.7-4.12-5.31-2.13-5.31-4.66c0-2.31,1.69-4.46,5.44-4.46s5.5,2.36,5.72,4.49h-1.45c-.39-1.86-1.6-3.2-4.34-3.2-2.51,0-3.87,1.16-3.87,3.09s1.14,2.66,4.36,3.45c4.92,1.23,5.65,3.2,5.65,5.3,0,2.59-1.88,4.81-5.94,4.81-4.38,0-6-2.54-6.32-4.9Z"/>
      <path class="cls-3" d="M1508.06,222.14h10.63v1.29h-9.23V230h8.66v1.29h-8.66v8.36h-1.4Z"/>
      <path class="cls-3" d="M1534.59,231.06h-8.9v7.28h9.75l-.2,1.29h-11V222.14H1535v1.29h-9.35v6.34h8.9Z"/>
      <path class="cls-3" d="M1541.39,239.63V222.14h2c2.72,4.19,9.06,13.91,10.16,15.81h0c-.15-2.51-.13-5.1-.13-7.94v-7.87h1.42v17.49H1553c-2.59-4-9-14.16-10.28-16.08h0c.12,2.28.1,4.85.1,8v8.06Z"/>
      <path class="cls-3" d="M1572.84,231.06h-8.9v7.28h9.75l-.2,1.29h-11V222.14h10.75v1.29h-9.35v6.34h8.9Zm-4.11-13.94,3.29,3.18h-1.68L1568,218l-2.6,2.29h-1.61l3.47-3.18Z"/>
      <path class="cls-3" d="M1584,223.43h-5.86v-1.29h13.17v1.29h-5.88v16.2H1584Z"/>
      <path class="cls-3" d="M1597.86,231.49v8.14h-1.42V222.14h6.3c3.45,0,5.28,1.86,5.28,4.61a4,4,0,0,1-3.25,4.09c1.77.43,3,1.59,3,4.57v.68a11.78,11.78,0,0,0,.22,3.54h-1.42a11.82,11.82,0,0,1-.25-3.65v-.45c0-2.85-.84-4-4.18-4Zm0-1.29h4.2c3,0,4.46-1.14,4.46-3.42,0-2.13-1.39-3.35-4.09-3.35h-4.57Z"/>
      <path class="cls-3" d="M1625.09,231.06h-8.9v7.28h9.75l-.2,1.29h-11V222.14h10.75v1.29h-9.35v6.34h8.9Z"/>
      <path class="cls-3" d="M1632.21,234.93c.53,2.31,2.07,3.67,4.92,3.67,3.18,0,4.39-1.58,4.39-3.47s-.87-3.17-4.7-4.12-5.31-2.13-5.31-4.66c0-2.31,1.69-4.46,5.44-4.46s5.5,2.36,5.72,4.49h-1.45c-.39-1.86-1.6-3.2-4.34-3.2-2.5,0-3.87,1.16-3.87,3.09s1.14,2.66,4.36,3.45c4.92,1.23,5.65,3.2,5.65,5.3,0,2.59-1.88,4.81-5.94,4.81-4.38,0-6-2.54-6.32-4.9Z"/>
    </g>
    <rect id="r-1.3" class="cls-4" x="1513.47" y="277.79" width="32.71" height="32.71"/>
    <g id="s-1.3">
      <path class="cls-3" d="M1569.07,288.71h1.12v6.08h8.34v-6.08h1.12v14h-1.12v-6.89h-8.34v6.89h-1.12Z"/>
      <path class="cls-3" d="M1587.07,297.9l-1.76,4.81h-1.14l5.13-14h1.33l5.35,14h-1.22l-1.8-4.81Zm5.52-1c-1.55-4.13-2.34-6.13-2.63-7.08h0c-.35,1.07-1.24,3.54-2.49,7.08Z"/>
      <path class="cls-3" d="M1601,288.71v8.47c0,3.7,2.08,4.66,4,4.66,2.33,0,4-1,4-4.66v-8.47h1.15v8.41c0,4.39-2.33,5.75-5.24,5.75s-5.17-1.5-5.17-5.57v-8.59Z"/>
      <path class="cls-3" d="M1619,289.74h-4.69v-1h10.54v1h-4.71v13H1619Z"/>
    </g>
    <rect id="r-2.3" class="cls-5" x="1513.47" y="317.79" width="32.71" height="32.71"/>
    <g id="s-2.3">
      <path class="cls-3" d="M1581.18,336.29c0-2.74,0-5.36.08-6.76h-.06c-.56,1.9-3.37,8.75-5.14,13.17H1575c-1.33-3.43-4.24-11.06-4.88-13.19h0c.1,1.6.14,4.85.14,7.25v5.94h-1.11v-14h1.68c1.9,4.78,4.3,11,4.81,12.61h0c.32-1,3.1-8,5-12.61h1.66v14h-1.12Z"/>
      <path class="cls-3" d="M1600,335.6c0,3.82-2,7.3-6.37,7.3-3.95,0-6.25-3.18-6.25-7.2s2.23-7.2,6.39-7.2C1597.61,328.5,1600,331.52,1600,335.6Zm-11.42,0c0,3.21,1.77,6.23,5.11,6.23,3.6,0,5.11-2.95,5.11-6.25s-1.71-6.09-5.07-6.09C1590.14,329.53,1588.57,332.49,1588.57,335.64Z"/>
      <path class="cls-3" d="M1608,342.7v-5.25a.68.68,0,0,0-.08-.32l-5-8.43h1.31c1.39,2.38,3.81,6.49,4.41,7.54.6-1.05,3-5.13,4.53-7.54h1.24l-5.21,8.5a.63.63,0,0,0-.06.31v5.19Z"/>
      <path class="cls-3" d="M1626.62,335.84h-7.13v5.83h7.81l-.17,1h-8.76v-14H1627v1h-7.49v5.08h7.13Z"/>
      <path class="cls-3" d="M1632.05,342.7v-14h1.64c2.17,3.36,7.25,11.13,8.13,12.65h0c-.12-2-.1-4.08-.1-6.36V328.7h1.13v14h-1.52c-2.07-3.23-7.23-11.33-8.23-12.87h0c.1,1.82.08,3.88.08,6.42v6.45Z"/>
    </g>
    <rect id="r-3.3" class="cls-6" x="1513.47" y="357.79" width="32.71" height="32.71"/>
    <g id="s-3.3">
      <path class="cls-3" d="M1569.07,368.7h4.9c2.7,0,4.14,1.42,4.14,3.44a3,3,0,0,1-2.16,3.06,3.53,3.53,0,0,1,2.65,3.45c0,2.79-2.09,4-4.54,4h-5Zm4.55,6c2.39,0,3.31-.9,3.31-2.51,0-1.37-1-2.47-2.9-2.47h-3.86v5Zm-3.45,7h3.91c1.84,0,3.36-.92,3.36-3,0-1.77-1.13-3-3.92-3h-3.35Z"/>
      <path class="cls-3" d="M1585.17,377.89l-1.76,4.8h-1.14l5.13-14h1.33l5.35,14h-1.22l-1.8-4.8Zm5.52-1c-1.55-4.14-2.34-6.13-2.63-7.08h0c-.34,1.07-1.23,3.54-2.48,7.08Z"/>
      <path class="cls-3" d="M1598.79,378.93c.42,1.85,1.65,2.94,3.94,2.94,2.54,0,3.51-1.27,3.51-2.78s-.7-2.54-3.76-3.29-4.25-1.72-4.25-3.73,1.35-3.57,4.35-3.57,4.4,1.88,4.58,3.59H1606c-.32-1.49-1.29-2.57-3.48-2.57-2,0-3.09.93-3.09,2.48s.91,2.12,3.48,2.76c3.95,1,4.53,2.56,4.53,4.25,0,2.07-1.51,3.85-4.76,3.85-3.5,0-4.79-2-5-3.93Z"/>
    </g>
    <rect id="b-3" class="cls-7" x="1506.27" y="267.12" width="165.1" height="132.73"/>
    <rect id="r-4.3" class="cls-4" x="1510.85" y="275.99" width="37.7" height="37.7"/>
    <g id="s-4.3">
      <path class="cls-3" d="M1569.07,288.71h1.12v6.08h8.34v-6.08h1.12v14h-1.12v-6.89h-8.34v6.89h-1.12Z"/>
      <path class="cls-3" d="M1587.07,297.9l-1.76,4.81h-1.14l5.13-14h1.33l5.35,14h-1.22l-1.8-4.81Zm5.52-1c-1.55-4.13-2.34-6.13-2.63-7.08h0c-.35,1.07-1.24,3.54-2.49,7.08Z"/>
      <path class="cls-3" d="M1601,288.71v8.47c0,3.7,2.08,4.66,4,4.66,2.33,0,4-1,4-4.66v-8.47h1.15v8.41c0,4.39-2.33,5.75-5.24,5.75s-5.17-1.5-5.17-5.57v-8.59Z"/>
      <path class="cls-3" d="M1619,289.74h-4.69v-1h10.54v1h-4.71v13H1619Z"/>
    </g>
    <rect id="r-5.3" class="cls-8" x="1513.49" y="317.81" width="32.71" height="32.71"/>
    <g id="s-5.3">
      <path class="cls-9" d="M1581.2,336.3c0-2.73,0-5.35.08-6.76h-.06c-.56,1.9-3.37,8.76-5.14,13.17H1575c-1.33-3.42-4.24-11-4.88-13.19h0c.1,1.6.14,4.86.14,7.26v5.93h-1.12v-14h1.68c1.91,4.77,4.3,11,4.82,12.6h0c.32-1,3.09-8,5-12.6h1.66v14h-1.12Z"/>
      <path class="cls-9" d="M1600,335.62c0,3.82-2,7.29-6.37,7.29-4,0-6.25-3.18-6.25-7.19s2.22-7.2,6.39-7.2C1597.63,328.52,1600,331.53,1600,335.62Zm-11.42,0c0,3.2,1.77,6.22,5.11,6.22,3.6,0,5.1-2.94,5.1-6.24s-1.7-6.09-5.07-6.09C1590.17,329.55,1588.6,332.5,1588.6,335.66Z"/>
      <path class="cls-9" d="M1608.05,342.71v-5.25a.68.68,0,0,0-.08-.32l-5-8.42h1.3c1.39,2.37,3.81,6.48,4.41,7.53.6-1.05,3-5.12,4.53-7.53h1.25l-5.22,8.5a.61.61,0,0,0-.06.3v5.19Z"/>
      <path class="cls-9" d="M1626.64,335.85h-7.13v5.83h7.81l-.16,1h-8.77v-14H1627v1h-7.49v5.07h7.13Z"/>
      <path class="cls-9" d="M1632.07,342.71v-14h1.65c2.17,3.35,7.25,11.12,8.12,12.64h0c-.12-2-.1-4.07-.1-6.35v-6.29h1.14v14h-1.53c-2.06-3.22-7.23-11.33-8.22-12.87h0c.1,1.83.08,3.88.08,6.42v6.45Z"/>
    </g>
    <rect id="r-6.3" class="cls-10" x="1513.49" y="357.73" width="32.64" height="33"/>
    <g id="s-6.3">
      <path class="cls-9" d="M1569.09,368.7H1574c2.69,0,4.13,1.43,4.13,3.45a3,3,0,0,1-2.15,3.05,3.55,3.55,0,0,1,2.65,3.46c0,2.79-2.1,4-4.55,4h-5Zm4.55,6c2.4,0,3.31-.89,3.31-2.5,0-1.37-1-2.48-2.9-2.48h-3.86v5Zm-3.45,7h3.92c1.83,0,3.36-.91,3.36-3,0-1.76-1.14-3-3.93-3h-3.35Z"/>
      <path class="cls-9" d="M1585.2,377.9l-1.77,4.8h-1.14l5.13-14h1.34l5.35,14h-1.22l-1.81-4.8Zm5.51-1c-1.54-4.13-2.34-6.13-2.62-7.07h0c-.34,1.06-1.24,3.54-2.49,7.07Z"/>
      <path class="cls-9" d="M1598.81,378.93c.42,1.85,1.66,2.94,3.94,2.94,2.54,0,3.51-1.26,3.51-2.77s-.69-2.54-3.76-3.3-4.25-1.71-4.25-3.73c0-1.85,1.35-3.57,4.36-3.57s4.39,1.88,4.57,3.59H1606c-.31-1.48-1.28-2.56-3.47-2.56-2,0-3.1.93-3.1,2.48s.91,2.12,3.49,2.76c3.94,1,4.53,2.56,4.53,4.24,0,2.07-1.51,3.85-4.76,3.85-3.5,0-4.8-2-5.06-3.93Z"/>
    </g>
    <polygon id="f-1" class="cls-12" points="888.95 438.28 888.95 471.95 1027.5 464.14 1027.5 425.11 888.95 438.28"/>
    <polygon id="f-2" class="cls-12" points="1047.5 425.11 1047.5 462.19 1220.21 450.97 1220.21 409.86 1047.5 425.11"/>
    <path id="f-3" class="cls-12" d="M349.57,559c20.3-1.84,37.47-2.37,50.72-2.41,14.74-.05,31-.1,39.85,1.21,1.4.2,4.47.44,10.62.72,5.84.27,7.32.12,8.94-.72,3.11-1.63,4.49-4.66,5.31-6.52s1.87-5.19,1.21-13c-.74-8.87-1.53-18.22-7.73-21.49a15.66,15.66,0,0,0-2.9-1c-7.76-2.42-14.43-3.24-24.63-3.86-10.64-.65-16-1-22.7-.72a162,162,0,0,0-30.67,4.1Z"/>
    <path id="f-4" class="cls-12" d="M487.6,516.1c9.29.82,32.55,4.43,55.79,6.08.17,0-.74-.11,0,0,2.27.32,3.41.48,4.46,1.17,2.28,1.48,2.76,4.43,2.87,5.1a8.58,8.58,0,0,1,.11,1.48c-.25,14.9,1.08,22.54.1,25.51a7.33,7.33,0,0,1-.1,1.91,5.83,5.83,0,0,1-4,3.51,6.48,6.48,0,0,1-2.13.21c-4.81-.35-50.8-2.07-58.73-2a8.3,8.3,0,0,1-2.1,0,7.74,7.74,0,0,1-5.77-4.41,8.44,8.44,0,0,1-.42-3.68c-.43-9.4-.43-24.58-.21-29.08a5.28,5.28,0,0,1-.21-1.36c.12-2,2.09-3.84,4.09-4.31A29,29,0,0,1,487.6,516.1Z"/>
    <path id="f-5" class="cls-12" d="M564.12,524.13c6.44.73,22.58,3.94,38.71,5.41.12,0-.51-.09,0,0,1.58.29,2.37.43,3.1,1,1.58,1.33,1.91,4,2,4.55a8.41,8.41,0,0,1,.07,1.32c-.17,13.28.76,20.08.08,22.73a8.79,8.79,0,0,1-.08,1.7,4.48,4.48,0,0,1-2.8,3.12,3.31,3.31,0,0,1-1.47.19c-3.34-.31-35.26-1.84-40.76-1.79a4.29,4.29,0,0,1-1.46,0,5.79,5.79,0,0,1-4-3.93,9.6,9.6,0,0,1-.29-3.27c-.29-8.38-.29-21.9-.14-25.91a5.34,5.34,0,0,1-.15-1.22,4.45,4.45,0,0,1,2.84-3.83A15.35,15.35,0,0,1,564.12,524.13Z"/>
    <path id="f-6" class="cls-12" d="M619.46,531.56c4.9.62,17.17,3.33,29.43,4.57h0a4.43,4.43,0,0,1,2.35.88c1.2,1.12,1.46,3.34,1.51,3.84a8.09,8.09,0,0,1,.06,1.12c-.13,11.2.57,16.95.06,19.18a9.29,9.29,0,0,1-.06,1.44,3.71,3.71,0,0,1-2.13,2.64,2.32,2.32,0,0,1-1.12.15c-2.54-.26-26.8-1.55-31-1.51a2.83,2.83,0,0,1-1.1,0,4.64,4.64,0,0,1-3.05-3.32,8.77,8.77,0,0,1-.22-2.76c-.23-7.07-.23-18.49-.11-21.87a5.28,5.28,0,0,1-.11-1,3.71,3.71,0,0,1,2.16-3.23A10.58,10.58,0,0,1,619.46,531.56Z"/>
    <path id="f-7" class="cls-12" d="M662.56,536.94c4.1.53,14.37,2.89,24.63,4h0a3.52,3.52,0,0,1,2,.77,6,6,0,0,1,1.27,3.33,9.28,9.28,0,0,1,.05,1c-.11,9.74.48,14.73,0,16.67a7.86,7.86,0,0,1,0,1.26,3.19,3.19,0,0,1-1.78,2.29,1.94,1.94,0,0,1-.94.14c-2.13-.23-22.44-1.35-25.94-1.32a2.37,2.37,0,0,1-.93,0,3.94,3.94,0,0,1-2.54-2.88,7.82,7.82,0,0,1-.19-2.4c-.19-6.15-.19-16.08-.09-19a5.32,5.32,0,0,1-.1-.9,3.28,3.28,0,0,1,1.81-2.81A8.35,8.35,0,0,1,662.56,536.94Z"/>
    <path id="f-8" class="cls-12" d="M726.19,542.9c2.68.34,9.41,2.06,16.13,2.68h0c.66.15,1,.23,1.29.6a6,6,0,0,1,.83,2.84c0,.41,0,.73,0,.84-.07,8.4.31,12.68,0,14.37a7.32,7.32,0,0,1,0,1.08,2.87,2.87,0,0,1-1.17,2,1,1,0,0,1-.61.15c-1.39-.14-14.69-.49-17-.36a1.25,1.25,0,0,1-.61,0,3.06,3.06,0,0,1-1.67-2.41,9.32,9.32,0,0,1-.12-2.07c-.13-5.29-.13-13.85-.06-16.38a4.33,4.33,0,0,1-.06-.77,3.07,3.07,0,0,1,1.18-2.48A4.26,4.26,0,0,1,726.19,542.9Z"/>
    <path id="f-9" class="cls-12" d="M750.67,546.44c2.16.3,7.56,1.84,13,2.39h0c.52.14.79.21,1,.54a5.87,5.87,0,0,1,.67,2.52c0,.37,0,.66,0,.75-.06,7.48.26,11.3,0,12.8a7.22,7.22,0,0,1,0,1,2.56,2.56,0,0,1-.94,1.81.74.74,0,0,1-.49.13c-1.12-.12-11.8-.44-13.64-.32a.91.91,0,0,1-.49,0,2.71,2.71,0,0,1-1.34-2.15,9.58,9.58,0,0,1-.1-1.84c-.1-4.71-.1-12.33-.05-14.59,0-.08,0-.34,0-.68a2.82,2.82,0,0,1,1-2.21A3.23,3.23,0,0,1,750.67,546.44Z"/>
  </g>
</svg>
