<svg xmlns="http://www.w3.org/2000/svg" width="24in" height="15.99in" viewBox="0 0 1728 1151">
  <defs>
    <style>
      .cls-1, .cls-7 {
        fill: #fff;
      }

      .cls-1 {
        opacity: 0.7;
      }

      .cls-11, .cls-12, .cls-2 {
        fill: none;
      }

      .cls-11, .cls-2, .cls-4, .cls-5, .cls-6 {
        stroke: #231f20;
      }

      .cls-10, .cls-11, .cls-12, .cls-2, .cls-4, .cls-5, .cls-6, .cls-8 {
        stroke-miterlimit: 10;
      }

      .cls-2 {
        stroke-width: 0.75px;
      }

      .cls-3 {
        fill: #302a2b;
      }

      .cls-4 {
        fill: #d76b7d;
      }

      .cls-10, .cls-4, .cls-5, .cls-6, .cls-8 {
        stroke-width: 0.5px;
      }

      .cls-5 {
        fill: #f8e69a;
      }

      .cls-6 {
        fill: #74bc69;
      }

      .cls-8 {
        fill: #f9f4de;
      }

      .cls-10, .cls-8 {
        stroke: #a7a9ac;
      }

      .cls-9 {
        fill: #d6d6d6;
      }

      .cls-10 {
        fill: #e1efdf;
      }

      .cls-12 {
        stroke: #000;
        stroke-width: 2px;
      }

    </style>
  </defs>
  <g id="Transfo">
    <polyline id="c-1" class="cls-2" points="649.28 304.01 245.44 553.64 52.34 553.64"/>
    <g id="t-1.1">
      <path class="cls-3" d="M82.84,531.26h5.82c4.8,0,8.12,3.35,8.12,8.59s-3.24,8.9-8.15,8.9H82.84Zm1.4,16.2h4.19c4.6,0,6.85-3.23,6.85-7.53,0-3.83-2-7.38-6.85-7.38H84.24Z"/>
      <path class="cls-3" d="M117.86,539.88c0,4.78-2.56,9.12-8,9.12-4.94,0-7.81-4-7.81-9s2.78-9,8-9C114.88,531,117.86,534.78,117.86,539.88Zm-14.27,0c0,4,2.21,7.78,6.38,7.78,4.5,0,6.39-3.68,6.39-7.8s-2.14-7.61-6.34-7.61C105.55,532.3,103.59,536,103.59,539.93Z"/>
      <path class="cls-3" d="M139.32,540.74c0-3.42,0-6.69.1-8.45h-.08c-.7,2.38-4.21,10.94-6.42,16.46h-1.37c-1.66-4.28-5.3-13.81-6.09-16.48h-.06c.13,2,.18,6.06.18,9.06v7.42h-1.39V531.26h2.1c2.37,6,5.36,13.77,6,15.75h0c.4-1.29,3.87-10,6.29-15.75h2.07v17.49h-1.39Z"/>
      <path class="cls-3" d="M163.49,540.74c0-3.42,0-6.69.1-8.45h-.07c-.71,2.38-4.22,10.94-6.43,16.46h-1.36c-1.67-4.28-5.3-13.81-6.1-16.48h0c.12,2,.17,6.06.17,9.06v7.42h-1.39V531.26h2.1c2.38,6,5.37,13.77,6,15.75h.05c.4-1.29,3.86-10,6.29-15.75h2.07v17.49h-1.4Z"/>
      <path class="cls-3" d="M174.12,542.75l-2.21,6h-1.42l6.41-17.49h1.66l6.69,17.49h-1.53l-2.25-6Zm6.89-1.29c-1.94-5.17-2.93-7.66-3.28-8.85h0c-.42,1.34-1.54,4.43-3.1,8.85Z"/>
      <path class="cls-3" d="M204.09,548.75h-1.16a13.25,13.25,0,0,1-.18-2.77c-.63,1.2-2,3-5.63,3-5,0-7.6-3.82-7.6-8.79,0-5.23,2.75-9.15,7.88-9.15,3.79,0,6.29,2,6.84,5.2h-1.4c-.74-2.44-2.45-3.91-5.49-3.91-4.35,0-6.33,3.39-6.33,7.78,0,4,1.9,7.59,6.16,7.59s5.56-2.84,5.56-6.66v-.2h-5.61v-1.29h7Z"/>
      <path class="cls-3" d="M221.42,540.18h-8.91v7.28h9.76l-.21,1.29H211.11V531.26h10.76v1.29h-9.36v6.34h8.91Z"/>
      <path class="cls-3" d="M228.54,544c.52,2.32,2.06,3.68,4.92,3.68,3.17,0,4.39-1.59,4.39-3.47s-.88-3.17-4.71-4.12-5.31-2.14-5.31-4.66c0-2.31,1.69-4.46,5.45-4.46s5.49,2.35,5.72,4.49h-1.46c-.39-1.86-1.6-3.21-4.34-3.21-2.5,0-3.87,1.17-3.87,3.1s1.14,2.65,4.36,3.45c4.92,1.22,5.66,3.2,5.66,5.3,0,2.59-1.89,4.81-5.95,4.81-4.37,0-6-2.54-6.31-4.91Z"/>
      <path class="cls-3" d="M152.09,574.06A6.39,6.39,0,0,1,145.5,579c-5,0-7.68-4-7.68-8.92,0-4.72,2.6-9,7.7-9,3.8,0,6,2.11,6.59,5h-1.4a5,5,0,0,0-5.26-3.75c-4.32,0-6.13,3.94-6.13,7.7s1.78,7.67,6.23,7.67a5.11,5.11,0,0,0,5.14-3.61Z"/>
      <path class="cls-3" d="M160,572.75l-2.21,6h-1.42l6.41-17.49h1.66l6.69,17.49h-1.53l-2.25-6Zm4.43-16.27,3.3,3.18h-1.69l-2.38-2.28-2.6,2.28h-1.62l3.47-3.18Zm2.46,15c-1.94-5.17-2.93-7.66-3.28-8.85h0c-.42,1.34-1.54,4.43-3.1,8.85Z"/>
      <path class="cls-3" d="M176.74,561.26h6.13c3.36,0,5.16,1.78,5.16,4.3a3.78,3.78,0,0,1-2.69,3.82,4.43,4.43,0,0,1,3.31,4.32c0,3.49-2.62,5-5.68,5h-6.23Zm5.68,7.51c3,0,4.13-1.12,4.13-3.13,0-1.71-1.19-3.09-3.62-3.09h-4.82v6.22Zm-4.31,8.69H183c2.29,0,4.2-1.14,4.2-3.69,0-2.21-1.42-3.72-4.91-3.72h-4.18Z"/>
      <path class="cls-3" d="M195.13,561.26h1.41v16.2h9.38l-.26,1.29H195.13Z"/>
      <path class="cls-3" d="M221.42,570.18h-8.91v7.28h9.76l-.21,1.29H211.11V561.26h10.75v1.29h-9.35v6.34h8.91Z"/>
      <path class="cls-3" d="M228.54,574c.52,2.32,2.06,3.68,4.92,3.68,3.17,0,4.39-1.59,4.39-3.47s-.88-3.17-4.71-4.12-5.31-2.14-5.31-4.66c0-2.31,1.69-4.46,5.45-4.46s5.49,2.35,5.72,4.49h-1.46c-.39-1.86-1.6-3.21-4.34-3.21-2.5,0-3.87,1.17-3.87,3.1s1.14,2.65,4.36,3.45c4.92,1.22,5.66,3.2,5.66,5.3,0,2.59-1.89,4.81-5.95,4.81-4.37,0-6-2.54-6.31-4.91Z"/>
    </g>
    <rect id="r-1.1" class="cls-4" x="82.86" y="602" width="32.71" height="32.71"/>
    <g id="s-1.1">
      <path class="cls-3" d="M138.46,612.91h1.12V619h8.34v-6.09H149v14h-1.12V620h-8.34v6.88h-1.12Z"/>
      <path class="cls-3" d="M156.47,622.1l-1.77,4.81h-1.14l5.13-14H160l5.35,14h-1.22l-1.81-4.81Zm5.51-1c-1.54-4.13-2.34-6.13-2.62-7.07h0c-.34,1.06-1.24,3.54-2.49,7.07Z"/>
      <path class="cls-3" d="M170.34,612.91v8.48c0,3.69,2.08,4.65,4,4.65,2.33,0,4.06-1,4.06-4.65v-8.48h1.14v8.42c0,4.38-2.33,5.74-5.24,5.74-2.76,0-5.17-1.49-5.17-5.57v-8.59Z"/>
      <path class="cls-3" d="M188.42,613.94h-4.69v-1h10.54v1h-4.71v13h-1.14Z"/>
    </g>
    <rect id="r-2.1" class="cls-5" x="82.86" y="642" width="32.71" height="32.71"/>
    <g id="s-2.1">
      <path class="cls-3" d="M150.57,660.49c0-2.73,0-5.35.08-6.76h-.06c-.56,1.9-3.37,8.76-5.14,13.17h-1.09c-1.33-3.42-4.24-11-4.88-13.19h0c.1,1.6.14,4.86.14,7.26v5.93h-1.12v-14h1.68c1.91,4.77,4.3,11,4.82,12.6h0c.32-1,3.09-8,5-12.6h1.66v14h-1.12Z"/>
      <path class="cls-3" d="M169.38,659.81c0,3.82-2,7.29-6.37,7.29-3.94,0-6.24-3.18-6.24-7.19s2.22-7.2,6.39-7.2C167,652.71,169.38,655.72,169.38,659.81Zm-11.41,0c0,3.2,1.76,6.22,5.11,6.22,3.59,0,5.1-2.94,5.1-6.24s-1.7-6.09-5.07-6.09C159.54,653.74,158,656.7,158,659.85Z"/>
      <path class="cls-3" d="M177.42,666.9v-5.25a.68.68,0,0,0-.08-.32l-5-8.42h1.31c1.39,2.37,3.81,6.48,4.41,7.53.6-1.05,3-5.12,4.53-7.53h1.25l-5.22,8.5a.61.61,0,0,0-.06.3v5.19Z"/>
      <path class="cls-3" d="M196,660h-7.13v5.83h7.81l-.16,1h-8.77v-14h8.61v1h-7.49V659H196Z"/>
      <path class="cls-3" d="M201.44,666.9v-14h1.65c2.17,3.35,7.25,11.12,8.12,12.64h0c-.12-2-.1-4.07-.1-6.35v-6.29h1.14v14h-1.53c-2.07-3.22-7.23-11.33-8.22-12.87h0c.1,1.83.08,3.88.08,6.42v6.45Z"/>
    </g>
    <rect id="r-3.1" class="cls-6" x="82.86" y="681.99" width="32.71" height="32.71"/>
    <g id="s-3.1">
      <path class="cls-3" d="M138.46,692.9h4.91c2.69,0,4.13,1.43,4.13,3.44a3,3,0,0,1-2.15,3.06,3.53,3.53,0,0,1,2.65,3.46c0,2.79-2.1,4-4.55,4h-5Zm4.55,6c2.4,0,3.31-.9,3.31-2.5,0-1.37-1-2.48-2.9-2.48h-3.86v5Zm-3.45,7h3.92c1.83,0,3.35-.91,3.35-3,0-1.76-1.13-3-3.92-3h-3.35Z"/>
      <path class="cls-3" d="M154.57,702.09l-1.77,4.81h-1.14l5.13-14h1.34l5.35,14h-1.23l-1.8-4.81Zm5.51-1c-1.54-4.13-2.34-6.13-2.62-7.08h0c-.34,1.07-1.24,3.54-2.49,7.08Z"/>
      <path class="cls-3" d="M168.18,703.13c.42,1.85,1.66,2.94,3.94,2.94,2.54,0,3.51-1.26,3.51-2.77s-.7-2.54-3.76-3.3-4.25-1.71-4.25-3.73c0-1.85,1.35-3.57,4.36-3.57s4.39,1.88,4.57,3.59h-1.16c-.31-1.49-1.28-2.56-3.47-2.56-2,0-3.1.93-3.1,2.48s.91,2.12,3.49,2.76c3.94,1,4.52,2.55,4.52,4.24,0,2.07-1.5,3.85-4.75,3.85-3.5,0-4.8-2-5.06-3.93Z"/>
    </g>
    <rect id="b-1" class="cls-7" x="75.66" y="591.33" width="165.1" height="132.73"/>
    <rect id="r-4.1" class="cls-4" x="80.24" y="600.19" width="37.7" height="37.7"/>
    <g id="s-4.1">
      <path class="cls-3" d="M138.46,612.91h1.12V619h8.34v-6.09H149v14h-1.12V620h-8.34v6.88h-1.12Z"/>
      <path class="cls-3" d="M156.47,622.1l-1.77,4.81h-1.14l5.13-14H160l5.35,14h-1.22l-1.81-4.81Zm5.51-1c-1.54-4.13-2.34-6.13-2.62-7.07h0c-.34,1.06-1.24,3.54-2.49,7.07Z"/>
      <path class="cls-3" d="M170.34,612.91v8.48c0,3.69,2.08,4.65,4,4.65,2.33,0,4.06-1,4.06-4.65v-8.48h1.14v8.42c0,4.38-2.33,5.74-5.24,5.74-2.76,0-5.17-1.49-5.17-5.57v-8.59Z"/>
      <path class="cls-3" d="M188.42,613.94h-4.69v-1h10.54v1h-4.71v13h-1.14Z"/>
    </g>
    <rect id="r-5.1" class="cls-8" x="82.88" y="642.01" width="32.71" height="32.71"/>
    <g id="s-5.1">
      <path class="cls-9" d="M150.6,660.5c0-2.73,0-5.35.08-6.75h-.06c-.57,1.9-3.37,8.75-5.14,13.17h-1.1c-1.33-3.43-4.24-11.06-4.88-13.19h0c.1,1.6.14,4.85.14,7.25v5.94h-1.11v-14h1.68c1.9,4.78,4.29,11,4.81,12.61h0c.32-1,3.1-8,5-12.61h1.66v14H150.6Z"/>
      <path class="cls-9" d="M169.41,659.82c0,3.82-2,7.3-6.37,7.3-3.95,0-6.25-3.18-6.25-7.2s2.23-7.2,6.39-7.2C167,652.72,169.41,655.74,169.41,659.82Zm-11.42,0c0,3.21,1.77,6.23,5.11,6.23,3.6,0,5.11-3,5.11-6.25s-1.71-6.09-5.07-6.09C159.56,653.75,158,656.71,158,659.86Z"/>
      <path class="cls-9" d="M177.45,666.92v-5.25a.59.59,0,0,0-.09-.33l-5-8.42h1.3c1.4,2.37,3.82,6.49,4.42,7.54.6-1.05,3-5.13,4.53-7.54h1.24l-5.21,8.5a.61.61,0,0,0-.06.3v5.2Z"/>
      <path class="cls-9" d="M196,660.06h-7.13v5.83h7.81l-.17,1h-8.76v-14h8.6v1h-7.48V659H196Z"/>
      <path class="cls-9" d="M201.47,666.92v-14h1.64c2.17,3.35,7.25,11.13,8.13,12.65h0c-.12-2-.1-4.08-.1-6.36v-6.29h1.13v14h-1.52L202.54,654h0c.1,1.83.08,3.89.08,6.43v6.45Z"/>
    </g>
    <rect id="r-6.1" class="cls-10" x="82.88" y="681.93" width="32.64" height="33"/>
    <g id="s-6.1">
      <path class="cls-9" d="M138.49,692.91h4.9c2.7,0,4.13,1.42,4.13,3.44a3,3,0,0,1-2.15,3.06,3.53,3.53,0,0,1,2.65,3.45c0,2.79-2.09,4-4.54,4h-5Zm4.54,6c2.4,0,3.31-.9,3.31-2.51,0-1.37-1-2.48-2.89-2.48h-3.86v5Zm-3.44,7h3.91c1.84,0,3.36-.92,3.36-3,0-1.77-1.13-3-3.93-3h-3.34Z"/>
      <path class="cls-9" d="M154.59,702.1l-1.76,4.8h-1.14l5.13-14h1.33l5.35,14h-1.22l-1.81-4.8Zm5.52-1c-1.55-4.14-2.35-6.13-2.63-7.08h0c-.34,1.07-1.23,3.54-2.48,7.08Z"/>
      <path class="cls-9" d="M168.21,703.14c.41,1.85,1.65,2.94,3.94,2.94,2.53,0,3.51-1.27,3.51-2.78s-.7-2.54-3.77-3.29-4.25-1.72-4.25-3.73,1.35-3.57,4.36-3.57,4.4,1.88,4.58,3.59h-1.16c-.32-1.49-1.29-2.57-3.48-2.57-2,0-3.1.93-3.1,2.48s.92,2.12,3.49,2.76c3.94,1,4.53,2.56,4.53,4.25,0,2.07-1.51,3.85-4.76,3.85-3.5,0-4.79-2-5-3.93Z"/>
    </g>
    <path id="w-1" class="cls-11" d="M1355.28,468.6a98.9,98.9,0,0,0-15.17-4.83c-16.07-3.74-27.58-2.17-44.14-1.38-9.42.45-23.09.78-40,0l-9,11.72h-43.45l-.69-8.27L1158,470l-.69,13.1-52.41,3.45-.69-10.35-44.14,9.66L1058,503.08l-14.48,3.45.69-16.55-25.52-7.59,4.83-22.07a53,53,0,0,0-22.76-17.24c-19.83-7.69-37.58-.31-41.38,1.38l-69,119.31c.57,2.28,5.48,20.5,24.14,29,18.39,8.34,35.08.38,37.24-.69.11-.45,2.08-8.12,9-10.35,6.22-2,13.79,1.28,17.24,8.28l-2.76,71a59.92,59.92,0,0,1-13.79,12.42,61.32,61.32,0,0,1-29.66,9.65l-2.07,35.17,434.49,10.35Z"/>
  </g>
  <g id="Cable">
    <polyline id="c-3" class="cls-2" points="1099.32 597.73 1460.96 383.4 1722.36 383.4"/>
    <g id="t-1.3">
      <path class="cls-3" d="M1470,360.36h5.82c4.81,0,8.13,3.35,8.13,8.59s-3.25,8.9-8.16,8.9H1470Zm1.4,16.2h4.19c4.6,0,6.86-3.23,6.86-7.54,0-3.82-2-7.37-6.86-7.37h-4.19Z"/>
      <path class="cls-3" d="M1505,369c0,4.77-2.55,9.12-8,9.12-4.93,0-7.8-4-7.8-9s2.78-9,8-9C1502,360.11,1505,363.88,1505,369Zm-14.26,0c0,4,2.21,7.78,6.38,7.78,4.5,0,6.38-3.68,6.38-7.81s-2.13-7.6-6.33-7.6C1492.67,361.4,1490.71,365.09,1490.71,369Z"/>
      <path class="cls-3" d="M1526.43,369.83c0-3.41,0-6.68.1-8.44h-.07c-.71,2.38-4.22,10.94-6.43,16.46h-1.36c-1.67-4.29-5.3-13.82-6.1-16.48h0c.12,2,.17,6.06.17,9.06v7.42h-1.39V360.36h2.1c2.38,6,5.37,13.76,6,15.75h0c.4-1.29,3.86-10,6.29-15.75h2.07v17.49h-1.4Z"/>
      <path class="cls-3" d="M1550.61,369.83c0-3.41,0-6.68.1-8.44h-.08c-.7,2.38-4.21,10.94-6.42,16.46h-1.37c-1.66-4.29-5.3-13.82-6.1-16.48h0c.13,2,.18,6.06.18,9.06v7.42h-1.4V360.36h2.11c2.37,6,5.36,13.76,6,15.75h.05c.4-1.29,3.86-10,6.29-15.75H1552v17.49h-1.39Z"/>
      <path class="cls-3" d="M1561.23,371.84l-2.2,6h-1.43l6.41-17.49h1.67l6.68,17.49h-1.52l-2.26-6Zm6.89-1.28c-1.93-5.17-2.93-7.66-3.28-8.85h0c-.43,1.33-1.55,4.43-3.11,8.85Z"/>
      <path class="cls-3" d="M1591.2,377.85H1590a12.93,12.93,0,0,1-.17-2.78c-.63,1.2-2,3-5.64,3-5,0-7.6-3.82-7.6-8.8,0-5.22,2.75-9.14,7.89-9.14,3.78,0,6.29,2,6.83,5.2H1590c-.74-2.44-2.45-3.92-5.49-3.92-4.35,0-6.33,3.39-6.33,7.79,0,4,1.91,7.58,6.16,7.58s5.56-2.83,5.56-6.66v-.2h-5.6v-1.28h7Z"/>
      <path class="cls-3" d="M1608.53,369.27h-8.91v7.29h9.76l-.2,1.29h-11V360.36H1609v1.29h-9.36V368h8.91Z"/>
      <path class="cls-3" d="M1615.65,373.14c.52,2.31,2.07,3.67,4.92,3.67,3.17,0,4.39-1.58,4.39-3.46s-.87-3.18-4.7-4.12-5.31-2.14-5.31-4.66c0-2.32,1.68-4.46,5.44-4.46s5.49,2.35,5.72,4.48h-1.45c-.4-1.85-1.61-3.2-4.35-3.2-2.5,0-3.86,1.16-3.86,3.1s1.14,2.65,4.35,3.45c4.93,1.22,5.66,3.19,5.66,5.3,0,2.59-1.88,4.81-5.94,4.81-4.38,0-6-2.54-6.32-4.91Z"/>
      <path class="cls-3" d="M1473.52,391.65h-5.86v-1.29h13.17v1.29H1475v16.2h-1.43Z"/>
      <path class="cls-3" d="M1487.35,399.7v8.15h-1.43V390.36h6.31c3.45,0,5.28,1.85,5.28,4.6a4,4,0,0,1-3.26,4.1c1.78.42,3,1.59,3,4.57v.67a11.81,11.81,0,0,0,.23,3.55H1496a11.58,11.58,0,0,1-.25-3.66v-.44c0-2.85-.85-4.05-4.18-4.05Zm0-1.28h4.2c3,0,4.46-1.15,4.46-3.43s-1.39-3.35-4.09-3.35h-4.57Z"/>
      <path class="cls-3" d="M1506.31,401.84l-2.21,6h-1.42l6.41-17.49h1.66l6.69,17.49h-1.53l-2.25-6Zm6.89-1.28c-1.94-5.17-2.93-7.66-3.28-8.85h0c-.42,1.33-1.54,4.43-3.1,8.85Z"/>
      <path class="cls-3" d="M1523,407.85V390.36h2.06c2.71,4.19,9.06,13.9,10.15,15.8h0c-.15-2.51-.13-5.09-.13-7.94v-7.86h1.42v17.49h-1.91c-2.58-4-9-14.16-10.27-16.09h0c.13,2.28.1,4.85.1,8v8.06Z"/>
      <path class="cls-3" d="M1544.1,403.14c.52,2.31,2.07,3.67,4.92,3.67,3.17,0,4.39-1.58,4.39-3.46s-.87-3.18-4.7-4.12-5.31-2.14-5.31-4.66c0-2.32,1.68-4.46,5.44-4.46s5.49,2.35,5.72,4.48h-1.45c-.4-1.85-1.61-3.2-4.35-3.2-2.5,0-3.86,1.16-3.86,3.1s1.14,2.65,4.35,3.45c4.93,1.22,5.66,3.19,5.66,5.3,0,2.59-1.88,4.81-5.94,4.81-4.38,0-6-2.54-6.32-4.91Z"/>
      <path class="cls-3" d="M1561.22,390.36h10.63v1.29h-9.23v6.54h8.66v1.29h-8.66v8.37h-1.4Z"/>
      <path class="cls-3" d="M1592.45,399c0,4.77-2.56,9.12-8,9.12-4.94,0-7.81-4-7.81-9s2.78-9,8-9C1589.47,390.11,1592.45,393.88,1592.45,399Zm-14.27,0c0,4,2.21,7.78,6.38,7.78,4.5,0,6.38-3.68,6.38-7.81s-2.13-7.6-6.33-7.6C1580.14,391.4,1578.18,395.09,1578.18,399Z"/>
      <path class="cls-3" d="M1600.2,399.7v8.15h-1.43V390.36h6.31c3.45,0,5.28,1.85,5.28,4.6a4,4,0,0,1-3.26,4.1c1.78.42,3,1.59,3,4.57v.67a11.81,11.81,0,0,0,.23,3.55h-1.42a11.53,11.53,0,0,1-.26-3.66v-.44c0-2.85-.84-4.05-4.17-4.05Zm0-1.28h4.2c3,0,4.46-1.15,4.46-3.43s-1.39-3.35-4.09-3.35h-4.57Z"/>
      <path class="cls-3" d="M1632.38,399.83c0-3.41,0-6.68.1-8.44h-.08c-.7,2.38-4.21,10.94-6.42,16.46h-1.36c-1.67-4.29-5.3-13.82-6.1-16.48h0c.12,2,.17,6.06.17,9.06v7.42h-1.39V390.36h2.1c2.38,6,5.37,13.76,6,15.75h.05c.4-1.29,3.87-10,6.3-15.75h2.07v17.49h-1.4Z"/>
      <path class="cls-3" d="M1643,401.84l-2.2,6h-1.43l6.42-17.49h1.66l6.69,17.49h-1.53l-2.26-6Zm6.9-1.28c-1.94-5.17-2.93-7.66-3.28-8.85h0c-.42,1.33-1.54,4.43-3.1,8.85Z"/>
      <path class="cls-3" d="M1661.09,391.65h-5.85v-1.29h13.16v1.29h-5.88v16.2h-1.43Z"/>
      <path class="cls-3" d="M1683.81,399.27h-8.91v7.29h9.76l-.21,1.29h-11V390.36h10.75v1.29h-9.35V398h8.91Z"/>
      <path class="cls-3" d="M1691.85,390.36V401c0,4.62,2.6,5.81,5.06,5.81,2.91,0,5.06-1.22,5.06-5.81V390.36h1.43v10.51c0,5.48-2.91,7.18-6.54,7.18-3.46,0-6.46-1.87-6.46-7V390.36Z"/>
      <path class="cls-3" d="M1712.2,399.7v8.15h-1.43V390.36h6.3c3.46,0,5.29,1.85,5.29,4.6a4,4,0,0,1-3.26,4.1c1.78.42,3,1.59,3,4.57v.67a11.49,11.49,0,0,0,.23,3.55h-1.42a11.53,11.53,0,0,1-.26-3.66v-.44c0-2.85-.84-4.05-4.17-4.05Zm0-1.28h4.2c3,0,4.46-1.15,4.46-3.43s-1.39-3.35-4.09-3.35h-4.57Z"/>
    </g>
    <rect id="r-1.3" class="cls-4" x="1513.14" y="445.76" width="32.71" height="32.71"/>
    <g id="s-1.3">
      <path class="cls-3" d="M1568.75,456.67h1.12v6.09h8.34v-6.09h1.12v14h-1.12v-6.88h-8.34v6.88h-1.12Z"/>
      <path class="cls-3" d="M1586.75,465.87l-1.76,4.8h-1.14l5.13-14h1.33l5.35,14h-1.22l-1.81-4.8Zm5.52-1c-1.55-4.13-2.35-6.13-2.63-7.07h0c-.34,1.06-1.23,3.54-2.48,7.07Z"/>
      <path class="cls-3" d="M1600.62,456.67v8.48c0,3.7,2.09,4.65,4.06,4.65,2.32,0,4-1,4-4.65v-8.48h1.14v8.42c0,4.38-2.33,5.74-5.23,5.74s-5.18-1.49-5.18-5.57v-8.59Z"/>
      <path class="cls-3" d="M1618.7,457.7H1614v-1h10.54v1h-4.71v13h-1.14Z"/>
    </g>
    <rect id="r-2.3" class="cls-5" x="1513.14" y="485.76" width="32.71" height="32.71"/>
    <g id="s-2.3">
      <path class="cls-3" d="M1580.86,504.25c0-2.73,0-5.35.08-6.76h-.06c-.57,1.91-3.38,8.76-5.15,13.18h-1.09c-1.33-3.43-4.24-11.06-4.88-13.2h0c.1,1.61.14,4.86.14,7.26v5.94h-1.11v-14h1.68c1.9,4.77,4.29,11,4.81,12.61h0c.32-1,3.09-8,5-12.61H1582v14h-1.11Z"/>
      <path class="cls-3" d="M1599.67,503.57c0,3.82-2.05,7.3-6.37,7.3-4,0-6.25-3.18-6.25-7.2s2.23-7.2,6.39-7.2C1597.28,496.47,1599.67,499.48,1599.67,503.57Zm-11.42,0c0,3.21,1.77,6.22,5.11,6.22,3.6,0,5.11-2.94,5.11-6.24s-1.71-6.09-5.07-6.09C1589.82,497.5,1588.25,500.46,1588.25,503.61Z"/>
      <path class="cls-3" d="M1607.7,510.67v-5.26a.68.68,0,0,0-.08-.32l-5-8.42h1.3c1.4,2.37,3.81,6.48,4.42,7.53.6-1.05,3-5.12,4.53-7.53h1.24l-5.21,8.5a.6.6,0,0,0-.07.3v5.2Z"/>
      <path class="cls-3" d="M1626.29,503.8h-7.12v5.83h7.8l-.16,1H1618v-14h8.61v1h-7.48v5.07h7.12Z"/>
      <path class="cls-3" d="M1631.72,510.67v-14h1.65c2.17,3.35,7.25,11.13,8.13,12.64h0c-.13-2-.11-4.07-.11-6.35v-6.29h1.14v14H1641l-8.23-12.88h0c.1,1.83.08,3.89.08,6.42v6.46Z"/>
    </g>
    <rect id="r-3.3" class="cls-6" x="1513.14" y="525.75" width="32.71" height="32.71"/>
    <g id="s-3.3">
      <path class="cls-3" d="M1568.75,536.66h4.9c2.7,0,4.13,1.43,4.13,3.44a3,3,0,0,1-2.15,3.06,3.53,3.53,0,0,1,2.65,3.46c0,2.79-2.09,4-4.55,4h-5Zm4.54,6c2.4,0,3.31-.89,3.31-2.5,0-1.37-.95-2.48-2.9-2.48h-3.85v5Zm-3.44,7h3.91c1.84,0,3.36-.91,3.36-3,0-1.76-1.13-3-3.93-3h-3.34Z"/>
      <path class="cls-3" d="M1584.85,545.85l-1.77,4.81H1582l5.13-14h1.33l5.35,14h-1.22l-1.81-4.81Zm5.52-1c-1.55-4.13-2.35-6.13-2.63-7.07h0c-.34,1.06-1.23,3.54-2.48,7.07Z"/>
      <path class="cls-3" d="M1598.47,546.89c.41,1.85,1.65,2.94,3.93,2.94,2.54,0,3.52-1.26,3.52-2.77s-.7-2.54-3.77-3.3-4.25-1.71-4.25-3.73c0-1.85,1.35-3.57,4.36-3.57s4.4,1.88,4.58,3.59h-1.16c-.32-1.49-1.29-2.56-3.48-2.56-2,0-3.1.93-3.1,2.48s.92,2.12,3.49,2.76c3.94,1,4.53,2.55,4.53,4.24,0,2.07-1.51,3.85-4.76,3.85-3.5,0-4.79-2-5.06-3.93Z"/>
    </g>
    <rect id="b-3" class="cls-7" x="1505.94" y="435.09" width="165.1" height="132.73"/>
    <rect id="r-4.3" class="cls-4" x="1510.52" y="443.95" width="37.7" height="37.7"/>
    <g id="s-4.3">
      <path class="cls-3" d="M1568.75,456.67h1.12v6.09h8.34v-6.09h1.12v14h-1.12v-6.88h-8.34v6.88h-1.12Z"/>
      <path class="cls-3" d="M1586.75,465.87l-1.76,4.8h-1.14l5.13-14h1.33l5.35,14h-1.22l-1.81-4.8Zm5.52-1c-1.55-4.13-2.35-6.13-2.63-7.07h0c-.34,1.06-1.23,3.54-2.48,7.07Z"/>
      <path class="cls-3" d="M1600.62,456.67v8.48c0,3.7,2.09,4.65,4.06,4.65,2.32,0,4-1,4-4.65v-8.48h1.14v8.42c0,4.38-2.33,5.74-5.23,5.74s-5.18-1.49-5.18-5.57v-8.59Z"/>
      <path class="cls-3" d="M1618.7,457.7H1614v-1h10.54v1h-4.71v13h-1.14Z"/>
    </g>
    <rect id="r-5.3" class="cls-8" x="1513.17" y="485.77" width="32.71" height="32.71"/>
    <g id="s-5.3">
      <path class="cls-9" d="M1580.88,504.27c0-2.74,0-5.36.08-6.76h-.06c-.56,1.9-3.37,8.75-5.14,13.17h-1.09c-1.34-3.43-4.24-11.06-4.88-13.19h0c.1,1.6.14,4.85.14,7.25v5.94h-1.12v-14h1.68c1.9,4.78,4.3,11,4.82,12.61h0c.33-1,3.1-8,5-12.61H1582v14h-1.12Z"/>
      <path class="cls-9" d="M1599.69,503.58c0,3.82-2,7.3-6.37,7.3-4,0-6.25-3.18-6.25-7.2s2.23-7.2,6.39-7.2C1597.31,496.48,1599.69,499.5,1599.69,503.58Zm-11.42,0c0,3.21,1.77,6.23,5.11,6.23,3.6,0,5.11-3,5.11-6.25s-1.71-6.09-5.07-6.09C1589.84,497.51,1588.27,500.47,1588.27,503.62Z"/>
      <path class="cls-9" d="M1607.73,510.68v-5.25a.76.76,0,0,0-.08-.33l-5-8.42H1604c1.39,2.37,3.81,6.49,4.41,7.54.6-1.05,3-5.13,4.53-7.54h1.24l-5.21,8.5a.61.61,0,0,0-.06.3v5.2Z"/>
      <path class="cls-9" d="M1626.32,503.82h-7.13v5.83H1627l-.17,1h-8.76v-14h8.61v1h-7.49v5.08h7.13Z"/>
      <path class="cls-9" d="M1631.75,510.68v-14h1.65c2.17,3.36,7.24,11.13,8.12,12.65h0c-.12-2-.1-4.08-.1-6.36v-6.29h1.13v14h-1.52c-2.07-3.23-7.23-11.33-8.23-12.88h0c.1,1.83.08,3.89.08,6.43v6.45Z"/>
    </g>
    <rect id="r-6.3" class="cls-10" x="1513.17" y="525.69" width="32.64" height="33"/>
    <g id="s-6.3">
      <path class="cls-9" d="M1568.77,536.67h4.91c2.69,0,4.13,1.42,4.13,3.44a3,3,0,0,1-2.15,3.06,3.53,3.53,0,0,1,2.64,3.45c0,2.79-2.09,4-4.54,4h-5Zm4.55,6c2.39,0,3.31-.9,3.31-2.5,0-1.38-1-2.48-2.9-2.48h-3.86v5Zm-3.45,7h3.91c1.84,0,3.36-.92,3.36-3,0-1.77-1.13-3-3.92-3h-3.35Z"/>
      <path class="cls-9" d="M1584.88,545.86l-1.77,4.81H1582l5.13-14h1.33l5.36,14h-1.23l-1.8-4.81Zm5.51-1c-1.55-4.13-2.34-6.13-2.62-7.08h0c-.34,1.07-1.24,3.54-2.49,7.08Z"/>
      <path class="cls-9" d="M1598.49,546.9c.42,1.85,1.65,2.94,3.94,2.94,2.54,0,3.51-1.27,3.51-2.78s-.7-2.54-3.76-3.29-4.25-1.71-4.25-3.73c0-1.85,1.35-3.57,4.35-3.57s4.4,1.88,4.58,3.59h-1.16c-.32-1.49-1.28-2.57-3.48-2.57-2,0-3.09.93-3.09,2.48s.91,2.13,3.48,2.76c4,1,4.53,2.56,4.53,4.25,0,2.07-1.51,3.85-4.76,3.85-3.5,0-4.79-2-5.05-3.93Z"/>
    </g>
    <path id="f-1" class="cls-12" d="M650.88,252.93c.42,24.48.27,45.12,0,60.58-.93,53.49-1.39,80.24-4.75,87.89,0,0-8.08,18.41-5.35,36.23a21.69,21.69,0,0,0,3,8.31,22.07,22.07,0,0,0,8.32,7.72"/>
    <path id="f-2" class="cls-12" d="M703.5,709.8a28.71,28.71,0,0,1-19.58,23.78,48.37,48.37,0,0,1,16.78,5.6c8.11,4.53,9.1,8.29,15.39,9.79,7.78,1.85,11-2.8,18.88-2.1,4.83.43,11.44,2.85,18.89,11.89,4.81.59,12.38,1.44,21.68,2.1,28.56,2,30.08-.72,48.26,1.4,17.74,2.06,32.82,6.62,35,2.1,1-2.05-1.51-4.24-.38-6.91,1.7-4,9.58-4.54,16.46-4.28L867.16,763a79.48,79.48,0,0,0,28.68-4.9c5.14-1.94,6.48-3.12,11.89-4.89,9.53-3.13,17.08-3.28,25.87-3.5,23-.57,34.47-.85,38.47-1.4,17.32-2.37,27-6.88,30.08-8.39a83.28,83.28,0,0,0,15.38-9.79l18.19-4.2"/>
    <path id="f-3" class="cls-12" d="M647.32,167.41l7.12,17.22a57.14,57.14,0,0,1,21.38,16c1.63,2,7.47,9.44,11.88,26.13,4.9,18.54,4.11,33.68,3,52.86a337.24,337.24,0,0,1-4.16,36.22,18.64,18.64,0,0,1,5.35,4.75c4.71,6.29,3.87,14.21,3.56,17.23-2.78,27.06-3.14,54.36-6.53,81.36-1.56,12.37-2.79,23.06-1.78,37.41a159.3,159.3,0,0,0,3,21.38"/>
    <path id="f-4" class="cls-12" d="M313.61,300.48c.89,7.94,1.82,18.33,2.31,30.54a437.51,437.51,0,0,1-.58,44.94c-1.06,19.2-1.66,29-4.61,36.31-2.69,6.72-5.14,13.54-8.06,20.16a50.59,50.59,0,0,0-4.61,15c-1,7.69.65,10.68,1.15,11.52,1.54,2.57,5.51,6.86,10.37,5.76,3.45-.78,6.18-4,6.92-8.07"/>
  </g>
</svg>
