<svg xmlns="http://www.w3.org/2000/svg" width="24in" height="15.99in" viewBox="0 0 1728 1151">
  <defs>
    <style>
      .cls-1, .cls-7 {
        fill: #fff;
      }

      .cls-1 {
        opacity: 0.7;
      }

      .cls-11, .cls-12, .cls-2 {
        fill: none;
      }

      .cls-11, .cls-12, .cls-14, .cls-2, .cls-4, .cls-5, .cls-6 {
        stroke: #231f20;
      }

      .cls-10, .cls-11, .cls-12, .cls-13, .cls-14, .cls-2, .cls-4, .cls-5, .cls-6, .cls-8 {
        stroke-miterlimit: 10;
      }

      .cls-2 {
        stroke-width: 0.75px;
      }

      .cls-3 {
        fill: #302a2b;
      }

      .cls-4 {
        fill: #d76b7d;
      }

      .cls-10, .cls-13, .cls-14, .cls-4, .cls-5, .cls-6, .cls-8 {
        stroke-width: 0.5px;
      }

      .cls-5 {
        fill: #f8e69a;
      }

      .cls-6 {
        fill: #74bc69;
      }

      .cls-8 {
        fill: #f9f4de;
      }

      .cls-10, .cls-13, .cls-8 {
        stroke: #a7a9ac;
      }

      .cls-9 {
        fill: #d6d6d6;
      }

      .cls-10 {
        fill: #e1efdf;
      }

      .cls-12 {
        stroke-width: 2px;
      }

      .cls-13 {
        fill: #e2b7c0;
      }

      .cls-14 {
        fill: #f7e599;
      }
    </style>
  </defs>
  <g id="Wall">
    <polyline id="c-1" class="cls-2" points="441.68 405.71 218.55 195.3 53.05 195.3"/>
    <g id="t-1.1">
      <path class="cls-3" d="M53.9,170.59h5.82c4.8,0,8.13,3.34,8.13,8.59s-3.25,8.9-8.16,8.9H53.9Zm1.4,16.2h4.19c4.6,0,6.85-3.23,6.85-7.54,0-3.82-2-7.38-6.85-7.38H55.3Z"/>
      <path class="cls-3" d="M88.92,179.21c0,4.77-2.56,9.12-8,9.12-4.93,0-7.81-4-7.81-9s2.78-9,8-9C85.94,170.34,88.92,174.1,88.92,179.21Zm-14.27,0c0,4,2.21,7.78,6.39,7.78,4.49,0,6.38-3.68,6.38-7.81s-2.13-7.61-6.34-7.61C76.62,171.62,74.65,175.32,74.65,179.26Z"/>
      <path class="cls-3" d="M110.38,180.06c0-3.41,0-6.69.1-8.44h-.08c-.7,2.38-4.21,10.94-6.42,16.46h-1.37c-1.66-4.29-5.29-13.82-6.09-16.49h0c.12,2,.17,6.07.17,9.07v7.42H95.25V170.59h2.1c2.37,6,5.37,13.76,6,15.75h0c.4-1.3,3.87-10,6.3-15.75h2.07v17.49h-1.4Z"/>
      <path class="cls-3" d="M134.55,180.06c0-3.41,0-6.69.1-8.44h-.07c-.7,2.38-4.21,10.94-6.43,16.46h-1.36c-1.67-4.29-5.3-13.82-6.1-16.49h0c.13,2,.18,6.07.18,9.07v7.42h-1.4V170.59h2.1c2.38,6,5.37,13.76,6,15.75h0c.4-1.3,3.86-10,6.29-15.75H136v17.49h-1.4Z"/>
      <path class="cls-3" d="M145.18,182.07l-2.21,6h-1.42L148,170.59h1.66l6.69,17.49h-1.53l-2.25-6Zm6.89-1.29c-1.93-5.16-2.93-7.66-3.28-8.84h0c-.42,1.33-1.54,4.42-3.1,8.84Z"/>
      <path class="cls-3" d="M175.15,188.08H174a13.3,13.3,0,0,1-.18-2.78c-.63,1.2-2,3-5.63,3-5,0-7.6-3.82-7.6-8.8,0-5.22,2.75-9.14,7.88-9.14,3.79,0,6.29,2,6.84,5.2h-1.4c-.74-2.45-2.45-3.92-5.49-3.92-4.35,0-6.33,3.39-6.33,7.79,0,4,1.91,7.58,6.16,7.58s5.56-2.83,5.56-6.66v-.2h-5.61v-1.29h7Z"/>
      <path class="cls-3" d="M192.48,179.5h-8.91v7.29h9.76l-.21,1.29h-11V170.59h10.76v1.29h-9.36v6.33h8.91Z"/>
      <path class="cls-3" d="M199.6,183.37c.52,2.31,2.06,3.67,4.92,3.67,3.17,0,4.39-1.58,4.39-3.47s-.88-3.17-4.7-4.11-5.32-2.14-5.32-4.66c0-2.32,1.69-4.46,5.45-4.46s5.49,2.35,5.72,4.48h-1.45c-.4-1.86-1.61-3.2-4.35-3.2-2.5,0-3.87,1.16-3.87,3.1s1.15,2.65,4.36,3.44c4.93,1.23,5.66,3.2,5.66,5.31,0,2.58-1.89,4.81-5.95,4.81-4.37,0-6-2.54-6.31-4.91Z"/>
      <path class="cls-3" d="M151.88,210.06c0-3.41,0-6.69.1-8.44h-.08c-.7,2.38-4.21,10.94-6.42,16.46h-1.37c-1.66-4.29-5.29-13.82-6.09-16.49H138c.12,2,.17,6.07.17,9.07v7.42h-1.39V200.59h2.1c2.37,6,5.37,13.76,6,15.75h0c.4-1.3,3.87-10,6.3-15.75h2.07v17.49h-1.4Z"/>
      <path class="cls-3" d="M162.27,200.59v10.59c0,4.62,2.6,5.81,5.06,5.81,2.91,0,5.07-1.22,5.07-5.81V200.59h1.42V211.1c0,5.48-2.91,7.18-6.53,7.18-3.46,0-6.47-1.87-6.47-7V200.59Z"/>
      <path class="cls-3" d="M182.62,209.93v8.15H181.2V200.59h6.3c3.45,0,5.28,1.85,5.28,4.6a4,4,0,0,1-3.25,4.1c1.77.42,3,1.59,3,4.56v.68a11.85,11.85,0,0,0,.22,3.55h-1.42a11.89,11.89,0,0,1-.25-3.66V214c0-2.86-.84-4-4.18-4Zm0-1.29h4.2c3.05,0,4.46-1.14,4.46-3.42,0-2.13-1.39-3.35-4.09-3.35h-4.57Z"/>
      <path class="cls-3" d="M199.6,213.37c.52,2.31,2.06,3.67,4.92,3.67,3.17,0,4.39-1.58,4.39-3.47s-.88-3.17-4.7-4.11-5.32-2.14-5.32-4.66c0-2.32,1.69-4.46,5.45-4.46s5.49,2.35,5.72,4.48h-1.45c-.4-1.86-1.61-3.2-4.35-3.2-2.5,0-3.87,1.16-3.87,3.1s1.15,2.65,4.36,3.44c4.93,1.23,5.66,3.2,5.66,5.31,0,2.58-1.89,4.81-5.95,4.81-4.37,0-6-2.54-6.31-4.91Z"/>
    </g>
    <rect id="r-1.1" class="cls-4" x="76.87" y="244.14" width="32.71" height="32.71"/>
    <g id="s-1.1">
      <path class="cls-3" d="M132.47,255.05h1.12v6.09h8.34v-6.09h1.13v14h-1.13v-6.88h-8.34v6.88h-1.12Z"/>
      <path class="cls-3" d="M150.48,264.25l-1.77,4.8h-1.14l5.13-14H154l5.35,14h-1.22l-1.81-4.8Zm5.51-1c-1.54-4.14-2.34-6.14-2.62-7.08h0c-.34,1.07-1.24,3.54-2.49,7.08Z"/>
      <path class="cls-3" d="M164.35,255.05v8.48c0,3.7,2.09,4.65,4.06,4.65,2.32,0,4.05-1,4.05-4.65v-8.48h1.14v8.42c0,4.39-2.33,5.74-5.23,5.74s-5.18-1.49-5.18-5.56v-8.6Z"/>
      <path class="cls-3" d="M182.43,256.09h-4.69v-1h10.54v1h-4.71v13h-1.14Z"/>
    </g>
    <rect id="r-2.1" class="cls-5" x="76.87" y="284.14" width="32.71" height="32.71"/>
    <g id="s-2.1">
      <path class="cls-3" d="M144.58,302.63c0-2.73,0-5.35.08-6.75h-.06c-.56,1.9-3.37,8.75-5.14,13.17h-1.09c-1.33-3.43-4.24-11.06-4.88-13.19h0c.1,1.6.14,4.85.14,7.25v5.94h-1.12v-14h1.68c1.91,4.77,4.3,11,4.82,12.61h0c.32-1,3.09-8,5-12.61h1.66v14h-1.12Z"/>
      <path class="cls-3" d="M163.4,302c0,3.82-2.05,7.3-6.37,7.3-3.95,0-6.25-3.18-6.25-7.2s2.22-7.2,6.39-7.2C161,294.85,163.4,297.87,163.4,302ZM152,302c0,3.21,1.77,6.23,5.11,6.23,3.6,0,5.1-3,5.1-6.25s-1.7-6.09-5.07-6.09C153.55,295.88,152,298.84,152,302Z"/>
      <path class="cls-3" d="M171.43,309.05v-5.26a.68.68,0,0,0-.08-.32l-5-8.42h1.3c1.39,2.37,3.81,6.48,4.41,7.53.6-1,3-5.12,4.53-7.53h1.25l-5.22,8.5a.61.61,0,0,0-.06.3v5.2Z"/>
      <path class="cls-3" d="M190,302.19h-7.13V308h7.81l-.16,1h-8.77v-14h8.61v1h-7.49v5.08H190Z"/>
      <path class="cls-3" d="M195.45,309.05v-14h1.65c2.17,3.35,7.25,11.13,8.12,12.65h0c-.12-2-.1-4.08-.1-6.36v-6.29h1.14v14h-1.53c-2.06-3.23-7.23-11.34-8.22-12.88h0c.1,1.83.08,3.89.08,6.43v6.45Z"/>
    </g>
    <rect id="r-3.1" class="cls-6" x="76.87" y="324.13" width="32.71" height="32.71"/>
    <g id="s-3.1">
      <path class="cls-3" d="M132.47,335h4.91c2.69,0,4.13,1.43,4.13,3.45a3,3,0,0,1-2.15,3.06A3.53,3.53,0,0,1,142,345c0,2.79-2.1,4-4.55,4h-5Zm4.55,6c2.4,0,3.31-.89,3.31-2.5,0-1.37-1-2.48-2.9-2.48h-3.86v5Zm-3.45,7h3.92c1.83,0,3.36-.91,3.36-2.95,0-1.77-1.14-3-3.93-3h-3.35Z"/>
      <path class="cls-3" d="M148.58,344.24l-1.77,4.8h-1.14l5.13-14h1.34l5.35,14h-1.22l-1.81-4.8Zm5.51-1c-1.54-4.14-2.34-6.14-2.62-7.08h0c-.34,1.06-1.24,3.54-2.49,7.08Z"/>
      <path class="cls-3" d="M162.19,345.27c.42,1.86,1.66,2.94,3.94,2.94,2.54,0,3.51-1.26,3.51-2.77s-.69-2.54-3.76-3.3-4.25-1.71-4.25-3.73c0-1.85,1.35-3.57,4.36-3.57s4.39,1.89,4.57,3.59H169.4c-.31-1.48-1.28-2.56-3.47-2.56-2,0-3.1.93-3.1,2.48s.91,2.12,3.49,2.76c3.94,1,4.53,2.56,4.53,4.24,0,2.07-1.51,3.85-4.76,3.85-3.5,0-4.8-2-5.06-3.93Z"/>
    </g>
    <rect id="b-1" class="cls-7" x="69.67" y="233.47" width="165.1" height="132.73"/>
    <rect id="r-4.1" class="cls-4" x="74.25" y="242.33" width="37.7" height="37.7"/>
    <g id="s-4.1">
      <path class="cls-3" d="M132.47,255.05h1.12v6.09h8.34v-6.09h1.13v14h-1.13v-6.88h-8.34v6.88h-1.12Z"/>
      <path class="cls-3" d="M150.48,264.25l-1.77,4.8h-1.14l5.13-14H154l5.35,14h-1.22l-1.81-4.8Zm5.51-1c-1.54-4.14-2.34-6.14-2.62-7.08h0c-.34,1.07-1.24,3.54-2.49,7.08Z"/>
      <path class="cls-3" d="M164.35,255.05v8.48c0,3.7,2.09,4.65,4.06,4.65,2.32,0,4.05-1,4.05-4.65v-8.48h1.14v8.42c0,4.39-2.33,5.74-5.23,5.74s-5.18-1.49-5.18-5.56v-8.6Z"/>
      <path class="cls-3" d="M182.43,256.09h-4.69v-1h10.54v1h-4.71v13h-1.14Z"/>
    </g>
    <rect id="r-5.1" class="cls-8" x="76.89" y="284.15" width="32.71" height="32.71"/>
    <g id="s-5.1">
      <path class="cls-9" d="M144.61,302.65c0-2.73,0-5.36.08-6.76h-.06c-.56,1.9-3.37,8.75-5.14,13.17h-1.1c-1.33-3.43-4.24-11.06-4.88-13.19h0c.1,1.6.14,4.85.14,7.25v5.94H132.5v-14h1.68c1.9,4.78,4.3,11,4.81,12.61h0c.32-1,3.1-8,5-12.61h1.66v14h-1.12Z"/>
      <path class="cls-9" d="M163.42,302c0,3.83-2,7.3-6.37,7.3-4,0-6.25-3.18-6.25-7.2s2.23-7.2,6.39-7.2C161,294.86,163.42,297.88,163.42,302ZM152,302c0,3.21,1.77,6.23,5.11,6.23,3.6,0,5.11-2.94,5.11-6.25s-1.71-6.09-5.07-6.09C153.57,295.89,152,298.85,152,302Z"/>
      <path class="cls-9" d="M171.46,309.06v-5.25a.68.68,0,0,0-.08-.32l-5-8.43h1.31c1.39,2.38,3.81,6.49,4.41,7.54.6-1.05,3-5.12,4.53-7.54h1.24l-5.21,8.5a.63.63,0,0,0-.06.31v5.19Z"/>
      <path class="cls-9" d="M190.05,302.2h-7.13V308h7.81l-.17,1H181.8v-14h8.61v1h-7.49v5.07h7.13Z"/>
      <path class="cls-9" d="M195.48,309.06v-14h1.64c2.17,3.36,7.25,11.13,8.13,12.65h0c-.12-2-.1-4.07-.1-6.35v-6.3h1.13v14h-1.52l-8.23-12.87h0c.1,1.82.08,3.88.08,6.42v6.45Z"/>
    </g>
    <rect id="r-6.1" class="cls-10" x="76.89" y="324.07" width="32.64" height="33"/>
    <g id="s-6.1">
      <path class="cls-9" d="M132.5,335.05h4.9c2.7,0,4.13,1.43,4.13,3.44a3,3,0,0,1-2.15,3.06A3.53,3.53,0,0,1,142,345c0,2.8-2.09,4.05-4.54,4.05h-5Zm4.54,6c2.4,0,3.32-.9,3.32-2.5,0-1.37-1-2.48-2.9-2.48H133.6v5Zm-3.44,7h3.91c1.84,0,3.36-.92,3.36-3,0-1.76-1.13-3-3.93-3H133.6Z"/>
      <path class="cls-9" d="M148.6,344.24l-1.76,4.81H145.7l5.13-14h1.33l5.35,14h-1.22l-1.81-4.81Zm5.52-1c-1.55-4.13-2.35-6.13-2.63-7.08h0c-.34,1.07-1.23,3.54-2.48,7.08Z"/>
      <path class="cls-9" d="M162.22,345.28c.42,1.85,1.65,2.94,3.94,2.94,2.54,0,3.51-1.27,3.51-2.77s-.7-2.54-3.76-3.3-4.26-1.71-4.26-3.73c0-1.85,1.35-3.57,4.36-3.57s4.4,1.88,4.58,3.59h-1.16c-.32-1.49-1.29-2.56-3.48-2.56-2,0-3.09.93-3.09,2.47s.91,2.13,3.48,2.77c3.94,1,4.53,2.55,4.53,4.24,0,2.07-1.51,3.85-4.76,3.85-3.5,0-4.79-2-5.05-3.93Z"/>
    </g>
    <polygon id="w-1" class="cls-11" points="364.2 146.26 324.7 455.98 341.13 455.98 353.31 465.71 377.05 468.76 394.09 473.63 408.7 473.63 418.44 480.32 428.18 480.32 449.49 480.32 484.19 484.59 501.23 489.46 509.15 499.2 509.15 491.28 515.84 491.89 515.84 499.2 523.76 492.5 537.76 493.72 571.85 499.2 579.15 506.5 583.41 524.37 612.02 527.53 612.02 539.98 607.15 545.46 607.76 561.9 616.89 561.9 621.76 543.02 633.33 546.07 641.25 540.59 652.81 535.72 652.81 527.53 728.9 544.24 728.9 534.5 738.64 537.55 738.64 547.89 749.6 549.72 749.6 466.93 765.43 468.76 854.31 497.98 854.31 390.84 792.21 354.08 786.74 349.04 759.34 334.83 734.38 319.62 716.73 309.06 643.68 269.05 635.77 260.57 637.59 249 624.81 246.57 616.89 253.26 446.45 174.13 365.75 134.38 364.2 146.26"/>
    <polygon id="w-2" class="cls-12" points="930.41 879.5 903.63 903.76 879.4 925.22 866.15 936.41 820.46 936.41 801.94 928.01 779.23 917.75 760.89 931.75 693.71 928.01 684.38 918.69 664.79 923.35 645.2 907.96 621.87 907.96 602.28 918.69 574.29 915.89 520.18 907.96 506.18 919.62 467 927.08 445.54 914.95 423.15 871.1 413.82 844.98 396.09 824.46 401.69 807.66 418.48 802.06 441.68 793.67 453 798.33 487.52 787.14 536.04 779.67 536.04 769.41 561.23 761.01 561.23 772.21 574.29 768.48 601.35 766.61 618.14 761.01 635.87 761.01 649.86 766.61 648 784.34 679.72 789 692.78 786.2 704.91 790.87 706.77 800.2 729.16 810.46 747.82 817.92 887.77 818.86 914.83 831.92 917.63 848.71 903.63 848.71 900.83 858.98 917.63 860.84 930.41 879.5"/>
    <polyline id="c-2" class="cls-2" points="557.74 840.12 259.89 673.68 9.57 673.68"/>
    <g id="t-1.2">
      <path class="cls-3" d="M29.35,659.65h-8.9v7.28H30.2l-.2,1.29H19.05V650.73H29.8V652H20.45v6.34h8.9Z"/>
      <path class="cls-3" d="M36.15,650.73H46.77V652H37.54v6.54H46.2v1.29H37.54v8.37H36.15Z"/>
      <path class="cls-3" d="M52.37,650.73H63V652H53.77v6.54h8.66v1.29H53.77v8.37h-1.4Z"/>
      <path class="cls-3" d="M83.59,659.35c0,4.78-2.55,9.12-8,9.12-4.93,0-7.8-4-7.8-9s2.78-9,8-9C80.61,650.48,83.59,654.25,83.59,659.35Zm-14.26,0c0,4,2.21,7.78,6.38,7.78,4.5,0,6.38-3.68,6.38-7.8s-2.13-7.61-6.33-7.61C71.29,651.77,69.33,655.46,69.33,659.4Z"/>
      <path class="cls-3" d="M89.92,668.22V650.73H92c2.71,4.19,9,13.9,10.15,15.8h0c-.15-2.51-.12-5.09-.12-7.94v-7.86h1.41v17.49h-1.9c-2.58-4-9-14.16-10.28-16.09h0c.12,2.29.1,4.86.1,8v8.06Z"/>
      <path class="cls-3" d="M111.07,650.73h5.82c4.8,0,8.13,3.35,8.13,8.59s-3.25,8.9-8.16,8.9h-5.79Zm1.4,16.2h4.19c4.6,0,6.86-3.23,6.86-7.53,0-3.83-2-7.38-6.86-7.38h-4.19Z"/>
      <path class="cls-3" d="M132.79,660.07v8.15h-1.42V650.73h6.3c3.46,0,5.29,1.85,5.29,4.6a4,4,0,0,1-3.26,4.1c1.78.42,3,1.59,3,4.57v.68a11.81,11.81,0,0,0,.22,3.54h-1.42a11.85,11.85,0,0,1-.25-3.65v-.45c0-2.85-.84-4-4.18-4Zm0-1.28H137c3,0,4.47-1.14,4.47-3.43,0-2.13-1.39-3.34-4.1-3.34h-4.57Z"/>
      <path class="cls-3" d="M160,659.65h-8.91v7.28h9.76l-.21,1.29H149.72V650.73h10.75V652h-9.35v6.34H160Z"/>
      <path class="cls-3" d="M182,660.21c0-3.42,0-6.69.1-8.45H182c-.71,2.38-4.22,10.94-6.43,16.46h-1.36c-1.67-4.28-5.3-13.82-6.1-16.48H168c.12,2,.17,6.06.17,9.06v7.42h-1.39V650.73h2.1c2.38,6,5.37,13.77,6,15.75H175c.4-1.29,3.86-10,6.29-15.75h2.07v17.49H182Z"/>
      <path class="cls-3" d="M201.3,659.65h-8.91v7.28h9.76l-.2,1.29H191V650.73h10.76V652h-9.36v6.34h8.91Z"/>
      <path class="cls-3" d="M208.09,668.22V650.73h2.06c2.71,4.19,9.06,13.9,10.15,15.8h0c-.15-2.51-.13-5.09-.13-7.94v-7.86h1.42v17.49h-1.91c-2.58-4-9-14.16-10.27-16.09h0c.13,2.29.1,4.86.1,8v8.06Z"/>
      <path class="cls-3" d="M232.74,652h-5.86v-1.29h13.17V652h-5.88v16.2h-1.43Z"/>
      <path class="cls-3" d="M132.87,680.73h5.82c4.81,0,8.13,3.35,8.13,8.59s-3.25,8.9-8.16,8.9h-5.79Zm1.4,16.2h4.19c4.6,0,6.86-3.23,6.86-7.53,0-3.83-2-7.38-6.86-7.38h-4.19Z"/>
      <path class="cls-3" d="M154.64,680.73v10.59c0,4.62,2.61,5.81,5.07,5.81,2.91,0,5.06-1.22,5.06-5.81V680.73h1.43v10.51c0,5.48-2.91,7.18-6.54,7.18-3.46,0-6.47-1.87-6.47-7V680.73Z"/>
      <path class="cls-3" d="M197.6,690.21c0-3.42,0-6.69.1-8.45h-.08c-.7,2.38-4.21,10.94-6.42,16.46h-1.36c-1.67-4.28-5.3-13.82-6.1-16.48h-.05c.12,2,.17,6.06.17,9.06v7.42h-1.39V680.73h2.1c2.38,6,5.37,13.77,6,15.75h0c.41-1.29,3.87-10,6.3-15.75H199v17.49h-1.4Z"/>
      <path class="cls-3" d="M208,680.73v10.59c0,4.62,2.61,5.81,5.07,5.81,2.9,0,5.06-1.22,5.06-5.81V680.73h1.43v10.51c0,5.48-2.92,7.18-6.54,7.18-3.46,0-6.47-1.87-6.47-7V680.73Z"/>
      <path class="cls-3" d="M228.34,690.07v8.15h-1.42V680.73h6.3c3.46,0,5.28,1.85,5.28,4.6a4,4,0,0,1-3.25,4.1c1.78.42,3,1.59,3,4.57v.68a11.81,11.81,0,0,0,.22,3.54H237a11.85,11.85,0,0,1-.25-3.65v-.45c0-2.85-.84-4-4.18-4Zm0-1.28h4.2c3.05,0,4.46-1.14,4.46-3.43,0-2.13-1.38-3.34-4.09-3.34h-4.57Z"/>
    </g>
  </g>
  <g id="Window">
    <polyline id="c-3" class="cls-2" points="930.41 504.01 1494.21 151.81 1659.71 151.81"/>
    <g id="t-1.3">
      <path class="cls-3" d="M1497.57,128.52h5.82c4.81,0,8.13,3.35,8.13,8.59s-3.25,8.9-8.15,8.9h-5.8Zm1.4,16.2h4.2c4.59,0,6.85-3.23,6.85-7.53,0-3.83-2-7.38-6.85-7.38H1499Z"/>
      <path class="cls-3" d="M1532.59,137.14c0,4.78-2.55,9.12-7.95,9.12-4.94,0-7.81-4-7.81-9s2.78-9,8-9C1529.62,128.27,1532.59,132,1532.59,137.14Zm-14.26.05c0,4,2.21,7.78,6.38,7.78,4.5,0,6.38-3.68,6.38-7.8s-2.13-7.61-6.33-7.61C1520.29,129.56,1518.33,133.25,1518.33,137.19Z"/>
      <path class="cls-3" d="M1554.05,138c0-3.42,0-6.69.1-8.45h-.07c-.7,2.38-4.21,10.94-6.42,16.46h-1.37c-1.67-4.28-5.3-13.81-6.1-16.48h0c.13,2,.18,6.06.18,9.06V146h-1.4V128.52h2.1c2.38,6,5.37,13.77,6,15.75h0c.4-1.29,3.86-10,6.29-15.75h2.07V146h-1.4Z"/>
      <path class="cls-3" d="M1578.23,138c0-3.42,0-6.69.1-8.45h-.08c-.7,2.38-4.21,10.94-6.42,16.46h-1.37c-1.66-4.28-5.29-13.81-6.09-16.48h0c.12,2,.17,6.06.17,9.06V146h-1.39V128.52h2.1c2.38,6,5.37,13.77,6,15.75h0c.4-1.29,3.87-10,6.3-15.75h2.07V146h-1.4Z"/>
      <path class="cls-3" d="M1588.85,140l-2.2,6h-1.43l6.41-17.49h1.67L1600,146h-1.53l-2.26-6Zm6.9-1.29c-1.94-5.17-2.93-7.66-3.28-8.84h0c-.42,1.33-1.54,4.42-3.11,8.84Z"/>
      <path class="cls-3" d="M1618.83,146h-1.16a13.25,13.25,0,0,1-.18-2.77c-.63,1.2-2,3-5.63,3-5,0-7.61-3.82-7.61-8.79,0-5.23,2.76-9.15,7.89-9.15,3.79,0,6.29,2,6.84,5.2h-1.41c-.74-2.44-2.44-3.91-5.48-3.91-4.36,0-6.34,3.39-6.34,7.78,0,4,1.91,7.59,6.17,7.59s5.56-2.84,5.56-6.66v-.2h-5.61v-1.29h7Z"/>
      <path class="cls-3" d="M1636.16,137.44h-8.91v7.28H1637l-.2,1.29h-11V128.52h10.75v1.29h-9.35v6.34h8.91Z"/>
      <path class="cls-3" d="M1643.27,141.3c.53,2.32,2.07,3.68,4.92,3.68,3.18,0,4.39-1.58,4.39-3.47s-.87-3.17-4.7-4.12-5.31-2.14-5.31-4.66c0-2.31,1.69-4.46,5.44-4.46s5.5,2.35,5.72,4.49h-1.45c-.39-1.86-1.6-3.21-4.34-3.21-2.5,0-3.87,1.17-3.87,3.1s1.14,2.65,4.36,3.45c4.92,1.22,5.65,3.2,5.65,5.3,0,2.59-1.88,4.81-5.94,4.81-4.38,0-6-2.54-6.32-4.91Z"/>
      <path class="cls-3" d="M1497.57,158.52h10.63v1.29H1499v6.55h8.66v1.29H1499V176h-1.4Z"/>
      <path class="cls-3" d="M1524.11,167.44h-8.91v7.28H1525l-.21,1.29h-11V158.52h10.75v1.29h-9.35v6.34h8.91Z"/>
      <path class="cls-3" d="M1530.9,176V158.52H1533c2.71,4.19,9,13.9,10.15,15.8h0c-.15-2.51-.13-5.09-.13-7.94v-7.86h1.42V176h-1.9c-2.58-4-9-14.16-10.28-16.09h0c.12,2.29.1,4.86.1,8V176Z"/>
      <path class="cls-3" d="M1562.36,167.44h-8.91v7.28h9.76L1563,176h-11V158.52h10.75v1.29h-9.35v6.34h8.91Zm-4.12-13.94,3.29,3.18h-1.68l-2.39-2.29-2.6,2.29h-1.61l3.47-3.18Z"/>
      <path class="cls-3" d="M1573.54,159.81h-5.86v-1.29h13.17v1.29H1575V176h-1.43Z"/>
      <path class="cls-3" d="M1587.37,167.87V176H1586V158.52h6.3c3.46,0,5.28,1.86,5.28,4.6a4,4,0,0,1-3.25,4.1c1.78.42,3,1.59,3,4.57v.68a11.81,11.81,0,0,0,.22,3.54h-1.42a11.85,11.85,0,0,1-.25-3.65v-.45c0-2.85-.84-4-4.18-4Zm0-1.29h4.2c3,0,4.46-1.14,4.46-3.42s-1.38-3.35-4.09-3.35h-4.57Z"/>
      <path class="cls-3" d="M1614.6,167.44h-8.9v7.28h9.75l-.2,1.29h-11V158.52h10.75v1.29h-9.35v6.34h8.9Z"/>
      <path class="cls-3" d="M1621.72,171.3c.53,2.32,2.07,3.68,4.92,3.68,3.18,0,4.39-1.58,4.39-3.47s-.87-3.17-4.7-4.12-5.31-2.14-5.31-4.66c0-2.31,1.69-4.46,5.44-4.46s5.5,2.35,5.72,4.49h-1.45c-.39-1.86-1.6-3.21-4.34-3.21-2.5,0-3.87,1.17-3.87,3.1s1.14,2.65,4.36,3.45c4.92,1.22,5.66,3.2,5.66,5.3,0,2.59-1.89,4.81-6,4.81-4.38,0-6-2.54-6.32-4.91Z"/>
    </g>
    <rect id="r-1.3" class="cls-4" x="1507.21" y="200.67" width="32.71" height="32.71"/>
    <g id="s-1.3">
      <path class="cls-3" d="M1562.81,211.58h1.12v6.09h8.34v-6.09h1.13v14h-1.13V218.7h-8.34v6.88h-1.12Z"/>
      <path class="cls-3" d="M1580.82,220.78l-1.77,4.8h-1.14l5.13-14h1.34l5.35,14h-1.22l-1.81-4.8Zm5.51-1c-1.54-4.13-2.34-6.13-2.62-7.07h0c-.34,1.06-1.24,3.54-2.49,7.07Z"/>
      <path class="cls-3" d="M1594.69,211.58v8.48c0,3.7,2.09,4.65,4.06,4.65,2.32,0,4-1,4-4.65v-8.48h1.14V220c0,4.38-2.33,5.74-5.23,5.74s-5.18-1.49-5.18-5.57v-8.59Z"/>
      <path class="cls-3" d="M1612.77,212.61h-4.69v-1h10.54v1h-4.71v13h-1.14Z"/>
    </g>
    <rect id="r-2.3" class="cls-5" x="1507.26" y="241.29" width="32.71" height="32.71"/>
    <g id="s-2.3">
      <path class="cls-3" d="M1575,259.78c0-2.73,0-5.35.08-6.76H1575c-.56,1.91-3.37,8.76-5.14,13.18h-1.09c-1.34-3.43-4.24-11.06-4.88-13.2h0c.1,1.6.14,4.86.14,7.26v5.94h-1.12v-14h1.68c1.9,4.77,4.3,11,4.82,12.61h0c.32-1,3.09-8,5-12.61h1.66v14H1575Z"/>
      <path class="cls-3" d="M1593.78,259.1c0,3.82-2,7.3-6.37,7.3-4,0-6.25-3.18-6.25-7.2s2.23-7.2,6.39-7.2C1591.4,252,1593.78,255,1593.78,259.1Zm-11.41,0c0,3.21,1.76,6.22,5.1,6.22,3.6,0,5.11-2.94,5.11-6.24s-1.7-6.09-5.07-6.09C1583.94,253,1582.37,256,1582.37,259.14Z"/>
      <path class="cls-3" d="M1601.82,266.2v-5.26a.68.68,0,0,0-.08-.32l-5-8.42h1.31c1.39,2.37,3.81,6.48,4.41,7.53.6-1.05,3-5.12,4.53-7.53h1.24l-5.21,8.5a.61.61,0,0,0-.06.3v5.2Z"/>
      <path class="cls-3" d="M1620.41,259.33h-7.13v5.83h7.81l-.16,1h-8.77v-14h8.61v1h-7.49v5.07h7.13Z"/>
      <path class="cls-3" d="M1625.84,266.2v-14h1.65c2.17,3.35,7.25,11.13,8.12,12.64h0c-.12-2-.1-4.07-.1-6.35V252.2h1.14v14h-1.53c-2.07-3.23-7.23-11.34-8.22-12.88h0c.1,1.83.09,3.89.09,6.42v6.46Z"/>
    </g>
    <rect id="r-3.3" class="cls-6" x="1507.21" y="280.66" width="32.71" height="32.71"/>
    <g id="s-3.3">
      <path class="cls-3" d="M1562.81,291.57h4.91c2.69,0,4.13,1.43,4.13,3.44a3,3,0,0,1-2.15,3.06,3.55,3.55,0,0,1,2.65,3.46c0,2.79-2.1,4-4.55,4h-5Zm4.55,6c2.4,0,3.31-.89,3.31-2.5,0-1.37-1-2.48-2.9-2.48h-3.86v5Zm-3.45,7h3.92c1.83,0,3.36-.91,3.36-3,0-1.76-1.14-3-3.93-3h-3.35Z"/>
      <path class="cls-3" d="M1578.92,300.77l-1.77,4.8H1576l5.13-14h1.34l5.35,14h-1.22l-1.81-4.8Zm5.51-1c-1.54-4.13-2.34-6.13-2.62-7.07h0c-.34,1.06-1.24,3.54-2.49,7.07Z"/>
      <path class="cls-3" d="M1592.53,301.8c.42,1.85,1.66,2.94,3.94,2.94,2.54,0,3.51-1.26,3.51-2.77s-.69-2.54-3.76-3.3S1592,297,1592,294.94c0-1.85,1.35-3.57,4.36-3.57s4.39,1.88,4.57,3.59h-1.16c-.31-1.48-1.28-2.56-3.47-2.56-2,0-3.1.93-3.1,2.48s.91,2.12,3.49,2.76c3.94,1,4.53,2.56,4.53,4.24,0,2.07-1.51,3.85-4.76,3.85-3.5,0-4.8-2-5.06-3.93Z"/>
    </g>
    <rect id="b-3" class="cls-7" x="1495.78" y="194.35" width="165.1" height="132.73"/>
    <rect id="r-4.3" class="cls-13" x="1507.21" y="200.67" width="32.71" height="32.71"/>
    <g id="s-4.3">
      <path class="cls-9" d="M1562.83,211.58H1564v6.09h8.34v-6.09h1.12v14h-1.12V218.7H1564v6.88h-1.12Z"/>
      <path class="cls-9" d="M1580.84,220.78l-1.77,4.8h-1.14l5.13-14h1.34l5.35,14h-1.23l-1.8-4.8Zm5.51-1c-1.54-4.14-2.34-6.14-2.62-7.08h0c-.34,1.06-1.24,3.54-2.49,7.08Z"/>
      <path class="cls-9" d="M1594.71,211.58v8.48c0,3.7,2.08,4.65,4,4.65,2.33,0,4.06-1,4.06-4.65v-8.48H1604V220c0,4.39-2.33,5.74-5.24,5.74-2.76,0-5.17-1.49-5.17-5.57v-8.59Z"/>
      <path class="cls-9" d="M1612.79,212.61h-4.69v-1h10.54v1h-4.71v13h-1.14Z"/>
    </g>
    <g id="s-5.3">
      <path class="cls-3" d="M1575,259.79c0-2.73,0-5.35.08-6.75H1575c-.57,1.9-3.38,8.75-5.15,13.17h-1.09c-1.33-3.43-4.24-11.06-4.88-13.19h0c.1,1.6.14,4.85.14,7.25v5.94h-1.12v-14h1.69c1.9,4.78,4.29,11,4.81,12.61h0c.32-1,3.09-8,5-12.61h1.65v14H1575Z"/>
      <path class="cls-3" d="M1593.81,259.11c0,3.82-2,7.3-6.37,7.3-4,0-6.25-3.18-6.25-7.2s2.23-7.2,6.39-7.2C1591.42,252,1593.81,255,1593.81,259.11Zm-11.42,0c0,3.21,1.77,6.23,5.11,6.23,3.6,0,5.11-2.95,5.11-6.25s-1.71-6.09-5.07-6.09C1584,253,1582.39,256,1582.39,259.15Z"/>
      <path class="cls-3" d="M1601.84,266.21V261a.76.76,0,0,0-.08-.33l-5-8.42h1.3c1.4,2.37,3.81,6.49,4.42,7.54.6-1.05,3-5.13,4.53-7.54h1.24l-5.21,8.5a.6.6,0,0,0-.07.3v5.2Z"/>
      <path class="cls-3" d="M1620.43,259.35h-7.13v5.83h7.81l-.16,1h-8.77v-14h8.61v1h-7.49v5.08h7.13Z"/>
      <path class="cls-3" d="M1625.86,266.21v-14h1.65c2.17,3.36,7.25,11.13,8.12,12.65h0c-.13-2-.11-4.08-.11-6.36v-6.29h1.14v14h-1.52l-8.23-12.88h0c.1,1.83.08,3.89.08,6.43v6.45Z"/>
    </g>
    <g id="s-6.3">
      <path class="cls-9" d="M1562.81,291.57h4.91c2.69,0,4.13,1.43,4.13,3.44a3,3,0,0,1-2.15,3.06,3.55,3.55,0,0,1,2.65,3.46c0,2.79-2.1,4-4.55,4h-5Zm4.55,6c2.4,0,3.31-.89,3.31-2.5,0-1.37-1-2.48-2.9-2.48h-3.86v5Zm-3.45,7h3.92c1.83,0,3.36-.91,3.36-3,0-1.76-1.14-3-3.93-3h-3.35Z"/>
      <path class="cls-9" d="M1578.92,300.77l-1.77,4.8H1576l5.13-14h1.34l5.35,14h-1.22l-1.81-4.8Zm5.51-1c-1.54-4.13-2.34-6.13-2.62-7.07h0c-.34,1.06-1.24,3.54-2.49,7.07Z"/>
      <path class="cls-9" d="M1592.53,301.8c.42,1.85,1.66,2.94,3.94,2.94,2.54,0,3.51-1.26,3.51-2.77s-.69-2.54-3.76-3.3S1592,297,1592,294.94c0-1.85,1.35-3.57,4.36-3.57s4.39,1.88,4.57,3.59h-1.16c-.31-1.48-1.28-2.56-3.47-2.56-2,0-3.1.93-3.1,2.48s.91,2.12,3.49,2.76c3.94,1,4.53,2.56,4.53,4.24,0,2.07-1.51,3.85-4.76,3.85-3.5,0-4.8-2-5.06-3.93Z"/>
    </g>
    <rect id="r-5.3" class="cls-14" x="1504.84" y="238.14" width="37.7" height="37.7"/>
    <rect id="r-6.3" class="cls-10" x="1507.29" y="280.52" width="32.64" height="33"/>
    <polygon id="f-1" class="cls-11" points="879.4 400.76 879.4 504.01 942.63 524.37 940.36 431.52 879.4 400.76"/>
  </g>
</svg>
