<svg xmlns="http://www.w3.org/2000/svg" width="24in" height="15.99in" viewBox="0 0 1728 1151">
  <defs>
    <style>
      .cls-1, .cls-8 {
        fill: #fff;
      }

      .cls-1 {
        opacity: 0.7;
      }

      .cls-2 {
        fill: #93ce9b;
        stroke: #000;
        opacity: 0.5;
      }

      .cls-11, .cls-12, .cls-13, .cls-14, .cls-15, .cls-2, .cls-3, .cls-5, .cls-6, .cls-7, .cls-9 {
        stroke-miterlimit: 10;
      }

      .cls-13, .cls-2 {
        stroke-width: 2px;
      }

      .cls-13, .cls-15, .cls-3 {
        fill: none;
      }

      .cls-12, .cls-13, .cls-15, .cls-3, .cls-5, .cls-6, .cls-7 {
        stroke: #231f20;
      }

      .cls-3 {
        stroke-width: 0.75px;
      }

      .cls-4 {
        fill: #302a2b;
      }

      .cls-5 {
        fill: #d76b7d;
      }

      .cls-11, .cls-12, .cls-14, .cls-5, .cls-6, .cls-7, .cls-9 {
        stroke-width: 0.5px;
      }

      .cls-6 {
        fill: #f8e69a;
      }

      .cls-7 {
        fill: #74bc69;
      }

      .cls-9 {
        fill: #e2b7c0;
      }

      .cls-11, .cls-14, .cls-9 {
        stroke: #a7a9ac;
      }

      .cls-10 {
        fill: #d6d6d6;
      }

      .cls-11 {
        fill: #e1efdf;
      }

      .cls-12 {
        fill: #f7e599;
      }

      .cls-14 {
        fill: #f9f4de;
      }
    </style>
  </defs>
  <g id="Impact">
    <polyline id="c-4" class="cls-3" points="891.97 576.3 1415.89 230.26 1531.88 230.26"/>
    <g id="t-1.4">
      <path class="cls-4" d="M1426.83,207.37v17.49h-1.4V207.37Z"/>
      <path class="cls-4" d="M1449.59,216.85c0-3.42,0-6.69.1-8.44h-.08c-.7,2.37-4.21,10.93-6.42,16.45h-1.36c-1.67-4.28-5.3-13.81-6.1-16.48h0c.12,2,.17,6.06.17,9.06v7.42h-1.39V207.37h2.1c2.38,6,5.37,13.77,6,15.76h0c.4-1.3,3.87-10,6.3-15.76H1451v17.49h-1.4Z"/>
      <path class="cls-4" d="M1458.63,207.37h6.27c3.21,0,5.42,1.78,5.42,4.89s-2.19,5-5.59,5h-4.67v7.6h-1.43Zm1.43,8.61h4.78c2.8,0,4-1.48,4-3.67,0-2.34-1.55-3.65-3.88-3.65h-4.88Z"/>
      <path class="cls-4" d="M1476.41,218.86l-2.2,6h-1.43l6.42-17.49h1.66l6.69,17.49H1486l-2.26-6Zm6.9-1.29c-1.94-5.17-2.93-7.66-3.28-8.84h0c-.42,1.33-1.54,4.42-3.1,8.84Z"/>
      <path class="cls-4" d="M1506.09,220.17a6.4,6.4,0,0,1-6.6,4.89c-5,0-7.68-4-7.68-8.92,0-4.72,2.6-9,7.71-9,3.79,0,6,2.11,6.59,5h-1.4a5,5,0,0,0-5.26-3.75c-4.32,0-6.13,4-6.13,7.71s1.78,7.66,6.23,7.66a5.08,5.08,0,0,0,5.13-3.61Z"/>
      <path class="cls-4" d="M1516.05,208.66h-5.85v-1.29h13.16v1.29h-5.88v16.2h-1.43Z"/>
    </g>
  </g>
  <g id="Wall">
    <polyline id="c-1" class="cls-3" points="528.77 710.99 217.84 553.64 52.34 553.64"/>
    <g id="t-1.1">
      <path class="cls-4" d="M144,546.41l-4.84-17.49h1.46c1.18,4.28,3.79,13.82,4.19,15.87h0c.33-1.66,3.18-11.25,4.4-15.87h1.54c1.15,4.26,3.92,14.45,4.2,15.84h0c.55-2.5,3.45-11.7,4.63-15.84h1.43l-5.34,17.49h-1.6c-1.14-4.11-3.84-14.14-4.15-15.67h0c-.46,2.29-3.13,11.34-4.37,15.67Z"/>
      <path class="cls-4" d="M167.09,540.41l-2.2,6h-1.43l6.42-17.49h1.66l6.69,17.49H176.7l-2.26-6Zm6.9-1.29c-1.94-5.16-2.93-7.66-3.28-8.84h0c-.42,1.33-1.54,4.42-3.1,8.84Z"/>
      <path class="cls-4" d="M183.81,528.92h1.4v16.2h9.38l-.25,1.29H183.81Z"/>
      <path class="cls-4" d="M199.79,528.92h1.4v16.2h9.38l-.25,1.29H199.79Z"/>
      <path class="cls-4" d="M80,558.92h5.82c4.8,0,8.13,3.35,8.13,8.6s-3.25,8.89-8.16,8.89H80Zm1.4,16.2h4.19c4.6,0,6.85-3.23,6.85-7.53,0-3.83-2-7.38-6.85-7.38H81.44Z"/>
      <path class="cls-4" d="M102,570.41l-2.2,6H98.36l6.42-17.49h1.66l6.69,17.49H111.6l-2.26-6Zm6.9-1.29c-1.94-5.16-2.93-7.66-3.28-8.84h0c-.42,1.33-1.54,4.42-3.1,8.84Z"/>
      <path class="cls-4" d="M133.84,568.4c0-3.41,0-6.69.1-8.44h-.07c-.7,2.37-4.21,10.93-6.42,16.45h-1.37c-1.66-4.28-5.3-13.81-6.1-16.48h0c.13,2,.18,6.06.18,9.06v7.42h-1.4V558.92h2.1c2.38,6,5.37,13.77,6,15.76h0c.4-1.3,3.86-10,6.29-15.76h2.07v17.49h-1.4Z"/>
      <path class="cls-4" d="M144.47,570.41l-2.21,6h-1.42l6.41-17.49h1.67l6.68,17.49h-1.53l-2.25-6Zm6.89-1.29c-1.93-5.16-2.93-7.66-3.28-8.84h0c-.43,1.33-1.55,4.42-3.11,8.84Z"/>
      <path class="cls-4" d="M174.44,576.41h-1.16a12.79,12.79,0,0,1-.17-2.77c-.64,1.2-2,3-5.64,3-5,0-7.6-3.82-7.6-8.79,0-5.22,2.75-9.15,7.88-9.15,3.79,0,6.29,2,6.84,5.21h-1.4c-.74-2.45-2.45-3.92-5.49-3.92-4.35,0-6.33,3.39-6.33,7.78,0,4,1.91,7.59,6.16,7.59s5.56-2.84,5.56-6.66v-.2h-5.61v-1.29h7Z"/>
      <path class="cls-4" d="M191.77,567.84h-8.91v7.28h9.76l-.2,1.29h-11V558.92h10.76v1.29h-9.36v6.34h8.91Z"/>
      <path class="cls-4" d="M198.89,571.71c.52,2.31,2.07,3.67,4.92,3.67,3.17,0,4.39-1.58,4.39-3.47s-.87-3.17-4.7-4.12-5.31-2.14-5.31-4.66c0-2.31,1.68-4.46,5.44-4.46s5.49,2.35,5.72,4.49H207.9c-.4-1.86-1.61-3.2-4.35-3.2-2.5,0-3.86,1.16-3.86,3.09s1.14,2.65,4.35,3.45c4.93,1.23,5.66,3.2,5.66,5.3,0,2.59-1.88,4.81-5.95,4.81-4.37,0-6-2.54-6.31-4.9Z"/>
    </g>
    <rect id="r-1.1" class="cls-5" x="68.25" y="599.08" width="32.71" height="32.71"/>
    <g id="s-1.1">
      <path class="cls-4" d="M123.85,610H125v6.08h8.34V610h1.12v14h-1.12v-6.89H125V624h-1.12Z"/>
      <path class="cls-4" d="M141.65,610v14h-1.12V610Z"/>
      <path class="cls-4" d="M158.38,624h-.93a10.54,10.54,0,0,1-.14-2.23c-.51,1-1.61,2.39-4.51,2.39-4,0-6.09-3.06-6.09-7,0-4.18,2.21-7.32,6.31-7.32,3,0,5,1.59,5.48,4.16h-1.13a4.13,4.13,0,0,0-4.39-3.13c-3.48,0-5.07,2.71-5.07,6.23,0,3.18,1.53,6.07,4.94,6.07s4.45-2.27,4.45-5.33v-.16h-4.49v-1h5.57Z"/>
      <path class="cls-4" d="M164,610h1.12v6.08h8.34V610h1.12v14h-1.12v-6.89h-8.34V624H164Z"/>
    </g>
    <rect id="r-2.1" class="cls-6" x="68.29" y="639.7" width="32.71" height="32.71"/>
    <g id="s-2.1">
      <path class="cls-4" d="M136,658.2c0-2.74,0-5.36.08-6.76H136c-.57,1.9-3.37,8.75-5.14,13.17h-1.1c-1.33-3.43-4.24-11.06-4.88-13.19h0c.1,1.6.14,4.85.14,7.25v5.94H123.9v-14h1.68c1.9,4.78,4.3,11,4.81,12.61h0c.32-1,3.1-8,5-12.61h1.66v14H136Z"/>
      <path class="cls-4" d="M151.49,657.75h-7.13v5.83h7.81l-.17,1h-8.76v-14h8.6v1h-7.48v5.08h7.13Z"/>
      <path class="cls-4" d="M156.92,650.61h4.66c3.84,0,6.5,2.68,6.5,6.88s-2.6,7.12-6.53,7.12h-4.63Zm1.12,13h3.35c3.68,0,5.49-2.59,5.49-6,0-3.06-1.63-5.91-5.49-5.91H158Z"/>
      <path class="cls-4" d="M174.28,650.61v14h-1.12v-14Z"/>
      <path class="cls-4" d="M181.46,650.61v8.48c0,3.69,2.08,4.65,4,4.65,2.33,0,4.05-1,4.05-4.65v-8.48h1.14V659c0,4.39-2.33,5.75-5.23,5.75s-5.18-1.49-5.18-5.57v-8.59Z"/>
      <path class="cls-4" d="M208.83,658.2c0-2.74,0-5.36.08-6.76h-.06c-.57,1.9-3.37,8.75-5.14,13.17h-1.1c-1.33-3.43-4.24-11.06-4.88-13.19h0c.1,1.6.14,4.85.14,7.25v5.94h-1.11v-14h1.68c1.9,4.78,4.29,11,4.81,12.61h0c.32-1,3.09-8,5-12.61H210v14h-1.12Z"/>
    </g>
    <rect id="r-3.1" class="cls-7" x="68.25" y="679.08" width="32.71" height="32.71"/>
    <g id="s-3.1">
      <path class="cls-4" d="M123.85,690H125v13h7.51l-.21,1h-8.42Z"/>
      <path class="cls-4" d="M148,696.89c0,3.82-2,7.29-6.37,7.29-4,0-6.25-3.18-6.25-7.19s2.23-7.2,6.39-7.2C145.61,689.79,148,692.8,148,696.89Zm-11.42,0c0,3.2,1.77,6.22,5.11,6.22,3.6,0,5.11-2.94,5.11-6.24s-1.71-6.09-5.07-6.09C138.14,690.82,136.57,693.78,136.57,696.93Z"/>
      <path class="cls-4" d="M155.48,704l-3.87-14h1.17c.94,3.42,3,11.06,3.35,12.69h0c.26-1.32,2.54-9,3.52-12.69h1.23c.92,3.4,3.14,11.56,3.36,12.67h0c.44-2,2.76-9.36,3.71-12.67h1.14l-4.27,14h-1.28c-.91-3.29-3.07-11.31-3.32-12.54h0c-.36,1.84-2.5,9.08-3.5,12.54Z"/>
    </g>
    <rect id="b-1" class="cls-8" x="56.81" y="592.77" width="165.1" height="132.73"/>
    <rect id="r-4.1" class="cls-9" x="68.25" y="599.08" width="32.71" height="32.71"/>
    <g id="s-4.1">
      <path class="cls-10" d="M123.87,610H125v6.08h8.34V610h1.12v14h-1.12v-6.89H125V624h-1.12Z"/>
      <path class="cls-10" d="M141.67,610v14h-1.12V610Z"/>
      <path class="cls-10" d="M158.4,624h-.93a10.54,10.54,0,0,1-.14-2.23c-.51,1-1.62,2.39-4.51,2.39-4,0-6.09-3.06-6.09-7,0-4.18,2.21-7.32,6.31-7.32,3,0,5,1.59,5.47,4.16h-1.12a4.13,4.13,0,0,0-4.39-3.13c-3.48,0-5.07,2.71-5.07,6.23,0,3.18,1.53,6.07,4.94,6.07s4.45-2.27,4.45-5.33v-.16h-4.49v-1h5.57Z"/>
      <path class="cls-10" d="M164,610h1.12v6.08h8.34V610h1.12v14h-1.12v-6.89h-8.34V624H164Z"/>
    </g>
    <g id="s-5.1">
      <path class="cls-4" d="M136,658.21c0-2.73,0-5.35.08-6.76h-.06c-.56,1.9-3.37,8.75-5.14,13.17h-1.09c-1.34-3.43-4.24-11-4.88-13.19h0c.1,1.6.14,4.85.14,7.25v5.94h-1.12v-14h1.68c1.9,4.78,4.3,11,4.82,12.61h0c.32-1,3.09-8,5-12.61h1.66v14H136Z"/>
      <path class="cls-4" d="M151.51,657.76h-7.13v5.83h7.81l-.16,1h-8.77v-14h8.61v1h-7.49v5.07h7.13Z"/>
      <path class="cls-4" d="M156.94,650.62h4.66c3.84,0,6.5,2.68,6.5,6.88s-2.6,7.12-6.52,7.12h-4.64Zm1.12,13h3.36c3.68,0,5.48-2.59,5.48-6,0-3.06-1.63-5.9-5.48-5.9h-3.36Z"/>
      <path class="cls-4" d="M174.3,650.62v14h-1.12v-14Z"/>
      <path class="cls-4" d="M181.48,650.62v8.48c0,3.7,2.08,4.65,4.05,4.65,2.33,0,4.06-1,4.06-4.65v-8.48h1.14V659c0,4.39-2.33,5.74-5.24,5.74s-5.17-1.49-5.17-5.56v-8.6Z"/>
      <path class="cls-4" d="M208.85,658.21c0-2.73,0-5.35.08-6.76h-.06c-.56,1.9-3.37,8.75-5.14,13.17h-1.09c-1.34-3.43-4.24-11-4.88-13.19h0c.1,1.6.14,4.85.14,7.25v5.94h-1.12v-14h1.68c1.9,4.78,4.3,11,4.82,12.61h0c.32-1,3.09-8,5-12.61H210v14h-1.12Z"/>
    </g>
    <rect id="r-6.1" class="cls-11" x="68.33" y="678.93" width="32.64" height="33"/>
    <rect id="r-5.1" class="cls-12" x="65.87" y="636.56" width="37.7" height="37.7"/>
    <g id="s-6.1">
      <path class="cls-10" d="M123.85,690H125v13h7.51l-.21,1h-8.42Z"/>
      <path class="cls-10" d="M148,696.89c0,3.82-2,7.29-6.37,7.29-4,0-6.25-3.18-6.25-7.19s2.23-7.2,6.39-7.2C145.61,689.79,148,692.8,148,696.89Zm-11.42,0c0,3.2,1.77,6.22,5.11,6.22,3.6,0,5.11-2.94,5.11-6.24s-1.71-6.09-5.07-6.09C138.14,690.82,136.57,693.78,136.57,696.93Z"/>
      <path class="cls-10" d="M155.48,704l-3.87-14h1.17c.94,3.42,3,11.06,3.35,12.69h0c.26-1.32,2.54-9,3.52-12.69h1.23c.92,3.4,3.14,11.56,3.36,12.67h0c.44-2,2.76-9.36,3.71-12.67h1.14l-4.27,14h-1.28c-.91-3.29-3.07-11.31-3.32-12.54h0c-.36,1.84-2.5,9.08-3.5,12.54Z"/>
    </g>
    <polygon id="w-1" class="cls-13" points="336.95 830.76 432.04 394.17 1300.22 389.85 1416.91 869.56 678.54 864.89 685.07 772.48 414.37 768.75 404.1 835.02 490.91 836.89 490.2 847.3 471.24 863.38 454 863.96 455.15 857.07 330.5 855.34 336.95 830.76"/>
  </g>
  <g id="Roof">
    <polyline id="c-2" class="cls-3" points="529.29 387.75 217.84 214.01 52.34 214.01"/>
    <g id="t-1.2">
      <path class="cls-4" d="M140.79,198.64v8.14h-1.43V189.29h6.31c3.45,0,5.28,1.86,5.28,4.6a4,4,0,0,1-3.26,4.1c1.78.43,3,1.59,3,4.57v.68a11.76,11.76,0,0,0,.23,3.54h-1.42a11.51,11.51,0,0,1-.25-3.65v-.45c0-2.85-.85-4-4.18-4Zm0-1.29H145c3,0,4.46-1.14,4.46-3.42s-1.39-3.35-4.09-3.35h-4.57Z"/>
      <path class="cls-4" d="M172.31,197.91c0,4.78-2.56,9.12-8,9.12-4.93,0-7.81-4-7.81-9s2.79-9,8-9C169.33,189,172.31,192.81,172.31,197.91Zm-14.26.05c0,4,2.2,7.78,6.38,7.78,4.5,0,6.38-3.68,6.38-7.8s-2.13-7.61-6.33-7.61C160,190.33,158.05,194,158.05,198Z"/>
      <path class="cls-4" d="M193.36,197.91c0,4.78-2.56,9.12-8,9.12-4.93,0-7.81-4-7.81-9s2.79-9,8-9C190.38,189,193.36,192.81,193.36,197.91ZM179.1,198c0,4,2.2,7.78,6.38,7.78,4.5,0,6.38-3.68,6.38-7.8s-2.13-7.61-6.33-7.61C181.06,190.33,179.1,194,179.1,198Z"/>
      <path class="cls-4" d="M199.69,189.29h10.63v1.29h-9.23v6.55h8.65v1.29h-8.65v8.36h-1.4Z"/>
      <path class="cls-4" d="M80,219.29h5.82c4.8,0,8.13,3.35,8.13,8.6s-3.25,8.89-8.16,8.89H80Zm1.4,16.2h4.19c4.6,0,6.85-3.23,6.85-7.53,0-3.83-2-7.38-6.85-7.38H81.44Z"/>
      <path class="cls-4" d="M102,230.78l-2.2,6H98.36l6.42-17.49h1.66l6.69,17.49H111.6l-2.26-6Zm6.9-1.29c-1.94-5.17-2.93-7.66-3.28-8.84h0c-.42,1.33-1.54,4.42-3.1,8.84Z"/>
      <path class="cls-4" d="M133.84,228.77c0-3.42,0-6.69.1-8.44h-.07c-.7,2.37-4.21,10.93-6.42,16.45h-1.37c-1.66-4.28-5.3-13.81-6.1-16.48h0c.13,2,.18,6.06.18,9.06v7.42h-1.4V219.29h2.1c2.38,6,5.37,13.77,6,15.76h0c.4-1.3,3.86-10,6.29-15.76h2.07v17.49h-1.4Z"/>
      <path class="cls-4" d="M144.47,230.78l-2.21,6h-1.42l6.41-17.49h1.67l6.68,17.49h-1.53l-2.25-6Zm6.89-1.29c-1.93-5.17-2.93-7.66-3.28-8.84h0c-.43,1.33-1.55,4.42-3.11,8.84Z"/>
      <path class="cls-4" d="M174.44,236.78h-1.16a12.79,12.79,0,0,1-.17-2.77c-.64,1.2-2,3-5.64,3-5,0-7.6-3.82-7.6-8.79,0-5.22,2.75-9.15,7.88-9.15,3.79,0,6.29,2,6.84,5.21h-1.4c-.74-2.45-2.45-3.92-5.49-3.92-4.35,0-6.33,3.39-6.33,7.78,0,4,1.91,7.59,6.16,7.59s5.56-2.84,5.56-6.66v-.2h-5.61v-1.29h7Z"/>
      <path class="cls-4" d="M191.77,228.21h-8.91v7.28h9.76l-.2,1.29h-11V219.29h10.76v1.29h-9.36v6.34h8.91Z"/>
      <path class="cls-4" d="M198.89,232.08c.52,2.31,2.07,3.67,4.92,3.67,3.17,0,4.39-1.58,4.39-3.47s-.87-3.17-4.7-4.12-5.31-2.14-5.31-4.66c0-2.31,1.68-4.46,5.44-4.46s5.49,2.35,5.72,4.49H207.9c-.4-1.86-1.61-3.21-4.35-3.21-2.5,0-3.86,1.17-3.86,3.1s1.14,2.65,4.35,3.45c4.93,1.22,5.66,3.2,5.66,5.3,0,2.59-1.88,4.81-5.95,4.81-4.37,0-6-2.54-6.31-4.9Z"/>
    </g>
    <rect id="r-1.2" class="cls-5" x="82.58" y="261.34" width="32.71" height="32.71"/>
    <g id="s-1.2">
      <path class="cls-4" d="M138.18,272.25h1.12v6.09h8.34v-6.09h1.12v14h-1.12v-6.88H139.3v6.88h-1.12Z"/>
      <path class="cls-4" d="M156,272.25v14h-1.12v-14Z"/>
      <path class="cls-4" d="M172.71,286.25h-.93a10.4,10.4,0,0,1-.14-2.22c-.51,1-1.61,2.38-4.51,2.38-4,0-6.09-3.06-6.09-7,0-4.19,2.21-7.33,6.31-7.33,3,0,5,1.59,5.48,4.17H171.7a4.14,4.14,0,0,0-4.39-3.14c-3.48,0-5.07,2.72-5.07,6.23,0,3.19,1.53,6.07,4.94,6.07s4.45-2.26,4.45-5.33v-.15h-4.49v-1h5.57Z"/>
      <path class="cls-4" d="M178.32,272.25h1.12v6.09h8.34v-6.09h1.12v14h-1.12v-6.88h-8.34v6.88h-1.12Z"/>
    </g>
    <rect id="r-2.2" class="cls-6" x="82.62" y="301.96" width="32.71" height="32.71"/>
    <g id="s-2.2">
      <path class="cls-4" d="M150.34,320.45c0-2.73,0-5.35.08-6.75h-.06c-.57,1.9-3.37,8.75-5.14,13.17h-1.1c-1.33-3.43-4.24-11.06-4.88-13.19h0c.1,1.6.14,4.85.14,7.25v5.94h-1.11v-14h1.68c1.9,4.77,4.3,11,4.81,12.61h0c.32-1,3.1-8,5-12.61h1.66v14h-1.12Z"/>
      <path class="cls-4" d="M165.82,320h-7.13v5.83h7.81l-.17,1h-8.76v-14h8.6v1h-7.48V319h7.13Z"/>
      <path class="cls-4" d="M171.25,312.87h4.66c3.84,0,6.5,2.68,6.5,6.88s-2.6,7.12-6.53,7.12h-4.63Zm1.12,13h3.35c3.68,0,5.49-2.59,5.49-6,0-3.07-1.63-5.91-5.49-5.91h-3.35Z"/>
      <path class="cls-4" d="M188.61,312.87v14h-1.12v-14Z"/>
      <path class="cls-4" d="M195.79,312.87v8.47c0,3.7,2.08,4.66,4.05,4.66,2.33,0,4-1,4-4.66v-8.47H205v8.41c0,4.39-2.33,5.75-5.23,5.75s-5.18-1.5-5.18-5.57v-8.59Z"/>
      <path class="cls-4" d="M223.16,320.45c0-2.73,0-5.35.08-6.75h-.06c-.57,1.9-3.37,8.75-5.14,13.17h-1.1c-1.33-3.43-4.24-11.06-4.88-13.19h0c.1,1.6.14,4.85.14,7.25v5.94h-1.11v-14h1.68c1.9,4.77,4.29,11,4.81,12.61h0c.32-1,3.09-8,5-12.61h1.66v14h-1.12Z"/>
    </g>
    <rect id="r-3.2" class="cls-7" x="82.58" y="341.33" width="32.71" height="32.71"/>
    <g id="s-3.2">
      <path class="cls-4" d="M138.18,352.24h1.12v13h7.51l-.21,1h-8.42Z"/>
      <path class="cls-4" d="M162.32,359.14c0,3.83-2,7.3-6.37,7.3-3.95,0-6.25-3.18-6.25-7.2s2.23-7.2,6.39-7.2C159.94,352,162.32,355.06,162.32,359.14Zm-11.42,0c0,3.21,1.77,6.23,5.11,6.23,3.6,0,5.11-2.94,5.11-6.25s-1.71-6.09-5.07-6.09C152.47,353.07,150.9,356,150.9,359.18Z"/>
      <path class="cls-4" d="M169.81,366.24l-3.87-14h1.17c.94,3.43,3,11.06,3.35,12.7h0c.26-1.33,2.54-9,3.52-12.7h1.23c.92,3.41,3.14,11.57,3.37,12.68h0c.45-2,2.76-9.36,3.71-12.68h1.14l-4.27,14h-1.28c-.91-3.29-3.07-11.32-3.32-12.54h0c-.36,1.83-2.5,9.08-3.5,12.54Z"/>
    </g>
    <rect id="b-2" class="cls-8" x="71.14" y="255.02" width="165.1" height="132.73"/>
    <rect id="r-4.2" class="cls-9" x="82.58" y="261.34" width="32.71" height="32.71"/>
    <g id="s-4.2">
      <path class="cls-10" d="M138.2,272.25h1.12v6.09h8.34v-6.09h1.12v14h-1.12v-6.88h-8.34v6.88H138.2Z"/>
      <path class="cls-10" d="M156,272.25v14h-1.12v-14Z"/>
      <path class="cls-10" d="M172.73,286.25h-.93a10.4,10.4,0,0,1-.14-2.22c-.51,1-1.62,2.39-4.51,2.39-4,0-6.09-3.07-6.09-7,0-4.18,2.21-7.32,6.31-7.32,3,0,5,1.58,5.47,4.16h-1.12a4.14,4.14,0,0,0-4.39-3.14c-3.48,0-5.07,2.72-5.07,6.23,0,3.19,1.53,6.07,4.94,6.07s4.45-2.26,4.45-5.32v-.16h-4.49v-1h5.57Z"/>
      <path class="cls-10" d="M178.34,272.25h1.12v6.09h8.34v-6.09h1.12v14H187.8v-6.88h-8.34v6.88h-1.12Z"/>
    </g>
    <g id="s-5.2">
      <path class="cls-10" d="M150.36,320.47c0-2.74,0-5.36.08-6.76h-.06c-.56,1.9-3.37,8.75-5.14,13.17h-1.09c-1.34-3.43-4.24-11.06-4.88-13.19h0c.1,1.6.14,4.85.14,7.25v5.94h-1.12v-14h1.68c1.9,4.78,4.3,11,4.82,12.61h0c.32-1,3.09-8,5-12.61h1.66v14h-1.12Z"/>
      <path class="cls-10" d="M165.84,320h-7.13v5.83h7.81l-.16,1h-8.77v-14h8.61v1h-7.49V319h7.13Z"/>
      <path class="cls-10" d="M171.27,312.88h4.66c3.84,0,6.5,2.68,6.5,6.88s-2.6,7.12-6.52,7.12h-4.64Zm1.12,13h3.36c3.68,0,5.48-2.59,5.48-6,0-3.06-1.63-5.91-5.48-5.91h-3.36Z"/>
      <path class="cls-10" d="M188.63,312.88v14h-1.12v-14Z"/>
      <path class="cls-10" d="M195.81,312.88v8.48c0,3.7,2.08,4.65,4.05,4.65,2.33,0,4.06-1,4.06-4.65v-8.48h1.14v8.42c0,4.38-2.33,5.74-5.24,5.74-2.76,0-5.17-1.49-5.17-5.57v-8.59Z"/>
      <path class="cls-10" d="M223.18,320.47c0-2.74,0-5.36.08-6.76h-.06c-.56,1.9-3.37,8.75-5.14,13.17H217c-1.34-3.43-4.24-11.06-4.88-13.19h0c.1,1.6.14,4.85.14,7.25v5.94h-1.12v-14h1.68c1.9,4.78,4.3,11,4.82,12.61h0c.32-1,3.09-8,5-12.61h1.66v14h-1.12Z"/>
    </g>
    <rect id="r-5.2" class="cls-14" x="82.65" y="301.97" width="32.71" height="32.71"/>
    <g id="s-6.2">
      <path class="cls-4" d="M138.18,352.24h1.12v13h7.51l-.21,1h-8.42Z"/>
      <path class="cls-4" d="M162.32,359.14c0,3.83-2,7.3-6.37,7.3-3.95,0-6.25-3.18-6.25-7.2s2.23-7.2,6.39-7.2C159.94,352,162.32,355.06,162.32,359.14Zm-11.42,0c0,3.21,1.77,6.23,5.11,6.23,3.6,0,5.11-2.94,5.11-6.25s-1.71-6.09-5.07-6.09C152.47,353.07,150.9,356,150.9,359.18Z"/>
      <path class="cls-4" d="M169.81,366.24l-3.87-14h1.17c.94,3.43,3,11.06,3.35,12.7h0c.26-1.33,2.54-9,3.52-12.7h1.23c.92,3.41,3.14,11.57,3.37,12.68h0c.45-2,2.76-9.36,3.71-12.68h1.14l-4.27,14h-1.28c-.91-3.29-3.07-11.32-3.32-12.54h0c-.36,1.83-2.5,9.08-3.5,12.54Z"/>
    </g>
    <rect id="r-6.2" class="cls-7" x="80.03" y="339.03" width="37.7" height="37.7"/>
    <polyline id="a-1" class="cls-13" points="432.04 394.17 434 386.41 713.97 385.48 716.71 341.16 825.92 341.16 825.92 385.03 1299.28 383.4 1300.22 389.85"/>
  </g>
  <g id="Window">
    <polyline id="c-3" class="cls-3" points="1188.17 624 1504.38 383.4 1669.88 383.4"/>
    <g id="t-1.3">
      <path class="cls-4" d="M1510.78,377.6l-4.84-17.49h1.46c1.18,4.28,3.79,13.82,4.19,15.86h0c.33-1.66,3.18-11.25,4.4-15.86h1.54c1.15,4.25,3.92,14.45,4.2,15.83h0c.55-2.5,3.45-11.69,4.63-15.83h1.43l-5.34,17.49h-1.6c-1.14-4.12-3.84-14.14-4.15-15.67h0c-.45,2.29-3.13,11.34-4.37,15.67Z"/>
      <path class="cls-4" d="M1534.89,360.11V377.6h-1.4V360.11Z"/>
      <path class="cls-4" d="M1542.51,377.6V360.11h2.06c2.71,4.19,9.06,13.9,10.15,15.8h0c-.15-2.51-.13-5.09-.13-7.94v-7.86H1556V377.6h-1.91c-2.58-4-9-14.16-10.27-16.09h0c.13,2.28.1,4.86.1,8v8.06Z"/>
      <path class="cls-4" d="M1563.66,360.11h5.82c4.81,0,8.13,3.35,8.13,8.59s-3.25,8.9-8.15,8.9h-5.8Zm1.4,16.2h4.2c4.59,0,6.85-3.23,6.85-7.53,0-3.83-2-7.38-6.85-7.38h-4.2Z"/>
      <path class="cls-4" d="M1598.68,368.73c0,4.77-2.55,9.12-8,9.12-4.94,0-7.81-4-7.81-9s2.78-9,8-9C1595.71,359.86,1598.68,363.63,1598.68,368.73Zm-14.26,0c0,4,2.21,7.78,6.38,7.78,4.5,0,6.38-3.68,6.38-7.81s-2.13-7.6-6.33-7.6C1586.38,361.15,1584.42,364.84,1584.42,368.78Z"/>
      <path class="cls-4" d="M1608.06,377.6l-4.84-17.49h1.45c1.19,4.28,3.79,13.82,4.19,15.86h0c.33-1.66,3.18-11.25,4.4-15.86h1.54c1.14,4.25,3.92,14.45,4.2,15.83h0c.55-2.5,3.45-11.69,4.64-15.83h1.42l-5.33,17.49h-1.6c-1.15-4.12-3.85-14.14-4.15-15.67h0c-.45,2.29-3.13,11.34-4.37,15.67Z"/>
      <path class="cls-4" d="M1507.74,390.11h5.82c4.8,0,8.13,3.35,8.13,8.59s-3.25,8.9-8.16,8.9h-5.79Zm1.4,16.2h4.19c4.6,0,6.86-3.23,6.86-7.53,0-3.83-2-7.38-6.86-7.38h-4.19Z"/>
      <path class="cls-4" d="M1529.7,401.59l-2.21,6h-1.42l6.41-17.49h1.66l6.69,17.49h-1.53l-2.26-6Zm6.89-1.28c-1.94-5.17-2.93-7.66-3.28-8.85h0c-.42,1.34-1.54,4.43-3.1,8.85Z"/>
      <path class="cls-4" d="M1561.55,399.58c0-3.41,0-6.68.1-8.44h-.08c-.7,2.38-4.21,10.94-6.42,16.46h-1.37c-1.66-4.29-5.3-13.82-6.1-16.48h0c.13,2,.18,6.06.18,9.06v7.42h-1.4V390.11h2.11c2.37,6,5.36,13.76,6,15.75h0c.4-1.29,3.86-10,6.29-15.75h2.07V407.6h-1.39Z"/>
      <path class="cls-4" d="M1572.17,401.59l-2.21,6h-1.42l6.41-17.49h1.67l6.68,17.49h-1.52l-2.26-6Zm6.89-1.28c-1.93-5.17-2.93-7.66-3.28-8.85h0c-.43,1.34-1.55,4.43-3.11,8.85Z"/>
      <path class="cls-4" d="M1602.14,407.6H1601a12.93,12.93,0,0,1-.17-2.78c-.64,1.2-2,3-5.64,3-5,0-7.6-3.82-7.6-8.8,0-5.22,2.75-9.14,7.89-9.14,3.78,0,6.29,2,6.83,5.2h-1.4c-.74-2.44-2.45-3.92-5.49-3.92-4.35,0-6.33,3.39-6.33,7.79,0,4,1.91,7.58,6.16,7.58s5.56-2.83,5.56-6.66v-.19h-5.61v-1.29h7Z"/>
      <path class="cls-4" d="M1619.47,399h-8.91v7.28h9.76l-.2,1.29h-11V390.11h10.76v1.29h-9.36v6.34h8.91Z"/>
      <path class="cls-4" d="M1626.59,402.89c.52,2.31,2.07,3.67,4.92,3.67,3.17,0,4.39-1.58,4.39-3.46s-.87-3.18-4.7-4.12-5.31-2.14-5.31-4.66c0-2.31,1.68-4.46,5.44-4.46s5.49,2.35,5.72,4.48h-1.45c-.4-1.85-1.61-3.2-4.35-3.2-2.5,0-3.86,1.16-3.86,3.1s1.14,2.65,4.35,3.45c4.93,1.22,5.66,3.19,5.66,5.3,0,2.59-1.88,4.81-5.94,4.81-4.38,0-6-2.54-6.32-4.91Z"/>
    </g>
    <rect id="r-1.3" class="cls-5" x="1517.38" y="432.25" width="32.71" height="32.71"/>
    <g id="s-1.3">
      <path class="cls-4" d="M1573,443.17h1.12v6.09h8.34v-6.09h1.12v14h-1.12v-6.88h-8.34v6.88H1573Z"/>
      <path class="cls-4" d="M1590.78,443.17v14h-1.12v-14Z"/>
      <path class="cls-4" d="M1607.51,457.17h-.93a10.48,10.48,0,0,1-.14-2.22c-.51,1-1.61,2.38-4.51,2.38-4,0-6.09-3.06-6.09-7,0-4.18,2.21-7.32,6.31-7.32,3,0,5,1.59,5.47,4.17h-1.12a4.14,4.14,0,0,0-4.39-3.14c-3.48,0-5.07,2.71-5.07,6.23,0,3.18,1.53,6.07,4.94,6.07s4.45-2.27,4.45-5.33v-.16h-4.49v-1h5.57Z"/>
      <path class="cls-4" d="M1613.12,443.17h1.12v6.09h8.34v-6.09h1.12v14h-1.12v-6.88h-8.34v6.88h-1.12Z"/>
    </g>
    <rect id="r-2.3" class="cls-6" x="1517.42" y="472.87" width="32.71" height="32.71"/>
    <g id="s-2.3">
      <path class="cls-4" d="M1585.14,491.37c0-2.73,0-5.35.08-6.76h-.06c-.57,1.9-3.37,8.75-5.14,13.17h-1.1c-1.33-3.43-4.24-11-4.88-13.19h0c.1,1.6.14,4.85.14,7.25v5.94H1573v-14h1.68c1.9,4.78,4.29,11,4.81,12.61h0c.32-1,3.1-8,5-12.61h1.66v14h-1.12Z"/>
      <path class="cls-4" d="M1600.62,490.92h-7.13v5.83h7.81l-.17,1h-8.76v-14h8.6v1h-7.48v5.07h7.13Z"/>
      <path class="cls-4" d="M1606.05,483.78h4.66c3.84,0,6.5,2.68,6.5,6.88s-2.6,7.12-6.53,7.12h-4.63Zm1.12,13h3.35c3.68,0,5.49-2.59,5.49-6,0-3.06-1.63-5.91-5.49-5.91h-3.35Z"/>
      <path class="cls-4" d="M1623.41,483.78v14h-1.12v-14Z"/>
      <path class="cls-4" d="M1630.58,483.78v8.48c0,3.7,2.09,4.65,4.06,4.65,2.33,0,4-1,4-4.65v-8.48h1.14v8.42c0,4.39-2.33,5.74-5.23,5.74s-5.18-1.49-5.18-5.56v-8.6Z"/>
      <path class="cls-4" d="M1658,491.37c0-2.73,0-5.35.08-6.76H1658c-.57,1.9-3.37,8.75-5.15,13.17h-1.09c-1.33-3.43-4.24-11-4.88-13.19h0c.1,1.6.14,4.85.14,7.25v5.94h-1.11v-14h1.68c1.9,4.78,4.29,11,4.81,12.61h0c.32-1,3.09-8,5-12.61h1.66v14H1658Z"/>
    </g>
    <rect id="r-3.3" class="cls-7" x="1517.38" y="512.25" width="32.71" height="32.71"/>
    <g id="s-3.3">
      <path class="cls-4" d="M1573,523.16h1.12v13h7.51l-.21,1H1573Z"/>
      <path class="cls-4" d="M1597.12,530.06c0,3.82-2,7.3-6.37,7.3-4,0-6.25-3.18-6.25-7.2s2.23-7.2,6.39-7.2C1594.74,523,1597.12,526,1597.12,530.06Zm-11.42,0c0,3.21,1.77,6.23,5.11,6.23,3.6,0,5.11-3,5.11-6.25s-1.71-6.09-5.07-6.09C1587.27,524,1585.7,527,1585.7,530.1Z"/>
      <path class="cls-4" d="M1604.61,537.16l-3.87-14h1.17c.94,3.42,3,11.06,3.35,12.7h0c.26-1.33,2.54-9,3.52-12.7H1610c.92,3.4,3.14,11.56,3.36,12.67h0c.45-2,2.76-9.36,3.71-12.67h1.14l-4.27,14h-1.28c-.91-3.3-3.07-11.32-3.32-12.55h0c-.36,1.84-2.5,9.08-3.49,12.55Z"/>
    </g>
    <rect id="b-3" class="cls-8" x="1505.94" y="425.94" width="165.1" height="132.73"/>
    <rect id="r-4.3" class="cls-9" x="1517.38" y="432.25" width="32.71" height="32.71"/>
    <g id="s-4.3">
      <path class="cls-10" d="M1573,443.17h1.12v6.09h8.34v-6.09h1.12v14h-1.12v-6.88h-8.34v6.88H1573Z"/>
      <path class="cls-10" d="M1590.8,443.17v14h-1.12v-14Z"/>
      <path class="cls-10" d="M1607.53,457.17h-.93a10.48,10.48,0,0,1-.14-2.22c-.51,1-1.62,2.38-4.51,2.38-4,0-6.09-3.06-6.09-7,0-4.18,2.21-7.32,6.31-7.32,3,0,5,1.59,5.47,4.17h-1.12a4.14,4.14,0,0,0-4.39-3.14c-3.48,0-5.07,2.71-5.07,6.23,0,3.18,1.53,6.07,4.94,6.07s4.45-2.27,4.45-5.33v-.16H1602v-1h5.57Z"/>
      <path class="cls-10" d="M1613.14,443.17h1.12v6.09h8.34v-6.09h1.12v14h-1.12v-6.88h-8.34v6.88h-1.12Z"/>
    </g>
    <g id="s-5.3">
      <path class="cls-4" d="M1585.16,491.38c0-2.73,0-5.35.08-6.75h-.06c-.56,1.9-3.37,8.75-5.14,13.17H1579c-1.34-3.43-4.24-11.06-4.88-13.2h0c.1,1.61.14,4.86.14,7.26v5.94h-1.12v-14h1.68c1.9,4.77,4.3,11,4.82,12.61h0c.32-1,3.09-8,5-12.61h1.66v14h-1.12Z"/>
      <path class="cls-4" d="M1600.64,490.93h-7.13v5.83h7.81l-.16,1h-8.77v-14H1601v1h-7.49v5.07h7.13Z"/>
      <path class="cls-4" d="M1606.07,483.8h4.66c3.84,0,6.5,2.68,6.5,6.88s-2.6,7.12-6.52,7.12h-4.64Zm1.12,13h3.36c3.68,0,5.48-2.59,5.48-6,0-3.06-1.63-5.9-5.48-5.9h-3.36Z"/>
      <path class="cls-4" d="M1623.43,483.8v14h-1.12v-14Z"/>
      <path class="cls-4" d="M1630.61,483.8v8.47c0,3.7,2.08,4.66,4.05,4.66,2.33,0,4.06-1,4.06-4.66V483.8h1.14v8.41c0,4.39-2.33,5.75-5.24,5.75-2.76,0-5.17-1.5-5.17-5.57V483.8Z"/>
      <path class="cls-4" d="M1658,491.38c0-2.73,0-5.35.08-6.75H1658c-.56,1.9-3.37,8.75-5.14,13.17h-1.09c-1.34-3.43-4.24-11.06-4.88-13.2h0c.1,1.61.14,4.86.14,7.26v5.94h-1.12v-14h1.68c1.9,4.77,4.3,11,4.82,12.61h0c.32-1,3.09-8,5-12.61h1.66v14H1658Z"/>
    </g>
    <g id="s-6.3">
      <path class="cls-10" d="M1573,523.16h1.12v13h7.51l-.21,1H1573Z"/>
      <path class="cls-10" d="M1597.12,530.06c0,3.82-2,7.3-6.37,7.3-4,0-6.25-3.18-6.25-7.2s2.23-7.2,6.39-7.2C1594.74,523,1597.12,526,1597.12,530.06Zm-11.42,0c0,3.21,1.77,6.23,5.11,6.23,3.6,0,5.11-3,5.11-6.25s-1.71-6.09-5.07-6.09C1587.27,524,1585.7,527,1585.7,530.1Z"/>
      <path class="cls-10" d="M1604.61,537.16l-3.87-14h1.17c.94,3.42,3,11.06,3.35,12.7h0c.26-1.33,2.54-9,3.52-12.7H1610c.92,3.4,3.14,11.56,3.36,12.67h0c.45-2,2.76-9.36,3.71-12.67h1.14l-4.27,14h-1.28c-.91-3.3-3.07-11.32-3.32-12.55h0c-.36,1.84-2.5,9.08-3.49,12.55Z"/>
    </g>
    <rect id="r-5.3" class="cls-12" x="1515" y="469.73" width="37.7" height="37.7"/>
    <rect id="r-6.3" class="cls-11" x="1517.46" y="512.11" width="32.64" height="33"/>
    <polygon id="f-1" class="cls-15" points="361.21 819.74 369.88 784.02 394.02 784.02 387.21 819.74 361.21 819.74"/>
    <polygon id="f-2" class="cls-15" points="707.41 785.2 706.18 806.93 798.62 806.93 798.62 785.2 707.41 785.2"/>
    <rect id="f-3" class="cls-15" x="821.39" y="785.2" width="24.42" height="21.73"/>
    <polygon id="f-4" class="cls-15" points="879.25 785.2 879.25 806.93 913.02 806.93 913.02 785.96 879.25 785.2"/>
    <polygon id="f-5" class="cls-15" points="936.5 785.91 937.12 806.93 970.75 806.93 969.92 785.91 936.5 785.91"/>
    <polygon id="f-6" class="cls-15" points="1051.06 785.9 1052.59 807.07 1085.55 807.07 1083.81 785.9 1051.06 785.9"/>
    <polygon id="f-7" class="cls-15" points="1025.86 785.91 993.58 785.91 994.6 806.93 1026.43 807.07 1025.86 785.91"/>
    <polygon id="f-8" class="cls-15" points="1162.55 785.9 1164.19 807.07 1201.63 807.07 1199.01 785.9 1162.55 785.9"/>
    <polygon id="f-9" class="cls-15" points="1222.6 785.9 1226.06 807.07 1260.72 807.07 1256.17 785.9 1222.6 785.9"/>
    <polygon id="f-10" class="cls-15" points="383.41 723.58 377.61 756.16 408.31 756.16 414.12 723.58 383.41 723.58"/>
    <polygon id="f-11" class="cls-15" points="438.2 723.58 432.59 756.16 463.31 756.16 469.33 723.58 438.2 723.58"/>
    <polygon id="f-12" class="cls-15" points="492.22 723.58 486.98 756.16 518.86 756.16 523.66 723.58 492.22 723.58"/>
    <polygon id="f-13" class="cls-15" points="547.6 723.58 543.47 756.16 574.92 756.16 578.88 723.58 547.6 723.58"/>
    <polygon id="f-14" class="cls-15" points="602.6 723.58 599.5 756.16 630.79 756.16 633.54 723.58 602.6 723.58"/>
    <polygon id="f-15" class="cls-15" points="656.05 723.58 653.85 756.16 685.13 756.16 687.15 723.58 656.05 723.58"/>
    <rect id="f-16" class="cls-15" x="712.35" y="720.48" width="86.28" height="23.27"/>
    <polygon id="f-17" class="cls-15" points="823.01 722.88 823.01 755.44 855.56 755.44 855.56 722.05 823.01 722.88"/>
    <rect id="f-18" class="cls-15" x="879.25" y="722.99" width="32.05" height="32.45"/>
    <rect id="f-19" class="cls-15" x="934.45" y="722.99" width="33.66" height="32.45"/>
    <polygon id="f-20" class="cls-15" points="1148.54 662.51 1152.12 690.68 1172.47 690.68 1168.23 662.51 1148.54 662.51"/>
    <polygon id="f-21" class="cls-15" points="989.56 722.99 990.79 755.44 1020.58 755.44 1019.36 722.99 989.56 722.99"/>
    <polygon id="f-22" class="cls-15" points="1046.39 722.99 1048.84 755.44 1080.48 755.44 1077.72 722.99 1046.39 722.99"/>
    <polygon id="f-23" class="cls-15" points="1157.25 722.9 1160.43 753.28 1192.53 753.28 1189.59 721.68 1157.25 722.9"/>
    <polygon id="f-24" class="cls-15" points="1213.36 721.68 1217.53 753.28 1249.62 753.28 1245.95 721.68 1213.36 721.68"/>
    <polygon id="f-25" class="cls-15" points="1325.08 663.49 1330.52 690.68 1352.28 690.68 1346.21 663.49 1325.08 663.49"/>
    <polygon id="f-26" class="cls-15" points="1292.24 663.49 1296.63 690.68 1316.51 690.68 1311.9 663.49 1292.24 663.49"/>
    <polygon id="f-27" class="cls-15" points="1259.19 663.49 1264 690.68 1285.13 690.68 1280.53 663.49 1259.19 663.49"/>
    <polygon id="f-28" class="cls-15" points="1213.36 662.51 1218 690.68 1238.64 690.68 1233.77 662.51 1213.36 662.51"/>
    <polygon id="f-29" class="cls-15" points="1181.37 662.51 1186.24 690.68 1205.95 690.68 1201.31 662.51 1181.37 662.51"/>
    <polygon id="f-30" class="cls-15" points="1040.5 664.37 1042.78 691.92 1063.13 691.92 1060.2 664.37 1040.5 664.37"/>
    <polygon id="f-31" class="cls-15" points="996.61 663.13 998.28 690.88 1018.91 690.88 1017.02 663.13 996.61 663.13"/>
    <polygon id="f-32" class="cls-15" points="964.61 663.13 966.51 690.88 986.22 690.88 984.55 663.13 964.61 663.13"/>
    <polygon id="f-33" class="cls-15" points="931.78 663.13 932.39 690.88 952.74 690.88 951.48 663.13 931.78 663.13"/>
    <polygon id="f-34" class="cls-15" points="887.41 664.27 887.25 691.57 907.89 691.57 907.82 664.27 887.41 664.27"/>
    <polygon id="f-35" class="cls-15" points="855.42 664.27 855.49 691.57 875.19 691.57 875.36 664.27 855.42 664.27"/>
    <polygon id="f-36" class="cls-15" points="822.59 664.27 821.36 691.57 841.72 691.57 842.28 664.27 822.59 664.27"/>
    <polygon id="f-37" class="cls-15" points="672.17 664.27 670.34 690.92 690.97 690.92 692.58 664.27 672.17 664.27"/>
    <polygon id="f-38" class="cls-15" points="640.17 664.27 638.57 690.92 658.28 690.92 660.11 664.27 640.17 664.27"/>
    <polygon id="f-39" class="cls-15" points="607.34 664.27 604.45 690.92 624.8 690.92 627.04 664.27 607.34 664.27"/>
    <polygon id="f-41" class="cls-15" points="565.02 664.62 562.45 691.16 583.09 691.16 585.43 664.62 565.02 664.62"/>
    <polygon id="f-42" class="cls-15" points="533.03 664.62 530.69 691.16 550.4 691.16 552.97 664.62 533.03 664.62"/>
    <polygon id="f-43" class="cls-15" points="500.2 664.62 496.56 691.16 516.92 691.16 519.89 664.62 500.2 664.62"/>
    <polygon id="f-44" class="cls-15" points="456.68 665.61 453.06 690.69 473.7 690.69 477.09 665.61 456.68 665.61"/>
    <polygon id="f-45" class="cls-15" points="424.68 665.61 421.3 690.69 441 690.69 444.63 665.61 424.68 665.61"/>
    <polygon id="f-46" class="cls-15" points="391.85 665.61 387.18 690.69 407.53 690.69 411.55 665.61 391.85 665.61"/>
    <polygon id="f-47" class="cls-3" points="717.07 664.27 715.75 682.78 800.28 682.78 801.12 664.27 717.07 664.27"/>
    <polygon id="f-48" class="cls-15" points="1312.21 605.92 1317.51 633.12 1338.68 633.12 1332.78 605.92 1312.21 605.92"/>
    <polygon id="f-49" class="cls-15" points="1280.25 605.92 1284.52 633.12 1303.87 633.12 1299.39 605.92 1280.25 605.92"/>
    <polygon id="f-50" class="cls-15" points="1248.08 605.92 1252.76 633.12 1273.33 633.12 1268.85 605.92 1248.08 605.92"/>
    <polygon id="f-51" class="cls-15" points="1203.47 604.95 1207.99 633.12 1228.08 633.12 1223.34 604.95 1203.47 604.95"/>
    <polygon id="f-52" class="cls-15" points="1172.34 604.95 1177.08 633.12 1196.26 633.12 1191.74 604.95 1172.34 604.95"/>
    <polygon id="f-53" class="cls-15" points="1140.38 604.95 1143.87 633.12 1163.68 633.12 1159.55 604.95 1140.38 604.95"/>
    <polygon id="f-54" class="cls-15" points="1067.19 606.8 1070.66 634.35 1089.84 634.35 1086.6 606.8 1067.19 606.8"/>
    <polygon id="f-55" class="cls-15" points="1035.23 606.8 1037.45 634.35 1057.26 634.35 1054.4 606.8 1035.23 606.8"/>
    <polygon id="f-56" class="cls-15" points="992.51 605.57 994.14 633.32 1014.22 633.32 1012.38 605.57 992.51 605.57"/>
    <polygon id="f-57" class="cls-15" points="961.37 605.57 963.22 633.32 982.4 633.32 980.78 605.57 961.37 605.57"/>
    <polygon id="f-58" class="cls-15" points="929.42 605.57 930.01 633.32 949.82 633.32 948.59 605.57 929.42 605.57"/>
    <polygon id="f-59" class="cls-15" points="886.23 606.71 886.08 634.01 906.16 634.01 906.1 606.71 886.23 606.71"/>
    <polygon id="f-60" class="cls-15" points="855.09 606.71 855.16 634.01 874.34 634.01 874.5 606.71 855.09 606.71"/>
    <polygon id="f-61" class="cls-15" points="823.14 606.71 821.95 634.01 841.76 634.01 842.31 606.71 823.14 606.71"/>
    <polygon id="f-62" class="cls-15" points="676.74 606.71 674.96 633.36 695.04 633.36 696.6 606.71 676.74 606.71"/>
    <polygon id="f-63" class="cls-15" points="645.6 606.71 644.04 633.36 663.23 633.36 665.01 606.71 645.6 606.71"/>
    <polygon id="f-65" class="cls-15" points="613.65 606.71 610.83 633.36 630.64 633.36 632.82 606.71 613.65 606.71"/>
    <polygon id="f-66" class="cls-15" points="572.46 607.06 569.96 633.6 590.04 633.6 592.32 607.06 572.46 607.06"/>
    <polygon id="f-67" class="cls-15" points="541.32 607.06 539.04 633.6 558.22 633.6 560.73 607.06 541.32 607.06"/>
    <polygon id="f-68" class="cls-15" points="509.37 607.06 505.83 633.6 525.64 633.6 528.53 607.06 509.37 607.06"/>
    <polygon id="f-69" class="cls-15" points="467.01 608.05 463.49 633.13 483.57 633.13 486.87 608.05 467.01 608.05"/>
    <polygon id="f-70" class="cls-15" points="435.87 608.05 432.57 633.13 451.75 633.13 455.28 608.05 435.87 608.05"/>
    <polygon id="f-71" class="cls-15" points="403.92 608.05 399.36 633.13 419.17 633.13 423.08 608.05 403.92 608.05"/>
    <polygon id="f-72" class="cls-3" points="720.45 606.71 719.16 625.22 801.43 625.22 802.25 606.71 720.45 606.71"/>
    <polygon id="f-73" class="cls-15" points="1304.16 554.61 1309.35 581.8 1330.13 581.8 1324.33 554.61 1304.16 554.61"/>
    <polygon id="f-74" class="cls-15" points="1272.8 554.61 1276.99 581.8 1295.97 581.8 1291.58 554.61 1272.8 554.61"/>
    <polygon id="f-75" class="cls-15" points="1241.24 554.61 1245.83 581.8 1266.01 581.8 1261.61 554.61 1241.24 554.61"/>
    <polygon id="f-76" class="cls-15" points="1197.47 553.64 1201.91 581.8 1221.61 581.8 1216.96 553.64 1197.47 553.64"/>
    <polygon id="f-77" class="cls-15" points="1166.92 553.64 1171.57 581.8 1190.39 581.8 1185.96 553.64 1166.92 553.64"/>
    <polygon id="f-78" class="cls-15" points="1135.57 553.64 1138.99 581.8 1158.42 581.8 1154.38 553.64 1135.57 553.64"/>
    <polygon id="f-79" class="cls-15" points="1094.31 555.49 1097.5 583.04 1117.2 583.04 1113.8 555.49 1094.31 555.49"/>
    <polygon id="f-80" class="cls-15" points="1063.76 555.49 1067.16 583.04 1085.98 583.04 1082.8 555.49 1063.76 555.49"/>
    <polygon id="f-81" class="cls-15" points="1032.41 555.49 1034.58 583.04 1054.02 583.04 1051.21 555.49 1032.41 555.49"/>
    <polygon id="f-82" class="cls-15" points="990.49 554.25 992.09 582 1011.79 582 1009.98 554.25 990.49 554.25"/>
    <polygon id="f-83" class="cls-15" points="959.94 554.25 961.75 582 980.57 582 978.98 554.25 959.94 554.25"/>
    <polygon id="f-84" class="cls-15" points="928.59 554.25 929.17 582 948.6 582 947.4 554.25 928.59 554.25"/>
    <path id="f-85" class="cls-15" d="M906.82,579.42l-1.12-24H886.21L882.05,551l-4.72,1-.81,3.35,2.57,9.45-1.17,2.7v9.75l-1.18,3.06-.39,2.35-4.16,5.69,1.51,3,6.87.35,4.24,5.53,3.74,1.41,9.11-1.41s.94-2.35,1.88-2.59,4.45-.94,4.45-.94l3-4.75,4.78-4.18L910.35,582Z"/>
    <polygon id="f-86" class="cls-15" points="855.66 555.39 855.73 582.7 874.55 582.7 874.71 555.39 855.66 555.39"/>
    <polygon id="f-87" class="cls-15" points="824.31 555.39 823.15 582.7 842.58 582.7 843.12 555.39 824.31 555.39"/>
    <polygon id="f-88" class="cls-15" points="680.67 555.39 678.93 582.05 698.63 582.05 700.16 555.39 680.67 555.39"/>
    <polygon id="f-89" class="cls-15" points="650.13 555.39 648.6 582.05 667.41 582.05 669.17 555.39 650.13 555.39"/>
    <polygon id="f-90" class="cls-15" points="618.77 555.39 616.01 582.05 635.45 582.05 637.58 555.39 618.77 555.39"/>
    <polygon id="f-91" class="cls-15" points="578.36 555.75 575.91 582.28 595.61 582.28 597.85 555.75 578.36 555.75"/>
    <polygon id="f-92" class="cls-15" points="547.81 555.75 545.57 582.28 564.39 582.28 566.85 555.75 547.81 555.75"/>
    <polygon id="f-93" class="cls-15" points="516.46 555.75 512.99 582.28 532.43 582.28 535.27 555.75 516.46 555.75"/>
    <polygon id="f-94" class="cls-15" points="474.9 556.73 471.45 581.82 491.15 581.82 494.39 556.73 474.9 556.73"/>
    <polygon id="f-95" class="cls-15" points="444.35 556.73 441.11 581.82 459.94 581.82 463.39 556.73 444.35 556.73"/>
    <polygon id="f-96" class="cls-15" points="413 556.73 408.53 581.82 427.97 581.82 431.81 556.73 413 556.73"/>
    <polygon id="f-97" class="cls-3" points="723.56 555.39 722.3 573.91 803.01 573.91 803.82 555.39 723.56 555.39"/>
    <polygon id="f-98" class="cls-15" points="1291.74 498.96 1296.79 526.16 1317.01 526.16 1311.38 498.96 1291.74 498.96"/>
    <polygon id="f-99" class="cls-15" points="1261.22 498.96 1265.3 526.16 1283.77 526.16 1279.49 498.96 1261.22 498.96"/>
    <polygon id="f-100" class="cls-15" points="1230.5 498.96 1234.97 526.16 1254.61 526.16 1250.33 498.96 1230.5 498.96"/>
    <polygon id="f-101" class="cls-15" points="1187.9 497.99 1192.22 526.16 1211.4 526.16 1206.87 497.99 1187.9 497.99"/>
    <polygon id="f-102" class="cls-15" points="1158.17 497.99 1162.69 526.16 1181.01 526.16 1176.7 497.99 1158.17 497.99"/>
    <polygon id="f-103" class="cls-15" points="1127.66 497.99 1130.98 526.16 1149.9 526.16 1145.96 497.99 1127.66 497.99"/>
    <polygon id="f-104" class="cls-15" points="1087.49 499.85 1090.6 527.4 1109.78 527.4 1106.46 499.85 1087.49 499.85"/>
    <polygon id="f-105" class="cls-15" points="1057.76 499.85 1061.08 527.4 1079.39 527.4 1076.29 499.85 1057.76 499.85"/>
    <polygon id="f-106" class="cls-15" points="1027.25 499.85 1029.36 527.4 1048.28 527.4 1045.55 499.85 1027.25 499.85"/>
    <polygon id="f-107" class="cls-15" points="986.45 498.61 988 526.36 1007.18 526.36 1005.42 498.61 986.45 498.61"/>
    <polygon id="f-108" class="cls-15" points="956.72 498.61 958.48 526.36 976.8 526.36 975.25 498.61 956.72 498.61"/>
    <polygon id="f-109" class="cls-15" points="926.2 498.61 926.77 526.36 945.68 526.36 944.51 498.61 926.2 498.61"/>
    <polygon id="f-110" class="cls-15" points="884.96 499.75 884.82 527.05 903.99 527.05 903.93 499.75 884.96 499.75"/>
    <polygon id="f-111" class="cls-15" points="855.23 499.75 855.29 527.05 873.61 527.05 873.76 499.75 855.23 499.75"/>
    <polygon id="f-112" class="cls-15" points="824.71 499.75 823.58 527.05 842.5 527.05 843.02 499.75 824.71 499.75"/>
    <polygon id="f-113" class="cls-15" points="684.91 499.75 683.21 526.4 702.39 526.4 703.88 499.75 684.91 499.75"/>
    <polygon id="f-114" class="cls-15" points="655.18 499.75 653.69 526.4 672.01 526.4 673.71 499.75 655.18 499.75"/>
    <polygon id="f-115" class="cls-15" points="624.66 499.75 621.98 526.4 640.89 526.4 642.97 499.75 624.66 499.75"/>
    <polygon id="f-116" class="cls-15" points="585.33 500.1 582.94 526.64 602.12 526.64 604.3 500.1 585.33 500.1"/>
    <polygon id="f-117" class="cls-15" points="555.6 500.1 553.42 526.64 571.74 526.64 574.13 500.1 555.6 500.1"/>
    <polygon id="f-118" class="cls-15" points="525.08 500.1 521.71 526.64 540.63 526.64 543.39 500.1 525.08 500.1"/>
    <polygon id="f-119" class="cls-15" points="484.63 501.09 481.28 526.17 500.45 526.17 503.6 501.09 484.63 501.09"/>
    <polygon id="f-120" class="cls-15" points="454.9 501.09 451.75 526.17 470.07 526.17 473.43 501.09 454.9 501.09"/>
    <polygon id="f-121" class="cls-15" points="424.39 501.09 420.04 526.17 438.96 526.17 442.69 501.09 424.39 501.09"/>
    <polygon id="f-122" class="cls-3" points="726.65 499.75 725.42 518.26 803.98 518.26 804.76 499.75 726.65 499.75"/>
    <polygon id="f-123" class="cls-15" points="1278.99 451.83 1283.91 479.03 1303.57 479.03 1298.09 451.83 1278.99 451.83"/>
    <polygon id="f-124" class="cls-15" points="1249.32 451.83 1253.29 479.03 1271.24 479.03 1267.08 451.83 1249.32 451.83"/>
    <polygon id="f-125" class="cls-15" points="1219.45 451.83 1223.8 479.03 1242.89 479.03 1238.73 451.83 1219.45 451.83"/>
    <polygon id="f-126" class="cls-15" points="1178.03 450.86 1182.23 479.03 1200.88 479.03 1196.48 450.86 1178.03 450.86"/>
    <polygon id="f-127" class="cls-15" points="1149.12 450.86 1153.52 479.03 1171.33 479.03 1167.14 450.86 1149.12 450.86"/>
    <polygon id="f-128" class="cls-15" points="1119.45 450.86 1122.69 479.03 1141.08 479.03 1137.25 450.86 1119.45 450.86"/>
    <polygon id="f-129" class="cls-15" points="1080.41 452.71 1083.43 480.26 1102.07 480.26 1098.85 452.71 1080.41 452.71"/>
    <polygon id="f-130" class="cls-15" points="1051.5 452.71 1054.72 480.26 1072.53 480.26 1069.52 452.71 1051.5 452.71"/>
    <polygon id="f-131" class="cls-15" points="1021.83 452.71 1023.89 480.26 1042.28 480.26 1039.63 452.71 1021.83 452.71"/>
    <polygon id="f-132" class="cls-15" points="982.16 451.48 983.67 479.23 1002.32 479.23 1000.61 451.48 982.16 451.48"/>
    <polygon id="f-133" class="cls-15" points="953.25 451.48 954.97 479.23 972.78 479.23 971.27 451.48 953.25 451.48"/>
    <polygon id="f-134" class="cls-15" points="923.58 451.48 924.13 479.23 942.52 479.23 941.38 451.48 923.58 451.48"/>
    <polygon id="f-135" class="cls-15" points="883.48 452.62 883.34 479.92 901.99 479.92 901.93 452.62 883.48 452.62"/>
    <polygon id="f-136" class="cls-15" points="854.57 452.62 854.64 479.92 872.45 479.92 872.59 452.62 854.57 452.62"/>
    <polygon id="f-137" class="cls-15" points="824.9 452.62 823.8 479.92 842.2 479.92 842.7 452.62 824.9 452.62"/>
    <polygon id="f-138" class="cls-15" points="688.98 452.62 687.33 479.27 705.97 479.27 707.42 452.62 688.98 452.62"/>
    <polygon id="f-139" class="cls-15" points="660.07 452.62 658.62 479.27 676.43 479.27 678.09 452.62 660.07 452.62"/>
    <polygon id="f-140" class="cls-15" points="630.4 452.62 627.78 479.27 646.18 479.27 648.2 452.62 630.4 452.62"/>
    <polygon id="f-141" class="cls-15" points="592.15 452.97 589.83 479.5 608.48 479.5 610.6 452.97 592.15 452.97"/>
    <polygon id="f-142" class="cls-15" points="563.25 452.97 561.13 479.5 578.94 479.5 581.26 452.97 563.25 452.97"/>
    <polygon id="f-143" class="cls-15" points="533.58 452.97 530.29 479.5 548.69 479.5 551.38 452.97 533.58 452.97"/>
    <polygon id="f-144" class="cls-15" points="494.25 453.96 490.98 479.04 509.63 479.04 512.69 453.96 494.25 453.96"/>
    <polygon id="f-145" class="cls-15" points="465.34 453.96 462.28 479.04 480.09 479.04 483.36 453.96 465.34 453.96"/>
    <polygon id="f-146" class="cls-15" points="435.67 453.96 431.44 479.04 449.84 479.04 453.47 453.96 435.67 453.96"/>
    <polygon id="f-147" class="cls-3" points="729.56 452.62 728.37 471.13 804.75 471.13 805.51 452.62 729.56 452.62"/>
    <polygon id="f-148" class="cls-15" points="1268.93 404.57 1271.24 419.28 1289.9 419.28 1287.08 404.57 1268.93 404.57"/>
    <polygon id="f-149" class="cls-15" points="1239.31 404.57 1241.62 419.28 1260.28 419.28 1257.46 404.57 1239.31 404.57"/>
    <polygon id="f-150" class="cls-15" points="1210.2 404.57 1212.51 419.28 1231.17 419.28 1228.35 404.57 1210.2 404.57"/>
    <polygon id="f-151" class="cls-15" points="1075.73 405.32 1077.08 419.99 1095.96 419.99 1094.61 405.32 1075.73 405.32"/>
    <polygon id="f-152" class="cls-15" points="1046.72 405.32 1048.07 419.99 1066.96 419.99 1065.61 405.32 1046.72 405.32"/>
    <polygon id="f-153" class="cls-15" points="1017.72 405.32 1019.07 419.99 1037.96 419.99 1036.61 405.32 1017.72 405.32"/>
    <rect id="f-154" class="cls-15" x="883.34" y="405.56" width="18.65" height="15.24"/>
    <rect id="f-155" class="cls-15" x="855.05" y="405.56" width="18.65" height="15.24"/>
    <rect id="f-156" class="cls-15" x="826.33" y="405.56" width="18.65" height="15.24"/>
    <polygon id="f-157" class="cls-15" points="730.58 406.97 729.87 420.8 805.51 420.8 806.38 406.97 730.58 406.97"/>
    <polygon id="f-158" class="cls-15" points="692.33 406.97 691.62 420.8 708.6 420.8 709.31 406.97 692.33 406.97"/>
    <polygon id="f-159" class="cls-15" points="663.55 406.97 662.84 420.8 679.82 420.8 680.53 406.97 663.55 406.97"/>
    <polygon id="f-160" class="cls-15" points="635.66 406.97 634.95 420.8 651.93 420.8 652.65 406.97 635.66 406.97"/>
    <polygon id="f-161" class="cls-15" points="520.01 408.97 517.7 422.05 500.32 422.05 501.84 408.97 520.01 408.97"/>
    <polygon id="f-162" class="cls-15" points="491.87 408.97 489.56 422.05 472.18 422.05 473.7 408.97 491.87 408.97"/>
    <polygon id="f-163" class="cls-15" points="463.32 408.97 461 422.05 443.62 422.05 445.14 408.97 463.32 408.97"/>
  </g>
</svg>
