<svg xmlns="http://www.w3.org/2000/svg" width="24in" height="15.99in" viewBox="0 0 1728 1151">
  <defs>
    <style>
      .cls-1, .cls-8 {
        fill: #fff;
      }

      .cls-1 {
        opacity: 0.7;
      }

      .cls-14, .cls-2, .cls-3 {
        fill: none;
      }

      .cls-11, .cls-14, .cls-2, .cls-3, .cls-5, .cls-6, .cls-7 {
        stroke: #231f20;
      }

      .cls-11, .cls-12, .cls-13, .cls-14, .cls-2, .cls-3, .cls-5, .cls-6, .cls-7, .cls-9 {
        stroke-miterlimit: 10;
      }

      .cls-2 {
        stroke-width: 2px;
      }

      .cls-3 {
        stroke-width: 0.75px;
      }

      .cls-4 {
        fill: #302a2b;
      }

      .cls-5 {
        fill: #d76b7d;
      }

      .cls-11, .cls-12, .cls-13, .cls-5, .cls-6, .cls-7, .cls-9 {
        stroke-width: 0.5px;
      }

      .cls-6 {
        fill: #f8e69a;
      }

      .cls-7 {
        fill: #74bc69;
      }

      .cls-9 {
        fill: #e2b7c0;
      }

      .cls-12, .cls-13, .cls-9 {
        stroke: #a7a9ac;
      }

      .cls-10 {
        fill: #d6d6d6;
      }

      .cls-11 {
        fill: #f7e599;
      }

      .cls-12 {
        fill: #e1efdf;
      }

      .cls-13 {
        fill: #f9f4de;
      }
    </style>
  </defs>
  <g id="Opacity_Rectangle" data-name="Opacity Rectangle">
    <rect id="o-1" class="cls-1" width="1728" height="1151"/>
  </g>
  <g id="Wall">
    <polygon id="w-1" class="cls-2" points="1363.18 566.46 1370.65 570.33 1370.65 572.26 1367.17 572.9 1366.4 574.96 1367.56 578.96 1366.14 583.98 1366.4 586.04 1374.9 589.13 1374.64 591.58 1372.84 594.54 1370.65 599.31 1372.71 602.01 1369.36 603.82 1370.2 605.84 1369.46 610 1370.49 616.5 1371.92 617.66 1371.79 622.08 1373.09 625.58 1372.83 628.57 1375.43 631.04 1373.74 633.24 1373.48 636.1 1403.81 883.65 1411.3 883.65 1413.17 898.8 1413.17 904.08 1410.96 904.59 1414.01 929.62 1386.08 929.62 1386.08 933.23 1348.24 933.23 1337.53 933.23 1252.81 934.95 1216.85 936.07 1177.3 937.57 1131.87 939.99 1086.77 941.26 1086.99 947.86 836.15 964.5 807.27 960.7 660.85 969.25 549.08 961.57 522.43 960.01 504.1 958.08 481.36 955.84 466.36 954.47 450.85 952.05 443.24 951.66 406.33 948.22 336.01 943.91 337.77 917.5 341.22 916.99 342.1 902.47 344.78 902.47 362.29 708.79 359.74 705.39 358.32 699.44 359.17 691.23 362.29 685.57 360.02 682.45 366.25 673.39 680.63 320.16 713.61 332.03 720.86 326.1 808.58 357.1 831.67 339.95 1055.25 441.5 1055.57 437 1252.7 533.5 1275.22 528 1363.18 566.46"/>
    <polyline id="c-1" class="cls-3" points="543.85 701.73 217.84 553.64 52.34 553.64"/>
    <g id="t-1.1">
      <path class="cls-4" d="M53.19,528.92H59c4.8,0,8.13,3.35,8.13,8.6s-3.25,8.89-8.16,8.89H53.19Zm1.4,16.2h4.19c4.6,0,6.86-3.23,6.86-7.53,0-3.83-2-7.38-6.86-7.38H54.59Z"/>
      <path class="cls-4" d="M88.21,537.54c0,4.78-2.55,9.12-8,9.12-4.93,0-7.81-4-7.81-9s2.79-9,8-9C85.23,528.67,88.21,532.44,88.21,537.54ZM74,537.59c0,4,2.2,7.78,6.38,7.78,4.5,0,6.38-3.67,6.38-7.8S84.58,530,80.38,530C75.91,530,74,533.66,74,537.59Z"/>
      <path class="cls-4" d="M109.67,538.4c0-3.41,0-6.69.1-8.44h-.07c-.71,2.37-4.22,10.93-6.43,16.45h-1.36c-1.67-4.28-5.3-13.81-6.1-16.48h0c.12,2,.17,6.06.17,9.06v7.42H94.54V528.92h2.1c2.38,6,5.37,13.77,6,15.76h0c.4-1.3,3.86-10,6.29-15.76h2.07v17.49h-1.4Z"/>
      <path class="cls-4" d="M133.85,538.4c0-3.41,0-6.69.1-8.44h-.08c-.7,2.37-4.21,10.93-6.42,16.45h-1.37c-1.66-4.28-5.3-13.81-6.1-16.48h0c.13,2,.18,6.06.18,9.06v7.42h-1.4V528.92h2.11c2.37,6,5.36,13.77,6,15.76h0c.4-1.3,3.86-10,6.29-15.76h2.07v17.49h-1.39Z"/>
      <path class="cls-4" d="M144.47,540.41l-2.21,6h-1.42l6.41-17.49h1.67l6.68,17.49h-1.52l-2.26-6Zm6.89-1.29c-1.93-5.16-2.93-7.66-3.28-8.84h0c-.43,1.33-1.55,4.42-3.11,8.84Z"/>
      <path class="cls-4" d="M174.44,546.41h-1.16a12.79,12.79,0,0,1-.17-2.77c-.64,1.2-2,3-5.64,3-5,0-7.6-3.82-7.6-8.79,0-5.22,2.75-9.15,7.88-9.15,3.79,0,6.29,2,6.84,5.21h-1.4c-.74-2.45-2.45-3.92-5.49-3.92-4.35,0-6.33,3.39-6.33,7.78,0,4,1.91,7.59,6.16,7.59s5.56-2.84,5.56-6.66v-.2h-5.61v-1.29h7Z"/>
      <path class="cls-4" d="M191.77,537.84h-8.91v7.28h9.76l-.2,1.29h-11V528.92h10.76v1.29h-9.36v6.34h8.91Z"/>
      <path class="cls-4" d="M198.89,541.71c.52,2.31,2.07,3.67,4.92,3.67,3.17,0,4.39-1.58,4.39-3.47s-.87-3.17-4.7-4.12-5.31-2.14-5.31-4.66c0-2.31,1.68-4.46,5.44-4.46s5.49,2.35,5.72,4.49H207.9c-.4-1.86-1.61-3.2-4.35-3.2-2.5,0-3.86,1.16-3.86,3.09s1.14,2.65,4.35,3.45c4.93,1.23,5.66,3.2,5.66,5.3,0,2.59-1.88,4.81-5.95,4.81-4.37,0-6-2.54-6.31-4.9Z"/>
      <path class="cls-4" d="M151.17,568.4c0-3.41,0-6.69.1-8.44h-.07c-.71,2.37-4.22,10.93-6.43,16.45h-1.36c-1.67-4.28-5.3-13.81-6.1-16.48h-.05c.12,2,.17,6.06.17,9.06v7.42H136V558.92h2.1c2.38,6,5.37,13.77,6,15.76h.05c.4-1.3,3.86-10,6.29-15.76h2.07v17.49h-1.4Z"/>
      <path class="cls-4" d="M161.56,558.92v10.59c0,4.62,2.61,5.82,5.07,5.82,2.9,0,5.06-1.23,5.06-5.82V558.92h1.43v10.52c0,5.48-2.91,7.17-6.54,7.17-3.46,0-6.47-1.86-6.47-7V558.92Z"/>
      <path class="cls-4" d="M181.91,568.27v8.14h-1.42V558.92h6.3c3.46,0,5.29,1.86,5.29,4.6a4,4,0,0,1-3.26,4.1c1.78.43,3,1.59,3,4.57v.68a11.81,11.81,0,0,0,.22,3.54H190.6a11.82,11.82,0,0,1-.25-3.65v-.45c0-2.85-.84-4-4.18-4Zm0-1.29h4.2c3,0,4.47-1.14,4.47-3.42s-1.39-3.35-4.1-3.35h-4.57Z"/>
      <path class="cls-4" d="M198.89,571.71c.52,2.31,2.07,3.67,4.92,3.67,3.17,0,4.39-1.58,4.39-3.47s-.87-3.17-4.7-4.12-5.31-2.14-5.31-4.66c0-2.31,1.68-4.46,5.44-4.46s5.49,2.35,5.72,4.49H207.9c-.4-1.86-1.61-3.2-4.35-3.2-2.5,0-3.86,1.16-3.86,3.09s1.14,2.65,4.35,3.45c4.93,1.23,5.66,3.2,5.66,5.3,0,2.59-1.88,4.81-5.95,4.81-4.37,0-6-2.54-6.31-4.9Z"/>
    </g>
    <rect id="r-1.1" class="cls-5" x="81.03" y="605.32" width="32.71" height="32.71"/>
    <g id="s-1.1">
      <path class="cls-4" d="M136.63,616.23h1.13v6.09h8.34v-6.09h1.12v14H146.1v-6.88h-8.34v6.88h-1.13Z"/>
      <path class="cls-4" d="M154.64,625.43l-1.77,4.8h-1.14l5.14-14h1.33l5.35,14h-1.22l-1.81-4.8Zm5.52-1c-1.55-4.14-2.35-6.14-2.63-7.08h0c-.34,1.06-1.24,3.54-2.49,7.08Z"/>
      <path class="cls-4" d="M168.51,616.23v8.48c0,3.7,2.09,4.65,4.06,4.65,2.32,0,4.05-1,4.05-4.65v-8.48h1.14v8.42c0,4.39-2.33,5.74-5.23,5.74s-5.18-1.49-5.18-5.56v-8.6Z"/>
      <path class="cls-4" d="M186.59,617.27H181.9v-1h10.54v1h-4.71v13h-1.14Z"/>
    </g>
    <rect id="r-2.1" class="cls-6" x="81.08" y="645.94" width="32.71" height="32.71"/>
    <g id="s-2.1">
      <path class="cls-4" d="M148.79,664.43c0-2.73,0-5.35.08-6.75h-.06c-.56,1.9-3.37,8.75-5.14,13.17h-1.09c-1.33-3.43-4.24-11.06-4.88-13.19h0c.1,1.6.14,4.85.14,7.25v5.94h-1.12v-14h1.68c1.91,4.77,4.3,11,4.82,12.61h0c.32-1,3.09-8,5-12.61h1.66v14h-1.12Z"/>
      <path class="cls-4" d="M167.61,663.75c0,3.82-2.05,7.3-6.37,7.3-4,0-6.25-3.18-6.25-7.2s2.22-7.2,6.39-7.2C165.22,656.65,167.61,659.67,167.61,663.75Zm-11.42,0c0,3.21,1.77,6.23,5.11,6.23,3.6,0,5.1-2.95,5.1-6.25s-1.7-6.09-5.07-6.09C157.76,657.68,156.19,660.64,156.19,663.79Z"/>
      <path class="cls-4" d="M175.64,670.85v-5.26a.68.68,0,0,0-.08-.32l-5-8.42h1.3c1.39,2.37,3.81,6.48,4.41,7.53.6-1,3-5.12,4.53-7.53h1.25l-5.22,8.5a.61.61,0,0,0-.06.3v5.2Z"/>
      <path class="cls-4" d="M194.23,664H187.1v5.83h7.81l-.16,1H186v-14h8.61v1H187.1V663h7.13Z"/>
      <path class="cls-4" d="M199.66,670.85v-14h1.65c2.17,3.35,7.25,11.13,8.12,12.65h0c-.12-2-.1-4.08-.1-6.36v-6.29h1.14v14H209c-2.06-3.23-7.23-11.34-8.22-12.88h0c.1,1.83.08,3.89.08,6.43v6.45Z"/>
    </g>
    <rect id="r-3.1" class="cls-7" x="81.03" y="685.31" width="32.71" height="32.71"/>
    <g id="s-3.1">
      <path class="cls-4" d="M136.63,696.22h4.91c2.69,0,4.13,1.43,4.13,3.45a3,3,0,0,1-2.15,3.06,3.53,3.53,0,0,1,2.65,3.45c0,2.79-2.1,4-4.55,4h-5Zm4.55,6c2.4,0,3.31-.89,3.31-2.5,0-1.37-1-2.48-2.9-2.48h-3.85v5Zm-3.44,7h3.91c1.83,0,3.36-.91,3.36-3,0-1.77-1.13-3-3.93-3h-3.34Z"/>
      <path class="cls-4" d="M152.74,705.42l-1.77,4.8h-1.14l5.14-14h1.33l5.35,14h-1.22l-1.81-4.8Zm5.52-1c-1.55-4.14-2.35-6.14-2.63-7.08h0c-.34,1.06-1.24,3.54-2.49,7.08Z"/>
      <path class="cls-4" d="M166.36,706.46c.41,1.84,1.65,2.93,3.93,2.93,2.54,0,3.52-1.26,3.52-2.77s-.7-2.54-3.77-3.3-4.25-1.71-4.25-3.73c0-1.85,1.35-3.57,4.36-3.57s4.4,1.89,4.58,3.59h-1.17c-.31-1.48-1.28-2.56-3.47-2.56-2,0-3.1.93-3.1,2.48s.92,2.12,3.49,2.76c3.94,1,4.53,2.56,4.53,4.24,0,2.07-1.51,3.85-4.76,3.85-3.5,0-4.79-2-5.06-3.92Z"/>
    </g>
    <rect id="b-1" class="cls-8" x="69.6" y="599" width="165.1" height="132.73"/>
    <rect id="r-4.1" class="cls-9" x="81.03" y="605.32" width="32.71" height="32.71"/>
    <g id="s-4.1">
      <path class="cls-10" d="M136.65,616.23h1.13v6.09h8.34v-6.09h1.12v14h-1.12v-6.88h-8.34v6.88h-1.13Z"/>
      <path class="cls-10" d="M154.66,625.43l-1.77,4.8h-1.14l5.13-14h1.34l5.35,14h-1.22l-1.81-4.8Zm5.51-1c-1.54-4.14-2.34-6.13-2.62-7.08h0c-.34,1.07-1.24,3.54-2.49,7.08Z"/>
      <path class="cls-10" d="M168.53,616.23v8.48c0,3.7,2.09,4.65,4.06,4.65,2.32,0,4-1,4-4.65v-8.48h1.14v8.42c0,4.39-2.33,5.74-5.23,5.74s-5.18-1.49-5.18-5.56v-8.6Z"/>
      <path class="cls-10" d="M186.61,617.27h-4.69v-1h10.54v1h-4.71v13h-1.14Z"/>
    </g>
    <g id="s-5.1">
      <path class="cls-4" d="M148.82,664.45c0-2.74,0-5.36.08-6.76h-.06c-.56,1.9-3.37,8.75-5.14,13.17h-1.1c-1.33-3.43-4.24-11.06-4.88-13.19h0c.1,1.6.14,4.85.14,7.25v5.94h-1.11v-14h1.68c1.9,4.78,4.3,11,4.81,12.61h0c.32-1,3.1-8,5-12.61h1.66v14h-1.12Z"/>
      <path class="cls-4" d="M167.63,663.76c0,3.82-2,7.3-6.37,7.3-3.95,0-6.25-3.18-6.25-7.2s2.23-7.2,6.39-7.2C165.25,656.66,167.63,659.68,167.63,663.76Zm-11.42,0c0,3.21,1.77,6.23,5.11,6.23,3.6,0,5.11-2.95,5.11-6.25s-1.71-6.09-5.07-6.09C157.78,657.69,156.21,660.65,156.21,663.8Z"/>
      <path class="cls-4" d="M175.67,670.86v-5.25a.58.58,0,0,0-.09-.32l-5-8.43h1.31c1.39,2.38,3.81,6.49,4.41,7.54.6-1,3-5.13,4.53-7.54h1.24l-5.21,8.5a.63.63,0,0,0-.06.31v5.19Z"/>
      <path class="cls-4" d="M194.26,664h-7.13v5.83h7.81l-.17,1H186v-14h8.61v1h-7.49V663h7.13Z"/>
      <path class="cls-4" d="M199.69,670.86v-14h1.64c2.17,3.36,7.25,11.13,8.13,12.65h0c-.12-2-.1-4.08-.1-6.36v-6.29h1.13v14H209L200.76,658h0c.1,1.82.08,3.88.08,6.42v6.45Z"/>
    </g>
    <rect id="r-5.1" class="cls-11" x="78.66" y="642.8" width="37.7" height="37.7"/>
    <g id="s-6.1">
      <path class="cls-10" d="M136.63,696.22h4.91c2.69,0,4.13,1.43,4.13,3.45a3,3,0,0,1-2.15,3.06,3.53,3.53,0,0,1,2.65,3.45c0,2.79-2.1,4-4.55,4h-5Zm4.55,6c2.4,0,3.31-.89,3.31-2.5,0-1.37-1-2.48-2.9-2.48h-3.85v5Zm-3.44,7h3.91c1.83,0,3.36-.91,3.36-3,0-1.77-1.13-3-3.93-3h-3.34Z"/>
      <path class="cls-10" d="M152.74,705.42l-1.77,4.8h-1.14l5.14-14h1.33l5.35,14h-1.22l-1.81-4.8Zm5.52-1c-1.55-4.14-2.35-6.14-2.63-7.08h0c-.34,1.06-1.24,3.54-2.49,7.08Z"/>
      <path class="cls-10" d="M166.36,706.46c.41,1.84,1.65,2.93,3.93,2.93,2.54,0,3.52-1.26,3.52-2.77s-.7-2.54-3.77-3.3-4.25-1.71-4.25-3.73c0-1.85,1.35-3.57,4.36-3.57s4.4,1.89,4.58,3.59h-1.17c-.31-1.48-1.28-2.56-3.47-2.56-2,0-3.1.93-3.1,2.48s.92,2.12,3.49,2.76c3.94,1,4.53,2.56,4.53,4.24,0,2.07-1.51,3.85-4.76,3.85-3.5,0-4.79-2-5.06-3.92Z"/>
    </g>
    <rect id="r-6.1" class="cls-12" x="81.11" y="685.17" width="32.64" height="33"/>
  </g>
  <g id="Roof">
    <path id="a-1" class="cls-2" d="M368.4,671.21l312.23-351,33,11.87,7.26-5.93,87.72,31L831.66,340,1055.25,441.5l.32-4.5,197.13,96.5,22.52-5.5,87.87,38.8-.09-1.5-.21-8.78,3.24-3.76,4.91-1.67,7.62-1.88-.1-3.55,2.19-2.82,2.2-1.78,3-2.69-11.28-6,1.67-1.39,2.51-.56,2.79-4.48,4.31-5.27,2.23-2.64-32.67-17.41v-4.91l-6.16-3.82,1.77-2.71,2-.84V486.3l-15.25-8-18.35-9.87-19.12-10.13-4.91-2.79-1.29-2.84L1280,446.25v-2.59l-19.13-11.11-22.48,10.85-16.54-10.08,1.55-13.95L1215.1,416l-8.78,8.53-21.45-10.6v-2.32l-51.17-28.69v2.85l-24.81-13.18v-2.85l-66.67-34.88-32.74-17-3.41,4.36-4.92-4.55-3-.75L996,320.67l1.13,10.22,4.92,43-2.27,1.33.95,6.24-14-4-1.13,2.46L969,373.48l-1.14-3.59-3.59-2.46L955,365.91l-10.22-5.49-9.08-.75s-4.74-4.55-5.3-4.74-11.93-6.24-11.93-6.24l-5.87,1.13-2.65-5.11,1.14-8.52-1.89-2.08v-3l-7-6.62-4.73-.95-4.92-3V316.7l5.68-2.46,4-3.22-4.73-4.16-7.19-3.41-7.2-1.52-5.49-2.08-8.7-7.19-8-3.79-16.47-5.68-2.27-2.27-3.6-2.65-5.48-.93-3.71-4.16-.45-4.06-5.74.34-2.93,4.5L809,271.15v-3l-3.94-6,3.78,1.36,5.93,2.79-1.4-3.53,9.3,3.78,1.15-1.56-13.33-6.67,1.81-3-.25-4.61-4.11-.74-5.85-10.87,13.75,8.4-.88-2.79L803.45,237l-1.28-6,9.8,3-10.23-9.8v-5.54l-29.4-6.82-6.82-1.7-1.7-6-15.34-8.52-3.41,5.54-23-7.67-4.26,7.24-8.95-19.67-30.26,4.76-3,10.23-13.21-2.56-8.95-3-6-6.82,3.41,12.36h-4.68l-6.82,2.55L624.9,225.06h-6l-4.68,18.33L602.74,257l-11.51,14.49-2.13,9.8h-7.24L561,311.14l-6.39-4.26L552,317.11l-4.26,13.64-7.25,10.65L532,350.77l-5.54,3.41-5.54,17.47L506,392.54h-7.67l-5.54,3.83,8.09,5.11L489,404l-3.83,3.84v11.93l-4.26,2.13-6.82,4.26-6,4.69-4.67,6.39V446l-2.05.41-3.89.41-3.28-2.25-1-2.05-4.3-2.05-4.3,1-4.51,11.47,5.74,3.07h-3.9l-1.22,4.1,2.25,3.28L441.69,470,439,478.14l3.89,4.31,1,3.28L348.32,641.15l7.36,7.08-2,3.12h8.27l4.25,1.42v17.3"/>
    <polyline id="c-2" class="cls-3" points="462.55 523.5 217.84 214.01 52.34 214.01"/>
    <g id="t-1.2">
      <path class="cls-4" d="M53.19,189.29H59c4.8,0,8.13,3.35,8.13,8.6s-3.25,8.89-8.16,8.89H53.19Zm1.4,16.2h4.19c4.6,0,6.86-3.23,6.86-7.53,0-3.83-2-7.38-6.86-7.38H54.59Z"/>
      <path class="cls-4" d="M88.21,197.91c0,4.78-2.55,9.12-8,9.12-4.93,0-7.81-4-7.81-9s2.79-9,8-9C85.23,189,88.21,192.81,88.21,197.91ZM74,198c0,4,2.2,7.78,6.38,7.78,4.5,0,6.38-3.68,6.38-7.8s-2.13-7.61-6.33-7.61C75.91,190.33,74,194,74,198Z"/>
      <path class="cls-4" d="M109.67,198.77c0-3.42,0-6.69.1-8.44h-.07c-.71,2.37-4.22,10.93-6.43,16.45h-1.36c-1.67-4.28-5.3-13.81-6.1-16.48h0c.12,2,.17,6.06.17,9.06v7.42H94.54V189.29h2.1c2.38,6,5.37,13.77,6,15.76h0c.4-1.3,3.86-10,6.29-15.76h2.07v17.49h-1.4Z"/>
      <path class="cls-4" d="M133.85,198.77c0-3.42,0-6.69.1-8.44h-.08c-.7,2.37-4.21,10.93-6.42,16.45h-1.37c-1.66-4.28-5.3-13.81-6.1-16.48h0c.13,2,.18,6.06.18,9.06v7.42h-1.4V189.29h2.11c2.37,6,5.36,13.77,6,15.76h0c.4-1.3,3.86-10,6.29-15.76h2.07v17.49h-1.39Z"/>
      <path class="cls-4" d="M144.47,200.78l-2.21,6h-1.42l6.41-17.49h1.67l6.68,17.49h-1.52l-2.26-6Zm6.89-1.29c-1.93-5.17-2.93-7.66-3.28-8.84h0c-.43,1.33-1.55,4.42-3.11,8.84Z"/>
      <path class="cls-4" d="M174.44,206.78h-1.16a12.79,12.79,0,0,1-.17-2.77c-.64,1.2-2,3-5.64,3-5,0-7.6-3.82-7.6-8.79,0-5.22,2.75-9.15,7.88-9.15,3.79,0,6.29,2,6.84,5.21h-1.4c-.74-2.45-2.45-3.92-5.49-3.92-4.35,0-6.33,3.39-6.33,7.78,0,4,1.91,7.59,6.16,7.59s5.56-2.84,5.56-6.66v-.2h-5.61v-1.29h7Z"/>
      <path class="cls-4" d="M191.77,198.21h-8.91v7.28h9.76l-.2,1.29h-11V189.29h10.76v1.29h-9.36v6.34h8.91Z"/>
      <path class="cls-4" d="M198.89,202.08c.52,2.31,2.07,3.67,4.92,3.67,3.17,0,4.39-1.58,4.39-3.47s-.87-3.17-4.7-4.12-5.31-2.14-5.31-4.66c0-2.31,1.68-4.46,5.44-4.46s5.49,2.35,5.72,4.49H207.9c-.4-1.86-1.61-3.21-4.35-3.21-2.5,0-3.86,1.17-3.86,3.1s1.14,2.65,4.35,3.45c4.93,1.22,5.66,3.2,5.66,5.3,0,2.59-1.88,4.81-5.95,4.81-4.37,0-6-2.54-6.31-4.9Z"/>
      <path class="cls-4" d="M158,220.58h-5.86v-1.29h13.17v1.29h-5.88v16.2H158Z"/>
      <path class="cls-4" d="M184.66,227.91c0,4.78-2.55,9.12-8,9.12-4.93,0-7.81-4-7.81-9s2.79-9,8-9C181.68,219,184.66,222.81,184.66,227.91ZM170.4,228c0,4,2.2,7.78,6.38,7.78,4.5,0,6.38-3.68,6.38-7.8s-2.13-7.61-6.33-7.61C172.36,220.33,170.4,224,170.4,228Z"/>
      <path class="cls-4" d="M192.39,219.29v17.49H191V219.29Z"/>
      <path class="cls-4" d="M203.51,220.58h-5.86v-1.29h13.17v1.29h-5.88v16.2h-1.43Z"/>
    </g>
    <rect id="r-1.2" class="cls-5" x="82.66" y="264.6" width="32.71" height="32.71"/>
    <g id="s-1.2">
      <path class="cls-4" d="M138.26,275.51h1.12v6.09h8.34v-6.09h1.12v14h-1.12v-6.88h-8.34v6.88h-1.12Z"/>
      <path class="cls-4" d="M156.27,284.71l-1.77,4.8h-1.14l5.13-14h1.34l5.35,14H164l-1.8-4.8Zm5.51-1c-1.54-4.13-2.34-6.13-2.62-7.07h0c-.34,1.06-1.24,3.54-2.49,7.07Z"/>
      <path class="cls-4" d="M170.14,275.51V284c0,3.7,2.08,4.65,4.05,4.65,2.33,0,4.06-1,4.06-4.65v-8.48h1.14v8.42c0,4.38-2.33,5.74-5.24,5.74S169,288.18,169,284.1v-8.59Z"/>
      <path class="cls-4" d="M188.22,276.54h-4.69v-1h10.54v1h-4.71v13h-1.14Z"/>
    </g>
    <rect id="r-2.2" class="cls-6" x="82.66" y="304.6" width="32.71" height="32.71"/>
    <g id="s-2.2">
      <path class="cls-4" d="M150.37,323.09c0-2.73,0-5.35.08-6.76h-.06c-.56,1.91-3.37,8.76-5.14,13.18h-1.09c-1.34-3.43-4.24-11.06-4.88-13.2h0c.1,1.61.14,4.86.14,7.26v5.94h-1.12v-14h1.68c1.91,4.77,4.3,11,4.82,12.61h0c.32-1,3.09-8,5-12.61h1.66v14h-1.12Z"/>
      <path class="cls-4" d="M169.18,322.41c0,3.82-2,7.3-6.37,7.3-3.95,0-6.25-3.18-6.25-7.2s2.23-7.2,6.39-7.2C166.8,315.31,169.18,318.32,169.18,322.41Zm-11.41,0c0,3.21,1.76,6.22,5.1,6.22,3.6,0,5.11-2.94,5.11-6.24s-1.7-6.09-5.07-6.09C159.34,316.34,157.77,319.3,157.77,322.45Z"/>
      <path class="cls-4" d="M177.22,329.51v-5.26a.68.68,0,0,0-.08-.32l-5-8.42h1.31c1.39,2.37,3.81,6.48,4.41,7.53.6-1.05,3-5.12,4.53-7.53h1.25l-5.22,8.5a.61.61,0,0,0-.06.3v5.2Z"/>
      <path class="cls-4" d="M195.81,322.64h-7.13v5.83h7.81l-.16,1h-8.77v-14h8.61v1h-7.49v5.07h7.13Z"/>
      <path class="cls-4" d="M201.24,329.51v-14h1.65c2.17,3.35,7.25,11.13,8.12,12.65h0c-.12-2-.1-4.08-.1-6.36v-6.29h1.14v14h-1.53c-2.07-3.23-7.23-11.34-8.22-12.88h0c.1,1.83.08,3.89.08,6.42v6.46Z"/>
    </g>
    <rect id="r-3.2" class="cls-7" x="82.66" y="344.59" width="32.71" height="32.71"/>
    <g id="s-3.2">
      <path class="cls-4" d="M138.26,355.5h4.91c2.69,0,4.13,1.43,4.13,3.44a3,3,0,0,1-2.15,3.06,3.55,3.55,0,0,1,2.65,3.46c0,2.79-2.1,4-4.55,4h-5Zm4.55,6c2.4,0,3.31-.89,3.31-2.5,0-1.37-1-2.48-2.9-2.48h-3.86v5Zm-3.45,7h3.92c1.83,0,3.35-.91,3.35-3,0-1.76-1.13-3-3.92-3h-3.35Z"/>
      <path class="cls-4" d="M154.37,364.69l-1.77,4.81h-1.14l5.13-14h1.34l5.35,14h-1.23l-1.8-4.81Zm5.51-1c-1.54-4.13-2.34-6.13-2.62-7.07h0c-.34,1.06-1.24,3.54-2.49,7.07Z"/>
      <path class="cls-4" d="M168,365.73c.42,1.85,1.66,2.94,3.94,2.94,2.54,0,3.51-1.26,3.51-2.77s-.7-2.54-3.76-3.3-4.25-1.71-4.25-3.73c0-1.85,1.35-3.57,4.35-3.57s4.4,1.88,4.58,3.59h-1.16c-.31-1.49-1.28-2.56-3.47-2.56-2,0-3.1.93-3.1,2.48s.91,2.12,3.49,2.76c3.94,1,4.52,2.56,4.52,4.24,0,2.07-1.5,3.85-4.75,3.85-3.5,0-4.8-2-5.06-3.93Z"/>
    </g>
    <rect id="b-2" class="cls-8" x="62.83" y="249.62" width="165.1" height="132.73"/>
    <rect id="r-4.2" class="cls-5" x="80.04" y="262.79" width="37.7" height="37.7"/>
    <g id="s-4.2">
      <path class="cls-4" d="M138.26,275.51h1.12v6.09h8.34v-6.09h1.12v14h-1.12v-6.88h-8.34v6.88h-1.12Z"/>
      <path class="cls-4" d="M156.27,284.71l-1.77,4.8h-1.14l5.13-14h1.34l5.35,14H164l-1.8-4.8Zm5.51-1c-1.54-4.13-2.34-6.13-2.62-7.07h0c-.34,1.06-1.24,3.54-2.49,7.07Z"/>
      <path class="cls-4" d="M170.14,275.51V284c0,3.7,2.08,4.65,4.05,4.65,2.33,0,4.06-1,4.06-4.65v-8.48h1.14v8.42c0,4.38-2.33,5.74-5.24,5.74S169,288.18,169,284.1v-8.59Z"/>
      <path class="cls-4" d="M188.22,276.54h-4.69v-1h10.54v1h-4.71v13h-1.14Z"/>
    </g>
    <rect id="r-5.2" class="cls-13" x="82.68" y="304.61" width="32.71" height="32.71"/>
    <g id="s-5.2">
      <path class="cls-10" d="M150.4,323.11c0-2.74,0-5.36.08-6.76h-.06c-.57,1.9-3.37,8.75-5.15,13.17h-1.09c-1.33-3.43-4.24-11.06-4.88-13.19h0c.1,1.6.14,4.85.14,7.25v5.94h-1.11v-14H140c1.9,4.78,4.29,11,4.81,12.61h0c.32-1,3.09-8,5-12.61h1.66v14H150.4Z"/>
      <path class="cls-10" d="M169.21,322.42c0,3.82-2.05,7.3-6.37,7.3-4,0-6.25-3.18-6.25-7.2s2.23-7.2,6.39-7.2C166.82,315.32,169.21,318.34,169.21,322.42Zm-11.42,0c0,3.21,1.77,6.23,5.11,6.23,3.6,0,5.11-2.95,5.11-6.25s-1.71-6.09-5.07-6.09C159.36,316.35,157.79,319.31,157.79,322.46Z"/>
      <path class="cls-10" d="M177.24,329.52v-5.25a.76.76,0,0,0-.08-.33l-5-8.42h1.3l4.42,7.54c.6-1.05,3-5.13,4.53-7.54h1.24l-5.21,8.5a.61.61,0,0,0-.06.3v5.2Z"/>
      <path class="cls-10" d="M195.84,322.66h-7.13v5.83h7.81l-.17,1h-8.76v-14h8.6v1h-7.48v5.08h7.13Z"/>
      <path class="cls-10" d="M201.27,329.52v-14h1.64c2.17,3.36,7.25,11.13,8.13,12.65h0c-.12-2-.11-4.08-.11-6.36v-6.29h1.14v14h-1.52l-8.23-12.87h0c.1,1.82.08,3.88.08,6.42v6.45Z"/>
    </g>
    <rect id="r-6.2" class="cls-12" x="82.68" y="344.53" width="32.64" height="33"/>
    <g id="s-6.2">
      <path class="cls-10" d="M138.29,355.51h4.9c2.7,0,4.13,1.42,4.13,3.44a3,3,0,0,1-2.15,3.06,3.53,3.53,0,0,1,2.65,3.45c0,2.79-2.09,4.05-4.55,4.05h-5Zm4.54,6c2.4,0,3.31-.9,3.31-2.5,0-1.38-.95-2.48-2.9-2.48h-3.85v5Zm-3.44,7h3.91c1.84,0,3.36-.92,3.36-3,0-1.77-1.13-3-3.93-3h-3.34Z"/>
      <path class="cls-10" d="M154.39,364.7l-1.76,4.81h-1.14l5.13-14H158l5.35,14h-1.22l-1.81-4.81Zm5.52-1c-1.55-4.13-2.35-6.13-2.63-7.08h0c-.34,1.07-1.23,3.54-2.48,7.08Z"/>
      <path class="cls-10" d="M168,365.74c.41,1.85,1.65,2.94,3.93,2.94,2.54,0,3.52-1.27,3.52-2.78s-.7-2.54-3.77-3.29-4.25-1.71-4.25-3.73c0-1.85,1.35-3.57,4.36-3.57s4.4,1.88,4.58,3.59h-1.16c-.32-1.49-1.29-2.57-3.48-2.57-2,0-3.1.93-3.1,2.48s.92,2.13,3.49,2.76c3.94,1,4.53,2.56,4.53,4.25,0,2.07-1.51,3.85-4.76,3.85-3.5,0-4.79-2-5.05-3.93Z"/>
    </g>
  </g>
  <g id="Window">
    <polygon id="f-0.1" class="cls-14" points="898.5 940.5 898.5 905.11 924.55 905.55 924.55 940.44 898.5 940.5"/>
    <polygon id="f-0.2" class="cls-14" points="965.04 905.26 965.04 940.36 987.46 940.31 987.46 905.3 965.04 905.26"/>
    <polygon id="f-0.3" class="cls-14" points="1023.68 905.38 1023.68 938.95 1045.3 939.2 1045.3 905.43 1023.68 905.38"/>
    <polygon id="f-0.4" class="cls-14" points="1114.26 908.88 1114.26 940.03 1131.87 939.99 1131.87 908.91 1114.26 908.88"/>
    <polygon id="f-0.5" class="cls-14" points="1160.64 908.96 1160.64 937.6 1177.3 937.57 1177.3 908.99 1160.64 908.96"/>
    <polygon id="f-0.6" class="cls-14" points="1202.15 909.03 1202.15 936.1 1216.85 936.07 1216.85 909.06 1202.15 909.03"/>
    <polygon id="f-0.7" class="cls-14" points="1239.67 909.1 1239.67 934.97 1252.81 934.95 1252.81 909.12 1239.67 909.1"/>
    <polygon id="f-1.1" class="cls-14" points="874.5 782.5 874.5 858 902.67 858 902.67 785.73 874.5 782.5"/>
    <polygon id="f-1.2" class="cls-14" points="940.5 790.5 940.5 859.65 962.68 859.65 962.68 793.44 940.5 790.5"/>
    <polygon id="f-1.3" class="cls-14" points="998.5 797.5 998.5 861.95 1017.5 862 1016.5 799.49 998.5 797.5"/>
    <polygon id="f-1.4" class="cls-14" points="1103.5 811.5 1106.5 869 1124.3 869 1122.5 813.59 1103.5 811.5"/>
    <polygon id="f-1.5" class="cls-14" points="1150.86 815.5 1153.62 871 1170 871 1168.35 817.52 1150.86 815.5"/>
    <polygon id="f-1.6" class="cls-14" points="1191.5 820.5 1194.5 872.5 1209.5 872.5 1206.5 822.5 1191.5 820.5"/>
    <polygon id="f-1.7" class="cls-14" points="1229.5 825.5 1233.5 874.5 1246.94 874.5 1244.5 826.5 1229.5 825.5"/>
    <polygon id="f-1.8" class="cls-14" points="1264.38 830 1267.5 875.5 1279.5 876.5 1276.5 831.5 1264.38 830"/>
    <polygon id="f-2.1" class="cls-14" points="874.5 655.29 874.5 735.11 899.5 738.5 899.5 660.74 874.5 655.29"/>
    <polygon id="f-2.2" class="cls-14" points="936.5 669.5 938.5 745.5 959.5 749.5 959.5 674.76 936.5 669.5"/>
    <polygon id="f-2.3" class="cls-14" points="993.5 682.5 995.5 755.5 1013.5 757.5 1011.5 686.44 993.5 682.5"/>
    <polygon id="f-2.4" class="cls-14" points="1097.61 709.5 1101.5 777.5 1119.5 779.5 1117.5 713.5 1097.61 709.5"/>
    <polygon id="f-2.5" class="cls-14" points="1144.5 719.5 1148.5 784.5 1164.5 787.5 1161.5 723.5 1144.5 719.5"/>
    <polygon id="f-2.6" class="cls-14" points="1185.5 729.5 1189.5 790.5 1204.5 792.5 1200.55 732.59 1185.5 729.5"/>
    <polygon id="f-2.7" class="cls-14" points="1223.5 737.5 1227.5 795.5 1241.76 797.5 1238.22 740.85 1223.5 737.5"/>
    <polygon id="f-2.8" class="cls-14" points="1257.5 745.5 1262.5 799.5 1274.5 801.5 1270.5 747.5 1257.5 745.5"/>
    <polygon id="f-3.1" class="cls-14" points="872.5 557.5 872.5 612.93 898.5 619.5 899.5 565.25 872.5 557.5"/>
    <polygon id="f-3.2" class="cls-14" points="934.51 576.3 936.5 628.34 956.5 634.5 956.5 583.52 934.51 576.3"/>
    <polygon id="f-3.3" class="cls-14" points="989.5 593.5 992.5 645.5 1010.5 650.5 1008.5 598.5 989.5 593.5"/>
    <polygon id="f-3.4" class="cls-14" points="1093.5 630.5 1095.5 674.5 1114.5 680.5 1112.5 635.5 1093.5 630.5"/>
    <polygon id="f-3.5" class="cls-14" points="1138.5 643.5 1141.5 687.5 1157.5 692.5 1155.5 648.5 1138.5 643.5"/>
    <polygon id="f-3.6" class="cls-14" points="1179.2 655.31 1182.8 697.84 1197.11 701.73 1195.38 660.85 1179.2 655.31"/>
    <polygon id="f-3.7" class="cls-14" points="1216.85 668 1219.5 707.5 1232.63 710.85 1231.5 672.5 1216.85 668"/>
    <polygon id="f-3.8" class="cls-14" points="1251.39 679 1253.5 717.5 1266 719.5 1264.24 682.5 1251.39 679"/>
    <polygon id="f-4.1" class="cls-14" points="870.5 469.5 872.5 521.31 896.5 528.5 896.5 477.48 870.5 469.5"/>
    <polygon id="f-4.2" class="cls-14" points="930.5 490.5 932.5 539.5 954.5 547.5 953.25 499 930.5 490.5"/>
    <polygon id="f-4.3" class="cls-14" points="986.34 511.27 987.55 557.12 1005.5 564.5 1004.56 517.87 986.34 511.27"/>
    <polygon id="f-4.4" class="cls-14" points="1087.5 555.5 1090.5 598.5 1111.29 605.4 1107.5 563.5 1087.5 555.5"/>
    <polygon id="f-4.5" class="cls-14" points="1132.5 572.5 1135.5 613.5 1152.5 619.5 1151.14 580.45 1132.5 572.5"/>
    <polygon id="f-4.6" class="cls-14" points="1174.5 588.5 1177.5 626.5 1191.5 631.5 1189.4 593.5 1174.5 588.5"/>
    <polygon id="f-4.7" class="cls-14" points="1210.5 601.5 1213.5 639.5 1226.5 644.5 1224.74 607.39 1210.5 601.5"/>
    <polygon id="f-4.8" class="cls-14" points="1244.5 615.5 1248.5 651.5 1260.91 655.5 1256.5 619.5 1244.5 615.5"/>
    <polygon id="f-5.1" class="cls-14" points="868.5 387.5 870.5 432.91 894.5 441.5 894.5 397.6 868.5 387.5"/>
    <polygon id="f-5.2" class="cls-14" points="927.5 411.5 929.5 458.5 950.5 466.5 948.5 420.5 927.5 411.5"/>
    <polygon id="f-5.3" class="cls-14" points="980.5 435.5 983.5 477.5 1001.5 484.5 999.5 442.5 980.5 435.5"/>
    <polygon id="f-5.4" class="cls-14" points="1081.99 484.5 1085.5 526.5 1103.5 533.5 1101.5 494.5 1081.99 484.5"/>
    <polygon id="f-5.5" class="cls-14" points="1126.5 505.5 1130.5 544.5 1146.5 550.5 1143.5 512.5 1126.5 505.5"/>
    <polygon id="f-5.6" class="cls-14" points="1167.5 523.5 1171.5 560.5 1185.5 565.5 1183 529.86 1167.5 523.5"/>
    <polygon id="f-5.7" class="cls-14" points="1205.5 539.5 1208.08 576.3 1220.5 581.5 1218.5 545.83 1205.5 539.5"/>
    <polygon id="f-5.8" class="cls-14" points="1238.34 555.5 1241.9 588.5 1252.7 592.17 1250.5 561.5 1238.34 555.5"/>
    <polygon id="f-6.1" class="cls-14" points="1077.5 443.5 1076.5 420.5 1095.5 430.5 1096.5 453.5 1077.5 443.5"/>
    <polygon id="f-6.2" class="cls-14" points="1121.47 464.34 1120.5 441.91 1139.03 451.66 1140 474.09 1121.47 464.34"/>
    <polygon id="f-6.3" class="cls-14" points="1162.42 484.01 1161.5 462.74 1179.08 471.99 1180 493.26 1162.42 484.01"/>
    <polygon id="f-6.4" class="cls-14" points="1199.38 501.69 1198.5 481.56 1215.13 490.31 1216 510.44 1199.38 501.69"/>
    <polygon id="f-6.5" class="cls-14" points="1232.33 517.25 1231.5 498 1247.17 506.37 1248 525.61 1232.33 517.25"/>
    <polyline id="c-3" class="cls-3" points="1256.5 619.5 1504.38 383.4 1669.88 383.4"/>
    <g id="t-1.3">
      <path class="cls-4" d="M1507.74,360.11h5.82c4.8,0,8.13,3.35,8.13,8.59s-3.25,8.9-8.16,8.9h-5.79Zm1.4,16.2h4.19c4.6,0,6.86-3.23,6.86-7.53,0-3.83-2-7.38-6.86-7.38h-4.19Z"/>
      <path class="cls-4" d="M1542.76,368.73c0,4.77-2.55,9.12-8,9.12-4.93,0-7.81-4-7.81-9s2.79-9,8-9C1539.78,359.86,1542.76,363.63,1542.76,368.73Zm-14.26,0c0,4,2.2,7.78,6.38,7.78,4.5,0,6.38-3.68,6.38-7.81s-2.13-7.6-6.33-7.6C1530.46,361.15,1528.5,364.84,1528.5,368.78Z"/>
      <path class="cls-4" d="M1564.22,369.58c0-3.41,0-6.68.1-8.44h-.07c-.71,2.38-4.22,10.94-6.43,16.46h-1.36c-1.67-4.29-5.3-13.82-6.1-16.48h0c.12,2,.17,6.06.17,9.06v7.42h-1.39V360.11h2.1c2.38,6,5.37,13.76,6,15.75h0c.41-1.29,3.87-10,6.3-15.75h2.07V377.6h-1.4Z"/>
      <path class="cls-4" d="M1588.4,369.58c0-3.41,0-6.68.1-8.44h-.08c-.7,2.38-4.21,10.94-6.42,16.46h-1.37c-1.66-4.29-5.3-13.82-6.1-16.48h0c.13,2,.18,6.06.18,9.06v7.42h-1.4V360.11h2.11c2.37,6,5.36,13.76,6,15.75h0c.4-1.29,3.86-10,6.29-15.75h2.07V377.6h-1.39Z"/>
      <path class="cls-4" d="M1599,371.59l-2.21,6h-1.42l6.41-17.49h1.67l6.68,17.49h-1.53l-2.25-6Zm6.89-1.28c-1.93-5.17-2.93-7.66-3.28-8.85h0c-.43,1.34-1.55,4.43-3.11,8.85Z"/>
      <path class="cls-4" d="M1629,377.6h-1.16a12.93,12.93,0,0,1-.17-2.78c-.64,1.2-2,3-5.64,3-5,0-7.6-3.82-7.6-8.8,0-5.22,2.75-9.14,7.88-9.14,3.79,0,6.29,2,6.84,5.2h-1.4c-.74-2.44-2.45-3.92-5.49-3.92-4.35,0-6.33,3.39-6.33,7.79,0,4,1.91,7.58,6.16,7.58s5.56-2.83,5.56-6.66v-.19H1622v-1.29h7Z"/>
      <path class="cls-4" d="M1646.32,369h-8.91v7.28h9.76l-.2,1.29h-11V360.11h10.76v1.29h-9.36v6.34h8.91Z"/>
      <path class="cls-4" d="M1653.44,372.89c.52,2.31,2.06,3.67,4.92,3.67,3.17,0,4.39-1.58,4.39-3.46s-.87-3.18-4.7-4.12-5.31-2.14-5.31-4.66c0-2.31,1.68-4.46,5.44-4.46s5.49,2.35,5.72,4.48h-1.45c-.4-1.85-1.61-3.2-4.35-3.2-2.5,0-3.86,1.16-3.86,3.1s1.14,2.65,4.35,3.45c4.93,1.22,5.66,3.19,5.66,5.3,0,2.59-1.88,4.81-6,4.81-4.37,0-6-2.54-6.31-4.91Z"/>
      <path class="cls-4" d="M1507.74,390.11h10.63v1.29h-9.23v6.54h8.65v1.29h-8.65v8.37h-1.4Z"/>
      <path class="cls-4" d="M1534.27,399h-8.91v7.28h9.76l-.2,1.29h-11V390.11h10.76v1.29h-9.36v6.34h8.91Z"/>
      <path class="cls-4" d="M1541.06,407.6V390.11h2.06c2.71,4.19,9.06,13.9,10.15,15.8h0c-.15-2.51-.13-5.09-.13-7.94v-7.86h1.42V407.6h-1.91c-2.58-4-9-14.16-10.27-16.09h0c.13,2.28.1,4.86.1,8v8.06Z"/>
      <path class="cls-4" d="M1572.52,399h-8.91v7.28h9.76l-.2,1.29h-11V390.11H1573v1.29h-9.36v6.34h8.91Zm-4.12-13.94,3.3,3.18H1570l-2.38-2.29-2.6,2.29h-1.62l3.47-3.18Z"/>
      <path class="cls-4" d="M1583.71,391.4h-5.86v-1.29H1591v1.29h-5.88v16.2h-1.43Z"/>
      <path class="cls-4" d="M1597.54,399.45v8.15h-1.43V390.11h6.31c3.45,0,5.28,1.85,5.28,4.6a4,4,0,0,1-3.26,4.1c1.78.42,3,1.59,3,4.57v.67a11.81,11.81,0,0,0,.23,3.55h-1.42a11.53,11.53,0,0,1-.26-3.66v-.44c0-2.85-.84-4.05-4.17-4.05Zm0-1.28h4.2c3,0,4.46-1.15,4.46-3.43s-1.39-3.34-4.09-3.34h-4.57Z"/>
      <path class="cls-4" d="M1624.77,399h-8.91v7.28h9.76l-.2,1.29h-11V390.11h10.76v1.29h-9.36v6.34h8.91Z"/>
      <path class="cls-4" d="M1631.89,402.89c.52,2.31,2.07,3.67,4.92,3.67,3.17,0,4.39-1.58,4.39-3.46s-.87-3.18-4.7-4.12-5.31-2.14-5.31-4.66c0-2.31,1.68-4.46,5.44-4.46s5.49,2.35,5.72,4.48h-1.45c-.4-1.85-1.61-3.2-4.35-3.2-2.5,0-3.86,1.16-3.86,3.1s1.14,2.65,4.35,3.45c4.93,1.22,5.66,3.19,5.66,5.3,0,2.59-1.88,4.81-6,4.81-4.37,0-6-2.54-6.31-4.91Z"/>
    </g>
    <rect id="r-1.3" class="cls-5" x="1513.14" y="445.76" width="32.71" height="32.71"/>
    <g id="s-1.3">
      <path class="cls-4" d="M1568.75,456.67h1.12v6.09h8.34v-6.09h1.12v14h-1.12v-6.88h-8.34v6.88h-1.12Z"/>
      <path class="cls-4" d="M1586.75,465.87l-1.76,4.8h-1.14l5.13-14h1.33l5.35,14h-1.22l-1.81-4.8Zm5.52-1c-1.55-4.13-2.35-6.13-2.63-7.07h0c-.34,1.06-1.23,3.54-2.48,7.07Z"/>
      <path class="cls-4" d="M1600.62,456.67v8.48c0,3.7,2.09,4.65,4.06,4.65,2.32,0,4-1,4-4.65v-8.48h1.14v8.42c0,4.38-2.33,5.74-5.23,5.74s-5.18-1.49-5.18-5.57v-8.59Z"/>
      <path class="cls-4" d="M1618.7,457.7H1614v-1h10.54v1h-4.71v13h-1.14Z"/>
    </g>
    <rect id="r-2.3" class="cls-6" x="1513.14" y="485.76" width="32.71" height="32.71"/>
    <g id="s-2.3">
      <path class="cls-4" d="M1580.86,504.25c0-2.73,0-5.35.08-6.76h-.06c-.57,1.91-3.38,8.76-5.15,13.18h-1.09c-1.33-3.43-4.24-11.06-4.88-13.2h0c.1,1.61.14,4.86.14,7.26v5.94h-1.11v-14h1.68c1.9,4.77,4.29,11,4.81,12.61h0c.32-1,3.09-8,5-12.61H1582v14h-1.11Z"/>
      <path class="cls-4" d="M1599.67,503.57c0,3.82-2.05,7.3-6.37,7.3-4,0-6.25-3.18-6.25-7.2s2.23-7.2,6.39-7.2C1597.28,496.47,1599.67,499.48,1599.67,503.57Zm-11.42,0c0,3.21,1.77,6.22,5.11,6.22,3.6,0,5.11-2.94,5.11-6.24s-1.71-6.09-5.07-6.09C1589.82,497.5,1588.25,500.46,1588.25,503.61Z"/>
      <path class="cls-4" d="M1607.7,510.67v-5.26a.68.68,0,0,0-.08-.32l-5-8.42h1.3c1.4,2.37,3.81,6.48,4.42,7.53.6-1.05,3-5.12,4.53-7.53h1.24l-5.21,8.5a.6.6,0,0,0-.07.3v5.2Z"/>
      <path class="cls-4" d="M1626.29,503.8h-7.12v5.83h7.8l-.16,1H1618v-14h8.61v1h-7.48v5.07h7.12Z"/>
      <path class="cls-4" d="M1631.72,510.67v-14h1.65c2.17,3.35,7.25,11.13,8.13,12.64h0c-.13-2-.11-4.07-.11-6.35v-6.29h1.14v14H1641l-8.23-12.88h0c.1,1.83.08,3.89.08,6.42v6.46Z"/>
    </g>
    <rect id="r-3.3" class="cls-7" x="1513.14" y="525.75" width="32.71" height="32.71"/>
    <g id="s-3.3">
      <path class="cls-4" d="M1568.75,536.66h4.9c2.7,0,4.13,1.43,4.13,3.44a3,3,0,0,1-2.15,3.06,3.53,3.53,0,0,1,2.65,3.46c0,2.79-2.09,4-4.55,4h-5Zm4.54,6c2.4,0,3.31-.89,3.31-2.5,0-1.37-.95-2.48-2.9-2.48h-3.85v5Zm-3.44,7h3.91c1.84,0,3.36-.91,3.36-3,0-1.76-1.13-3-3.93-3h-3.34Z"/>
      <path class="cls-4" d="M1584.85,545.85l-1.77,4.81H1582l5.13-14h1.33l5.35,14h-1.22l-1.81-4.81Zm5.52-1c-1.55-4.13-2.35-6.13-2.63-7.07h0c-.34,1.06-1.23,3.54-2.48,7.07Z"/>
      <path class="cls-4" d="M1598.47,546.89c.41,1.85,1.65,2.94,3.93,2.94,2.54,0,3.52-1.26,3.52-2.77s-.7-2.54-3.77-3.3-4.25-1.71-4.25-3.73c0-1.85,1.35-3.57,4.36-3.57s4.4,1.88,4.58,3.59h-1.16c-.32-1.49-1.29-2.56-3.48-2.56-2,0-3.1.93-3.1,2.48s.92,2.12,3.49,2.76c3.94,1,4.53,2.55,4.53,4.24,0,2.07-1.51,3.85-4.76,3.85-3.5,0-4.79-2-5.06-3.93Z"/>
    </g>
    <rect id="b-3" class="cls-8" x="1505.94" y="435.09" width="165.1" height="132.73"/>
    <rect id="r-4.3" class="cls-5" x="1510.52" y="443.95" width="37.7" height="37.7"/>
    <g id="s-4.3">
      <path class="cls-4" d="M1568.75,456.67h1.12v6.09h8.34v-6.09h1.12v14h-1.12v-6.88h-8.34v6.88h-1.12Z"/>
      <path class="cls-4" d="M1586.75,465.87l-1.76,4.8h-1.14l5.13-14h1.33l5.35,14h-1.22l-1.81-4.8Zm5.52-1c-1.55-4.13-2.35-6.13-2.63-7.07h0c-.34,1.06-1.23,3.54-2.48,7.07Z"/>
      <path class="cls-4" d="M1600.62,456.67v8.48c0,3.7,2.09,4.65,4.06,4.65,2.32,0,4-1,4-4.65v-8.48h1.14v8.42c0,4.38-2.33,5.74-5.23,5.74s-5.18-1.49-5.18-5.57v-8.59Z"/>
      <path class="cls-4" d="M1618.7,457.7H1614v-1h10.54v1h-4.71v13h-1.14Z"/>
    </g>
    <rect id="r-5.3" class="cls-13" x="1513.17" y="485.77" width="32.71" height="32.71"/>
    <g id="s-5.3">
      <path class="cls-10" d="M1580.88,504.27c0-2.74,0-5.36.08-6.76h-.06c-.56,1.9-3.37,8.75-5.14,13.17h-1.09c-1.34-3.43-4.24-11.06-4.88-13.19h0c.1,1.6.14,4.85.14,7.25v5.94h-1.12v-14h1.68c1.9,4.78,4.3,11,4.82,12.61h0c.33-1,3.1-8,5-12.61H1582v14h-1.12Z"/>
      <path class="cls-10" d="M1599.69,503.58c0,3.82-2,7.3-6.37,7.3-4,0-6.25-3.18-6.25-7.2s2.23-7.2,6.39-7.2C1597.31,496.48,1599.69,499.5,1599.69,503.58Zm-11.42,0c0,3.21,1.77,6.23,5.11,6.23,3.6,0,5.11-3,5.11-6.25s-1.71-6.09-5.07-6.09C1589.84,497.51,1588.27,500.47,1588.27,503.62Z"/>
      <path class="cls-10" d="M1607.73,510.68v-5.25a.76.76,0,0,0-.08-.33l-5-8.42H1604c1.39,2.37,3.81,6.49,4.41,7.54.6-1.05,3-5.13,4.53-7.54h1.24l-5.21,8.5a.61.61,0,0,0-.06.3v5.2Z"/>
      <path class="cls-10" d="M1626.32,503.82h-7.13v5.83H1627l-.17,1h-8.76v-14h8.61v1h-7.49v5.08h7.13Z"/>
      <path class="cls-10" d="M1631.75,510.68v-14h1.65c2.17,3.36,7.24,11.13,8.12,12.65h0c-.12-2-.1-4.08-.1-6.36v-6.29h1.13v14h-1.52c-2.07-3.23-7.23-11.33-8.23-12.88h0c.1,1.83.08,3.89.08,6.43v6.45Z"/>
    </g>
    <rect id="r-6.3" class="cls-12" x="1513.17" y="525.69" width="32.64" height="33"/>
    <g id="s-6.3">
      <path class="cls-10" d="M1568.77,536.67h4.91c2.69,0,4.13,1.42,4.13,3.44a3,3,0,0,1-2.15,3.06,3.53,3.53,0,0,1,2.64,3.45c0,2.79-2.09,4-4.54,4h-5Zm4.55,6c2.39,0,3.31-.9,3.31-2.5,0-1.38-1-2.48-2.9-2.48h-3.86v5Zm-3.45,7h3.91c1.84,0,3.36-.92,3.36-3,0-1.77-1.13-3-3.92-3h-3.35Z"/>
      <path class="cls-10" d="M1584.88,545.86l-1.77,4.81H1582l5.13-14h1.33l5.36,14h-1.23l-1.8-4.81Zm5.51-1c-1.55-4.13-2.34-6.13-2.62-7.08h0c-.34,1.07-1.24,3.54-2.49,7.08Z"/>
      <path class="cls-10" d="M1598.49,546.9c.42,1.85,1.65,2.94,3.94,2.94,2.54,0,3.51-1.27,3.51-2.78s-.7-2.54-3.76-3.29-4.25-1.71-4.25-3.73c0-1.85,1.35-3.57,4.35-3.57s4.4,1.88,4.58,3.59h-1.16c-.32-1.49-1.28-2.57-3.48-2.57-2,0-3.09.93-3.09,2.48s.91,2.13,3.48,2.76c4,1,4.53,2.56,4.53,4.25,0,2.07-1.51,3.85-4.76,3.85-3.5,0-4.79-2-5.05-3.93Z"/>
    </g>
  </g>
</svg>
